%TF.GenerationSoftware,KiCad,Pcbnew,6.0.9-8da3e8f707~117~ubuntu22.04.1*%
%TF.CreationDate,2022-11-25T15:55:34-05:00*%
%TF.ProjectId,can-crusher,63616e2d-6372-4757-9368-65722e6b6963,2*%
%TF.SameCoordinates,Original*%
%TF.FileFunction,Legend,Bot*%
%TF.FilePolarity,Positive*%
%FSLAX46Y46*%
G04 Gerber Fmt 4.6, Leading zero omitted, Abs format (unit mm)*
G04 Created by KiCad (PCBNEW 6.0.9-8da3e8f707~117~ubuntu22.04.1) date 2022-11-25 15:55:34*
%MOMM*%
%LPD*%
G01*
G04 APERTURE LIST*
%ADD10C,0.150000*%
%ADD11C,0.300000*%
G04 APERTURE END LIST*
D10*
X112482380Y-100887202D02*
X113196666Y-100887202D01*
X113339523Y-100839583D01*
X113434761Y-100744345D01*
X113482380Y-100601488D01*
X113482380Y-100506250D01*
X113482380Y-101839583D02*
X113482380Y-101363392D01*
X112482380Y-101363392D01*
X113387142Y-102744345D02*
X113434761Y-102696726D01*
X113482380Y-102553869D01*
X113482380Y-102458630D01*
X113434761Y-102315773D01*
X113339523Y-102220535D01*
X113244285Y-102172916D01*
X113053809Y-102125297D01*
X112910952Y-102125297D01*
X112720476Y-102172916D01*
X112625238Y-102220535D01*
X112530000Y-102315773D01*
X112482380Y-102458630D01*
X112482380Y-102553869D01*
X112530000Y-102696726D01*
X112577619Y-102744345D01*
X112482380Y-103458630D02*
X113196666Y-103458630D01*
X113339523Y-103411011D01*
X113434761Y-103315773D01*
X113482380Y-103172916D01*
X113482380Y-103077678D01*
X113482380Y-104411011D02*
X113482380Y-103934821D01*
X112482380Y-103934821D01*
X113387142Y-105315773D02*
X113434761Y-105268154D01*
X113482380Y-105125297D01*
X113482380Y-105030059D01*
X113434761Y-104887202D01*
X113339523Y-104791964D01*
X113244285Y-104744345D01*
X113053809Y-104696726D01*
X112910952Y-104696726D01*
X112720476Y-104744345D01*
X112625238Y-104791964D01*
X112530000Y-104887202D01*
X112482380Y-105030059D01*
X112482380Y-105125297D01*
X112530000Y-105268154D01*
X112577619Y-105315773D01*
X112482380Y-106030059D02*
X113196666Y-106030059D01*
X113339523Y-105982440D01*
X113434761Y-105887202D01*
X113482380Y-105744345D01*
X113482380Y-105649107D01*
X113482380Y-106982440D02*
X113482380Y-106506250D01*
X112482380Y-106506250D01*
X113387142Y-107887202D02*
X113434761Y-107839583D01*
X113482380Y-107696726D01*
X113482380Y-107601488D01*
X113434761Y-107458630D01*
X113339523Y-107363392D01*
X113244285Y-107315773D01*
X113053809Y-107268154D01*
X112910952Y-107268154D01*
X112720476Y-107315773D01*
X112625238Y-107363392D01*
X112530000Y-107458630D01*
X112482380Y-107601488D01*
X112482380Y-107696726D01*
X112530000Y-107839583D01*
X112577619Y-107887202D01*
X112482380Y-108601488D02*
X113196666Y-108601488D01*
X113339523Y-108553869D01*
X113434761Y-108458630D01*
X113482380Y-108315773D01*
X113482380Y-108220535D01*
X113482380Y-109553869D02*
X113482380Y-109077678D01*
X112482380Y-109077678D01*
X113387142Y-110458630D02*
X113434761Y-110411011D01*
X113482380Y-110268154D01*
X113482380Y-110172916D01*
X113434761Y-110030059D01*
X113339523Y-109934821D01*
X113244285Y-109887202D01*
X113053809Y-109839583D01*
X112910952Y-109839583D01*
X112720476Y-109887202D01*
X112625238Y-109934821D01*
X112530000Y-110030059D01*
X112482380Y-110172916D01*
X112482380Y-110268154D01*
X112530000Y-110411011D01*
X112577619Y-110458630D01*
X192603380Y-56723619D02*
X191603380Y-56723619D01*
X192603380Y-57152190D02*
X192079571Y-57152190D01*
X191984333Y-57104571D01*
X191936714Y-57009333D01*
X191936714Y-56866476D01*
X191984333Y-56771238D01*
X192031952Y-56723619D01*
X191936714Y-57485523D02*
X191936714Y-57866476D01*
X191603380Y-57628380D02*
X192460523Y-57628380D01*
X192555761Y-57676000D01*
X192603380Y-57771238D01*
X192603380Y-57866476D01*
X191936714Y-58056952D02*
X191936714Y-58437904D01*
X191603380Y-58199809D02*
X192460523Y-58199809D01*
X192555761Y-58247428D01*
X192603380Y-58342666D01*
X192603380Y-58437904D01*
X191936714Y-58771238D02*
X192936714Y-58771238D01*
X191984333Y-58771238D02*
X191936714Y-58866476D01*
X191936714Y-59056952D01*
X191984333Y-59152190D01*
X192031952Y-59199809D01*
X192127190Y-59247428D01*
X192412904Y-59247428D01*
X192508142Y-59199809D01*
X192555761Y-59152190D01*
X192603380Y-59056952D01*
X192603380Y-58866476D01*
X192555761Y-58771238D01*
X192555761Y-59628380D02*
X192603380Y-59723619D01*
X192603380Y-59914095D01*
X192555761Y-60009333D01*
X192460523Y-60056952D01*
X192412904Y-60056952D01*
X192317666Y-60009333D01*
X192270047Y-59914095D01*
X192270047Y-59771238D01*
X192222428Y-59676000D01*
X192127190Y-59628380D01*
X192079571Y-59628380D01*
X191984333Y-59676000D01*
X191936714Y-59771238D01*
X191936714Y-59914095D01*
X191984333Y-60009333D01*
X192508142Y-60485523D02*
X192555761Y-60533142D01*
X192603380Y-60485523D01*
X192555761Y-60437904D01*
X192508142Y-60485523D01*
X192603380Y-60485523D01*
X191984333Y-60485523D02*
X192031952Y-60533142D01*
X192079571Y-60485523D01*
X192031952Y-60437904D01*
X191984333Y-60485523D01*
X192079571Y-60485523D01*
X191555761Y-61676000D02*
X192841476Y-60818857D01*
X191555761Y-62723619D02*
X192841476Y-61866476D01*
X191936714Y-63485523D02*
X192746238Y-63485523D01*
X192841476Y-63437904D01*
X192889095Y-63390285D01*
X192936714Y-63295047D01*
X192936714Y-63152190D01*
X192889095Y-63056952D01*
X192555761Y-63485523D02*
X192603380Y-63390285D01*
X192603380Y-63199809D01*
X192555761Y-63104571D01*
X192508142Y-63056952D01*
X192412904Y-63009333D01*
X192127190Y-63009333D01*
X192031952Y-63056952D01*
X191984333Y-63104571D01*
X191936714Y-63199809D01*
X191936714Y-63390285D01*
X191984333Y-63485523D01*
X192603380Y-63961714D02*
X191936714Y-63961714D01*
X191603380Y-63961714D02*
X191651000Y-63914095D01*
X191698619Y-63961714D01*
X191651000Y-64009333D01*
X191603380Y-63961714D01*
X191698619Y-63961714D01*
X191936714Y-64295047D02*
X191936714Y-64676000D01*
X191603380Y-64437904D02*
X192460523Y-64437904D01*
X192555761Y-64485523D01*
X192603380Y-64580761D01*
X192603380Y-64676000D01*
X192603380Y-65009333D02*
X191603380Y-65009333D01*
X192603380Y-65437904D02*
X192079571Y-65437904D01*
X191984333Y-65390285D01*
X191936714Y-65295047D01*
X191936714Y-65152190D01*
X191984333Y-65056952D01*
X192031952Y-65009333D01*
X191936714Y-66342666D02*
X192603380Y-66342666D01*
X191936714Y-65914095D02*
X192460523Y-65914095D01*
X192555761Y-65961714D01*
X192603380Y-66056952D01*
X192603380Y-66199809D01*
X192555761Y-66295047D01*
X192508142Y-66342666D01*
X192603380Y-66818857D02*
X191603380Y-66818857D01*
X191984333Y-66818857D02*
X191936714Y-66914095D01*
X191936714Y-67104571D01*
X191984333Y-67199809D01*
X192031952Y-67247428D01*
X192127190Y-67295047D01*
X192412904Y-67295047D01*
X192508142Y-67247428D01*
X192555761Y-67199809D01*
X192603380Y-67104571D01*
X192603380Y-66914095D01*
X192555761Y-66818857D01*
X192508142Y-67723619D02*
X192555761Y-67771238D01*
X192603380Y-67723619D01*
X192555761Y-67676000D01*
X192508142Y-67723619D01*
X192603380Y-67723619D01*
X192555761Y-68628380D02*
X192603380Y-68533142D01*
X192603380Y-68342666D01*
X192555761Y-68247428D01*
X192508142Y-68199809D01*
X192412904Y-68152190D01*
X192127190Y-68152190D01*
X192031952Y-68199809D01*
X191984333Y-68247428D01*
X191936714Y-68342666D01*
X191936714Y-68533142D01*
X191984333Y-68628380D01*
X192603380Y-69199809D02*
X192555761Y-69104571D01*
X192508142Y-69056952D01*
X192412904Y-69009333D01*
X192127190Y-69009333D01*
X192031952Y-69056952D01*
X191984333Y-69104571D01*
X191936714Y-69199809D01*
X191936714Y-69342666D01*
X191984333Y-69437904D01*
X192031952Y-69485523D01*
X192127190Y-69533142D01*
X192412904Y-69533142D01*
X192508142Y-69485523D01*
X192555761Y-69437904D01*
X192603380Y-69342666D01*
X192603380Y-69199809D01*
X192603380Y-69961714D02*
X191936714Y-69961714D01*
X192031952Y-69961714D02*
X191984333Y-70009333D01*
X191936714Y-70104571D01*
X191936714Y-70247428D01*
X191984333Y-70342666D01*
X192079571Y-70390285D01*
X192603380Y-70390285D01*
X192079571Y-70390285D02*
X191984333Y-70437904D01*
X191936714Y-70533142D01*
X191936714Y-70676000D01*
X191984333Y-70771238D01*
X192079571Y-70818857D01*
X192603380Y-70818857D01*
X191555761Y-72009333D02*
X192841476Y-71152190D01*
X191936714Y-72771238D02*
X192746238Y-72771238D01*
X192841476Y-72723619D01*
X192889095Y-72676000D01*
X192936714Y-72580761D01*
X192936714Y-72437904D01*
X192889095Y-72342666D01*
X192555761Y-72771238D02*
X192603380Y-72676000D01*
X192603380Y-72485523D01*
X192555761Y-72390285D01*
X192508142Y-72342666D01*
X192412904Y-72295047D01*
X192127190Y-72295047D01*
X192031952Y-72342666D01*
X191984333Y-72390285D01*
X191936714Y-72485523D01*
X191936714Y-72676000D01*
X191984333Y-72771238D01*
X192603380Y-73247428D02*
X191936714Y-73247428D01*
X192127190Y-73247428D02*
X192031952Y-73295047D01*
X191984333Y-73342666D01*
X191936714Y-73437904D01*
X191936714Y-73533142D01*
X192603380Y-74295047D02*
X192079571Y-74295047D01*
X191984333Y-74247428D01*
X191936714Y-74152190D01*
X191936714Y-73961714D01*
X191984333Y-73866476D01*
X192555761Y-74295047D02*
X192603380Y-74199809D01*
X192603380Y-73961714D01*
X192555761Y-73866476D01*
X192460523Y-73818857D01*
X192365285Y-73818857D01*
X192270047Y-73866476D01*
X192222428Y-73961714D01*
X192222428Y-74199809D01*
X192174809Y-74295047D01*
X191936714Y-74771238D02*
X192603380Y-74771238D01*
X192031952Y-74771238D02*
X191984333Y-74818857D01*
X191936714Y-74914095D01*
X191936714Y-75056952D01*
X191984333Y-75152190D01*
X192079571Y-75199809D01*
X192603380Y-75199809D01*
X191936714Y-75533142D02*
X191936714Y-75914095D01*
X191603380Y-75676000D02*
X192460523Y-75676000D01*
X192555761Y-75723619D01*
X192603380Y-75818857D01*
X192603380Y-75914095D01*
X192222428Y-76247428D02*
X192222428Y-77009333D01*
X192603380Y-77628380D02*
X192555761Y-77533142D01*
X192508142Y-77485523D01*
X192412904Y-77437904D01*
X192127190Y-77437904D01*
X192031952Y-77485523D01*
X191984333Y-77533142D01*
X191936714Y-77628380D01*
X191936714Y-77771238D01*
X191984333Y-77866476D01*
X192031952Y-77914095D01*
X192127190Y-77961714D01*
X192412904Y-77961714D01*
X192508142Y-77914095D01*
X192555761Y-77866476D01*
X192603380Y-77771238D01*
X192603380Y-77628380D01*
X192603380Y-78533142D02*
X192555761Y-78437904D01*
X192460523Y-78390285D01*
X191603380Y-78390285D01*
X192555761Y-78866476D02*
X192603380Y-78961714D01*
X192603380Y-79152190D01*
X192555761Y-79247428D01*
X192460523Y-79295047D01*
X192412904Y-79295047D01*
X192317666Y-79247428D01*
X192270047Y-79152190D01*
X192270047Y-79009333D01*
X192222428Y-78914095D01*
X192127190Y-78866476D01*
X192079571Y-78866476D01*
X191984333Y-78914095D01*
X191936714Y-79009333D01*
X191936714Y-79152190D01*
X191984333Y-79247428D01*
X192603380Y-79866476D02*
X192555761Y-79771238D01*
X192508142Y-79723619D01*
X192412904Y-79676000D01*
X192127190Y-79676000D01*
X192031952Y-79723619D01*
X191984333Y-79771238D01*
X191936714Y-79866476D01*
X191936714Y-80009333D01*
X191984333Y-80104571D01*
X192031952Y-80152190D01*
X192127190Y-80199809D01*
X192412904Y-80199809D01*
X192508142Y-80152190D01*
X192555761Y-80104571D01*
X192603380Y-80009333D01*
X192603380Y-79866476D01*
X191936714Y-80628380D02*
X192603380Y-80628380D01*
X192031952Y-80628380D02*
X191984333Y-80676000D01*
X191936714Y-80771238D01*
X191936714Y-80914095D01*
X191984333Y-81009333D01*
X192079571Y-81056952D01*
X192603380Y-81056952D01*
X191555761Y-82247428D02*
X192841476Y-81390285D01*
X192555761Y-83009333D02*
X192603380Y-82914095D01*
X192603380Y-82723619D01*
X192555761Y-82628380D01*
X192508142Y-82580761D01*
X192412904Y-82533142D01*
X192127190Y-82533142D01*
X192031952Y-82580761D01*
X191984333Y-82628380D01*
X191936714Y-82723619D01*
X191936714Y-82914095D01*
X191984333Y-83009333D01*
X192603380Y-83866476D02*
X192079571Y-83866476D01*
X191984333Y-83818857D01*
X191936714Y-83723619D01*
X191936714Y-83533142D01*
X191984333Y-83437904D01*
X192555761Y-83866476D02*
X192603380Y-83771238D01*
X192603380Y-83533142D01*
X192555761Y-83437904D01*
X192460523Y-83390285D01*
X192365285Y-83390285D01*
X192270047Y-83437904D01*
X192222428Y-83533142D01*
X192222428Y-83771238D01*
X192174809Y-83866476D01*
X191936714Y-84342666D02*
X192603380Y-84342666D01*
X192031952Y-84342666D02*
X191984333Y-84390285D01*
X191936714Y-84485523D01*
X191936714Y-84628380D01*
X191984333Y-84723619D01*
X192079571Y-84771238D01*
X192603380Y-84771238D01*
X192222428Y-85247428D02*
X192222428Y-86009333D01*
X192555761Y-86914095D02*
X192603380Y-86818857D01*
X192603380Y-86628380D01*
X192555761Y-86533142D01*
X192508142Y-86485523D01*
X192412904Y-86437904D01*
X192127190Y-86437904D01*
X192031952Y-86485523D01*
X191984333Y-86533142D01*
X191936714Y-86628380D01*
X191936714Y-86818857D01*
X191984333Y-86914095D01*
X192603380Y-87342666D02*
X191936714Y-87342666D01*
X192127190Y-87342666D02*
X192031952Y-87390285D01*
X191984333Y-87437904D01*
X191936714Y-87533142D01*
X191936714Y-87628380D01*
X191936714Y-88390285D02*
X192603380Y-88390285D01*
X191936714Y-87961714D02*
X192460523Y-87961714D01*
X192555761Y-88009333D01*
X192603380Y-88104571D01*
X192603380Y-88247428D01*
X192555761Y-88342666D01*
X192508142Y-88390285D01*
X192555761Y-88818857D02*
X192603380Y-88914095D01*
X192603380Y-89104571D01*
X192555761Y-89199809D01*
X192460523Y-89247428D01*
X192412904Y-89247428D01*
X192317666Y-89199809D01*
X192270047Y-89104571D01*
X192270047Y-88961714D01*
X192222428Y-88866476D01*
X192127190Y-88818857D01*
X192079571Y-88818857D01*
X191984333Y-88866476D01*
X191936714Y-88961714D01*
X191936714Y-89104571D01*
X191984333Y-89199809D01*
X192603380Y-89676000D02*
X191603380Y-89676000D01*
X192603380Y-90104571D02*
X192079571Y-90104571D01*
X191984333Y-90056952D01*
X191936714Y-89961714D01*
X191936714Y-89818857D01*
X191984333Y-89723619D01*
X192031952Y-89676000D01*
X192555761Y-90961714D02*
X192603380Y-90866476D01*
X192603380Y-90676000D01*
X192555761Y-90580761D01*
X192460523Y-90533142D01*
X192079571Y-90533142D01*
X191984333Y-90580761D01*
X191936714Y-90676000D01*
X191936714Y-90866476D01*
X191984333Y-90961714D01*
X192079571Y-91009333D01*
X192174809Y-91009333D01*
X192270047Y-90533142D01*
X192603380Y-91437904D02*
X191936714Y-91437904D01*
X192127190Y-91437904D02*
X192031952Y-91485523D01*
X191984333Y-91533142D01*
X191936714Y-91628380D01*
X191936714Y-91723619D01*
X191555761Y-92771238D02*
X192841476Y-91914095D01*
D11*
X183086285Y-55977619D02*
X183181523Y-55882380D01*
X183276761Y-55596666D01*
X183276761Y-55406190D01*
X183181523Y-55120476D01*
X182991047Y-54930000D01*
X182800571Y-54834761D01*
X182419619Y-54739523D01*
X182133904Y-54739523D01*
X181752952Y-54834761D01*
X181562476Y-54930000D01*
X181372000Y-55120476D01*
X181276761Y-55406190D01*
X181276761Y-55596666D01*
X181372000Y-55882380D01*
X181467238Y-55977619D01*
X183276761Y-57691904D02*
X182229142Y-57691904D01*
X182038666Y-57596666D01*
X181943428Y-57406190D01*
X181943428Y-57025238D01*
X182038666Y-56834761D01*
X183181523Y-57691904D02*
X183276761Y-57501428D01*
X183276761Y-57025238D01*
X183181523Y-56834761D01*
X182991047Y-56739523D01*
X182800571Y-56739523D01*
X182610095Y-56834761D01*
X182514857Y-57025238D01*
X182514857Y-57501428D01*
X182419619Y-57691904D01*
X181943428Y-58644285D02*
X183276761Y-58644285D01*
X182133904Y-58644285D02*
X182038666Y-58739523D01*
X181943428Y-58930000D01*
X181943428Y-59215714D01*
X182038666Y-59406190D01*
X182229142Y-59501428D01*
X183276761Y-59501428D01*
X183086285Y-63120476D02*
X183181523Y-63025238D01*
X183276761Y-62739523D01*
X183276761Y-62549047D01*
X183181523Y-62263333D01*
X182991047Y-62072857D01*
X182800571Y-61977619D01*
X182419619Y-61882380D01*
X182133904Y-61882380D01*
X181752952Y-61977619D01*
X181562476Y-62072857D01*
X181372000Y-62263333D01*
X181276761Y-62549047D01*
X181276761Y-62739523D01*
X181372000Y-63025238D01*
X181467238Y-63120476D01*
X183276761Y-63977619D02*
X181943428Y-63977619D01*
X182324380Y-63977619D02*
X182133904Y-64072857D01*
X182038666Y-64168095D01*
X181943428Y-64358571D01*
X181943428Y-64549047D01*
X181943428Y-66072857D02*
X183276761Y-66072857D01*
X181943428Y-65215714D02*
X182991047Y-65215714D01*
X183181523Y-65310952D01*
X183276761Y-65501428D01*
X183276761Y-65787142D01*
X183181523Y-65977619D01*
X183086285Y-66072857D01*
X183181523Y-66929999D02*
X183276761Y-67120476D01*
X183276761Y-67501428D01*
X183181523Y-67691904D01*
X182991047Y-67787142D01*
X182895809Y-67787142D01*
X182705333Y-67691904D01*
X182610095Y-67501428D01*
X182610095Y-67215714D01*
X182514857Y-67025238D01*
X182324380Y-66929999D01*
X182229142Y-66929999D01*
X182038666Y-67025238D01*
X181943428Y-67215714D01*
X181943428Y-67501428D01*
X182038666Y-67691904D01*
X183276761Y-68644285D02*
X181276761Y-68644285D01*
X183276761Y-69501428D02*
X182229142Y-69501428D01*
X182038666Y-69406190D01*
X181943428Y-69215714D01*
X181943428Y-68929999D01*
X182038666Y-68739523D01*
X182133904Y-68644285D01*
X183181523Y-71215714D02*
X183276761Y-71025238D01*
X183276761Y-70644285D01*
X183181523Y-70453809D01*
X182991047Y-70358571D01*
X182229142Y-70358571D01*
X182038666Y-70453809D01*
X181943428Y-70644285D01*
X181943428Y-71025238D01*
X182038666Y-71215714D01*
X182229142Y-71310952D01*
X182419619Y-71310952D01*
X182610095Y-70358571D01*
X183276761Y-72168095D02*
X181943428Y-72168095D01*
X182324380Y-72168095D02*
X182133904Y-72263333D01*
X182038666Y-72358571D01*
X181943428Y-72549047D01*
X181943428Y-72739523D01*
X183086285Y-76072857D02*
X183181523Y-75977619D01*
X183276761Y-75691904D01*
X183276761Y-75501428D01*
X183181523Y-75215714D01*
X182991047Y-75025238D01*
X182800571Y-74929999D01*
X182419619Y-74834761D01*
X182133904Y-74834761D01*
X181752952Y-74929999D01*
X181562476Y-75025238D01*
X181372000Y-75215714D01*
X181276761Y-75501428D01*
X181276761Y-75691904D01*
X181372000Y-75977619D01*
X181467238Y-76072857D01*
X183276761Y-77215714D02*
X183181523Y-77025238D01*
X183086285Y-76929999D01*
X182895809Y-76834761D01*
X182324380Y-76834761D01*
X182133904Y-76929999D01*
X182038666Y-77025238D01*
X181943428Y-77215714D01*
X181943428Y-77501428D01*
X182038666Y-77691904D01*
X182133904Y-77787142D01*
X182324380Y-77882380D01*
X182895809Y-77882380D01*
X183086285Y-77787142D01*
X183181523Y-77691904D01*
X183276761Y-77501428D01*
X183276761Y-77215714D01*
X181943428Y-78739523D02*
X183276761Y-78739523D01*
X182133904Y-78739523D02*
X182038666Y-78834761D01*
X181943428Y-79025238D01*
X181943428Y-79310952D01*
X182038666Y-79501428D01*
X182229142Y-79596666D01*
X183276761Y-79596666D01*
X181943428Y-80263333D02*
X181943428Y-81025238D01*
X181276761Y-80549047D02*
X182991047Y-80549047D01*
X183181523Y-80644285D01*
X183276761Y-80834761D01*
X183276761Y-81025238D01*
X183276761Y-81691904D02*
X181943428Y-81691904D01*
X182324380Y-81691904D02*
X182133904Y-81787142D01*
X182038666Y-81882380D01*
X181943428Y-82072857D01*
X181943428Y-82263333D01*
X183276761Y-83215714D02*
X183181523Y-83025238D01*
X183086285Y-82929999D01*
X182895809Y-82834761D01*
X182324380Y-82834761D01*
X182133904Y-82929999D01*
X182038666Y-83025238D01*
X181943428Y-83215714D01*
X181943428Y-83501428D01*
X182038666Y-83691904D01*
X182133904Y-83787142D01*
X182324380Y-83882380D01*
X182895809Y-83882380D01*
X183086285Y-83787142D01*
X183181523Y-83691904D01*
X183276761Y-83501428D01*
X183276761Y-83215714D01*
X183276761Y-85025238D02*
X183181523Y-84834761D01*
X182991047Y-84739523D01*
X181276761Y-84739523D01*
X182229142Y-87977619D02*
X182324380Y-88263333D01*
X182419619Y-88358571D01*
X182610095Y-88453809D01*
X182895809Y-88453809D01*
X183086285Y-88358571D01*
X183181523Y-88263333D01*
X183276761Y-88072857D01*
X183276761Y-87310952D01*
X181276761Y-87310952D01*
X181276761Y-87977619D01*
X181372000Y-88168095D01*
X181467238Y-88263333D01*
X181657714Y-88358571D01*
X181848190Y-88358571D01*
X182038666Y-88263333D01*
X182133904Y-88168095D01*
X182229142Y-87977619D01*
X182229142Y-87310952D01*
X183276761Y-89596666D02*
X183181523Y-89406190D01*
X183086285Y-89310952D01*
X182895809Y-89215714D01*
X182324380Y-89215714D01*
X182133904Y-89310952D01*
X182038666Y-89406190D01*
X181943428Y-89596666D01*
X181943428Y-89882380D01*
X182038666Y-90072857D01*
X182133904Y-90168095D01*
X182324380Y-90263333D01*
X182895809Y-90263333D01*
X183086285Y-90168095D01*
X183181523Y-90072857D01*
X183276761Y-89882380D01*
X183276761Y-89596666D01*
X183276761Y-91977619D02*
X182229142Y-91977619D01*
X182038666Y-91882380D01*
X181943428Y-91691904D01*
X181943428Y-91310952D01*
X182038666Y-91120476D01*
X183181523Y-91977619D02*
X183276761Y-91787142D01*
X183276761Y-91310952D01*
X183181523Y-91120476D01*
X182991047Y-91025238D01*
X182800571Y-91025238D01*
X182610095Y-91120476D01*
X182514857Y-91310952D01*
X182514857Y-91787142D01*
X182419619Y-91977619D01*
X183276761Y-92929999D02*
X181943428Y-92929999D01*
X182324380Y-92929999D02*
X182133904Y-93025238D01*
X182038666Y-93120476D01*
X181943428Y-93310952D01*
X181943428Y-93501428D01*
X183276761Y-95025238D02*
X181276761Y-95025238D01*
X183181523Y-95025238D02*
X183276761Y-94834761D01*
X183276761Y-94453809D01*
X183181523Y-94263333D01*
X183086285Y-94168095D01*
X182895809Y-94072857D01*
X182324380Y-94072857D01*
X182133904Y-94168095D01*
X182038666Y-94263333D01*
X181943428Y-94453809D01*
X181943428Y-94834761D01*
X182038666Y-95025238D01*
X186674238Y-58120476D02*
X186579000Y-58215714D01*
X186483761Y-58406190D01*
X186483761Y-58882380D01*
X186579000Y-59072857D01*
X186674238Y-59168095D01*
X186864714Y-59263333D01*
X187055190Y-59263333D01*
X187340904Y-59168095D01*
X188483761Y-58025238D01*
X188483761Y-59263333D01*
X186483761Y-60501428D02*
X186483761Y-60691904D01*
X186579000Y-60882380D01*
X186674238Y-60977619D01*
X186864714Y-61072857D01*
X187245666Y-61168095D01*
X187721857Y-61168095D01*
X188102809Y-61072857D01*
X188293285Y-60977619D01*
X188388523Y-60882380D01*
X188483761Y-60691904D01*
X188483761Y-60501428D01*
X188388523Y-60310952D01*
X188293285Y-60215714D01*
X188102809Y-60120476D01*
X187721857Y-60025238D01*
X187245666Y-60025238D01*
X186864714Y-60120476D01*
X186674238Y-60215714D01*
X186579000Y-60310952D01*
X186483761Y-60501428D01*
X186674238Y-61929999D02*
X186579000Y-62025238D01*
X186483761Y-62215714D01*
X186483761Y-62691904D01*
X186579000Y-62882380D01*
X186674238Y-62977619D01*
X186864714Y-63072857D01*
X187055190Y-63072857D01*
X187340904Y-62977619D01*
X188483761Y-61834761D01*
X188483761Y-63072857D01*
X186674238Y-63834761D02*
X186579000Y-63929999D01*
X186483761Y-64120476D01*
X186483761Y-64596666D01*
X186579000Y-64787142D01*
X186674238Y-64882380D01*
X186864714Y-64977619D01*
X187055190Y-64977619D01*
X187340904Y-64882380D01*
X188483761Y-63739523D01*
X188483761Y-64977619D01*
X187721857Y-65834761D02*
X187721857Y-67358571D01*
X188483761Y-69358571D02*
X188483761Y-68215714D01*
X188483761Y-68787142D02*
X186483761Y-68787142D01*
X186769476Y-68596666D01*
X186959952Y-68406190D01*
X187055190Y-68215714D01*
X188483761Y-71263333D02*
X188483761Y-70120476D01*
X188483761Y-70691904D02*
X186483761Y-70691904D01*
X186769476Y-70501428D01*
X186959952Y-70310952D01*
X187055190Y-70120476D01*
X187721857Y-72120476D02*
X187721857Y-73644285D01*
X186674238Y-74501428D02*
X186579000Y-74596666D01*
X186483761Y-74787142D01*
X186483761Y-75263333D01*
X186579000Y-75453809D01*
X186674238Y-75549047D01*
X186864714Y-75644285D01*
X187055190Y-75644285D01*
X187340904Y-75549047D01*
X188483761Y-74406190D01*
X188483761Y-75644285D01*
X186483761Y-77453809D02*
X186483761Y-76501428D01*
X187436142Y-76406190D01*
X187340904Y-76501428D01*
X187245666Y-76691904D01*
X187245666Y-77168095D01*
X187340904Y-77358571D01*
X187436142Y-77453809D01*
X187626619Y-77549047D01*
X188102809Y-77549047D01*
X188293285Y-77453809D01*
X188388523Y-77358571D01*
X188483761Y-77168095D01*
X188483761Y-76691904D01*
X188388523Y-76501428D01*
X188293285Y-76406190D01*
X187721857Y-79929999D02*
X187721857Y-81453809D01*
X188483761Y-85072857D02*
X187531380Y-84406190D01*
X188483761Y-83929999D02*
X186483761Y-83929999D01*
X186483761Y-84691904D01*
X186579000Y-84882380D01*
X186674238Y-84977619D01*
X186864714Y-85072857D01*
X187150428Y-85072857D01*
X187340904Y-84977619D01*
X187436142Y-84882380D01*
X187531380Y-84691904D01*
X187531380Y-83929999D01*
X188388523Y-86691904D02*
X188483761Y-86501428D01*
X188483761Y-86120476D01*
X188388523Y-85929999D01*
X188198047Y-85834761D01*
X187436142Y-85834761D01*
X187245666Y-85929999D01*
X187150428Y-86120476D01*
X187150428Y-86501428D01*
X187245666Y-86691904D01*
X187436142Y-86787142D01*
X187626619Y-86787142D01*
X187817095Y-85834761D01*
X187150428Y-87453809D02*
X188483761Y-87929999D01*
X187150428Y-88406190D01*
X186674238Y-90596666D02*
X186579000Y-90691904D01*
X186483761Y-90882380D01*
X186483761Y-91358571D01*
X186579000Y-91549047D01*
X186674238Y-91644285D01*
X186864714Y-91739523D01*
X187055190Y-91739523D01*
X187340904Y-91644285D01*
X188483761Y-90501428D01*
X188483761Y-91739523D01*
M02*
