M48
; DRILL file {KiCad 6.0.9-8da3e8f707~117~ubuntu22.04.1} date Fri 25 Nov 2022 03:55:39 PM EST
; FORMAT={-:-/ absolute / inch / decimal}
; #@! TF.CreationDate,2022-11-25T15:55:39-05:00
; #@! TF.GenerationSoftware,Kicad,Pcbnew,6.0.9-8da3e8f707~117~ubuntu22.04.1
; #@! TF.FileFunction,Plated,1,2,PTH
FMAT,2
INCH
; #@! TA.AperFunction,Plated,PTH,ViaDrill
T1C0.0157
; #@! TA.AperFunction,Plated,PTH,ComponentDrill
T2C0.0300
; #@! TA.AperFunction,Plated,PTH,ComponentDrill
T3C0.0315
; #@! TA.AperFunction,Plated,PTH,ComponentDrill
T4C0.0374
; #@! TA.AperFunction,Plated,PTH,ComponentDrill
T5C0.0394
; #@! TA.AperFunction,Plated,PTH,ComponentDrill
T6C0.0402
; #@! TA.AperFunction,Plated,PTH,ComponentDrill
T7C0.0433
; #@! TA.AperFunction,Plated,PTH,ComponentDrill
T8C0.0512
; #@! TA.AperFunction,Plated,PTH,ComponentDrill
T9C0.0728
; #@! TA.AperFunction,Plated,PTH,ComponentDrill
T10C0.1020
%
G90
G05
T1
X3.865Y-4.145
X3.9Y-5.87
X3.93Y-4.725
X3.93Y-5.435
X4.02Y-3.32
X4.385Y-4.56
X4.535Y-2.23
X4.655Y-4.1
X4.66Y-2.955
X4.76Y-3.845
X4.89Y-2.58
X4.915Y-3.84
X4.945Y-4.985
X5.0Y-4.485
X5.005Y-3.86
X5.025Y-5.19
X5.105Y-2.58
X5.165Y-5.86
X5.2Y-3.95
X5.21Y-2.58
X5.305Y-2.585
X5.515Y-2.51
X5.63Y-3.675
X5.68Y-4.095
X5.695Y-5.095
X5.715Y-4.41
X5.8Y-2.78
X5.825Y-2.26
X5.84Y-3.5
X5.975Y-4.445
X5.98Y-3.58
X6.035Y-2.52
X6.28Y-2.525
X6.285Y-2.7
X6.39Y-2.56
X6.49Y-2.585
X6.49Y-5.505
X6.535Y-4.995
X6.54Y-4.88
X6.545Y-3.92
X6.55Y-5.665
X6.555Y-4.79
X6.595Y-4.54
X6.7Y-3.865
X6.865Y-2.28
X6.97Y-3.705
X7.03Y-4.285
X7.205Y-5.18
X7.235Y-5.435
X7.265Y-2.515
X7.42Y-5.875
X7.595Y-3.88
T2
X4.8568Y-2.8602
X4.8568Y-3.1602
X4.8568Y-3.2602
X4.8568Y-3.3602
X4.9568Y-2.8602
X4.9568Y-3.3602
X5.0568Y-2.8602
X5.0568Y-3.3602
X5.1568Y-2.8602
X5.1568Y-3.3602
X5.2568Y-2.8602
X5.2568Y-3.3602
X5.3568Y-2.8602
X5.3568Y-3.3602
X5.4568Y-2.8602
X5.4568Y-3.3602
X5.5568Y-2.8602
X5.5568Y-3.3602
X6.0379Y-2.8602
X6.0379Y-3.1602
X6.0379Y-3.2602
X6.0379Y-3.3602
X6.1379Y-2.8602
X6.1379Y-3.3602
X6.2379Y-2.8602
X6.2379Y-3.3602
X6.3379Y-2.8602
X6.3379Y-3.3602
X6.4379Y-2.8602
X6.4379Y-3.3602
X6.5379Y-2.8602
X6.5379Y-3.3602
X6.6379Y-2.8602
X6.6379Y-3.3602
X6.7379Y-2.8602
X6.7379Y-3.3602
T3
X4.675Y-5.1181
X4.675Y-5.2166
X5.065Y-3.0684
X5.065Y-3.1669
X6.245Y-3.0534
X6.245Y-3.1519
T4
X5.0524Y-2.3307
X5.1508Y-2.3307
X5.2492Y-2.3307
X5.3476Y-2.3307
X6.2402Y-2.3207
X6.3386Y-2.3207
X6.437Y-2.3207
X6.5354Y-2.3207
T5
X6.6Y-5.8
X6.7Y-5.8
X6.8Y-5.8
X6.9Y-5.8
X7.0Y-5.8
X7.1Y-5.8
X7.6Y-5.7
X7.6Y-5.8
X7.605Y-4.52
X7.605Y-4.62
X7.605Y-4.72
X7.605Y-4.82
X7.605Y-4.92
X7.605Y-5.02
X7.605Y-5.12
X7.605Y-5.22
X7.605Y-5.32
T6
X5.45Y-3.95
X5.45Y-4.05
X5.45Y-4.15
X5.45Y-4.25
X5.45Y-4.35
X5.45Y-4.45
X5.45Y-4.55
X5.45Y-4.65
X5.45Y-4.75
X5.45Y-4.85
X5.45Y-4.95
X5.45Y-5.05
X5.45Y-5.15
X5.45Y-5.25
X5.45Y-5.35
X5.45Y-5.45
X5.45Y-5.55
X5.45Y-5.65
X5.45Y-5.75
X5.45Y-5.85
X5.7Y-3.9591
X5.8Y-3.9591
X5.9Y-3.9591
X6.15Y-3.95
X6.15Y-4.05
X6.15Y-4.15
X6.15Y-4.25
X6.15Y-4.35
X6.15Y-4.45
X6.15Y-4.55
X6.15Y-4.65
X6.15Y-4.75
X6.15Y-4.85
X6.15Y-4.95
X6.15Y-5.05
X6.15Y-5.15
X6.15Y-5.25
X6.15Y-5.35
X6.15Y-5.45
X6.15Y-5.55
X6.15Y-5.65
X6.15Y-5.75
X6.15Y-5.85
T7
X4.15Y-4.3
X4.25Y-4.3
X4.35Y-4.3
X7.1691Y-3.835
X7.1691Y-4.0122
X7.425Y-3.835
X7.425Y-4.0122
T8
X4.0081Y-5.105
X4.205Y-5.105
T9
X4.4841Y-3.0533
X4.4841Y-3.3289
T10
X3.9792Y-2.7296
X4.1792Y-2.7296
X4.3391Y-2.7296
X4.5391Y-2.7296
T5
G00X3.8728Y-2.2539
M15
G01X3.8728Y-2.1949
M16
G05
G00X4.0756Y-2.2638
M15
G01X4.0244Y-2.2638
M16
G05
G00X4.0894Y-2.5
M15
G01X4.0106Y-2.5
M16
G05
G00X4.2272Y-2.2539
M15
G01X4.2272Y-2.1949
M16
G05
T0
M30
