%TF.GenerationSoftware,KiCad,Pcbnew,6.0.9-8da3e8f707~116~ubuntu22.04.1*%
%TF.CreationDate,2022-11-17T13:26:58-05:00*%
%TF.ProjectId,can-crusher-pi-hat,63616e2d-6372-4757-9368-65722d70692d,rev?*%
%TF.SameCoordinates,Original*%
%TF.FileFunction,Copper,L2,Bot*%
%TF.FilePolarity,Positive*%
%FSLAX46Y46*%
G04 Gerber Fmt 4.6, Leading zero omitted, Abs format (unit mm)*
G04 Created by KiCad (PCBNEW 6.0.9-8da3e8f707~116~ubuntu22.04.1) date 2022-11-17 13:26:58*
%MOMM*%
%LPD*%
G01*
G04 APERTURE LIST*
%TA.AperFunction,ComponentPad*%
%ADD10R,1.700000X1.700000*%
%TD*%
%TA.AperFunction,ComponentPad*%
%ADD11O,1.700000X1.700000*%
%TD*%
%TA.AperFunction,ComponentPad*%
%ADD12R,1.560000X1.560000*%
%TD*%
%TA.AperFunction,ComponentPad*%
%ADD13C,1.560000*%
%TD*%
%TA.AperFunction,ComponentPad*%
%ADD14R,1.600000X1.600000*%
%TD*%
%TA.AperFunction,ComponentPad*%
%ADD15C,1.600000*%
%TD*%
%TA.AperFunction,ViaPad*%
%ADD16C,0.800000*%
%TD*%
%TA.AperFunction,Conductor*%
%ADD17C,0.250000*%
%TD*%
G04 APERTURE END LIST*
D10*
%TO.P,J3,1,+5V_IN*%
%TO.N,+5V*%
X130175000Y-56896000D03*
D11*
%TO.P,J3,2,GND*%
%TO.N,GND*%
X132715000Y-56896000D03*
%TO.P,J3,3,TX*%
%TO.N,Net-(J1-Pad8)*%
X135255000Y-56896000D03*
%TO.P,J3,4,RX*%
%TO.N,Net-(J1-Pad10)*%
X137795000Y-56896000D03*
%TD*%
D12*
%TO.P,RV1,1,1*%
%TO.N,+3V3*%
X148590000Y-59309000D03*
D13*
%TO.P,RV1,2,2*%
%TO.N,Net-(J2-Pad7)*%
X146090000Y-54309000D03*
%TO.P,RV1,3,3*%
%TO.N,GND*%
X143590000Y-59309000D03*
%TD*%
D14*
%TO.P,C1,1*%
%TO.N,+5V*%
X123991380Y-56896000D03*
D15*
%TO.P,C1,2*%
%TO.N,GND*%
X121491380Y-56896000D03*
%TD*%
D10*
%TO.P,J2,1,Touch_IRQ*%
%TO.N,Net-(J1-Pad37)*%
X111404000Y-57668000D03*
D11*
%TO.P,J2,2,TOUCH_MISO*%
%TO.N,Net-(J1-Pad21)*%
X111404000Y-60208000D03*
%TO.P,J2,3,Touch_MOSI*%
%TO.N,Net-(J1-Pad19)*%
X111404000Y-62748000D03*
%TO.P,J2,4,Touch_CS*%
%TO.N,Net-(J1-Pad24)*%
X111404000Y-65288000D03*
%TO.P,J2,5,Touch_CLK*%
%TO.N,Net-(J1-Pad23)*%
X111404000Y-67828000D03*
%TO.P,J2,6,LCD_MISO*%
%TO.N,Net-(J1-Pad35)*%
X111404000Y-70368000D03*
%TO.P,J2,7,LCD_BKLIGHT*%
%TO.N,Net-(J2-Pad7)*%
X111404000Y-72908000D03*
%TO.P,J2,8,LCD_CLK*%
%TO.N,Net-(J1-Pad40)*%
X111404000Y-75448000D03*
%TO.P,J2,9,LCD_MOSI*%
%TO.N,Net-(J1-Pad38)*%
X111404000Y-77988000D03*
%TO.P,J2,10,LCD_DC*%
%TO.N,Net-(J1-Pad31)*%
X111404000Y-80528000D03*
%TO.P,J2,11,LCD_RESET*%
%TO.N,Net-(J1-Pad29)*%
X111404000Y-83068000D03*
%TO.P,J2,12,LCD_CS*%
%TO.N,Net-(J1-Pad12)*%
X111404000Y-85608000D03*
%TO.P,J2,13,GND*%
%TO.N,GND*%
X111404000Y-88148000D03*
%TO.P,J2,14,3V3_VCC*%
%TO.N,+3V3*%
X111404000Y-90688000D03*
%TD*%
D10*
%TO.P,J1,1,3V3*%
%TO.N,+3V3*%
X124243000Y-68374000D03*
D11*
%TO.P,J1,2,5V*%
%TO.N,+5V*%
X124243000Y-65834000D03*
%TO.P,J1,3,SDA/GPIO2*%
%TO.N,unconnected-(J1-Pad3)*%
X126783000Y-68374000D03*
%TO.P,J1,4,5V*%
%TO.N,+5V*%
X126783000Y-65834000D03*
%TO.P,J1,5,SCL/GPIO3*%
%TO.N,unconnected-(J1-Pad5)*%
X129323000Y-68374000D03*
%TO.P,J1,6,GND*%
%TO.N,GND*%
X129323000Y-65834000D03*
%TO.P,J1,7,GCLK0/GPIO4*%
%TO.N,unconnected-(J1-Pad7)*%
X131863000Y-68374000D03*
%TO.P,J1,8,GPIO14/TXD*%
%TO.N,Net-(J1-Pad8)*%
X131863000Y-65834000D03*
%TO.P,J1,9,GND*%
%TO.N,GND*%
X134403000Y-68374000D03*
%TO.P,J1,10,GPIO15/RXD*%
%TO.N,Net-(J1-Pad10)*%
X134403000Y-65834000D03*
%TO.P,J1,11,GPIO17*%
%TO.N,unconnected-(J1-Pad11)*%
X136943000Y-68374000D03*
%TO.P,J1,12,GPIO18/PWM0*%
%TO.N,Net-(J1-Pad12)*%
X136943000Y-65834000D03*
%TO.P,J1,13,GPIO27*%
%TO.N,unconnected-(J1-Pad13)*%
X139483000Y-68374000D03*
%TO.P,J1,14,GND*%
%TO.N,GND*%
X139483000Y-65834000D03*
%TO.P,J1,15,GPIO22*%
%TO.N,unconnected-(J1-Pad15)*%
X142023000Y-68374000D03*
%TO.P,J1,16,GPIO23*%
%TO.N,unconnected-(J1-Pad16)*%
X142023000Y-65834000D03*
%TO.P,J1,17,3V3*%
%TO.N,+3V3*%
X144563000Y-68374000D03*
%TO.P,J1,18,GPIO24*%
%TO.N,unconnected-(J1-Pad18)*%
X144563000Y-65834000D03*
%TO.P,J1,19,MOSI0/GPIO10*%
%TO.N,Net-(J1-Pad19)*%
X147103000Y-68374000D03*
%TO.P,J1,20,GND*%
%TO.N,GND*%
X147103000Y-65834000D03*
%TO.P,J1,21,MISO0/GPIO9*%
%TO.N,Net-(J1-Pad21)*%
X149643000Y-68374000D03*
%TO.P,J1,22,GPIO25*%
%TO.N,unconnected-(J1-Pad22)*%
X149643000Y-65834000D03*
%TO.P,J1,23,SCLK0/GPIO11*%
%TO.N,Net-(J1-Pad23)*%
X152183000Y-68374000D03*
%TO.P,J1,24,~{CE0}/GPIO8*%
%TO.N,Net-(J1-Pad24)*%
X152183000Y-65834000D03*
%TO.P,J1,25,GND*%
%TO.N,GND*%
X154723000Y-68374000D03*
%TO.P,J1,26,~{CE1}/GPIO7*%
%TO.N,unconnected-(J1-Pad26)*%
X154723000Y-65834000D03*
%TO.P,J1,27,ID_SD/GPIO0*%
%TO.N,unconnected-(J1-Pad27)*%
X157263000Y-68374000D03*
%TO.P,J1,28,ID_SC/GPIO1*%
%TO.N,unconnected-(J1-Pad28)*%
X157263000Y-65834000D03*
%TO.P,J1,29,GCLK1/GPIO5*%
%TO.N,Net-(J1-Pad29)*%
X159803000Y-68374000D03*
%TO.P,J1,30,GND*%
%TO.N,GND*%
X159803000Y-65834000D03*
%TO.P,J1,31,GCLK2/GPIO6*%
%TO.N,Net-(J1-Pad31)*%
X162343000Y-68374000D03*
%TO.P,J1,32,PWM0/GPIO12*%
%TO.N,unconnected-(J1-Pad32)*%
X162343000Y-65834000D03*
%TO.P,J1,33,PWM1/GPIO13*%
%TO.N,unconnected-(J1-Pad33)*%
X164883000Y-68374000D03*
%TO.P,J1,34,GND*%
%TO.N,GND*%
X164883000Y-65834000D03*
%TO.P,J1,35,GPIO19/MISO1*%
%TO.N,Net-(J1-Pad35)*%
X167423000Y-68374000D03*
%TO.P,J1,36,GPIO16*%
%TO.N,unconnected-(J1-Pad36)*%
X167423000Y-65834000D03*
%TO.P,J1,37,GPIO26*%
%TO.N,Net-(J1-Pad37)*%
X169963000Y-68374000D03*
%TO.P,J1,38,GPIO20/MOSI1*%
%TO.N,Net-(J1-Pad38)*%
X169963000Y-65834000D03*
%TO.P,J1,39,GND*%
%TO.N,GND*%
X172503000Y-68374000D03*
%TO.P,J1,40,GPIO21/SCLK1*%
%TO.N,Net-(J1-Pad40)*%
X172503000Y-65834000D03*
%TD*%
D16*
%TO.N,GND*%
X157226000Y-74422000D03*
X184277000Y-55245000D03*
X118618000Y-71247000D03*
X181991000Y-94615000D03*
X179578000Y-58547000D03*
X185166000Y-66548000D03*
X177546000Y-78105000D03*
X159893000Y-85598000D03*
X136779000Y-89535000D03*
X143256000Y-55753000D03*
X118364000Y-75311000D03*
X113919000Y-54356000D03*
X114808000Y-60452000D03*
X139827000Y-60833000D03*
X166624000Y-70866000D03*
X126746000Y-89662000D03*
X136525000Y-80645000D03*
X128905000Y-61214000D03*
X158623000Y-93345000D03*
X118364000Y-79375000D03*
X122428000Y-70739000D03*
X142748000Y-71501000D03*
X128270000Y-72009000D03*
X184277000Y-81280000D03*
X151003000Y-73279000D03*
X146050000Y-72898000D03*
X113792000Y-84328000D03*
X169799000Y-81915000D03*
X137287000Y-71374000D03*
X151003000Y-60706000D03*
X156464000Y-58674000D03*
X113665000Y-87376000D03*
X165989000Y-89789000D03*
%TO.N,Net-(J1-Pad12)*%
X120142000Y-81788000D03*
%TO.N,Net-(J1-Pad40)*%
X161036000Y-75057000D03*
%TD*%
D17*
%TO.N,Net-(J1-Pad12)*%
X122840701Y-81788000D02*
X135768000Y-68860701D01*
X120142000Y-81788000D02*
X122840701Y-81788000D01*
X135768000Y-68860701D02*
X135768000Y-67009000D01*
X135768000Y-67009000D02*
X136943000Y-65834000D01*
%TO.N,Net-(J1-Pad21)*%
X143388000Y-68966000D02*
X144907000Y-70485000D01*
X144907000Y-70485000D02*
X149098000Y-70485000D01*
X149643000Y-69940000D02*
X149643000Y-68374000D01*
X115077000Y-63881000D02*
X141731701Y-63881000D01*
X149098000Y-70485000D02*
X149643000Y-69940000D01*
X111404000Y-60208000D02*
X115077000Y-63881000D01*
X141731701Y-63881000D02*
X143388000Y-65537299D01*
X143388000Y-65537299D02*
X143388000Y-68966000D01*
%TO.N,Net-(J1-Pad29)*%
X163703000Y-74549000D02*
X152273000Y-85979000D01*
X160978000Y-67199000D02*
X162830000Y-67199000D01*
X163703000Y-68072000D02*
X163703000Y-74549000D01*
X118491000Y-85979000D02*
X115580000Y-83068000D01*
X162830000Y-67199000D02*
X163703000Y-68072000D01*
X115580000Y-83068000D02*
X111404000Y-83068000D01*
X152273000Y-85979000D02*
X118491000Y-85979000D01*
X159803000Y-68374000D02*
X160978000Y-67199000D01*
%TO.N,Net-(J1-Pad31)*%
X118872000Y-85217000D02*
X152273000Y-85217000D01*
X152273000Y-85217000D02*
X162343000Y-75147000D01*
X114183000Y-80528000D02*
X118872000Y-85217000D01*
X111404000Y-80528000D02*
X114183000Y-80528000D01*
X162343000Y-75147000D02*
X162343000Y-68374000D01*
%TO.N,Net-(J1-Pad35)*%
X145510000Y-82513000D02*
X119724000Y-82513000D01*
X158628000Y-65347299D02*
X158628000Y-69395000D01*
X162829701Y-64659000D02*
X159316299Y-64659000D01*
X158628000Y-69395000D02*
X145510000Y-82513000D01*
X112664000Y-71628000D02*
X111404000Y-70368000D01*
X164396299Y-67199000D02*
X163518000Y-66320701D01*
X166248000Y-67199000D02*
X164396299Y-67199000D01*
X159316299Y-64659000D02*
X158628000Y-65347299D01*
X119724000Y-82513000D02*
X113411000Y-76200000D01*
X163518000Y-65347299D02*
X162829701Y-64659000D01*
X167423000Y-68374000D02*
X166248000Y-67199000D01*
X163518000Y-66320701D02*
X163518000Y-65347299D01*
X113411000Y-76200000D02*
X113411000Y-71628000D01*
X113411000Y-71628000D02*
X112664000Y-71628000D01*
%TO.N,Net-(J1-Pad37)*%
X146177000Y-58166000D02*
X147320000Y-57023000D01*
X168788000Y-67199000D02*
X169963000Y-68374000D01*
X111404000Y-57668000D02*
X113030000Y-59294000D01*
X146177000Y-62484000D02*
X146177000Y-58166000D01*
X147320000Y-57023000D02*
X150622000Y-57023000D01*
X152781000Y-61722000D02*
X153797000Y-62738000D01*
X115824000Y-63373000D02*
X145288000Y-63373000D01*
X152781000Y-59182000D02*
X152781000Y-61722000D01*
X113030000Y-59294000D02*
X113030000Y-60579000D01*
X168788000Y-65156000D02*
X168788000Y-67199000D01*
X153797000Y-62738000D02*
X166370000Y-62738000D01*
X150622000Y-57023000D02*
X152781000Y-59182000D01*
X166370000Y-62738000D02*
X168788000Y-65156000D01*
X113030000Y-60579000D02*
X115824000Y-63373000D01*
X145288000Y-63373000D02*
X146177000Y-62484000D01*
%TO.N,Net-(J1-Pad40)*%
X152146000Y-83947000D02*
X161036000Y-75057000D01*
X119507000Y-83947000D02*
X152146000Y-83947000D01*
X111404000Y-75448000D02*
X119507000Y-83551000D01*
X119507000Y-83551000D02*
X119507000Y-83947000D01*
%TO.N,Net-(J2-Pad7)*%
X111379000Y-52578000D02*
X144359000Y-52578000D01*
X144359000Y-52578000D02*
X146090000Y-54309000D01*
X109728000Y-54229000D02*
X111379000Y-52578000D01*
X111404000Y-72908000D02*
X109728000Y-71232000D01*
X109728000Y-71232000D02*
X109728000Y-54229000D01*
%TD*%
%TA.AperFunction,Conductor*%
%TO.N,GND*%
G36*
X186433621Y-52528502D02*
G01*
X186480114Y-52582158D01*
X186491500Y-52634500D01*
X186491500Y-96270500D01*
X186471498Y-96338621D01*
X186417842Y-96385114D01*
X186365500Y-96396500D01*
X109634500Y-96396500D01*
X109566379Y-96376498D01*
X109519886Y-96322842D01*
X109508500Y-96270500D01*
X109508500Y-90654695D01*
X110041251Y-90654695D01*
X110041548Y-90659848D01*
X110041548Y-90659851D01*
X110047011Y-90754590D01*
X110054110Y-90877715D01*
X110055247Y-90882761D01*
X110055248Y-90882767D01*
X110066698Y-90933573D01*
X110103222Y-91095639D01*
X110187266Y-91302616D01*
X110303987Y-91493088D01*
X110450250Y-91661938D01*
X110622126Y-91804632D01*
X110815000Y-91917338D01*
X111023692Y-91997030D01*
X111028760Y-91998061D01*
X111028763Y-91998062D01*
X111136017Y-92019883D01*
X111242597Y-92041567D01*
X111247772Y-92041757D01*
X111247774Y-92041757D01*
X111460673Y-92049564D01*
X111460677Y-92049564D01*
X111465837Y-92049753D01*
X111470957Y-92049097D01*
X111470959Y-92049097D01*
X111682288Y-92022025D01*
X111682289Y-92022025D01*
X111687416Y-92021368D01*
X111692366Y-92019883D01*
X111896429Y-91958661D01*
X111896434Y-91958659D01*
X111901384Y-91957174D01*
X112101994Y-91858896D01*
X112283860Y-91729173D01*
X112326704Y-91686479D01*
X112438435Y-91575137D01*
X112442096Y-91571489D01*
X112501594Y-91488689D01*
X112569435Y-91394277D01*
X112572453Y-91390077D01*
X112607445Y-91319277D01*
X112669136Y-91194453D01*
X112669137Y-91194451D01*
X112671430Y-91189811D01*
X112736370Y-90976069D01*
X112765529Y-90754590D01*
X112767156Y-90688000D01*
X112748852Y-90465361D01*
X112694431Y-90248702D01*
X112650143Y-90146846D01*
X117484948Y-90146846D01*
X117510909Y-90418949D01*
X117511994Y-90423383D01*
X117511995Y-90423389D01*
X117554690Y-90597868D01*
X117575878Y-90684455D01*
X117577590Y-90688681D01*
X117577591Y-90688685D01*
X117654156Y-90877715D01*
X117678493Y-90937801D01*
X117680797Y-90941736D01*
X117680799Y-90941740D01*
X117739915Y-91042701D01*
X117816606Y-91173680D01*
X117987323Y-91387151D01*
X118187068Y-91573742D01*
X118411656Y-91729544D01*
X118538501Y-91792648D01*
X118652296Y-91849261D01*
X118652299Y-91849262D01*
X118656383Y-91851294D01*
X118916121Y-91936440D01*
X118920612Y-91937220D01*
X118920613Y-91937220D01*
X119181650Y-91982544D01*
X119181658Y-91982545D01*
X119185431Y-91983200D01*
X119189268Y-91983391D01*
X119270233Y-91987422D01*
X119270241Y-91987422D01*
X119271804Y-91987500D01*
X119442434Y-91987500D01*
X119444702Y-91987335D01*
X119444714Y-91987335D01*
X119576273Y-91977789D01*
X119645622Y-91972757D01*
X119650077Y-91971773D01*
X119650080Y-91971773D01*
X119908073Y-91914814D01*
X119908077Y-91914813D01*
X119912533Y-91913829D01*
X120057526Y-91858896D01*
X120163872Y-91818605D01*
X120163875Y-91818604D01*
X120168142Y-91816987D01*
X120407094Y-91684261D01*
X120548507Y-91576338D01*
X120620751Y-91521203D01*
X120620752Y-91521202D01*
X120624383Y-91518431D01*
X120649158Y-91493088D01*
X120812264Y-91326238D01*
X120815458Y-91322971D01*
X120818147Y-91319277D01*
X120973629Y-91105667D01*
X120973632Y-91105661D01*
X120976315Y-91101976D01*
X120978437Y-91097943D01*
X120978440Y-91097938D01*
X121101460Y-90864115D01*
X121101460Y-90864114D01*
X121103586Y-90860074D01*
X121194603Y-90602334D01*
X121227051Y-90437707D01*
X121246580Y-90338627D01*
X121246581Y-90338621D01*
X121247461Y-90334155D01*
X121247688Y-90329599D01*
X121256786Y-90146846D01*
X175484948Y-90146846D01*
X175510909Y-90418949D01*
X175511994Y-90423383D01*
X175511995Y-90423389D01*
X175554690Y-90597868D01*
X175575878Y-90684455D01*
X175577590Y-90688681D01*
X175577591Y-90688685D01*
X175654156Y-90877715D01*
X175678493Y-90937801D01*
X175680797Y-90941736D01*
X175680799Y-90941740D01*
X175739915Y-91042701D01*
X175816606Y-91173680D01*
X175987323Y-91387151D01*
X176187068Y-91573742D01*
X176411656Y-91729544D01*
X176538501Y-91792648D01*
X176652296Y-91849261D01*
X176652299Y-91849262D01*
X176656383Y-91851294D01*
X176916121Y-91936440D01*
X176920612Y-91937220D01*
X176920613Y-91937220D01*
X177181650Y-91982544D01*
X177181658Y-91982545D01*
X177185431Y-91983200D01*
X177189268Y-91983391D01*
X177270233Y-91987422D01*
X177270241Y-91987422D01*
X177271804Y-91987500D01*
X177442434Y-91987500D01*
X177444702Y-91987335D01*
X177444714Y-91987335D01*
X177576273Y-91977789D01*
X177645622Y-91972757D01*
X177650077Y-91971773D01*
X177650080Y-91971773D01*
X177908073Y-91914814D01*
X177908077Y-91914813D01*
X177912533Y-91913829D01*
X178057526Y-91858896D01*
X178163872Y-91818605D01*
X178163875Y-91818604D01*
X178168142Y-91816987D01*
X178407094Y-91684261D01*
X178548507Y-91576338D01*
X178620751Y-91521203D01*
X178620752Y-91521202D01*
X178624383Y-91518431D01*
X178649158Y-91493088D01*
X178812264Y-91326238D01*
X178815458Y-91322971D01*
X178818147Y-91319277D01*
X178973629Y-91105667D01*
X178973632Y-91105661D01*
X178976315Y-91101976D01*
X178978437Y-91097943D01*
X178978440Y-91097938D01*
X179101460Y-90864115D01*
X179101460Y-90864114D01*
X179103586Y-90860074D01*
X179194603Y-90602334D01*
X179227051Y-90437707D01*
X179246580Y-90338627D01*
X179246581Y-90338621D01*
X179247461Y-90334155D01*
X179247688Y-90329599D01*
X179260825Y-90065723D01*
X179260825Y-90065717D01*
X179261052Y-90061154D01*
X179235091Y-89789051D01*
X179205626Y-89668635D01*
X179171207Y-89527979D01*
X179170122Y-89523545D01*
X179138162Y-89444638D01*
X179069220Y-89274427D01*
X179069217Y-89274421D01*
X179067507Y-89270199D01*
X178929394Y-89034320D01*
X178785205Y-88854020D01*
X178761529Y-88824415D01*
X178761528Y-88824413D01*
X178758677Y-88820849D01*
X178558932Y-88634258D01*
X178334344Y-88478456D01*
X178188256Y-88405778D01*
X178093704Y-88358739D01*
X178093701Y-88358738D01*
X178089617Y-88356706D01*
X177829879Y-88271560D01*
X177825387Y-88270780D01*
X177564350Y-88225456D01*
X177564342Y-88225455D01*
X177560569Y-88224800D01*
X177549238Y-88224236D01*
X177475767Y-88220578D01*
X177475759Y-88220578D01*
X177474196Y-88220500D01*
X177303566Y-88220500D01*
X177301298Y-88220665D01*
X177301286Y-88220665D01*
X177169727Y-88230211D01*
X177100378Y-88235243D01*
X177095923Y-88236227D01*
X177095920Y-88236227D01*
X176837927Y-88293186D01*
X176837923Y-88293187D01*
X176833467Y-88294171D01*
X176705663Y-88342592D01*
X176582128Y-88389395D01*
X176582125Y-88389396D01*
X176577858Y-88391013D01*
X176338906Y-88523739D01*
X176121617Y-88689569D01*
X175930542Y-88885029D01*
X175927855Y-88888721D01*
X175927853Y-88888723D01*
X175772371Y-89102333D01*
X175772368Y-89102339D01*
X175769685Y-89106024D01*
X175767563Y-89110057D01*
X175767560Y-89110062D01*
X175685080Y-89266831D01*
X175642414Y-89347926D01*
X175640896Y-89352225D01*
X175640895Y-89352227D01*
X175620616Y-89409654D01*
X175551397Y-89605666D01*
X175550517Y-89610132D01*
X175502002Y-89856277D01*
X175498539Y-89873845D01*
X175498312Y-89878398D01*
X175498312Y-89878401D01*
X175488987Y-90065723D01*
X175484948Y-90146846D01*
X121256786Y-90146846D01*
X121260825Y-90065723D01*
X121260825Y-90065717D01*
X121261052Y-90061154D01*
X121235091Y-89789051D01*
X121205626Y-89668635D01*
X121171207Y-89527979D01*
X121170122Y-89523545D01*
X121138162Y-89444638D01*
X121069220Y-89274427D01*
X121069217Y-89274421D01*
X121067507Y-89270199D01*
X120929394Y-89034320D01*
X120785205Y-88854020D01*
X120761529Y-88824415D01*
X120761528Y-88824413D01*
X120758677Y-88820849D01*
X120558932Y-88634258D01*
X120334344Y-88478456D01*
X120188256Y-88405778D01*
X120093704Y-88358739D01*
X120093701Y-88358738D01*
X120089617Y-88356706D01*
X119829879Y-88271560D01*
X119825387Y-88270780D01*
X119564350Y-88225456D01*
X119564342Y-88225455D01*
X119560569Y-88224800D01*
X119549238Y-88224236D01*
X119475767Y-88220578D01*
X119475759Y-88220578D01*
X119474196Y-88220500D01*
X119303566Y-88220500D01*
X119301298Y-88220665D01*
X119301286Y-88220665D01*
X119169727Y-88230211D01*
X119100378Y-88235243D01*
X119095923Y-88236227D01*
X119095920Y-88236227D01*
X118837927Y-88293186D01*
X118837923Y-88293187D01*
X118833467Y-88294171D01*
X118705663Y-88342592D01*
X118582128Y-88389395D01*
X118582125Y-88389396D01*
X118577858Y-88391013D01*
X118338906Y-88523739D01*
X118121617Y-88689569D01*
X117930542Y-88885029D01*
X117927855Y-88888721D01*
X117927853Y-88888723D01*
X117772371Y-89102333D01*
X117772368Y-89102339D01*
X117769685Y-89106024D01*
X117767563Y-89110057D01*
X117767560Y-89110062D01*
X117685080Y-89266831D01*
X117642414Y-89347926D01*
X117640896Y-89352225D01*
X117640895Y-89352227D01*
X117620616Y-89409654D01*
X117551397Y-89605666D01*
X117550517Y-89610132D01*
X117502002Y-89856277D01*
X117498539Y-89873845D01*
X117498312Y-89878398D01*
X117498312Y-89878401D01*
X117488987Y-90065723D01*
X117484948Y-90146846D01*
X112650143Y-90146846D01*
X112605354Y-90043840D01*
X112498327Y-89878401D01*
X112486822Y-89860617D01*
X112486820Y-89860614D01*
X112484014Y-89856277D01*
X112333670Y-89691051D01*
X112329619Y-89687852D01*
X112329615Y-89687848D01*
X112162414Y-89555800D01*
X112162410Y-89555798D01*
X112158359Y-89552598D01*
X112116569Y-89529529D01*
X112066598Y-89479097D01*
X112051826Y-89409654D01*
X112076942Y-89343248D01*
X112104294Y-89316641D01*
X112279328Y-89191792D01*
X112287200Y-89185139D01*
X112438052Y-89034812D01*
X112444730Y-89026965D01*
X112569003Y-88854020D01*
X112574313Y-88845183D01*
X112668670Y-88654267D01*
X112672469Y-88644672D01*
X112734377Y-88440910D01*
X112736555Y-88430837D01*
X112737986Y-88419962D01*
X112735775Y-88405778D01*
X112722617Y-88402000D01*
X110087225Y-88402000D01*
X110073694Y-88405973D01*
X110072257Y-88415966D01*
X110102565Y-88550446D01*
X110105645Y-88560275D01*
X110185770Y-88757603D01*
X110190413Y-88766794D01*
X110301694Y-88948388D01*
X110307777Y-88956699D01*
X110447213Y-89117667D01*
X110454580Y-89124883D01*
X110618434Y-89260916D01*
X110626881Y-89266831D01*
X110695969Y-89307203D01*
X110744693Y-89358842D01*
X110757764Y-89428625D01*
X110731033Y-89494396D01*
X110690584Y-89527752D01*
X110677607Y-89534507D01*
X110673474Y-89537610D01*
X110673471Y-89537612D01*
X110503100Y-89665530D01*
X110498965Y-89668635D01*
X110344629Y-89830138D01*
X110218743Y-90014680D01*
X110124688Y-90217305D01*
X110064989Y-90432570D01*
X110041251Y-90654695D01*
X109508500Y-90654695D01*
X109508500Y-72212594D01*
X109528502Y-72144473D01*
X109582158Y-72097980D01*
X109652432Y-72087876D01*
X109717012Y-72117370D01*
X109723595Y-72123499D01*
X110053778Y-72453682D01*
X110087804Y-72515994D01*
X110086100Y-72576448D01*
X110064989Y-72652570D01*
X110064441Y-72657700D01*
X110064440Y-72657704D01*
X110054654Y-72749281D01*
X110041251Y-72874695D01*
X110054110Y-73097715D01*
X110055247Y-73102761D01*
X110055248Y-73102767D01*
X110076275Y-73196069D01*
X110103222Y-73315639D01*
X110187266Y-73522616D01*
X110303987Y-73713088D01*
X110450250Y-73881938D01*
X110622126Y-74024632D01*
X110692595Y-74065811D01*
X110695445Y-74067476D01*
X110744169Y-74119114D01*
X110757240Y-74188897D01*
X110730509Y-74254669D01*
X110690055Y-74288027D01*
X110677607Y-74294507D01*
X110673474Y-74297610D01*
X110673471Y-74297612D01*
X110559685Y-74383045D01*
X110498965Y-74428635D01*
X110344629Y-74590138D01*
X110341715Y-74594410D01*
X110341714Y-74594411D01*
X110331915Y-74608776D01*
X110218743Y-74774680D01*
X110196406Y-74822802D01*
X110128650Y-74968770D01*
X110124688Y-74977305D01*
X110064989Y-75192570D01*
X110041251Y-75414695D01*
X110054110Y-75637715D01*
X110055247Y-75642761D01*
X110055248Y-75642767D01*
X110076275Y-75736069D01*
X110103222Y-75855639D01*
X110187266Y-76062616D01*
X110303987Y-76253088D01*
X110450250Y-76421938D01*
X110622126Y-76564632D01*
X110692595Y-76605811D01*
X110695445Y-76607476D01*
X110744169Y-76659114D01*
X110757240Y-76728897D01*
X110730509Y-76794669D01*
X110690055Y-76828027D01*
X110677607Y-76834507D01*
X110673474Y-76837610D01*
X110673471Y-76837612D01*
X110503100Y-76965530D01*
X110498965Y-76968635D01*
X110344629Y-77130138D01*
X110218743Y-77314680D01*
X110124688Y-77517305D01*
X110064989Y-77732570D01*
X110041251Y-77954695D01*
X110041548Y-77959848D01*
X110041548Y-77959851D01*
X110047011Y-78054590D01*
X110054110Y-78177715D01*
X110055247Y-78182761D01*
X110055248Y-78182767D01*
X110075119Y-78270939D01*
X110103222Y-78395639D01*
X110187266Y-78602616D01*
X110303987Y-78793088D01*
X110450250Y-78961938D01*
X110622126Y-79104632D01*
X110692595Y-79145811D01*
X110695445Y-79147476D01*
X110744169Y-79199114D01*
X110757240Y-79268897D01*
X110730509Y-79334669D01*
X110690055Y-79368027D01*
X110677607Y-79374507D01*
X110673474Y-79377610D01*
X110673471Y-79377612D01*
X110649247Y-79395800D01*
X110498965Y-79508635D01*
X110344629Y-79670138D01*
X110218743Y-79854680D01*
X110180011Y-79938121D01*
X110143471Y-80016841D01*
X110124688Y-80057305D01*
X110064989Y-80272570D01*
X110041251Y-80494695D01*
X110054110Y-80717715D01*
X110055247Y-80722761D01*
X110055248Y-80722767D01*
X110079304Y-80829508D01*
X110103222Y-80935639D01*
X110127000Y-80994197D01*
X110183970Y-81134498D01*
X110187266Y-81142616D01*
X110303987Y-81333088D01*
X110450250Y-81501938D01*
X110622126Y-81644632D01*
X110655964Y-81664405D01*
X110695445Y-81687476D01*
X110744169Y-81739114D01*
X110757240Y-81808897D01*
X110730509Y-81874669D01*
X110690055Y-81908027D01*
X110677607Y-81914507D01*
X110673474Y-81917610D01*
X110673471Y-81917612D01*
X110649247Y-81935800D01*
X110498965Y-82048635D01*
X110344629Y-82210138D01*
X110218743Y-82394680D01*
X110124688Y-82597305D01*
X110064989Y-82812570D01*
X110041251Y-83034695D01*
X110041548Y-83039848D01*
X110041548Y-83039851D01*
X110050944Y-83202813D01*
X110054110Y-83257715D01*
X110055247Y-83262761D01*
X110055248Y-83262767D01*
X110062174Y-83293498D01*
X110103222Y-83475639D01*
X110187266Y-83682616D01*
X110236285Y-83762608D01*
X110299395Y-83865594D01*
X110303987Y-83873088D01*
X110450250Y-84041938D01*
X110622126Y-84184632D01*
X110680726Y-84218875D01*
X110695445Y-84227476D01*
X110744169Y-84279114D01*
X110757240Y-84348897D01*
X110730509Y-84414669D01*
X110690055Y-84448027D01*
X110677607Y-84454507D01*
X110673474Y-84457610D01*
X110673471Y-84457612D01*
X110505804Y-84583500D01*
X110498965Y-84588635D01*
X110344629Y-84750138D01*
X110218743Y-84934680D01*
X110124688Y-85137305D01*
X110064989Y-85352570D01*
X110041251Y-85574695D01*
X110041548Y-85579848D01*
X110041548Y-85579851D01*
X110047011Y-85674590D01*
X110054110Y-85797715D01*
X110055247Y-85802761D01*
X110055248Y-85802767D01*
X110075119Y-85890939D01*
X110103222Y-86015639D01*
X110187266Y-86222616D01*
X110189965Y-86227020D01*
X110287399Y-86386018D01*
X110303987Y-86413088D01*
X110450250Y-86581938D01*
X110622126Y-86724632D01*
X110695955Y-86767774D01*
X110744679Y-86819412D01*
X110757750Y-86889195D01*
X110731019Y-86954967D01*
X110690562Y-86988327D01*
X110682457Y-86992546D01*
X110673738Y-86998036D01*
X110503433Y-87125905D01*
X110495726Y-87132748D01*
X110348590Y-87286717D01*
X110342104Y-87294727D01*
X110222098Y-87470649D01*
X110217000Y-87479623D01*
X110127338Y-87672783D01*
X110123775Y-87682470D01*
X110068389Y-87882183D01*
X110069912Y-87890607D01*
X110082292Y-87894000D01*
X112722344Y-87894000D01*
X112735875Y-87890027D01*
X112737180Y-87880947D01*
X112695214Y-87713875D01*
X112691894Y-87704124D01*
X112606972Y-87508814D01*
X112602105Y-87499739D01*
X112486426Y-87320926D01*
X112480136Y-87312757D01*
X112336806Y-87155240D01*
X112329273Y-87148215D01*
X112162139Y-87016222D01*
X112153556Y-87010520D01*
X112116602Y-86990120D01*
X112066631Y-86939687D01*
X112051859Y-86870245D01*
X112076975Y-86803839D01*
X112104327Y-86777232D01*
X112127797Y-86760491D01*
X112283860Y-86649173D01*
X112316674Y-86616474D01*
X112394868Y-86538552D01*
X112442096Y-86491489D01*
X112447807Y-86483542D01*
X112569435Y-86314277D01*
X112572453Y-86310077D01*
X112671430Y-86109811D01*
X112736370Y-85896069D01*
X112765529Y-85674590D01*
X112767156Y-85608000D01*
X112748852Y-85385361D01*
X112694431Y-85168702D01*
X112605354Y-84963840D01*
X112484014Y-84776277D01*
X112333670Y-84611051D01*
X112329619Y-84607852D01*
X112329615Y-84607848D01*
X112162414Y-84475800D01*
X112162410Y-84475798D01*
X112158359Y-84472598D01*
X112117053Y-84449796D01*
X112067084Y-84399364D01*
X112052312Y-84329921D01*
X112077428Y-84263516D01*
X112104780Y-84236909D01*
X112148603Y-84205650D01*
X112283860Y-84109173D01*
X112442096Y-83951489D01*
X112479728Y-83899119D01*
X112569435Y-83774277D01*
X112572453Y-83770077D01*
X112574746Y-83765437D01*
X112576446Y-83762608D01*
X112628674Y-83714518D01*
X112684451Y-83701500D01*
X115265406Y-83701500D01*
X115333527Y-83721502D01*
X115354501Y-83738405D01*
X117987343Y-86371247D01*
X117994887Y-86379537D01*
X117999000Y-86386018D01*
X118004777Y-86391443D01*
X118048667Y-86432658D01*
X118051509Y-86435413D01*
X118071231Y-86455135D01*
X118074355Y-86457558D01*
X118074359Y-86457562D01*
X118074424Y-86457612D01*
X118083445Y-86465317D01*
X118115679Y-86495586D01*
X118122627Y-86499405D01*
X118122629Y-86499407D01*
X118133432Y-86505346D01*
X118149959Y-86516202D01*
X118159698Y-86523757D01*
X118159700Y-86523758D01*
X118165960Y-86528614D01*
X118206540Y-86546174D01*
X118217188Y-86551391D01*
X118241976Y-86565018D01*
X118255940Y-86572695D01*
X118263616Y-86574666D01*
X118263619Y-86574667D01*
X118275562Y-86577733D01*
X118294267Y-86584137D01*
X118312855Y-86592181D01*
X118320678Y-86593420D01*
X118320688Y-86593423D01*
X118356524Y-86599099D01*
X118368144Y-86601505D01*
X118399959Y-86609673D01*
X118410970Y-86612500D01*
X118431224Y-86612500D01*
X118450934Y-86614051D01*
X118470943Y-86617220D01*
X118478835Y-86616474D01*
X118497580Y-86614702D01*
X118514962Y-86613059D01*
X118526819Y-86612500D01*
X152194233Y-86612500D01*
X152205416Y-86613027D01*
X152212909Y-86614702D01*
X152220835Y-86614453D01*
X152220836Y-86614453D01*
X152280986Y-86612562D01*
X152284945Y-86612500D01*
X152312856Y-86612500D01*
X152316791Y-86612003D01*
X152316856Y-86611995D01*
X152328693Y-86611062D01*
X152360951Y-86610048D01*
X152364970Y-86609922D01*
X152372889Y-86609673D01*
X152392343Y-86604021D01*
X152411700Y-86600013D01*
X152423930Y-86598468D01*
X152423931Y-86598468D01*
X152431797Y-86597474D01*
X152439168Y-86594555D01*
X152439170Y-86594555D01*
X152472912Y-86581196D01*
X152484142Y-86577351D01*
X152518983Y-86567229D01*
X152518984Y-86567229D01*
X152526593Y-86565018D01*
X152533412Y-86560985D01*
X152533417Y-86560983D01*
X152544028Y-86554707D01*
X152561776Y-86546012D01*
X152580617Y-86538552D01*
X152616387Y-86512564D01*
X152626307Y-86506048D01*
X152657535Y-86487580D01*
X152657538Y-86487578D01*
X152664362Y-86483542D01*
X152678683Y-86469221D01*
X152693717Y-86456380D01*
X152695431Y-86455135D01*
X152710107Y-86444472D01*
X152738298Y-86410395D01*
X152746288Y-86401616D01*
X164095253Y-75052652D01*
X164103539Y-75045112D01*
X164110018Y-75041000D01*
X164156644Y-74991348D01*
X164159398Y-74988507D01*
X164179135Y-74968770D01*
X164181615Y-74965573D01*
X164189320Y-74956551D01*
X164214159Y-74930100D01*
X164219586Y-74924321D01*
X164223405Y-74917375D01*
X164223407Y-74917372D01*
X164229348Y-74906566D01*
X164240199Y-74890047D01*
X164247758Y-74880301D01*
X164252614Y-74874041D01*
X164255759Y-74866772D01*
X164255762Y-74866768D01*
X164270174Y-74833463D01*
X164275391Y-74822813D01*
X164296695Y-74784060D01*
X164301733Y-74764437D01*
X164308137Y-74745734D01*
X164313033Y-74734420D01*
X164313033Y-74734419D01*
X164316181Y-74727145D01*
X164317420Y-74719322D01*
X164317423Y-74719312D01*
X164323099Y-74683476D01*
X164325505Y-74671856D01*
X164334528Y-74636711D01*
X164334528Y-74636710D01*
X164336500Y-74629030D01*
X164336500Y-74608776D01*
X164338051Y-74589065D01*
X164339980Y-74576886D01*
X164341220Y-74569057D01*
X164337059Y-74525038D01*
X164336500Y-74513181D01*
X164336500Y-69802122D01*
X164356502Y-69734001D01*
X164410158Y-69687508D01*
X164480432Y-69677404D01*
X164497649Y-69681124D01*
X164497865Y-69681187D01*
X164502692Y-69683030D01*
X164721597Y-69727567D01*
X164726772Y-69727757D01*
X164726774Y-69727757D01*
X164939673Y-69735564D01*
X164939677Y-69735564D01*
X164944837Y-69735753D01*
X164949957Y-69735097D01*
X164949959Y-69735097D01*
X165161288Y-69708025D01*
X165161289Y-69708025D01*
X165166416Y-69707368D01*
X165171366Y-69705883D01*
X165375429Y-69644661D01*
X165375434Y-69644659D01*
X165380384Y-69643174D01*
X165580994Y-69544896D01*
X165762860Y-69415173D01*
X165807137Y-69371051D01*
X165906616Y-69271918D01*
X165921096Y-69257489D01*
X165949751Y-69217612D01*
X166051453Y-69076077D01*
X166052776Y-69077028D01*
X166099645Y-69033857D01*
X166169580Y-69021625D01*
X166235026Y-69049144D01*
X166262875Y-69080994D01*
X166272772Y-69097144D01*
X166322987Y-69179088D01*
X166469250Y-69347938D01*
X166641126Y-69490632D01*
X166834000Y-69603338D01*
X166838825Y-69605180D01*
X166838826Y-69605181D01*
X166847256Y-69608400D01*
X167042692Y-69683030D01*
X167047760Y-69684061D01*
X167047763Y-69684062D01*
X167142862Y-69703410D01*
X167261597Y-69727567D01*
X167266772Y-69727757D01*
X167266774Y-69727757D01*
X167479673Y-69735564D01*
X167479677Y-69735564D01*
X167484837Y-69735753D01*
X167489957Y-69735097D01*
X167489959Y-69735097D01*
X167701288Y-69708025D01*
X167701289Y-69708025D01*
X167706416Y-69707368D01*
X167711366Y-69705883D01*
X167915429Y-69644661D01*
X167915434Y-69644659D01*
X167920384Y-69643174D01*
X168120994Y-69544896D01*
X168302860Y-69415173D01*
X168347137Y-69371051D01*
X168446616Y-69271918D01*
X168461096Y-69257489D01*
X168489751Y-69217612D01*
X168591453Y-69076077D01*
X168592776Y-69077028D01*
X168639645Y-69033857D01*
X168709580Y-69021625D01*
X168775026Y-69049144D01*
X168802875Y-69080994D01*
X168812772Y-69097144D01*
X168862987Y-69179088D01*
X169009250Y-69347938D01*
X169181126Y-69490632D01*
X169374000Y-69603338D01*
X169378825Y-69605180D01*
X169378826Y-69605181D01*
X169387256Y-69608400D01*
X169582692Y-69683030D01*
X169587760Y-69684061D01*
X169587763Y-69684062D01*
X169682862Y-69703410D01*
X169801597Y-69727567D01*
X169806772Y-69727757D01*
X169806774Y-69727757D01*
X170019673Y-69735564D01*
X170019677Y-69735564D01*
X170024837Y-69735753D01*
X170029957Y-69735097D01*
X170029959Y-69735097D01*
X170241288Y-69708025D01*
X170241289Y-69708025D01*
X170246416Y-69707368D01*
X170251366Y-69705883D01*
X170455429Y-69644661D01*
X170455434Y-69644659D01*
X170460384Y-69643174D01*
X170660994Y-69544896D01*
X170842860Y-69415173D01*
X170887137Y-69371051D01*
X170986616Y-69271918D01*
X171001096Y-69257489D01*
X171029751Y-69217612D01*
X171131453Y-69076077D01*
X171132640Y-69076930D01*
X171179960Y-69033362D01*
X171249897Y-69021145D01*
X171315338Y-69048678D01*
X171343166Y-69080511D01*
X171400694Y-69174388D01*
X171406777Y-69182699D01*
X171546213Y-69343667D01*
X171553580Y-69350883D01*
X171717434Y-69486916D01*
X171725881Y-69492831D01*
X171909756Y-69600279D01*
X171919042Y-69604729D01*
X172118001Y-69680703D01*
X172127899Y-69683579D01*
X172231250Y-69704606D01*
X172245299Y-69703410D01*
X172249000Y-69693065D01*
X172249000Y-69692517D01*
X172757000Y-69692517D01*
X172761064Y-69706359D01*
X172774478Y-69708393D01*
X172781184Y-69707534D01*
X172791262Y-69705392D01*
X172995255Y-69644191D01*
X173004842Y-69640433D01*
X173196095Y-69546739D01*
X173204945Y-69541464D01*
X173378328Y-69417792D01*
X173386200Y-69411139D01*
X173537052Y-69260812D01*
X173543730Y-69252965D01*
X173668003Y-69080020D01*
X173673313Y-69071183D01*
X173767670Y-68880267D01*
X173771469Y-68870672D01*
X173833377Y-68666910D01*
X173835555Y-68656837D01*
X173836986Y-68645962D01*
X173834775Y-68631778D01*
X173821617Y-68628000D01*
X172775115Y-68628000D01*
X172759876Y-68632475D01*
X172758671Y-68633865D01*
X172757000Y-68641548D01*
X172757000Y-69692517D01*
X172249000Y-69692517D01*
X172249000Y-68246000D01*
X172269002Y-68177879D01*
X172322658Y-68131386D01*
X172375000Y-68120000D01*
X173821344Y-68120000D01*
X173834875Y-68116027D01*
X173836180Y-68106947D01*
X173794214Y-67939875D01*
X173790894Y-67930124D01*
X173705972Y-67734814D01*
X173701105Y-67725739D01*
X173585426Y-67546926D01*
X173579136Y-67538757D01*
X173435806Y-67381240D01*
X173428273Y-67374215D01*
X173261139Y-67242222D01*
X173252556Y-67236520D01*
X173215602Y-67216120D01*
X173165631Y-67165687D01*
X173161623Y-67146846D01*
X175484948Y-67146846D01*
X175510909Y-67418949D01*
X175511994Y-67423383D01*
X175511995Y-67423389D01*
X175540152Y-67538457D01*
X175575878Y-67684455D01*
X175577590Y-67688681D01*
X175577591Y-67688685D01*
X175675384Y-67930124D01*
X175678493Y-67937801D01*
X175816606Y-68173680D01*
X175987323Y-68387151D01*
X176187068Y-68573742D01*
X176411656Y-68729544D01*
X176516371Y-68781639D01*
X176652296Y-68849261D01*
X176652299Y-68849262D01*
X176656383Y-68851294D01*
X176916121Y-68936440D01*
X176920612Y-68937220D01*
X176920613Y-68937220D01*
X177181650Y-68982544D01*
X177181658Y-68982545D01*
X177185431Y-68983200D01*
X177189268Y-68983391D01*
X177270233Y-68987422D01*
X177270241Y-68987422D01*
X177271804Y-68987500D01*
X177442434Y-68987500D01*
X177444702Y-68987335D01*
X177444714Y-68987335D01*
X177576273Y-68977789D01*
X177645622Y-68972757D01*
X177650077Y-68971773D01*
X177650080Y-68971773D01*
X177908073Y-68914814D01*
X177908077Y-68914813D01*
X177912533Y-68913829D01*
X178082957Y-68849261D01*
X178163872Y-68818605D01*
X178163875Y-68818604D01*
X178168142Y-68816987D01*
X178407094Y-68684261D01*
X178624383Y-68518431D01*
X178815458Y-68322971D01*
X178818147Y-68319277D01*
X178973629Y-68105667D01*
X178973632Y-68105661D01*
X178976315Y-68101976D01*
X178978437Y-68097943D01*
X178978440Y-68097938D01*
X179101460Y-67864115D01*
X179101460Y-67864114D01*
X179103586Y-67860074D01*
X179114913Y-67828000D01*
X179150494Y-67727240D01*
X179194603Y-67602334D01*
X179220482Y-67471037D01*
X179246580Y-67338627D01*
X179246581Y-67338621D01*
X179247461Y-67334155D01*
X179250292Y-67277295D01*
X179260825Y-67065723D01*
X179260825Y-67065717D01*
X179261052Y-67061154D01*
X179235091Y-66789051D01*
X179230517Y-66770355D01*
X179171207Y-66527979D01*
X179170122Y-66523545D01*
X179164289Y-66509144D01*
X179069220Y-66274427D01*
X179069217Y-66274421D01*
X179067507Y-66270199D01*
X179050785Y-66241639D01*
X178949113Y-66067998D01*
X178929394Y-66034320D01*
X178758677Y-65820849D01*
X178558932Y-65634258D01*
X178334344Y-65478456D01*
X178191498Y-65407391D01*
X178093704Y-65358739D01*
X178093701Y-65358738D01*
X178089617Y-65356706D01*
X177829879Y-65271560D01*
X177825387Y-65270780D01*
X177564350Y-65225456D01*
X177564342Y-65225455D01*
X177560569Y-65224800D01*
X177549238Y-65224236D01*
X177475767Y-65220578D01*
X177475759Y-65220578D01*
X177474196Y-65220500D01*
X177303566Y-65220500D01*
X177301298Y-65220665D01*
X177301286Y-65220665D01*
X177169727Y-65230211D01*
X177100378Y-65235243D01*
X177095923Y-65236227D01*
X177095920Y-65236227D01*
X176837927Y-65293186D01*
X176837923Y-65293187D01*
X176833467Y-65294171D01*
X176719557Y-65337328D01*
X176582128Y-65389395D01*
X176582125Y-65389396D01*
X176577858Y-65391013D01*
X176338906Y-65523739D01*
X176121617Y-65689569D01*
X175930542Y-65885029D01*
X175927855Y-65888721D01*
X175927853Y-65888723D01*
X175772371Y-66102333D01*
X175772368Y-66102339D01*
X175769685Y-66106024D01*
X175767563Y-66110057D01*
X175767560Y-66110062D01*
X175683308Y-66270199D01*
X175642414Y-66347926D01*
X175551397Y-66605666D01*
X175534754Y-66690104D01*
X175506974Y-66831051D01*
X175498539Y-66873845D01*
X175498312Y-66878398D01*
X175498312Y-66878401D01*
X175485755Y-67130638D01*
X175484948Y-67146846D01*
X173161623Y-67146846D01*
X173150859Y-67096245D01*
X173175975Y-67029839D01*
X173203327Y-67003232D01*
X173234499Y-66980997D01*
X173382860Y-66875173D01*
X173388681Y-66869373D01*
X173537435Y-66721137D01*
X173541096Y-66717489D01*
X173557646Y-66694458D01*
X173668435Y-66540277D01*
X173671453Y-66536077D01*
X173675456Y-66527979D01*
X173768136Y-66340453D01*
X173768137Y-66340451D01*
X173770430Y-66335811D01*
X173835370Y-66122069D01*
X173864529Y-65900590D01*
X173866156Y-65834000D01*
X173847852Y-65611361D01*
X173793431Y-65394702D01*
X173704354Y-65189840D01*
X173627164Y-65070522D01*
X173585822Y-65006617D01*
X173585820Y-65006614D01*
X173583014Y-65002277D01*
X173432670Y-64837051D01*
X173428619Y-64833852D01*
X173428615Y-64833848D01*
X173261414Y-64701800D01*
X173261410Y-64701798D01*
X173257359Y-64698598D01*
X173226323Y-64681465D01*
X173166769Y-64648590D01*
X173061789Y-64590638D01*
X173056920Y-64588914D01*
X173056916Y-64588912D01*
X172856087Y-64517795D01*
X172856083Y-64517794D01*
X172851212Y-64516069D01*
X172846119Y-64515162D01*
X172846116Y-64515161D01*
X172636373Y-64477800D01*
X172636367Y-64477799D01*
X172631284Y-64476894D01*
X172557452Y-64475992D01*
X172413081Y-64474228D01*
X172413079Y-64474228D01*
X172407911Y-64474165D01*
X172187091Y-64507955D01*
X171974756Y-64577357D01*
X171911008Y-64610542D01*
X171819013Y-64658432D01*
X171776607Y-64680507D01*
X171772474Y-64683610D01*
X171772471Y-64683612D01*
X171602100Y-64811530D01*
X171597965Y-64814635D01*
X171559106Y-64855299D01*
X171462934Y-64955937D01*
X171443629Y-64976138D01*
X171336201Y-65133621D01*
X171281293Y-65178621D01*
X171210768Y-65186792D01*
X171147021Y-65155538D01*
X171126324Y-65131054D01*
X171045822Y-65006617D01*
X171045820Y-65006614D01*
X171043014Y-65002277D01*
X170892670Y-64837051D01*
X170888619Y-64833852D01*
X170888615Y-64833848D01*
X170721414Y-64701800D01*
X170721410Y-64701798D01*
X170717359Y-64698598D01*
X170686323Y-64681465D01*
X170626769Y-64648590D01*
X170521789Y-64590638D01*
X170516920Y-64588914D01*
X170516916Y-64588912D01*
X170316087Y-64517795D01*
X170316083Y-64517794D01*
X170311212Y-64516069D01*
X170306119Y-64515162D01*
X170306116Y-64515161D01*
X170096373Y-64477800D01*
X170096367Y-64477799D01*
X170091284Y-64476894D01*
X170017452Y-64475992D01*
X169873081Y-64474228D01*
X169873079Y-64474228D01*
X169867911Y-64474165D01*
X169647091Y-64507955D01*
X169434756Y-64577357D01*
X169430168Y-64579745D01*
X169430164Y-64579747D01*
X169300012Y-64647500D01*
X169230352Y-64661213D01*
X169164337Y-64635088D01*
X169152737Y-64624832D01*
X166873652Y-62345747D01*
X166866112Y-62337461D01*
X166862000Y-62330982D01*
X166812348Y-62284356D01*
X166809507Y-62281602D01*
X166789770Y-62261865D01*
X166786573Y-62259385D01*
X166777551Y-62251680D01*
X166745321Y-62221414D01*
X166738375Y-62217595D01*
X166738372Y-62217593D01*
X166727566Y-62211652D01*
X166711047Y-62200801D01*
X166703933Y-62195283D01*
X166695041Y-62188386D01*
X166687772Y-62185241D01*
X166687768Y-62185238D01*
X166654463Y-62170826D01*
X166643813Y-62165609D01*
X166605060Y-62144305D01*
X166585437Y-62139267D01*
X166566734Y-62132863D01*
X166555420Y-62127967D01*
X166555419Y-62127967D01*
X166548145Y-62124819D01*
X166540322Y-62123580D01*
X166540312Y-62123577D01*
X166504476Y-62117901D01*
X166492856Y-62115495D01*
X166457711Y-62106472D01*
X166457710Y-62106472D01*
X166450030Y-62104500D01*
X166429776Y-62104500D01*
X166410065Y-62102949D01*
X166397886Y-62101020D01*
X166390057Y-62099780D01*
X166382165Y-62100526D01*
X166346039Y-62103941D01*
X166334181Y-62104500D01*
X154111595Y-62104500D01*
X154043474Y-62084498D01*
X154022499Y-62067595D01*
X153451404Y-61496499D01*
X153417379Y-61434187D01*
X153414500Y-61407404D01*
X153414500Y-59260767D01*
X153415027Y-59249584D01*
X153416702Y-59242091D01*
X153414955Y-59186500D01*
X153414562Y-59174014D01*
X153414500Y-59170055D01*
X153414500Y-59142144D01*
X153413995Y-59138144D01*
X153413062Y-59126301D01*
X153411922Y-59090030D01*
X153411673Y-59082111D01*
X153406021Y-59062657D01*
X153402013Y-59043300D01*
X153400468Y-59031070D01*
X153400468Y-59031069D01*
X153399474Y-59023203D01*
X153396003Y-59014436D01*
X153383196Y-58982088D01*
X153379351Y-58970858D01*
X153369229Y-58936017D01*
X153369229Y-58936016D01*
X153367018Y-58928407D01*
X153362985Y-58921588D01*
X153362983Y-58921583D01*
X153356707Y-58910972D01*
X153348012Y-58893224D01*
X153340552Y-58874383D01*
X153332504Y-58863305D01*
X153314564Y-58838613D01*
X153308048Y-58828693D01*
X153289580Y-58797465D01*
X153289578Y-58797462D01*
X153285542Y-58790638D01*
X153271221Y-58776317D01*
X153258380Y-58761283D01*
X153251131Y-58751306D01*
X153246472Y-58744893D01*
X153212395Y-58716702D01*
X153203616Y-58708712D01*
X151125652Y-56630747D01*
X151118112Y-56622461D01*
X151114000Y-56615982D01*
X151064348Y-56569356D01*
X151061507Y-56566602D01*
X151041770Y-56546865D01*
X151038573Y-56544385D01*
X151029551Y-56536680D01*
X151023993Y-56531461D01*
X150997321Y-56506414D01*
X150990375Y-56502595D01*
X150990372Y-56502593D01*
X150979566Y-56496652D01*
X150963047Y-56485801D01*
X150962583Y-56485441D01*
X150947041Y-56473386D01*
X150939772Y-56470241D01*
X150939768Y-56470238D01*
X150906463Y-56455826D01*
X150895813Y-56450609D01*
X150857060Y-56429305D01*
X150837437Y-56424267D01*
X150818734Y-56417863D01*
X150807420Y-56412967D01*
X150807419Y-56412967D01*
X150800145Y-56409819D01*
X150792322Y-56408580D01*
X150792312Y-56408577D01*
X150756476Y-56402901D01*
X150744856Y-56400495D01*
X150709711Y-56391472D01*
X150709710Y-56391472D01*
X150702030Y-56389500D01*
X150681776Y-56389500D01*
X150662065Y-56387949D01*
X150649886Y-56386020D01*
X150642057Y-56384780D01*
X150612786Y-56387547D01*
X150598039Y-56388941D01*
X150586181Y-56389500D01*
X147398767Y-56389500D01*
X147387584Y-56388973D01*
X147380091Y-56387298D01*
X147372165Y-56387547D01*
X147372164Y-56387547D01*
X147312014Y-56389438D01*
X147308055Y-56389500D01*
X147280144Y-56389500D01*
X147276210Y-56389997D01*
X147276209Y-56389997D01*
X147276144Y-56390005D01*
X147264307Y-56390938D01*
X147232490Y-56391938D01*
X147228029Y-56392078D01*
X147220110Y-56392327D01*
X147202454Y-56397456D01*
X147200658Y-56397978D01*
X147181306Y-56401986D01*
X147174235Y-56402880D01*
X147161203Y-56404526D01*
X147153834Y-56407443D01*
X147153832Y-56407444D01*
X147120097Y-56420800D01*
X147108869Y-56424645D01*
X147066407Y-56436982D01*
X147059584Y-56441017D01*
X147059582Y-56441018D01*
X147048972Y-56447293D01*
X147031224Y-56455988D01*
X147012383Y-56463448D01*
X147005967Y-56468110D01*
X147005966Y-56468110D01*
X146976613Y-56489436D01*
X146966693Y-56495952D01*
X146935465Y-56514420D01*
X146935462Y-56514422D01*
X146928638Y-56518458D01*
X146914317Y-56532779D01*
X146899284Y-56545619D01*
X146882893Y-56557528D01*
X146874217Y-56568016D01*
X146854702Y-56591605D01*
X146846712Y-56600384D01*
X145784747Y-57662348D01*
X145776461Y-57669888D01*
X145769982Y-57674000D01*
X145764557Y-57679777D01*
X145723357Y-57723651D01*
X145720602Y-57726493D01*
X145700865Y-57746230D01*
X145698385Y-57749427D01*
X145690682Y-57758447D01*
X145660414Y-57790679D01*
X145656595Y-57797625D01*
X145656593Y-57797628D01*
X145650652Y-57808434D01*
X145639801Y-57824953D01*
X145627386Y-57840959D01*
X145624241Y-57848228D01*
X145624238Y-57848232D01*
X145609826Y-57881537D01*
X145604609Y-57892187D01*
X145583305Y-57930940D01*
X145581334Y-57938615D01*
X145581334Y-57938616D01*
X145578267Y-57950562D01*
X145571863Y-57969266D01*
X145563819Y-57987855D01*
X145562580Y-57995678D01*
X145562577Y-57995688D01*
X145556901Y-58031524D01*
X145554495Y-58043144D01*
X145546257Y-58075233D01*
X145543500Y-58085970D01*
X145543500Y-58106224D01*
X145541949Y-58125934D01*
X145538780Y-58145943D01*
X145539526Y-58153835D01*
X145542941Y-58189961D01*
X145543500Y-58201819D01*
X145543500Y-62169405D01*
X145523498Y-62237526D01*
X145506595Y-62258501D01*
X145062499Y-62702596D01*
X145000187Y-62736621D01*
X144973404Y-62739500D01*
X116138594Y-62739500D01*
X116070473Y-62719498D01*
X116049499Y-62702595D01*
X113727607Y-60380702D01*
X142882853Y-60380702D01*
X142892149Y-60392717D01*
X142939032Y-60425545D01*
X142948527Y-60431028D01*
X143142810Y-60521622D01*
X143153106Y-60525370D01*
X143360177Y-60580855D01*
X143370964Y-60582757D01*
X143584525Y-60601441D01*
X143595475Y-60601441D01*
X143809036Y-60582757D01*
X143819823Y-60580855D01*
X144026894Y-60525370D01*
X144037190Y-60521622D01*
X144231473Y-60431028D01*
X144240968Y-60425545D01*
X144288689Y-60392130D01*
X144297064Y-60381653D01*
X144289996Y-60368206D01*
X143602812Y-59681022D01*
X143588868Y-59673408D01*
X143587035Y-59673539D01*
X143580420Y-59677790D01*
X142889283Y-60368927D01*
X142882853Y-60380702D01*
X113727607Y-60380702D01*
X113700405Y-60353500D01*
X113666379Y-60291188D01*
X113663500Y-60264405D01*
X113663500Y-59372767D01*
X113664027Y-59361584D01*
X113665702Y-59354091D01*
X113664457Y-59314475D01*
X142297559Y-59314475D01*
X142316243Y-59528036D01*
X142318145Y-59538823D01*
X142373630Y-59745894D01*
X142377378Y-59756190D01*
X142467972Y-59950473D01*
X142473455Y-59959968D01*
X142506870Y-60007689D01*
X142517347Y-60016064D01*
X142530794Y-60008996D01*
X143217978Y-59321812D01*
X143224356Y-59310132D01*
X143954408Y-59310132D01*
X143954539Y-59311965D01*
X143958790Y-59318580D01*
X144649927Y-60009717D01*
X144661702Y-60016147D01*
X144673717Y-60006851D01*
X144706545Y-59959968D01*
X144712028Y-59950473D01*
X144802622Y-59756190D01*
X144806370Y-59745894D01*
X144861855Y-59538823D01*
X144863757Y-59528036D01*
X144882441Y-59314475D01*
X144882441Y-59303525D01*
X144863757Y-59089964D01*
X144861855Y-59079177D01*
X144806370Y-58872106D01*
X144802622Y-58861810D01*
X144712028Y-58667527D01*
X144706545Y-58658032D01*
X144673130Y-58610311D01*
X144662653Y-58601936D01*
X144649206Y-58609004D01*
X143962022Y-59296188D01*
X143954408Y-59310132D01*
X143224356Y-59310132D01*
X143225592Y-59307868D01*
X143225461Y-59306035D01*
X143221210Y-59299420D01*
X142530073Y-58608283D01*
X142518298Y-58601853D01*
X142506283Y-58611149D01*
X142473455Y-58658032D01*
X142467972Y-58667527D01*
X142377378Y-58861810D01*
X142373630Y-58872106D01*
X142318145Y-59079177D01*
X142316243Y-59089964D01*
X142297559Y-59303525D01*
X142297559Y-59314475D01*
X113664457Y-59314475D01*
X113664113Y-59303525D01*
X113663562Y-59286014D01*
X113663500Y-59282055D01*
X113663500Y-59254144D01*
X113662995Y-59250144D01*
X113662062Y-59238301D01*
X113660922Y-59202029D01*
X113660673Y-59194110D01*
X113655022Y-59174658D01*
X113651014Y-59155306D01*
X113649467Y-59143063D01*
X113648474Y-59135203D01*
X113644950Y-59126301D01*
X113632200Y-59094097D01*
X113628355Y-59082870D01*
X113625924Y-59074503D01*
X113616018Y-59040407D01*
X113611984Y-59033585D01*
X113611981Y-59033579D01*
X113605706Y-59022968D01*
X113597010Y-59005218D01*
X113592472Y-58993756D01*
X113592469Y-58993751D01*
X113589552Y-58986383D01*
X113563573Y-58950625D01*
X113557057Y-58940707D01*
X113538575Y-58909457D01*
X113534542Y-58902637D01*
X113520218Y-58888313D01*
X113507376Y-58873278D01*
X113495472Y-58856893D01*
X113461406Y-58828711D01*
X113452627Y-58820722D01*
X112799405Y-58167500D01*
X112765379Y-58105188D01*
X112762500Y-58078405D01*
X112762500Y-57982062D01*
X120769873Y-57982062D01*
X120779169Y-57994077D01*
X120830374Y-58029931D01*
X120839869Y-58035414D01*
X121037327Y-58127490D01*
X121047619Y-58131236D01*
X121258068Y-58187625D01*
X121268861Y-58189528D01*
X121485905Y-58208517D01*
X121496855Y-58208517D01*
X121713899Y-58189528D01*
X121724692Y-58187625D01*
X121935141Y-58131236D01*
X121945433Y-58127490D01*
X122142891Y-58035414D01*
X122152386Y-58029931D01*
X122204428Y-57993491D01*
X122212804Y-57983012D01*
X122205736Y-57969566D01*
X121504192Y-57268022D01*
X121490248Y-57260408D01*
X121488415Y-57260539D01*
X121481800Y-57264790D01*
X120776303Y-57970287D01*
X120769873Y-57982062D01*
X112762500Y-57982062D01*
X112762500Y-56901475D01*
X120178863Y-56901475D01*
X120197852Y-57118519D01*
X120199755Y-57129312D01*
X120256144Y-57339761D01*
X120259890Y-57350053D01*
X120351966Y-57547511D01*
X120357449Y-57557006D01*
X120393889Y-57609048D01*
X120404368Y-57617424D01*
X120417814Y-57610356D01*
X121119358Y-56908812D01*
X121125736Y-56897132D01*
X121855788Y-56897132D01*
X121855919Y-56898965D01*
X121860170Y-56905580D01*
X122565667Y-57611077D01*
X122607409Y-57633871D01*
X122617409Y-57636047D01*
X122667607Y-57686253D01*
X122682831Y-57739814D01*
X122682880Y-57740717D01*
X122682880Y-57744134D01*
X122689635Y-57806316D01*
X122740765Y-57942705D01*
X122828119Y-58059261D01*
X122944675Y-58146615D01*
X123081064Y-58197745D01*
X123143246Y-58204500D01*
X124839514Y-58204500D01*
X124901696Y-58197745D01*
X125038085Y-58146615D01*
X125154641Y-58059261D01*
X125241995Y-57942705D01*
X125293125Y-57806316D01*
X125294448Y-57794134D01*
X128816500Y-57794134D01*
X128823255Y-57856316D01*
X128874385Y-57992705D01*
X128961739Y-58109261D01*
X129078295Y-58196615D01*
X129214684Y-58247745D01*
X129276866Y-58254500D01*
X131073134Y-58254500D01*
X131135316Y-58247745D01*
X131271705Y-58196615D01*
X131388261Y-58109261D01*
X131475615Y-57992705D01*
X131501372Y-57923999D01*
X131519798Y-57874848D01*
X131562440Y-57818084D01*
X131629001Y-57793384D01*
X131698350Y-57808592D01*
X131733017Y-57836580D01*
X131758218Y-57865673D01*
X131765580Y-57872883D01*
X131929434Y-58008916D01*
X131937881Y-58014831D01*
X132121756Y-58122279D01*
X132131042Y-58126729D01*
X132330001Y-58202703D01*
X132339899Y-58205579D01*
X132443250Y-58226606D01*
X132457299Y-58225410D01*
X132461000Y-58215065D01*
X132461000Y-58214517D01*
X132969000Y-58214517D01*
X132973064Y-58228359D01*
X132986478Y-58230393D01*
X132993184Y-58229534D01*
X133003262Y-58227392D01*
X133207255Y-58166191D01*
X133216842Y-58162433D01*
X133408095Y-58068739D01*
X133416945Y-58063464D01*
X133590328Y-57939792D01*
X133598200Y-57933139D01*
X133749052Y-57782812D01*
X133755730Y-57774965D01*
X133883022Y-57597819D01*
X133884279Y-57598722D01*
X133931373Y-57555362D01*
X134001311Y-57543145D01*
X134066751Y-57570678D01*
X134094579Y-57602511D01*
X134099828Y-57611077D01*
X134154987Y-57701088D01*
X134301250Y-57869938D01*
X134473126Y-58012632D01*
X134666000Y-58125338D01*
X134670825Y-58127180D01*
X134670826Y-58127181D01*
X134681445Y-58131236D01*
X134874692Y-58205030D01*
X134879760Y-58206061D01*
X134879763Y-58206062D01*
X134974238Y-58225283D01*
X135093597Y-58249567D01*
X135098772Y-58249757D01*
X135098774Y-58249757D01*
X135311673Y-58257564D01*
X135311677Y-58257564D01*
X135316837Y-58257753D01*
X135321957Y-58257097D01*
X135321959Y-58257097D01*
X135533288Y-58230025D01*
X135533289Y-58230025D01*
X135538416Y-58229368D01*
X135543366Y-58227883D01*
X135747429Y-58166661D01*
X135747434Y-58166659D01*
X135752384Y-58165174D01*
X135952994Y-58066896D01*
X136134860Y-57937173D01*
X136179993Y-57892198D01*
X136266175Y-57806316D01*
X136293096Y-57779489D01*
X136311326Y-57754120D01*
X136423453Y-57598077D01*
X136424776Y-57599028D01*
X136471645Y-57555857D01*
X136541580Y-57543625D01*
X136607026Y-57571144D01*
X136634875Y-57602994D01*
X136639828Y-57611077D01*
X136694987Y-57701088D01*
X136841250Y-57869938D01*
X137013126Y-58012632D01*
X137206000Y-58125338D01*
X137210825Y-58127180D01*
X137210826Y-58127181D01*
X137221445Y-58131236D01*
X137414692Y-58205030D01*
X137419760Y-58206061D01*
X137419763Y-58206062D01*
X137514238Y-58225283D01*
X137633597Y-58249567D01*
X137638772Y-58249757D01*
X137638774Y-58249757D01*
X137851673Y-58257564D01*
X137851677Y-58257564D01*
X137856837Y-58257753D01*
X137861957Y-58257097D01*
X137861959Y-58257097D01*
X138023937Y-58236347D01*
X142882936Y-58236347D01*
X142890004Y-58249794D01*
X143577188Y-58936978D01*
X143591132Y-58944592D01*
X143592965Y-58944461D01*
X143599580Y-58940210D01*
X144290717Y-58249073D01*
X144297147Y-58237298D01*
X144287851Y-58225283D01*
X144240968Y-58192455D01*
X144231473Y-58186972D01*
X144037190Y-58096378D01*
X144026894Y-58092630D01*
X143819823Y-58037145D01*
X143809036Y-58035243D01*
X143595475Y-58016559D01*
X143584525Y-58016559D01*
X143370964Y-58035243D01*
X143360177Y-58037145D01*
X143153106Y-58092630D01*
X143142810Y-58096378D01*
X142948527Y-58186972D01*
X142939032Y-58192455D01*
X142891311Y-58225870D01*
X142882936Y-58236347D01*
X138023937Y-58236347D01*
X138073288Y-58230025D01*
X138073289Y-58230025D01*
X138078416Y-58229368D01*
X138083366Y-58227883D01*
X138287429Y-58166661D01*
X138287434Y-58166659D01*
X138292384Y-58165174D01*
X138492994Y-58066896D01*
X138674860Y-57937173D01*
X138719993Y-57892198D01*
X138806175Y-57806316D01*
X138833096Y-57779489D01*
X138851326Y-57754120D01*
X138960435Y-57602277D01*
X138963453Y-57598077D01*
X138976995Y-57570678D01*
X139060136Y-57402453D01*
X139060137Y-57402451D01*
X139062430Y-57397811D01*
X139127370Y-57184069D01*
X139156529Y-56962590D01*
X139158156Y-56896000D01*
X139139852Y-56673361D01*
X139085431Y-56456702D01*
X138996354Y-56251840D01*
X138875014Y-56064277D01*
X138724670Y-55899051D01*
X138720619Y-55895852D01*
X138720615Y-55895848D01*
X138553414Y-55763800D01*
X138553410Y-55763798D01*
X138549359Y-55760598D01*
X138542092Y-55756586D01*
X138489145Y-55727358D01*
X138353789Y-55652638D01*
X138348920Y-55650914D01*
X138348916Y-55650912D01*
X138148087Y-55579795D01*
X138148083Y-55579794D01*
X138143212Y-55578069D01*
X138138119Y-55577162D01*
X138138116Y-55577161D01*
X137928373Y-55539800D01*
X137928367Y-55539799D01*
X137923284Y-55538894D01*
X137849452Y-55537992D01*
X137705081Y-55536228D01*
X137705079Y-55536228D01*
X137699911Y-55536165D01*
X137479091Y-55569955D01*
X137266756Y-55639357D01*
X137068607Y-55742507D01*
X137064474Y-55745610D01*
X137064471Y-55745612D01*
X136915180Y-55857703D01*
X136889965Y-55876635D01*
X136735629Y-56038138D01*
X136628201Y-56195621D01*
X136573293Y-56240621D01*
X136502768Y-56248792D01*
X136439021Y-56217538D01*
X136418324Y-56193054D01*
X136337822Y-56068617D01*
X136337820Y-56068614D01*
X136335014Y-56064277D01*
X136184670Y-55899051D01*
X136180619Y-55895852D01*
X136180615Y-55895848D01*
X136013414Y-55763800D01*
X136013410Y-55763798D01*
X136009359Y-55760598D01*
X136002092Y-55756586D01*
X135949145Y-55727358D01*
X135813789Y-55652638D01*
X135808920Y-55650914D01*
X135808916Y-55650912D01*
X135608087Y-55579795D01*
X135608083Y-55579794D01*
X135603212Y-55578069D01*
X135598119Y-55577162D01*
X135598116Y-55577161D01*
X135388373Y-55539800D01*
X135388367Y-55539799D01*
X135383284Y-55538894D01*
X135309452Y-55537992D01*
X135165081Y-55536228D01*
X135165079Y-55536228D01*
X135159911Y-55536165D01*
X134939091Y-55569955D01*
X134726756Y-55639357D01*
X134528607Y-55742507D01*
X134524474Y-55745610D01*
X134524471Y-55745612D01*
X134375180Y-55857703D01*
X134349965Y-55876635D01*
X134195629Y-56038138D01*
X134088204Y-56195618D01*
X134087898Y-56196066D01*
X134032987Y-56241069D01*
X133962462Y-56249240D01*
X133898715Y-56217986D01*
X133878018Y-56193502D01*
X133797426Y-56068926D01*
X133791136Y-56060757D01*
X133647806Y-55903240D01*
X133640273Y-55896215D01*
X133473139Y-55764222D01*
X133464552Y-55758517D01*
X133278117Y-55655599D01*
X133268705Y-55651369D01*
X133067959Y-55580280D01*
X133057988Y-55577646D01*
X132986837Y-55564972D01*
X132973540Y-55566432D01*
X132969000Y-55580989D01*
X132969000Y-58214517D01*
X132461000Y-58214517D01*
X132461000Y-55579102D01*
X132457082Y-55565758D01*
X132442806Y-55563771D01*
X132404324Y-55569660D01*
X132394288Y-55572051D01*
X132191868Y-55638212D01*
X132182359Y-55642209D01*
X131993463Y-55740542D01*
X131984738Y-55746036D01*
X131814433Y-55873905D01*
X131806726Y-55880748D01*
X131729478Y-55961584D01*
X131667954Y-55997014D01*
X131597042Y-55993557D01*
X131539255Y-55952311D01*
X131520402Y-55918763D01*
X131478767Y-55807703D01*
X131475615Y-55799295D01*
X131388261Y-55682739D01*
X131271705Y-55595385D01*
X131135316Y-55544255D01*
X131073134Y-55537500D01*
X129276866Y-55537500D01*
X129214684Y-55544255D01*
X129078295Y-55595385D01*
X128961739Y-55682739D01*
X128874385Y-55799295D01*
X128823255Y-55935684D01*
X128816500Y-55997866D01*
X128816500Y-57794134D01*
X125294448Y-57794134D01*
X125299880Y-57744134D01*
X125299880Y-56047866D01*
X125293125Y-55985684D01*
X125241995Y-55849295D01*
X125154641Y-55732739D01*
X125038085Y-55645385D01*
X124901696Y-55594255D01*
X124839514Y-55587500D01*
X123143246Y-55587500D01*
X123081064Y-55594255D01*
X122944675Y-55645385D01*
X122828119Y-55732739D01*
X122740765Y-55849295D01*
X122689635Y-55985684D01*
X122684902Y-56029252D01*
X122683473Y-56042411D01*
X122682880Y-56047866D01*
X122682880Y-56051185D01*
X122659227Y-56118110D01*
X122613224Y-56153804D01*
X122614239Y-56155734D01*
X122603380Y-56161442D01*
X122603135Y-56161632D01*
X122602977Y-56161653D01*
X122564946Y-56181644D01*
X121863402Y-56883188D01*
X121855788Y-56897132D01*
X121125736Y-56897132D01*
X121126972Y-56894868D01*
X121126841Y-56893035D01*
X121122590Y-56886420D01*
X120417093Y-56180923D01*
X120405318Y-56174493D01*
X120393303Y-56183789D01*
X120357449Y-56234994D01*
X120351966Y-56244489D01*
X120259890Y-56441947D01*
X120256144Y-56452239D01*
X120199755Y-56662688D01*
X120197852Y-56673481D01*
X120178863Y-56890525D01*
X120178863Y-56901475D01*
X112762500Y-56901475D01*
X112762500Y-56769866D01*
X112755745Y-56707684D01*
X112704615Y-56571295D01*
X112617261Y-56454739D01*
X112500705Y-56367385D01*
X112364316Y-56316255D01*
X112306893Y-56310017D01*
X112305531Y-56309869D01*
X112302134Y-56309500D01*
X110505866Y-56309500D01*
X110501109Y-56310017D01*
X110500792Y-56309960D01*
X110499072Y-56310053D01*
X110499050Y-56309648D01*
X110431228Y-56297490D01*
X110379211Y-56249171D01*
X110361500Y-56184754D01*
X110361500Y-55808988D01*
X120769956Y-55808988D01*
X120777024Y-55822434D01*
X121478568Y-56523978D01*
X121492512Y-56531592D01*
X121494345Y-56531461D01*
X121500960Y-56527210D01*
X122206457Y-55821713D01*
X122212887Y-55809938D01*
X122203591Y-55797923D01*
X122152386Y-55762069D01*
X122142891Y-55756586D01*
X121945433Y-55664510D01*
X121935141Y-55660764D01*
X121724692Y-55604375D01*
X121713899Y-55602472D01*
X121496855Y-55583483D01*
X121485905Y-55583483D01*
X121268861Y-55602472D01*
X121258068Y-55604375D01*
X121047619Y-55660764D01*
X121037327Y-55664510D01*
X120839869Y-55756586D01*
X120830374Y-55762069D01*
X120778332Y-55798509D01*
X120769956Y-55808988D01*
X110361500Y-55808988D01*
X110361500Y-54543594D01*
X110381502Y-54475473D01*
X110398405Y-54454499D01*
X111604499Y-53248405D01*
X111666811Y-53214379D01*
X111693594Y-53211500D01*
X144044406Y-53211500D01*
X144112527Y-53231502D01*
X144133501Y-53248405D01*
X144797177Y-53912081D01*
X144831203Y-53974393D01*
X144829789Y-54033786D01*
X144817653Y-54079081D01*
X144816228Y-54084400D01*
X144796578Y-54309000D01*
X144816228Y-54533600D01*
X144874581Y-54751376D01*
X144969864Y-54955711D01*
X145099181Y-55140396D01*
X145258604Y-55299819D01*
X145443289Y-55429136D01*
X145448267Y-55431457D01*
X145448270Y-55431459D01*
X145642642Y-55522096D01*
X145647624Y-55524419D01*
X145652932Y-55525841D01*
X145652934Y-55525842D01*
X145860085Y-55581348D01*
X145860087Y-55581348D01*
X145865400Y-55582772D01*
X146090000Y-55602422D01*
X146314600Y-55582772D01*
X146319913Y-55581348D01*
X146319915Y-55581348D01*
X146527066Y-55525842D01*
X146527068Y-55525841D01*
X146532376Y-55524419D01*
X146537358Y-55522096D01*
X146731730Y-55431459D01*
X146731733Y-55431457D01*
X146736711Y-55429136D01*
X146921396Y-55299819D01*
X147080819Y-55140396D01*
X147210136Y-54955711D01*
X147305419Y-54751376D01*
X147363772Y-54533600D01*
X147383422Y-54309000D01*
X147363772Y-54084400D01*
X147305419Y-53866624D01*
X147210136Y-53662289D01*
X147080819Y-53477604D01*
X146921396Y-53318181D01*
X146736711Y-53188864D01*
X146731733Y-53186543D01*
X146731730Y-53186541D01*
X146537358Y-53095904D01*
X146537357Y-53095903D01*
X146532376Y-53093581D01*
X146527068Y-53092159D01*
X146527066Y-53092158D01*
X146319915Y-53036652D01*
X146319913Y-53036652D01*
X146314600Y-53035228D01*
X146090000Y-53015578D01*
X145865400Y-53035228D01*
X145860081Y-53036653D01*
X145860082Y-53036653D01*
X145814787Y-53048789D01*
X145743811Y-53047099D01*
X145693082Y-53016177D01*
X145400500Y-52723595D01*
X145366474Y-52661283D01*
X145371539Y-52590468D01*
X145414086Y-52533632D01*
X145480606Y-52508821D01*
X145489595Y-52508500D01*
X186365500Y-52508500D01*
X186433621Y-52528502D01*
G37*
%TD.AperFunction*%
%TA.AperFunction,Conductor*%
G36*
X161155026Y-69049144D02*
G01*
X161182875Y-69080994D01*
X161192772Y-69097144D01*
X161242987Y-69179088D01*
X161389250Y-69347938D01*
X161561126Y-69490632D01*
X161632702Y-69532457D01*
X161647070Y-69540853D01*
X161695794Y-69592491D01*
X161709500Y-69649641D01*
X161709500Y-74176070D01*
X161689498Y-74244191D01*
X161635842Y-74290684D01*
X161565568Y-74300788D01*
X161509441Y-74278007D01*
X161492752Y-74265882D01*
X161486724Y-74263198D01*
X161486722Y-74263197D01*
X161324319Y-74190891D01*
X161324318Y-74190891D01*
X161318288Y-74188206D01*
X161224887Y-74168353D01*
X161137944Y-74149872D01*
X161137939Y-74149872D01*
X161131487Y-74148500D01*
X160940513Y-74148500D01*
X160934061Y-74149872D01*
X160934056Y-74149872D01*
X160847113Y-74168353D01*
X160753712Y-74188206D01*
X160747682Y-74190891D01*
X160747681Y-74190891D01*
X160585278Y-74263197D01*
X160585276Y-74263198D01*
X160579248Y-74265882D01*
X160424747Y-74378134D01*
X160296960Y-74520056D01*
X160201473Y-74685444D01*
X160142458Y-74867072D01*
X160141768Y-74873633D01*
X160141768Y-74873635D01*
X160140043Y-74890047D01*
X160132599Y-74960880D01*
X160125093Y-75032293D01*
X160098080Y-75097950D01*
X160088878Y-75108218D01*
X151920500Y-83276595D01*
X151858188Y-83310621D01*
X151831405Y-83313500D01*
X145868008Y-83313500D01*
X145799887Y-83293498D01*
X145753394Y-83239842D01*
X145743290Y-83169568D01*
X145772784Y-83104988D01*
X145807311Y-83077083D01*
X145810242Y-83075472D01*
X145817617Y-83072552D01*
X145824028Y-83067894D01*
X145824032Y-83067892D01*
X145853387Y-83046564D01*
X145863307Y-83040048D01*
X145894535Y-83021580D01*
X145894538Y-83021578D01*
X145901362Y-83017542D01*
X145915683Y-83003221D01*
X145930717Y-82990380D01*
X145940694Y-82983131D01*
X145947107Y-82978472D01*
X145975298Y-82944395D01*
X145983288Y-82935616D01*
X159020247Y-69898657D01*
X159028537Y-69891113D01*
X159035018Y-69887000D01*
X159081659Y-69837332D01*
X159084413Y-69834491D01*
X159104135Y-69814769D01*
X159106612Y-69811576D01*
X159114317Y-69802555D01*
X159139159Y-69776100D01*
X159144586Y-69770321D01*
X159152388Y-69756129D01*
X159154346Y-69752568D01*
X159165202Y-69736041D01*
X159172757Y-69726302D01*
X159172758Y-69726300D01*
X159177614Y-69720040D01*
X159180761Y-69712767D01*
X159184798Y-69705941D01*
X159187476Y-69707525D01*
X159223629Y-69664083D01*
X159291337Y-69642728D01*
X159338795Y-69650993D01*
X159422692Y-69683030D01*
X159427760Y-69684061D01*
X159427763Y-69684062D01*
X159522862Y-69703410D01*
X159641597Y-69727567D01*
X159646772Y-69727757D01*
X159646774Y-69727757D01*
X159859673Y-69735564D01*
X159859677Y-69735564D01*
X159864837Y-69735753D01*
X159869957Y-69735097D01*
X159869959Y-69735097D01*
X160081288Y-69708025D01*
X160081289Y-69708025D01*
X160086416Y-69707368D01*
X160091366Y-69705883D01*
X160295429Y-69644661D01*
X160295434Y-69644659D01*
X160300384Y-69643174D01*
X160500994Y-69544896D01*
X160682860Y-69415173D01*
X160727137Y-69371051D01*
X160826616Y-69271918D01*
X160841096Y-69257489D01*
X160869751Y-69217612D01*
X160971453Y-69076077D01*
X160972776Y-69077028D01*
X161019645Y-69033857D01*
X161089580Y-69021625D01*
X161155026Y-69049144D01*
G37*
%TD.AperFunction*%
%TA.AperFunction,Conductor*%
G36*
X154919121Y-68140002D02*
G01*
X154965614Y-68193658D01*
X154977000Y-68246000D01*
X154977000Y-69692517D01*
X154981064Y-69706359D01*
X154994478Y-69708393D01*
X155001184Y-69707534D01*
X155011262Y-69705392D01*
X155215255Y-69644191D01*
X155224842Y-69640433D01*
X155416095Y-69546739D01*
X155424945Y-69541464D01*
X155598328Y-69417792D01*
X155606200Y-69411139D01*
X155757052Y-69260812D01*
X155763730Y-69252965D01*
X155891022Y-69075819D01*
X155892279Y-69076722D01*
X155939373Y-69033362D01*
X156009311Y-69021145D01*
X156074751Y-69048678D01*
X156102579Y-69080511D01*
X156112772Y-69097144D01*
X156162987Y-69179088D01*
X156309250Y-69347938D01*
X156481126Y-69490632D01*
X156674000Y-69603338D01*
X156678825Y-69605180D01*
X156678826Y-69605181D01*
X156687256Y-69608400D01*
X156882692Y-69683030D01*
X156887760Y-69684061D01*
X156887763Y-69684062D01*
X156982862Y-69703410D01*
X157101597Y-69727567D01*
X157106776Y-69727757D01*
X157110508Y-69728202D01*
X157175781Y-69756129D01*
X157215595Y-69814911D01*
X157217307Y-69885887D01*
X157184685Y-69942411D01*
X151214907Y-75912188D01*
X145284500Y-81842595D01*
X145222188Y-81876621D01*
X145195405Y-81879500D01*
X123949295Y-81879500D01*
X123881174Y-81859498D01*
X123834681Y-81805842D01*
X123824577Y-81735568D01*
X123854071Y-81670988D01*
X123860200Y-81664405D01*
X136012134Y-69512471D01*
X136074446Y-69478445D01*
X136145261Y-69483510D01*
X136164796Y-69492777D01*
X136354000Y-69603338D01*
X136358825Y-69605180D01*
X136358826Y-69605181D01*
X136367256Y-69608400D01*
X136562692Y-69683030D01*
X136567760Y-69684061D01*
X136567763Y-69684062D01*
X136662862Y-69703410D01*
X136781597Y-69727567D01*
X136786772Y-69727757D01*
X136786774Y-69727757D01*
X136999673Y-69735564D01*
X136999677Y-69735564D01*
X137004837Y-69735753D01*
X137009957Y-69735097D01*
X137009959Y-69735097D01*
X137221288Y-69708025D01*
X137221289Y-69708025D01*
X137226416Y-69707368D01*
X137231366Y-69705883D01*
X137435429Y-69644661D01*
X137435434Y-69644659D01*
X137440384Y-69643174D01*
X137640994Y-69544896D01*
X137822860Y-69415173D01*
X137867137Y-69371051D01*
X137966616Y-69271918D01*
X137981096Y-69257489D01*
X138009751Y-69217612D01*
X138111453Y-69076077D01*
X138112776Y-69077028D01*
X138159645Y-69033857D01*
X138229580Y-69021625D01*
X138295026Y-69049144D01*
X138322875Y-69080994D01*
X138332772Y-69097144D01*
X138382987Y-69179088D01*
X138529250Y-69347938D01*
X138701126Y-69490632D01*
X138894000Y-69603338D01*
X138898825Y-69605180D01*
X138898826Y-69605181D01*
X138907256Y-69608400D01*
X139102692Y-69683030D01*
X139107760Y-69684061D01*
X139107763Y-69684062D01*
X139202862Y-69703410D01*
X139321597Y-69727567D01*
X139326772Y-69727757D01*
X139326774Y-69727757D01*
X139539673Y-69735564D01*
X139539677Y-69735564D01*
X139544837Y-69735753D01*
X139549957Y-69735097D01*
X139549959Y-69735097D01*
X139761288Y-69708025D01*
X139761289Y-69708025D01*
X139766416Y-69707368D01*
X139771366Y-69705883D01*
X139975429Y-69644661D01*
X139975434Y-69644659D01*
X139980384Y-69643174D01*
X140180994Y-69544896D01*
X140362860Y-69415173D01*
X140407137Y-69371051D01*
X140506616Y-69271918D01*
X140521096Y-69257489D01*
X140549751Y-69217612D01*
X140651453Y-69076077D01*
X140652776Y-69077028D01*
X140699645Y-69033857D01*
X140769580Y-69021625D01*
X140835026Y-69049144D01*
X140862875Y-69080994D01*
X140872772Y-69097144D01*
X140922987Y-69179088D01*
X141069250Y-69347938D01*
X141241126Y-69490632D01*
X141434000Y-69603338D01*
X141438825Y-69605180D01*
X141438826Y-69605181D01*
X141447256Y-69608400D01*
X141642692Y-69683030D01*
X141647760Y-69684061D01*
X141647763Y-69684062D01*
X141742862Y-69703410D01*
X141861597Y-69727567D01*
X141866772Y-69727757D01*
X141866774Y-69727757D01*
X142079673Y-69735564D01*
X142079677Y-69735564D01*
X142084837Y-69735753D01*
X142089957Y-69735097D01*
X142089959Y-69735097D01*
X142301288Y-69708025D01*
X142301289Y-69708025D01*
X142306416Y-69707368D01*
X142311366Y-69705883D01*
X142515429Y-69644661D01*
X142515434Y-69644659D01*
X142520384Y-69643174D01*
X142720994Y-69544896D01*
X142725199Y-69541896D01*
X142725205Y-69541893D01*
X142838440Y-69461123D01*
X142905513Y-69437849D01*
X142974522Y-69454533D01*
X143000703Y-69474607D01*
X144403343Y-70877247D01*
X144410887Y-70885537D01*
X144415000Y-70892018D01*
X144420777Y-70897443D01*
X144464667Y-70938658D01*
X144467509Y-70941413D01*
X144487230Y-70961134D01*
X144490425Y-70963612D01*
X144499447Y-70971318D01*
X144531679Y-71001586D01*
X144538628Y-71005406D01*
X144549432Y-71011346D01*
X144565956Y-71022199D01*
X144581959Y-71034613D01*
X144622543Y-71052176D01*
X144633173Y-71057383D01*
X144671940Y-71078695D01*
X144679617Y-71080666D01*
X144679622Y-71080668D01*
X144691558Y-71083732D01*
X144710266Y-71090137D01*
X144728855Y-71098181D01*
X144736680Y-71099420D01*
X144736682Y-71099421D01*
X144772519Y-71105097D01*
X144784140Y-71107504D01*
X144815959Y-71115673D01*
X144826970Y-71118500D01*
X144847231Y-71118500D01*
X144866940Y-71120051D01*
X144886943Y-71123219D01*
X144894835Y-71122473D01*
X144900062Y-71121979D01*
X144930954Y-71119059D01*
X144942811Y-71118500D01*
X149019233Y-71118500D01*
X149030416Y-71119027D01*
X149037909Y-71120702D01*
X149045835Y-71120453D01*
X149045836Y-71120453D01*
X149105986Y-71118562D01*
X149109945Y-71118500D01*
X149137856Y-71118500D01*
X149141791Y-71118003D01*
X149141856Y-71117995D01*
X149153693Y-71117062D01*
X149185951Y-71116048D01*
X149189970Y-71115922D01*
X149197889Y-71115673D01*
X149217343Y-71110021D01*
X149236700Y-71106013D01*
X149248930Y-71104468D01*
X149248931Y-71104468D01*
X149256797Y-71103474D01*
X149264168Y-71100555D01*
X149264170Y-71100555D01*
X149297912Y-71087196D01*
X149309142Y-71083351D01*
X149343983Y-71073229D01*
X149343984Y-71073229D01*
X149351593Y-71071018D01*
X149358412Y-71066985D01*
X149358417Y-71066983D01*
X149369028Y-71060707D01*
X149386776Y-71052012D01*
X149405617Y-71044552D01*
X149425987Y-71029753D01*
X149441387Y-71018564D01*
X149451307Y-71012048D01*
X149482535Y-70993580D01*
X149482538Y-70993578D01*
X149489362Y-70989542D01*
X149503683Y-70975221D01*
X149518717Y-70962380D01*
X149520432Y-70961134D01*
X149535107Y-70950472D01*
X149563298Y-70916395D01*
X149571288Y-70907616D01*
X150035247Y-70443657D01*
X150043537Y-70436113D01*
X150050018Y-70432000D01*
X150096659Y-70382332D01*
X150099413Y-70379491D01*
X150119134Y-70359770D01*
X150121612Y-70356575D01*
X150129318Y-70347553D01*
X150154158Y-70321101D01*
X150159586Y-70315321D01*
X150169346Y-70297568D01*
X150180199Y-70281045D01*
X150187753Y-70271306D01*
X150192613Y-70265041D01*
X150210176Y-70224457D01*
X150215383Y-70213827D01*
X150236695Y-70175060D01*
X150238666Y-70167383D01*
X150238668Y-70167378D01*
X150241732Y-70155442D01*
X150248138Y-70136730D01*
X150253034Y-70125417D01*
X150256181Y-70118145D01*
X150263097Y-70074481D01*
X150265504Y-70062860D01*
X150274528Y-70027711D01*
X150274528Y-70027710D01*
X150276500Y-70020030D01*
X150276500Y-69999769D01*
X150278051Y-69980058D01*
X150279979Y-69967885D01*
X150281219Y-69960057D01*
X150277059Y-69916046D01*
X150276500Y-69904189D01*
X150276500Y-69654427D01*
X150296502Y-69586306D01*
X150337618Y-69546550D01*
X150340994Y-69544896D01*
X150522860Y-69415173D01*
X150567137Y-69371051D01*
X150666616Y-69271918D01*
X150681096Y-69257489D01*
X150709751Y-69217612D01*
X150811453Y-69076077D01*
X150812776Y-69077028D01*
X150859645Y-69033857D01*
X150929580Y-69021625D01*
X150995026Y-69049144D01*
X151022875Y-69080994D01*
X151032772Y-69097144D01*
X151082987Y-69179088D01*
X151229250Y-69347938D01*
X151401126Y-69490632D01*
X151594000Y-69603338D01*
X151598825Y-69605180D01*
X151598826Y-69605181D01*
X151607256Y-69608400D01*
X151802692Y-69683030D01*
X151807760Y-69684061D01*
X151807763Y-69684062D01*
X151902862Y-69703410D01*
X152021597Y-69727567D01*
X152026772Y-69727757D01*
X152026774Y-69727757D01*
X152239673Y-69735564D01*
X152239677Y-69735564D01*
X152244837Y-69735753D01*
X152249957Y-69735097D01*
X152249959Y-69735097D01*
X152461288Y-69708025D01*
X152461289Y-69708025D01*
X152466416Y-69707368D01*
X152471366Y-69705883D01*
X152675429Y-69644661D01*
X152675434Y-69644659D01*
X152680384Y-69643174D01*
X152880994Y-69544896D01*
X153062860Y-69415173D01*
X153107137Y-69371051D01*
X153206616Y-69271918D01*
X153221096Y-69257489D01*
X153249751Y-69217612D01*
X153351453Y-69076077D01*
X153352640Y-69076930D01*
X153399960Y-69033362D01*
X153469897Y-69021145D01*
X153535338Y-69048678D01*
X153563166Y-69080511D01*
X153620694Y-69174388D01*
X153626777Y-69182699D01*
X153766213Y-69343667D01*
X153773580Y-69350883D01*
X153937434Y-69486916D01*
X153945881Y-69492831D01*
X154129756Y-69600279D01*
X154139042Y-69604729D01*
X154338001Y-69680703D01*
X154347899Y-69683579D01*
X154451250Y-69704606D01*
X154465299Y-69703410D01*
X154469000Y-69693065D01*
X154469000Y-68246000D01*
X154489002Y-68177879D01*
X154542658Y-68131386D01*
X154595000Y-68120000D01*
X154851000Y-68120000D01*
X154919121Y-68140002D01*
G37*
%TD.AperFunction*%
%TA.AperFunction,Conductor*%
G36*
X112981733Y-62681637D02*
G01*
X114573343Y-64273247D01*
X114580887Y-64281537D01*
X114585000Y-64288018D01*
X114590777Y-64293443D01*
X114634667Y-64334658D01*
X114637509Y-64337413D01*
X114657230Y-64357134D01*
X114660425Y-64359612D01*
X114669447Y-64367318D01*
X114701679Y-64397586D01*
X114708628Y-64401406D01*
X114719432Y-64407346D01*
X114735956Y-64418199D01*
X114751959Y-64430613D01*
X114792543Y-64448176D01*
X114803173Y-64453383D01*
X114841940Y-64474695D01*
X114849617Y-64476666D01*
X114849622Y-64476668D01*
X114861558Y-64479732D01*
X114880266Y-64486137D01*
X114898855Y-64494181D01*
X114906680Y-64495420D01*
X114906682Y-64495421D01*
X114942519Y-64501097D01*
X114954140Y-64503504D01*
X114989289Y-64512528D01*
X114996970Y-64514500D01*
X115017231Y-64514500D01*
X115036940Y-64516051D01*
X115056943Y-64519219D01*
X115064835Y-64518473D01*
X115070062Y-64517979D01*
X115100954Y-64515059D01*
X115112811Y-64514500D01*
X123360038Y-64514500D01*
X123428159Y-64534502D01*
X123474652Y-64588158D01*
X123484756Y-64658432D01*
X123455262Y-64723012D01*
X123435691Y-64741260D01*
X123345886Y-64808688D01*
X123337965Y-64814635D01*
X123299106Y-64855299D01*
X123202934Y-64955937D01*
X123183629Y-64976138D01*
X123180720Y-64980403D01*
X123180714Y-64980411D01*
X123165798Y-65002277D01*
X123057743Y-65160680D01*
X122963688Y-65363305D01*
X122903989Y-65578570D01*
X122880251Y-65800695D01*
X122880548Y-65805848D01*
X122880548Y-65805851D01*
X122886011Y-65900590D01*
X122893110Y-66023715D01*
X122894247Y-66028761D01*
X122894248Y-66028767D01*
X122911659Y-66106024D01*
X122942222Y-66241639D01*
X123026266Y-66448616D01*
X123068379Y-66517338D01*
X123140291Y-66634688D01*
X123142987Y-66639088D01*
X123289250Y-66807938D01*
X123293230Y-66811242D01*
X123297981Y-66815187D01*
X123337616Y-66874090D01*
X123339113Y-66945071D01*
X123301997Y-67005593D01*
X123261725Y-67030112D01*
X123220913Y-67045412D01*
X123146295Y-67073385D01*
X123029739Y-67160739D01*
X122942385Y-67277295D01*
X122891255Y-67413684D01*
X122884500Y-67475866D01*
X122884500Y-69272134D01*
X122891255Y-69334316D01*
X122942385Y-69470705D01*
X123029739Y-69587261D01*
X123146295Y-69674615D01*
X123282684Y-69725745D01*
X123344866Y-69732500D01*
X125141134Y-69732500D01*
X125203316Y-69725745D01*
X125339705Y-69674615D01*
X125456261Y-69587261D01*
X125543615Y-69470705D01*
X125565799Y-69411529D01*
X125587598Y-69353382D01*
X125630240Y-69296618D01*
X125696802Y-69271918D01*
X125766150Y-69287126D01*
X125800817Y-69315114D01*
X125829250Y-69347938D01*
X126001126Y-69490632D01*
X126194000Y-69603338D01*
X126198825Y-69605180D01*
X126198826Y-69605181D01*
X126207256Y-69608400D01*
X126402692Y-69683030D01*
X126407760Y-69684061D01*
X126407763Y-69684062D01*
X126502862Y-69703410D01*
X126621597Y-69727567D01*
X126626772Y-69727757D01*
X126626774Y-69727757D01*
X126839673Y-69735564D01*
X126839677Y-69735564D01*
X126844837Y-69735753D01*
X126849957Y-69735097D01*
X126849959Y-69735097D01*
X127061288Y-69708025D01*
X127061289Y-69708025D01*
X127066416Y-69707368D01*
X127071366Y-69705883D01*
X127275429Y-69644661D01*
X127275434Y-69644659D01*
X127280384Y-69643174D01*
X127480994Y-69544896D01*
X127662860Y-69415173D01*
X127707137Y-69371051D01*
X127806616Y-69271918D01*
X127821096Y-69257489D01*
X127849751Y-69217612D01*
X127951453Y-69076077D01*
X127952776Y-69077028D01*
X127999645Y-69033857D01*
X128069580Y-69021625D01*
X128135026Y-69049144D01*
X128162875Y-69080994D01*
X128172772Y-69097144D01*
X128222987Y-69179088D01*
X128369250Y-69347938D01*
X128541126Y-69490632D01*
X128734000Y-69603338D01*
X128738825Y-69605180D01*
X128738826Y-69605181D01*
X128747256Y-69608400D01*
X128942692Y-69683030D01*
X128947760Y-69684061D01*
X128947763Y-69684062D01*
X129042862Y-69703410D01*
X129161597Y-69727567D01*
X129166772Y-69727757D01*
X129166774Y-69727757D01*
X129379673Y-69735564D01*
X129379677Y-69735564D01*
X129384837Y-69735753D01*
X129389957Y-69735097D01*
X129389959Y-69735097D01*
X129601288Y-69708025D01*
X129601289Y-69708025D01*
X129606416Y-69707368D01*
X129611366Y-69705883D01*
X129815429Y-69644661D01*
X129815434Y-69644659D01*
X129820384Y-69643174D01*
X130020994Y-69544896D01*
X130202860Y-69415173D01*
X130247137Y-69371051D01*
X130346616Y-69271918D01*
X130361096Y-69257489D01*
X130389751Y-69217612D01*
X130491453Y-69076077D01*
X130492776Y-69077028D01*
X130539645Y-69033857D01*
X130609580Y-69021625D01*
X130675026Y-69049144D01*
X130702875Y-69080994D01*
X130712772Y-69097144D01*
X130762987Y-69179088D01*
X130909250Y-69347938D01*
X131081126Y-69490632D01*
X131274000Y-69603338D01*
X131278825Y-69605180D01*
X131278826Y-69605181D01*
X131287256Y-69608400D01*
X131482692Y-69683030D01*
X131487760Y-69684061D01*
X131487763Y-69684062D01*
X131582862Y-69703410D01*
X131701597Y-69727567D01*
X131706772Y-69727757D01*
X131706774Y-69727757D01*
X131919673Y-69735564D01*
X131919677Y-69735564D01*
X131924837Y-69735753D01*
X131929957Y-69735097D01*
X131929959Y-69735097D01*
X132141288Y-69708025D01*
X132141289Y-69708025D01*
X132146416Y-69707368D01*
X132151366Y-69705883D01*
X132355429Y-69644661D01*
X132355434Y-69644659D01*
X132360384Y-69643174D01*
X132560994Y-69544896D01*
X132742860Y-69415173D01*
X132787137Y-69371051D01*
X132886616Y-69271918D01*
X132901096Y-69257489D01*
X132929751Y-69217612D01*
X133031453Y-69076077D01*
X133032640Y-69076930D01*
X133079960Y-69033362D01*
X133149897Y-69021145D01*
X133215338Y-69048678D01*
X133243166Y-69080511D01*
X133300694Y-69174388D01*
X133306777Y-69182699D01*
X133446213Y-69343667D01*
X133453580Y-69350883D01*
X133617434Y-69486916D01*
X133625881Y-69492831D01*
X133809756Y-69600279D01*
X133819043Y-69604729D01*
X133861069Y-69620777D01*
X133917572Y-69663764D01*
X133941865Y-69730476D01*
X133926235Y-69799730D01*
X133905215Y-69827582D01*
X128218206Y-75514590D01*
X122615201Y-81117595D01*
X122552889Y-81151621D01*
X122526106Y-81154500D01*
X120850200Y-81154500D01*
X120782079Y-81134498D01*
X120762853Y-81118157D01*
X120762580Y-81118460D01*
X120757668Y-81114037D01*
X120753253Y-81109134D01*
X120598752Y-80996882D01*
X120592724Y-80994198D01*
X120592722Y-80994197D01*
X120430319Y-80921891D01*
X120430318Y-80921891D01*
X120424288Y-80919206D01*
X120330888Y-80899353D01*
X120243944Y-80880872D01*
X120243939Y-80880872D01*
X120237487Y-80879500D01*
X120046513Y-80879500D01*
X120040061Y-80880872D01*
X120040056Y-80880872D01*
X119953112Y-80899353D01*
X119859712Y-80919206D01*
X119853682Y-80921891D01*
X119853681Y-80921891D01*
X119691278Y-80994197D01*
X119691276Y-80994198D01*
X119685248Y-80996882D01*
X119530747Y-81109134D01*
X119483597Y-81161500D01*
X119470484Y-81176063D01*
X119410038Y-81213303D01*
X119339055Y-81211951D01*
X119287753Y-81180848D01*
X114081405Y-75974500D01*
X114047379Y-75912188D01*
X114044500Y-75885405D01*
X114044500Y-71699793D01*
X114046732Y-71676184D01*
X114046790Y-71675881D01*
X114046790Y-71675877D01*
X114048275Y-71668094D01*
X114044749Y-71612049D01*
X114044500Y-71604138D01*
X114044500Y-71588144D01*
X114042494Y-71572270D01*
X114041751Y-71564402D01*
X114038723Y-71516263D01*
X114038723Y-71516262D01*
X114038225Y-71508350D01*
X114035679Y-71500513D01*
X114030506Y-71477369D01*
X114030468Y-71477065D01*
X114030467Y-71477060D01*
X114029474Y-71469203D01*
X114026558Y-71461838D01*
X114026557Y-71461834D01*
X114008801Y-71416989D01*
X114006129Y-71409570D01*
X113988764Y-71356125D01*
X113984514Y-71349428D01*
X113984350Y-71349169D01*
X113973585Y-71328042D01*
X113973471Y-71327754D01*
X113973468Y-71327749D01*
X113970552Y-71320383D01*
X113965896Y-71313975D01*
X113965893Y-71313969D01*
X113937542Y-71274948D01*
X113933092Y-71268401D01*
X113903000Y-71220982D01*
X113896993Y-71215341D01*
X113881312Y-71197554D01*
X113881134Y-71197309D01*
X113881132Y-71197307D01*
X113876472Y-71190893D01*
X113870362Y-71185838D01*
X113833204Y-71155097D01*
X113827270Y-71149866D01*
X113792102Y-71116842D01*
X113792099Y-71116840D01*
X113786321Y-71111414D01*
X113779097Y-71107442D01*
X113759494Y-71094119D01*
X113759254Y-71093920D01*
X113759247Y-71093916D01*
X113753144Y-71088867D01*
X113702324Y-71064953D01*
X113695292Y-71061371D01*
X113646060Y-71034305D01*
X113638385Y-71032335D01*
X113638379Y-71032332D01*
X113638081Y-71032256D01*
X113615772Y-71024224D01*
X113615497Y-71024094D01*
X113615489Y-71024091D01*
X113608318Y-71020717D01*
X113553151Y-71010194D01*
X113545442Y-71008471D01*
X113511449Y-70999743D01*
X113498707Y-70996471D01*
X113498706Y-70996471D01*
X113491030Y-70994500D01*
X113482793Y-70994500D01*
X113459184Y-70992268D01*
X113458881Y-70992210D01*
X113458877Y-70992210D01*
X113451094Y-70990725D01*
X113395049Y-70994251D01*
X113387138Y-70994500D01*
X112978595Y-70994500D01*
X112910474Y-70974498D01*
X112889500Y-70957595D01*
X112755218Y-70823313D01*
X112721192Y-70761001D01*
X112723755Y-70697589D01*
X112734865Y-70661022D01*
X112736370Y-70656069D01*
X112765529Y-70434590D01*
X112765611Y-70431240D01*
X112767074Y-70371365D01*
X112767074Y-70371361D01*
X112767156Y-70368000D01*
X112748852Y-70145361D01*
X112694431Y-69928702D01*
X112605354Y-69723840D01*
X112558087Y-69650776D01*
X112486822Y-69540617D01*
X112486820Y-69540614D01*
X112484014Y-69536277D01*
X112333670Y-69371051D01*
X112329619Y-69367852D01*
X112329615Y-69367848D01*
X112162414Y-69235800D01*
X112162410Y-69235798D01*
X112158359Y-69232598D01*
X112117053Y-69209796D01*
X112067084Y-69159364D01*
X112052312Y-69089921D01*
X112077428Y-69023516D01*
X112104780Y-68996909D01*
X112148603Y-68965650D01*
X112283860Y-68869173D01*
X112338454Y-68814770D01*
X112438435Y-68715137D01*
X112442096Y-68711489D01*
X112460068Y-68686479D01*
X112569435Y-68534277D01*
X112572453Y-68530077D01*
X112576842Y-68521198D01*
X112669136Y-68334453D01*
X112669137Y-68334451D01*
X112671430Y-68329811D01*
X112720065Y-68169734D01*
X112734865Y-68121023D01*
X112734865Y-68121021D01*
X112736370Y-68116069D01*
X112765529Y-67894590D01*
X112765611Y-67891240D01*
X112767074Y-67831365D01*
X112767074Y-67831361D01*
X112767156Y-67828000D01*
X112748852Y-67605361D01*
X112694431Y-67388702D01*
X112605354Y-67183840D01*
X112581422Y-67146846D01*
X117484948Y-67146846D01*
X117510909Y-67418949D01*
X117511994Y-67423383D01*
X117511995Y-67423389D01*
X117540152Y-67538457D01*
X117575878Y-67684455D01*
X117577590Y-67688681D01*
X117577591Y-67688685D01*
X117675384Y-67930124D01*
X117678493Y-67937801D01*
X117816606Y-68173680D01*
X117987323Y-68387151D01*
X118187068Y-68573742D01*
X118411656Y-68729544D01*
X118516371Y-68781639D01*
X118652296Y-68849261D01*
X118652299Y-68849262D01*
X118656383Y-68851294D01*
X118916121Y-68936440D01*
X118920612Y-68937220D01*
X118920613Y-68937220D01*
X119181650Y-68982544D01*
X119181658Y-68982545D01*
X119185431Y-68983200D01*
X119189268Y-68983391D01*
X119270233Y-68987422D01*
X119270241Y-68987422D01*
X119271804Y-68987500D01*
X119442434Y-68987500D01*
X119444702Y-68987335D01*
X119444714Y-68987335D01*
X119576273Y-68977789D01*
X119645622Y-68972757D01*
X119650077Y-68971773D01*
X119650080Y-68971773D01*
X119908073Y-68914814D01*
X119908077Y-68914813D01*
X119912533Y-68913829D01*
X120082957Y-68849261D01*
X120163872Y-68818605D01*
X120163875Y-68818604D01*
X120168142Y-68816987D01*
X120407094Y-68684261D01*
X120624383Y-68518431D01*
X120815458Y-68322971D01*
X120818147Y-68319277D01*
X120973629Y-68105667D01*
X120973632Y-68105661D01*
X120976315Y-68101976D01*
X120978437Y-68097943D01*
X120978440Y-68097938D01*
X121101460Y-67864115D01*
X121101460Y-67864114D01*
X121103586Y-67860074D01*
X121114913Y-67828000D01*
X121150494Y-67727240D01*
X121194603Y-67602334D01*
X121220482Y-67471037D01*
X121246580Y-67338627D01*
X121246581Y-67338621D01*
X121247461Y-67334155D01*
X121250292Y-67277295D01*
X121260825Y-67065723D01*
X121260825Y-67065717D01*
X121261052Y-67061154D01*
X121235091Y-66789051D01*
X121230517Y-66770355D01*
X121171207Y-66527979D01*
X121170122Y-66523545D01*
X121164289Y-66509144D01*
X121069220Y-66274427D01*
X121069217Y-66274421D01*
X121067507Y-66270199D01*
X121050785Y-66241639D01*
X120949113Y-66067998D01*
X120929394Y-66034320D01*
X120758677Y-65820849D01*
X120558932Y-65634258D01*
X120334344Y-65478456D01*
X120191498Y-65407391D01*
X120093704Y-65358739D01*
X120093701Y-65358738D01*
X120089617Y-65356706D01*
X119829879Y-65271560D01*
X119825387Y-65270780D01*
X119564350Y-65225456D01*
X119564342Y-65225455D01*
X119560569Y-65224800D01*
X119549238Y-65224236D01*
X119475767Y-65220578D01*
X119475759Y-65220578D01*
X119474196Y-65220500D01*
X119303566Y-65220500D01*
X119301298Y-65220665D01*
X119301286Y-65220665D01*
X119169727Y-65230211D01*
X119100378Y-65235243D01*
X119095923Y-65236227D01*
X119095920Y-65236227D01*
X118837927Y-65293186D01*
X118837923Y-65293187D01*
X118833467Y-65294171D01*
X118719557Y-65337328D01*
X118582128Y-65389395D01*
X118582125Y-65389396D01*
X118577858Y-65391013D01*
X118338906Y-65523739D01*
X118121617Y-65689569D01*
X117930542Y-65885029D01*
X117927855Y-65888721D01*
X117927853Y-65888723D01*
X117772371Y-66102333D01*
X117772368Y-66102339D01*
X117769685Y-66106024D01*
X117767563Y-66110057D01*
X117767560Y-66110062D01*
X117683308Y-66270199D01*
X117642414Y-66347926D01*
X117551397Y-66605666D01*
X117534754Y-66690104D01*
X117506974Y-66831051D01*
X117498539Y-66873845D01*
X117498312Y-66878398D01*
X117498312Y-66878401D01*
X117485755Y-67130638D01*
X117484948Y-67146846D01*
X112581422Y-67146846D01*
X112535183Y-67075372D01*
X112486822Y-67000617D01*
X112486820Y-67000614D01*
X112484014Y-66996277D01*
X112333670Y-66831051D01*
X112329619Y-66827852D01*
X112329615Y-66827848D01*
X112162414Y-66695800D01*
X112162410Y-66695798D01*
X112158359Y-66692598D01*
X112117053Y-66669796D01*
X112067084Y-66619364D01*
X112052312Y-66549921D01*
X112077428Y-66483516D01*
X112104780Y-66456909D01*
X112148603Y-66425650D01*
X112283860Y-66329173D01*
X112343041Y-66270199D01*
X112438435Y-66175137D01*
X112442096Y-66171489D01*
X112543225Y-66030753D01*
X112569435Y-65994277D01*
X112572453Y-65990077D01*
X112586330Y-65962000D01*
X112669136Y-65794453D01*
X112669137Y-65794451D01*
X112671430Y-65789811D01*
X112718691Y-65634258D01*
X112734865Y-65581023D01*
X112734865Y-65581021D01*
X112736370Y-65576069D01*
X112765529Y-65354590D01*
X112765611Y-65351240D01*
X112767074Y-65291365D01*
X112767074Y-65291361D01*
X112767156Y-65288000D01*
X112748852Y-65065361D01*
X112694431Y-64848702D01*
X112605354Y-64643840D01*
X112524584Y-64518989D01*
X112486822Y-64460617D01*
X112486820Y-64460614D01*
X112484014Y-64456277D01*
X112333670Y-64291051D01*
X112329619Y-64287852D01*
X112329615Y-64287848D01*
X112162414Y-64155800D01*
X112162410Y-64155798D01*
X112158359Y-64152598D01*
X112117053Y-64129796D01*
X112067084Y-64079364D01*
X112052312Y-64009921D01*
X112077428Y-63943516D01*
X112104780Y-63916909D01*
X112154309Y-63881580D01*
X112283860Y-63789173D01*
X112442096Y-63631489D01*
X112572453Y-63450077D01*
X112593049Y-63408405D01*
X112669136Y-63254453D01*
X112669137Y-63254451D01*
X112671430Y-63249811D01*
X112736370Y-63036069D01*
X112765529Y-62814590D01*
X112766676Y-62767654D01*
X112788336Y-62700042D01*
X112843111Y-62654874D01*
X112913611Y-62646490D01*
X112981733Y-62681637D01*
G37*
%TD.AperFunction*%
%TA.AperFunction,Conductor*%
G36*
X150375527Y-57676502D02*
G01*
X150396501Y-57693405D01*
X152110595Y-59407500D01*
X152144621Y-59469812D01*
X152147500Y-59496595D01*
X152147500Y-61643233D01*
X152146973Y-61654416D01*
X152145298Y-61661909D01*
X152145547Y-61669835D01*
X152145547Y-61669836D01*
X152147438Y-61729986D01*
X152147500Y-61733945D01*
X152147500Y-61761856D01*
X152147997Y-61765790D01*
X152147997Y-61765791D01*
X152148005Y-61765856D01*
X152148938Y-61777693D01*
X152150327Y-61821889D01*
X152155978Y-61841339D01*
X152159987Y-61860700D01*
X152162526Y-61880797D01*
X152165445Y-61888168D01*
X152165445Y-61888170D01*
X152178804Y-61921912D01*
X152182649Y-61933142D01*
X152194982Y-61975593D01*
X152199015Y-61982412D01*
X152199017Y-61982417D01*
X152205293Y-61993028D01*
X152213988Y-62010776D01*
X152221448Y-62029617D01*
X152226110Y-62036033D01*
X152226110Y-62036034D01*
X152247436Y-62065387D01*
X152253952Y-62075307D01*
X152270300Y-62102949D01*
X152276458Y-62113362D01*
X152290779Y-62127683D01*
X152303619Y-62142716D01*
X152315528Y-62159107D01*
X152321632Y-62164157D01*
X152321637Y-62164162D01*
X152349598Y-62187293D01*
X152358379Y-62195283D01*
X153293353Y-63130258D01*
X153300887Y-63138537D01*
X153305000Y-63145018D01*
X153354651Y-63191643D01*
X153357493Y-63194398D01*
X153377230Y-63214135D01*
X153380427Y-63216615D01*
X153389447Y-63224318D01*
X153421679Y-63254586D01*
X153428625Y-63258405D01*
X153428628Y-63258407D01*
X153439434Y-63264348D01*
X153455953Y-63275199D01*
X153471959Y-63287614D01*
X153479228Y-63290759D01*
X153479232Y-63290762D01*
X153512537Y-63305174D01*
X153523187Y-63310391D01*
X153561940Y-63331695D01*
X153569615Y-63333666D01*
X153569616Y-63333666D01*
X153581562Y-63336733D01*
X153600267Y-63343137D01*
X153618855Y-63351181D01*
X153626678Y-63352420D01*
X153626688Y-63352423D01*
X153662524Y-63358099D01*
X153674144Y-63360505D01*
X153709289Y-63369528D01*
X153716970Y-63371500D01*
X153737224Y-63371500D01*
X153756934Y-63373051D01*
X153776943Y-63376220D01*
X153784835Y-63375474D01*
X153820961Y-63372059D01*
X153832819Y-63371500D01*
X166055406Y-63371500D01*
X166123527Y-63391502D01*
X166144501Y-63408405D01*
X167065207Y-64329111D01*
X167099233Y-64391423D01*
X167094168Y-64462238D01*
X167051621Y-64519074D01*
X167015257Y-64537971D01*
X166894756Y-64577357D01*
X166831008Y-64610542D01*
X166739013Y-64658432D01*
X166696607Y-64680507D01*
X166692474Y-64683610D01*
X166692471Y-64683612D01*
X166522100Y-64811530D01*
X166517965Y-64814635D01*
X166479106Y-64855299D01*
X166382934Y-64955937D01*
X166363629Y-64976138D01*
X166360720Y-64980403D01*
X166360714Y-64980411D01*
X166345798Y-65002277D01*
X166256204Y-65133618D01*
X166255898Y-65134066D01*
X166200987Y-65179069D01*
X166130462Y-65187240D01*
X166066715Y-65155986D01*
X166046018Y-65131502D01*
X165965426Y-65006926D01*
X165959136Y-64998757D01*
X165815806Y-64841240D01*
X165808273Y-64834215D01*
X165641139Y-64702222D01*
X165632552Y-64696517D01*
X165446117Y-64593599D01*
X165436705Y-64589369D01*
X165235959Y-64518280D01*
X165225988Y-64515646D01*
X165154837Y-64502972D01*
X165141540Y-64504432D01*
X165137000Y-64518989D01*
X165137000Y-65962000D01*
X165116998Y-66030121D01*
X165063342Y-66076614D01*
X165011000Y-66088000D01*
X164755000Y-66088000D01*
X164686879Y-66067998D01*
X164640386Y-66014342D01*
X164629000Y-65962000D01*
X164629000Y-64517102D01*
X164625082Y-64503758D01*
X164610806Y-64501771D01*
X164572324Y-64507660D01*
X164562288Y-64510051D01*
X164359868Y-64576212D01*
X164350359Y-64580209D01*
X164161463Y-64678542D01*
X164152738Y-64684036D01*
X164010512Y-64790823D01*
X163944027Y-64815729D01*
X163874632Y-64800737D01*
X163845763Y-64779158D01*
X163634751Y-64568145D01*
X163333348Y-64266742D01*
X163325814Y-64258463D01*
X163321701Y-64251982D01*
X163272049Y-64205356D01*
X163269208Y-64202602D01*
X163249471Y-64182865D01*
X163246274Y-64180385D01*
X163237252Y-64172680D01*
X163219277Y-64155800D01*
X163205022Y-64142414D01*
X163198076Y-64138595D01*
X163198073Y-64138593D01*
X163187267Y-64132652D01*
X163170748Y-64121801D01*
X163168015Y-64119681D01*
X163154742Y-64109386D01*
X163147473Y-64106241D01*
X163147469Y-64106238D01*
X163114164Y-64091826D01*
X163103514Y-64086609D01*
X163064761Y-64065305D01*
X163045138Y-64060267D01*
X163026435Y-64053863D01*
X163015121Y-64048967D01*
X163015120Y-64048967D01*
X163007846Y-64045819D01*
X163000023Y-64044580D01*
X163000013Y-64044577D01*
X162964177Y-64038901D01*
X162952557Y-64036495D01*
X162917412Y-64027472D01*
X162917411Y-64027472D01*
X162909731Y-64025500D01*
X162889477Y-64025500D01*
X162869766Y-64023949D01*
X162857587Y-64022020D01*
X162849758Y-64020780D01*
X162820487Y-64023547D01*
X162805740Y-64024941D01*
X162793882Y-64025500D01*
X159395067Y-64025500D01*
X159383884Y-64024973D01*
X159376391Y-64023298D01*
X159368465Y-64023547D01*
X159368464Y-64023547D01*
X159308301Y-64025438D01*
X159304343Y-64025500D01*
X159276443Y-64025500D01*
X159272453Y-64026004D01*
X159260619Y-64026936D01*
X159216410Y-64028326D01*
X159208796Y-64030538D01*
X159208791Y-64030539D01*
X159196958Y-64033977D01*
X159177595Y-64037988D01*
X159157502Y-64040526D01*
X159150135Y-64043443D01*
X159150130Y-64043444D01*
X159116391Y-64056802D01*
X159105164Y-64060646D01*
X159062706Y-64072982D01*
X159055880Y-64077019D01*
X159045271Y-64083293D01*
X159027523Y-64091988D01*
X159008682Y-64099448D01*
X159002266Y-64104110D01*
X159002265Y-64104110D01*
X158972912Y-64125436D01*
X158962992Y-64131952D01*
X158931764Y-64150420D01*
X158931761Y-64150422D01*
X158924937Y-64154458D01*
X158910616Y-64168779D01*
X158895583Y-64181619D01*
X158879192Y-64193528D01*
X158856928Y-64220441D01*
X158851011Y-64227593D01*
X158843021Y-64236374D01*
X158299666Y-64779728D01*
X158237354Y-64813753D01*
X158166538Y-64808688D01*
X158132479Y-64789514D01*
X158021414Y-64701800D01*
X158021410Y-64701798D01*
X158017359Y-64698598D01*
X157986323Y-64681465D01*
X157926769Y-64648590D01*
X157821789Y-64590638D01*
X157816920Y-64588914D01*
X157816916Y-64588912D01*
X157616087Y-64517795D01*
X157616083Y-64517794D01*
X157611212Y-64516069D01*
X157606119Y-64515162D01*
X157606116Y-64515161D01*
X157396373Y-64477800D01*
X157396367Y-64477799D01*
X157391284Y-64476894D01*
X157317452Y-64475992D01*
X157173081Y-64474228D01*
X157173079Y-64474228D01*
X157167911Y-64474165D01*
X156947091Y-64507955D01*
X156734756Y-64577357D01*
X156671008Y-64610542D01*
X156579013Y-64658432D01*
X156536607Y-64680507D01*
X156532474Y-64683610D01*
X156532471Y-64683612D01*
X156362100Y-64811530D01*
X156357965Y-64814635D01*
X156319106Y-64855299D01*
X156222934Y-64955937D01*
X156203629Y-64976138D01*
X156096201Y-65133621D01*
X156041293Y-65178621D01*
X155970768Y-65186792D01*
X155907021Y-65155538D01*
X155886324Y-65131054D01*
X155805822Y-65006617D01*
X155805820Y-65006614D01*
X155803014Y-65002277D01*
X155652670Y-64837051D01*
X155648619Y-64833852D01*
X155648615Y-64833848D01*
X155481414Y-64701800D01*
X155481410Y-64701798D01*
X155477359Y-64698598D01*
X155446323Y-64681465D01*
X155386769Y-64648590D01*
X155281789Y-64590638D01*
X155276920Y-64588914D01*
X155276916Y-64588912D01*
X155076087Y-64517795D01*
X155076083Y-64517794D01*
X155071212Y-64516069D01*
X155066119Y-64515162D01*
X155066116Y-64515161D01*
X154856373Y-64477800D01*
X154856367Y-64477799D01*
X154851284Y-64476894D01*
X154777452Y-64475992D01*
X154633081Y-64474228D01*
X154633079Y-64474228D01*
X154627911Y-64474165D01*
X154407091Y-64507955D01*
X154194756Y-64577357D01*
X154131008Y-64610542D01*
X154039013Y-64658432D01*
X153996607Y-64680507D01*
X153992474Y-64683610D01*
X153992471Y-64683612D01*
X153822100Y-64811530D01*
X153817965Y-64814635D01*
X153779106Y-64855299D01*
X153682934Y-64955937D01*
X153663629Y-64976138D01*
X153556201Y-65133621D01*
X153501293Y-65178621D01*
X153430768Y-65186792D01*
X153367021Y-65155538D01*
X153346324Y-65131054D01*
X153265822Y-65006617D01*
X153265820Y-65006614D01*
X153263014Y-65002277D01*
X153112670Y-64837051D01*
X153108619Y-64833852D01*
X153108615Y-64833848D01*
X152941414Y-64701800D01*
X152941410Y-64701798D01*
X152937359Y-64698598D01*
X152906323Y-64681465D01*
X152846769Y-64648590D01*
X152741789Y-64590638D01*
X152736920Y-64588914D01*
X152736916Y-64588912D01*
X152536087Y-64517795D01*
X152536083Y-64517794D01*
X152531212Y-64516069D01*
X152526119Y-64515162D01*
X152526116Y-64515161D01*
X152316373Y-64477800D01*
X152316367Y-64477799D01*
X152311284Y-64476894D01*
X152237452Y-64475992D01*
X152093081Y-64474228D01*
X152093079Y-64474228D01*
X152087911Y-64474165D01*
X151867091Y-64507955D01*
X151654756Y-64577357D01*
X151591008Y-64610542D01*
X151499013Y-64658432D01*
X151456607Y-64680507D01*
X151452474Y-64683610D01*
X151452471Y-64683612D01*
X151282100Y-64811530D01*
X151277965Y-64814635D01*
X151239106Y-64855299D01*
X151142934Y-64955937D01*
X151123629Y-64976138D01*
X151016201Y-65133621D01*
X150961293Y-65178621D01*
X150890768Y-65186792D01*
X150827021Y-65155538D01*
X150806324Y-65131054D01*
X150725822Y-65006617D01*
X150725820Y-65006614D01*
X150723014Y-65002277D01*
X150572670Y-64837051D01*
X150568619Y-64833852D01*
X150568615Y-64833848D01*
X150401414Y-64701800D01*
X150401410Y-64701798D01*
X150397359Y-64698598D01*
X150366323Y-64681465D01*
X150306769Y-64648590D01*
X150201789Y-64590638D01*
X150196920Y-64588914D01*
X150196916Y-64588912D01*
X149996087Y-64517795D01*
X149996083Y-64517794D01*
X149991212Y-64516069D01*
X149986119Y-64515162D01*
X149986116Y-64515161D01*
X149776373Y-64477800D01*
X149776367Y-64477799D01*
X149771284Y-64476894D01*
X149697452Y-64475992D01*
X149553081Y-64474228D01*
X149553079Y-64474228D01*
X149547911Y-64474165D01*
X149327091Y-64507955D01*
X149114756Y-64577357D01*
X149051008Y-64610542D01*
X148959013Y-64658432D01*
X148916607Y-64680507D01*
X148912474Y-64683610D01*
X148912471Y-64683612D01*
X148742100Y-64811530D01*
X148737965Y-64814635D01*
X148699106Y-64855299D01*
X148602934Y-64955937D01*
X148583629Y-64976138D01*
X148580720Y-64980403D01*
X148580714Y-64980411D01*
X148565798Y-65002277D01*
X148476204Y-65133618D01*
X148475898Y-65134066D01*
X148420987Y-65179069D01*
X148350462Y-65187240D01*
X148286715Y-65155986D01*
X148266018Y-65131502D01*
X148185426Y-65006926D01*
X148179136Y-64998757D01*
X148035806Y-64841240D01*
X148028273Y-64834215D01*
X147861139Y-64702222D01*
X147852552Y-64696517D01*
X147666117Y-64593599D01*
X147656705Y-64589369D01*
X147455959Y-64518280D01*
X147445988Y-64515646D01*
X147374837Y-64502972D01*
X147361540Y-64504432D01*
X147357000Y-64518989D01*
X147357000Y-65962000D01*
X147336998Y-66030121D01*
X147283342Y-66076614D01*
X147231000Y-66088000D01*
X146975000Y-66088000D01*
X146906879Y-66067998D01*
X146860386Y-66014342D01*
X146849000Y-65962000D01*
X146849000Y-64517102D01*
X146845082Y-64503758D01*
X146830806Y-64501771D01*
X146792324Y-64507660D01*
X146782288Y-64510051D01*
X146579868Y-64576212D01*
X146570359Y-64580209D01*
X146381463Y-64678542D01*
X146372738Y-64684036D01*
X146202433Y-64811905D01*
X146194726Y-64818748D01*
X146047590Y-64972717D01*
X146041109Y-64980722D01*
X145936498Y-65134074D01*
X145881587Y-65179076D01*
X145811062Y-65187247D01*
X145747315Y-65155993D01*
X145726618Y-65131509D01*
X145645822Y-65006617D01*
X145645820Y-65006614D01*
X145643014Y-65002277D01*
X145492670Y-64837051D01*
X145488619Y-64833852D01*
X145488615Y-64833848D01*
X145321414Y-64701800D01*
X145321410Y-64701798D01*
X145317359Y-64698598D01*
X145286323Y-64681465D01*
X145226769Y-64648590D01*
X145121789Y-64590638D01*
X145116920Y-64588914D01*
X145116916Y-64588912D01*
X144916087Y-64517795D01*
X144916083Y-64517794D01*
X144911212Y-64516069D01*
X144906119Y-64515162D01*
X144906116Y-64515161D01*
X144696373Y-64477800D01*
X144696367Y-64477799D01*
X144691284Y-64476894D01*
X144617452Y-64475992D01*
X144473081Y-64474228D01*
X144473079Y-64474228D01*
X144467911Y-64474165D01*
X144247091Y-64507955D01*
X144034756Y-64577357D01*
X143971008Y-64610542D01*
X143879013Y-64658432D01*
X143836607Y-64680507D01*
X143832474Y-64683610D01*
X143832471Y-64683612D01*
X143690155Y-64790466D01*
X143623670Y-64815372D01*
X143554274Y-64800380D01*
X143525406Y-64778801D01*
X142968201Y-64221595D01*
X142934176Y-64159283D01*
X142939241Y-64088467D01*
X142981788Y-64031632D01*
X143048308Y-64006821D01*
X143057297Y-64006500D01*
X145209233Y-64006500D01*
X145220416Y-64007027D01*
X145227909Y-64008702D01*
X145235835Y-64008453D01*
X145235836Y-64008453D01*
X145295986Y-64006562D01*
X145299945Y-64006500D01*
X145327856Y-64006500D01*
X145331791Y-64006003D01*
X145331856Y-64005995D01*
X145343693Y-64005062D01*
X145375951Y-64004048D01*
X145379970Y-64003922D01*
X145387889Y-64003673D01*
X145407343Y-63998021D01*
X145426700Y-63994013D01*
X145438930Y-63992468D01*
X145438931Y-63992468D01*
X145446797Y-63991474D01*
X145454168Y-63988555D01*
X145454170Y-63988555D01*
X145487912Y-63975196D01*
X145499142Y-63971351D01*
X145533983Y-63961229D01*
X145533984Y-63961229D01*
X145541593Y-63959018D01*
X145548412Y-63954985D01*
X145548417Y-63954983D01*
X145559028Y-63948707D01*
X145576776Y-63940012D01*
X145595617Y-63932552D01*
X145631387Y-63906564D01*
X145641307Y-63900048D01*
X145672535Y-63881580D01*
X145672538Y-63881578D01*
X145679362Y-63877542D01*
X145693683Y-63863221D01*
X145708717Y-63850380D01*
X145718694Y-63843131D01*
X145725107Y-63838472D01*
X145730158Y-63832367D01*
X145730163Y-63832362D01*
X145753299Y-63804396D01*
X145761287Y-63795618D01*
X146569253Y-62987652D01*
X146577539Y-62980112D01*
X146584018Y-62976000D01*
X146630644Y-62926348D01*
X146633398Y-62923507D01*
X146653135Y-62903770D01*
X146655615Y-62900573D01*
X146663320Y-62891551D01*
X146688159Y-62865100D01*
X146693586Y-62859321D01*
X146697405Y-62852375D01*
X146697407Y-62852372D01*
X146703348Y-62841566D01*
X146714199Y-62825047D01*
X146721758Y-62815301D01*
X146726614Y-62809041D01*
X146729759Y-62801772D01*
X146729762Y-62801768D01*
X146744174Y-62768463D01*
X146749391Y-62757813D01*
X146770695Y-62719060D01*
X146775733Y-62699437D01*
X146782137Y-62680734D01*
X146787033Y-62669420D01*
X146787033Y-62669419D01*
X146790181Y-62662145D01*
X146791420Y-62654322D01*
X146791423Y-62654312D01*
X146797099Y-62618476D01*
X146799505Y-62606856D01*
X146808528Y-62571711D01*
X146808528Y-62571710D01*
X146810500Y-62564030D01*
X146810500Y-62543776D01*
X146812051Y-62524065D01*
X146813980Y-62511886D01*
X146815220Y-62504057D01*
X146811059Y-62460038D01*
X146810500Y-62448181D01*
X146810500Y-60137134D01*
X147301500Y-60137134D01*
X147308255Y-60199316D01*
X147359385Y-60335705D01*
X147446739Y-60452261D01*
X147563295Y-60539615D01*
X147699684Y-60590745D01*
X147761866Y-60597500D01*
X149418134Y-60597500D01*
X149480316Y-60590745D01*
X149616705Y-60539615D01*
X149733261Y-60452261D01*
X149820615Y-60335705D01*
X149871745Y-60199316D01*
X149878500Y-60137134D01*
X149878500Y-58480866D01*
X149871745Y-58418684D01*
X149820615Y-58282295D01*
X149733261Y-58165739D01*
X149616705Y-58078385D01*
X149480316Y-58027255D01*
X149418134Y-58020500D01*
X147761866Y-58020500D01*
X147699684Y-58027255D01*
X147563295Y-58078385D01*
X147446739Y-58165739D01*
X147359385Y-58282295D01*
X147308255Y-58418684D01*
X147301500Y-58480866D01*
X147301500Y-60137134D01*
X146810500Y-60137134D01*
X146810500Y-58480595D01*
X146830502Y-58412474D01*
X146847405Y-58391499D01*
X147545501Y-57693404D01*
X147607813Y-57659379D01*
X147634596Y-57656500D01*
X150307406Y-57656500D01*
X150375527Y-57676502D01*
G37*
%TD.AperFunction*%
%TD*%
%TA.AperFunction,Conductor*%
%TO.N,GND*%
G36*
X110187266Y-73522616D02*
G01*
X110303987Y-73713088D01*
X110450250Y-73881938D01*
X110622126Y-74024632D01*
X110692595Y-74065811D01*
X110695445Y-74067476D01*
X110744169Y-74119114D01*
X110757240Y-74188897D01*
X110730509Y-74254669D01*
X110690055Y-74288027D01*
X110677607Y-74294507D01*
X110673474Y-74297610D01*
X110673471Y-74297612D01*
X110649247Y-74315800D01*
X110498965Y-74428635D01*
X110344629Y-74590138D01*
X110218743Y-74774680D01*
X110124688Y-74977305D01*
X110064989Y-75192570D01*
X110041251Y-75414695D01*
X110054110Y-75637715D01*
X110055247Y-75642761D01*
X110055248Y-75642767D01*
X110066344Y-75692000D01*
X110103222Y-75855639D01*
X110187266Y-76062616D01*
X110303987Y-76253088D01*
X110450250Y-76421938D01*
X110622126Y-76564632D01*
X110692595Y-76605811D01*
X110695445Y-76607476D01*
X110744169Y-76659114D01*
X110757240Y-76728897D01*
X110730509Y-76794669D01*
X110690055Y-76828027D01*
X110677607Y-76834507D01*
X110673474Y-76837610D01*
X110673471Y-76837612D01*
X110503100Y-76965530D01*
X110498965Y-76968635D01*
X110344629Y-77130138D01*
X110218743Y-77314680D01*
X110124688Y-77517305D01*
X110064989Y-77732570D01*
X110041251Y-77954695D01*
X110041548Y-77959848D01*
X110041548Y-77959851D01*
X110047011Y-78054590D01*
X110054110Y-78177715D01*
X110055247Y-78182761D01*
X110055248Y-78182767D01*
X110075119Y-78270939D01*
X110103222Y-78395639D01*
X110187266Y-78602616D01*
X110303987Y-78793088D01*
X110450250Y-78961938D01*
X110622126Y-79104632D01*
X110692595Y-79145811D01*
X110695445Y-79147476D01*
X110744169Y-79199114D01*
X110757240Y-79268897D01*
X110730509Y-79334669D01*
X110690055Y-79368027D01*
X110677607Y-79374507D01*
X110673474Y-79377610D01*
X110673471Y-79377612D01*
X110649247Y-79395800D01*
X110498965Y-79508635D01*
X110344629Y-79670138D01*
X110218743Y-79854680D01*
X110180011Y-79938121D01*
X110143471Y-80016841D01*
X110124688Y-80057305D01*
X110064989Y-80272570D01*
X110041251Y-80494695D01*
X110054110Y-80717715D01*
X110055247Y-80722761D01*
X110055248Y-80722767D01*
X110079304Y-80829508D01*
X110103222Y-80935639D01*
X110127000Y-80994197D01*
X110183970Y-81134498D01*
X110187266Y-81142616D01*
X110303987Y-81333088D01*
X110450250Y-81501938D01*
X110622126Y-81644632D01*
X110692595Y-81685811D01*
X110695445Y-81687476D01*
X110744169Y-81739114D01*
X110757240Y-81808897D01*
X110730509Y-81874669D01*
X110690055Y-81908027D01*
X110677607Y-81914507D01*
X110673474Y-81917610D01*
X110673471Y-81917612D01*
X110503100Y-82045530D01*
X110498965Y-82048635D01*
X110344629Y-82210138D01*
X110218743Y-82394680D01*
X110124688Y-82597305D01*
X110064989Y-82812570D01*
X110041251Y-83034695D01*
X110041548Y-83039848D01*
X110041548Y-83039851D01*
X110048455Y-83159637D01*
X110054110Y-83257715D01*
X110055247Y-83262761D01*
X110055248Y-83262767D01*
X110063055Y-83297406D01*
X110103222Y-83475639D01*
X110187266Y-83682616D01*
X110236285Y-83762608D01*
X110299395Y-83865594D01*
X110303987Y-83873088D01*
X110450250Y-84041938D01*
X110622126Y-84184632D01*
X110680726Y-84218875D01*
X110695445Y-84227476D01*
X110744169Y-84279114D01*
X110757240Y-84348897D01*
X110730509Y-84414669D01*
X110690055Y-84448027D01*
X110677607Y-84454507D01*
X110673474Y-84457610D01*
X110673471Y-84457612D01*
X110505804Y-84583500D01*
X110498965Y-84588635D01*
X110344629Y-84750138D01*
X110218743Y-84934680D01*
X110124688Y-85137305D01*
X110064989Y-85352570D01*
X110041251Y-85574695D01*
X110041548Y-85579848D01*
X110041548Y-85579851D01*
X110047011Y-85674590D01*
X110054110Y-85797715D01*
X110055247Y-85802761D01*
X110055248Y-85802767D01*
X110068000Y-85859350D01*
X110103222Y-86015639D01*
X110187266Y-86222616D01*
X110189965Y-86227020D01*
X110287399Y-86386018D01*
X110303987Y-86413088D01*
X110450250Y-86581938D01*
X110622126Y-86724632D01*
X110695955Y-86767774D01*
X110744679Y-86819412D01*
X110757750Y-86889195D01*
X110731019Y-86954967D01*
X110690562Y-86988327D01*
X110682457Y-86992546D01*
X110673738Y-86998036D01*
X110503433Y-87125905D01*
X110495726Y-87132748D01*
X110348590Y-87286717D01*
X110342104Y-87294727D01*
X110222098Y-87470649D01*
X110217000Y-87479623D01*
X110127338Y-87672783D01*
X110123775Y-87682470D01*
X110068389Y-87882183D01*
X110069912Y-87890607D01*
X110082292Y-87894000D01*
X111532000Y-87894000D01*
X111600121Y-87914002D01*
X111646614Y-87967658D01*
X111658000Y-88020000D01*
X111658000Y-88276000D01*
X111643906Y-88324001D01*
X111506047Y-88402000D01*
X110087225Y-88402000D01*
X110073694Y-88405973D01*
X110072257Y-88415966D01*
X110102565Y-88550446D01*
X110105645Y-88560275D01*
X110185770Y-88757603D01*
X110190413Y-88766794D01*
X110301694Y-88948388D01*
X110307777Y-88956699D01*
X110379436Y-89039424D01*
X109728000Y-89408000D01*
X109982000Y-75692000D01*
X110120453Y-73358075D01*
X110187266Y-73522616D01*
G37*
%TD.AperFunction*%
%TA.AperFunction,Conductor*%
G36*
X115333527Y-83721502D02*
G01*
X115354501Y-83738405D01*
X116942313Y-85326217D01*
X112698581Y-87727277D01*
X112695215Y-87713878D01*
X112691894Y-87704124D01*
X112606972Y-87508814D01*
X112602105Y-87499739D01*
X112486426Y-87320926D01*
X112480136Y-87312757D01*
X112336806Y-87155240D01*
X112329273Y-87148215D01*
X112162139Y-87016222D01*
X112153556Y-87010520D01*
X112116602Y-86990120D01*
X112066631Y-86939687D01*
X112051859Y-86870245D01*
X112076975Y-86803839D01*
X112104327Y-86777232D01*
X112127797Y-86760491D01*
X112283860Y-86649173D01*
X112320662Y-86612500D01*
X112423398Y-86510122D01*
X112442096Y-86491489D01*
X112501594Y-86408689D01*
X112569435Y-86314277D01*
X112572453Y-86310077D01*
X112638561Y-86176318D01*
X112669136Y-86114453D01*
X112669137Y-86114451D01*
X112671430Y-86109811D01*
X112736370Y-85896069D01*
X112765529Y-85674590D01*
X112767156Y-85608000D01*
X112748852Y-85385361D01*
X112694431Y-85168702D01*
X112605354Y-84963840D01*
X112484014Y-84776277D01*
X112333670Y-84611051D01*
X112329619Y-84607852D01*
X112329615Y-84607848D01*
X112162414Y-84475800D01*
X112162410Y-84475798D01*
X112158359Y-84472598D01*
X112117053Y-84449796D01*
X112067084Y-84399364D01*
X112052312Y-84329921D01*
X112077428Y-84263516D01*
X112104780Y-84236909D01*
X112148603Y-84205650D01*
X112283860Y-84109173D01*
X112442096Y-83951489D01*
X112479728Y-83899119D01*
X112569435Y-83774277D01*
X112572453Y-83770077D01*
X112574746Y-83765437D01*
X112576446Y-83762608D01*
X112628674Y-83714518D01*
X112684451Y-83701500D01*
X115265406Y-83701500D01*
X115333527Y-83721502D01*
G37*
%TD.AperFunction*%
%TA.AperFunction,Conductor*%
G36*
X117488563Y-67184733D02*
G01*
X117510909Y-67418949D01*
X117511994Y-67423383D01*
X117511995Y-67423389D01*
X117534691Y-67516138D01*
X117575878Y-67684455D01*
X117577590Y-67688681D01*
X117577591Y-67688685D01*
X117662335Y-67897908D01*
X117678493Y-67937801D01*
X117816606Y-68173680D01*
X117987323Y-68387151D01*
X118187068Y-68573742D01*
X118411656Y-68729544D01*
X118538501Y-68792648D01*
X118652296Y-68849261D01*
X118652299Y-68849262D01*
X118656383Y-68851294D01*
X118916121Y-68936440D01*
X118920612Y-68937220D01*
X118920613Y-68937220D01*
X119181650Y-68982544D01*
X119181658Y-68982545D01*
X119185431Y-68983200D01*
X119189268Y-68983391D01*
X119270233Y-68987422D01*
X119270241Y-68987422D01*
X119271804Y-68987500D01*
X119329961Y-68987500D01*
X127119335Y-76613461D01*
X122615201Y-81117595D01*
X122552889Y-81151621D01*
X122526106Y-81154500D01*
X120850200Y-81154500D01*
X120782079Y-81134498D01*
X120762853Y-81118157D01*
X120762580Y-81118460D01*
X120757668Y-81114037D01*
X120753253Y-81109134D01*
X120598752Y-80996882D01*
X120592724Y-80994198D01*
X120592722Y-80994197D01*
X120430319Y-80921891D01*
X120430318Y-80921891D01*
X120424288Y-80919206D01*
X120330888Y-80899353D01*
X120243944Y-80880872D01*
X120243939Y-80880872D01*
X120237487Y-80879500D01*
X120046513Y-80879500D01*
X120040061Y-80880872D01*
X120040056Y-80880872D01*
X119953112Y-80899353D01*
X119859712Y-80919206D01*
X119853682Y-80921891D01*
X119853681Y-80921891D01*
X119691278Y-80994197D01*
X119691276Y-80994198D01*
X119685248Y-80996882D01*
X119530747Y-81109134D01*
X119483597Y-81161500D01*
X119470484Y-81176063D01*
X119410038Y-81213303D01*
X119339055Y-81211951D01*
X119287753Y-81180848D01*
X114081405Y-75974500D01*
X114047379Y-75912188D01*
X114044500Y-75885405D01*
X114044500Y-71699793D01*
X114046732Y-71676184D01*
X114046790Y-71675881D01*
X114046790Y-71675877D01*
X114048275Y-71668094D01*
X114044749Y-71612049D01*
X114044500Y-71604138D01*
X114044500Y-71588144D01*
X114042494Y-71572270D01*
X114041751Y-71564402D01*
X114038723Y-71516263D01*
X114038723Y-71516262D01*
X114038225Y-71508350D01*
X114035679Y-71500513D01*
X114030506Y-71477369D01*
X114030468Y-71477065D01*
X114030467Y-71477060D01*
X114029474Y-71469203D01*
X114026558Y-71461838D01*
X114026557Y-71461834D01*
X114008801Y-71416989D01*
X114006129Y-71409570D01*
X113988764Y-71356125D01*
X113984514Y-71349428D01*
X113984350Y-71349169D01*
X113973585Y-71328042D01*
X113973471Y-71327754D01*
X113973468Y-71327749D01*
X113970552Y-71320383D01*
X113965896Y-71313975D01*
X113965893Y-71313969D01*
X113937542Y-71274948D01*
X113933092Y-71268401D01*
X113903000Y-71220982D01*
X113896993Y-71215341D01*
X113881312Y-71197554D01*
X113881134Y-71197309D01*
X113881132Y-71197307D01*
X113876472Y-71190893D01*
X113870362Y-71185838D01*
X113833204Y-71155097D01*
X113827270Y-71149866D01*
X113792102Y-71116842D01*
X113792099Y-71116840D01*
X113786321Y-71111414D01*
X113779097Y-71107442D01*
X113759494Y-71094119D01*
X113759254Y-71093920D01*
X113759247Y-71093916D01*
X113753144Y-71088867D01*
X113702324Y-71064953D01*
X113695292Y-71061371D01*
X113646060Y-71034305D01*
X113638385Y-71032335D01*
X113638379Y-71032332D01*
X113638081Y-71032256D01*
X113615772Y-71024224D01*
X113615497Y-71024094D01*
X113615489Y-71024091D01*
X113608318Y-71020717D01*
X113553151Y-71010194D01*
X113545442Y-71008471D01*
X113511449Y-70999743D01*
X113498707Y-70996471D01*
X113498706Y-70996471D01*
X113491030Y-70994500D01*
X113482793Y-70994500D01*
X113459184Y-70992268D01*
X113458881Y-70992210D01*
X113458877Y-70992210D01*
X113451094Y-70990725D01*
X113395049Y-70994251D01*
X113387138Y-70994500D01*
X112978595Y-70994500D01*
X112910474Y-70974498D01*
X112889500Y-70957595D01*
X112755218Y-70823313D01*
X112721192Y-70761001D01*
X112723755Y-70697589D01*
X112734865Y-70661022D01*
X112736370Y-70656069D01*
X112765529Y-70434590D01*
X112767156Y-70368000D01*
X112748852Y-70145361D01*
X112694431Y-69928702D01*
X112605354Y-69723840D01*
X112484014Y-69536277D01*
X112333670Y-69371051D01*
X112329619Y-69367852D01*
X112329615Y-69367848D01*
X112162414Y-69235800D01*
X112162410Y-69235798D01*
X112158359Y-69232598D01*
X112117053Y-69209796D01*
X112067084Y-69159364D01*
X112052312Y-69089921D01*
X112077428Y-69023516D01*
X112104780Y-68996909D01*
X112148603Y-68965650D01*
X112283860Y-68869173D01*
X112442096Y-68711489D01*
X112572453Y-68530077D01*
X112617748Y-68438430D01*
X112669136Y-68334453D01*
X112669137Y-68334451D01*
X112671430Y-68329811D01*
X112720065Y-68169734D01*
X112734865Y-68121023D01*
X112734865Y-68121021D01*
X112736370Y-68116069D01*
X112765529Y-67894590D01*
X112765611Y-67891240D01*
X112767074Y-67831365D01*
X112767074Y-67831361D01*
X112767156Y-67828000D01*
X112748852Y-67605361D01*
X112694431Y-67388702D01*
X112605354Y-67183840D01*
X112553149Y-67103144D01*
X112486822Y-67000617D01*
X112486820Y-67000614D01*
X112484014Y-66996277D01*
X112333670Y-66831051D01*
X112329619Y-66827852D01*
X112329615Y-66827848D01*
X112162414Y-66695800D01*
X112162410Y-66695798D01*
X112158359Y-66692598D01*
X112117053Y-66669796D01*
X112067084Y-66619364D01*
X112052312Y-66549921D01*
X112077428Y-66483516D01*
X112104780Y-66456909D01*
X112148603Y-66425650D01*
X112283860Y-66329173D01*
X112343041Y-66270199D01*
X112438435Y-66175137D01*
X112442096Y-66171489D01*
X112572453Y-65990077D01*
X112671430Y-65789811D01*
X112718691Y-65634258D01*
X112734865Y-65581023D01*
X112734865Y-65581021D01*
X112736370Y-65576069D01*
X112765529Y-65354590D01*
X112765611Y-65351240D01*
X112767074Y-65291365D01*
X112767074Y-65291361D01*
X112767156Y-65288000D01*
X112748852Y-65065361D01*
X112694431Y-64848702D01*
X112605354Y-64643840D01*
X112521680Y-64514500D01*
X112486822Y-64460617D01*
X112486820Y-64460614D01*
X112484014Y-64456277D01*
X112333670Y-64291051D01*
X112329619Y-64287852D01*
X112329615Y-64287848D01*
X112162414Y-64155800D01*
X112162410Y-64155798D01*
X112158359Y-64152598D01*
X112117053Y-64129796D01*
X112067084Y-64079364D01*
X112052312Y-64009921D01*
X112077428Y-63943516D01*
X112104780Y-63916909D01*
X112178070Y-63864632D01*
X112283860Y-63789173D01*
X112442096Y-63631489D01*
X112572453Y-63450077D01*
X112671430Y-63249811D01*
X112736370Y-63036069D01*
X112765529Y-62814590D01*
X112766676Y-62767654D01*
X112788336Y-62700042D01*
X112843111Y-62654874D01*
X112859629Y-62652910D01*
X117488563Y-67184733D01*
G37*
%TD.AperFunction*%
%TA.AperFunction,Conductor*%
G36*
X129032000Y-78486000D02*
G01*
X124441151Y-81083454D01*
X128024737Y-77499868D01*
X129032000Y-78486000D01*
G37*
%TD.AperFunction*%
%TD*%
M02*
