%TF.GenerationSoftware,KiCad,Pcbnew,6.0.9-8da3e8f707~116~ubuntu22.04.1*%
%TF.CreationDate,2022-11-17T13:26:58-05:00*%
%TF.ProjectId,can-crusher-pi-hat,63616e2d-6372-4757-9368-65722d70692d,rev?*%
%TF.SameCoordinates,Original*%
%TF.FileFunction,Soldermask,Top*%
%TF.FilePolarity,Negative*%
%FSLAX46Y46*%
G04 Gerber Fmt 4.6, Leading zero omitted, Abs format (unit mm)*
G04 Created by KiCad (PCBNEW 6.0.9-8da3e8f707~116~ubuntu22.04.1) date 2022-11-17 13:26:58*
%MOMM*%
%LPD*%
G01*
G04 APERTURE LIST*
%ADD10R,1.700000X1.700000*%
%ADD11O,1.700000X1.700000*%
%ADD12R,1.560000X1.560000*%
%ADD13C,1.560000*%
%ADD14R,1.600000X1.600000*%
%ADD15C,1.600000*%
%ADD16C,6.000000*%
G04 APERTURE END LIST*
D10*
%TO.C,J3*%
X130175000Y-56896000D03*
D11*
X132715000Y-56896000D03*
X135255000Y-56896000D03*
X137795000Y-56896000D03*
%TD*%
D12*
%TO.C,RV1*%
X148590000Y-59309000D03*
D13*
X146090000Y-54309000D03*
X143590000Y-59309000D03*
%TD*%
D14*
%TO.C,C1*%
X123991380Y-56896000D03*
D15*
X121491380Y-56896000D03*
%TD*%
D10*
%TO.C,J2*%
X111404000Y-57668000D03*
D11*
X111404000Y-60208000D03*
X111404000Y-62748000D03*
X111404000Y-65288000D03*
X111404000Y-67828000D03*
X111404000Y-70368000D03*
X111404000Y-72908000D03*
X111404000Y-75448000D03*
X111404000Y-77988000D03*
X111404000Y-80528000D03*
X111404000Y-83068000D03*
X111404000Y-85608000D03*
X111404000Y-88148000D03*
X111404000Y-90688000D03*
%TD*%
D16*
%TO.C,J1*%
X119373000Y-67104000D03*
X177373000Y-67104000D03*
X119373000Y-90104000D03*
X177373000Y-90104000D03*
D10*
X124243000Y-68374000D03*
D11*
X124243000Y-65834000D03*
X126783000Y-68374000D03*
X126783000Y-65834000D03*
X129323000Y-68374000D03*
X129323000Y-65834000D03*
X131863000Y-68374000D03*
X131863000Y-65834000D03*
X134403000Y-68374000D03*
X134403000Y-65834000D03*
X136943000Y-68374000D03*
X136943000Y-65834000D03*
X139483000Y-68374000D03*
X139483000Y-65834000D03*
X142023000Y-68374000D03*
X142023000Y-65834000D03*
X144563000Y-68374000D03*
X144563000Y-65834000D03*
X147103000Y-68374000D03*
X147103000Y-65834000D03*
X149643000Y-68374000D03*
X149643000Y-65834000D03*
X152183000Y-68374000D03*
X152183000Y-65834000D03*
X154723000Y-68374000D03*
X154723000Y-65834000D03*
X157263000Y-68374000D03*
X157263000Y-65834000D03*
X159803000Y-68374000D03*
X159803000Y-65834000D03*
X162343000Y-68374000D03*
X162343000Y-65834000D03*
X164883000Y-68374000D03*
X164883000Y-65834000D03*
X167423000Y-68374000D03*
X167423000Y-65834000D03*
X169963000Y-68374000D03*
X169963000Y-65834000D03*
X172503000Y-68374000D03*
X172503000Y-65834000D03*
%TD*%
M02*
