%TF.GenerationSoftware,KiCad,Pcbnew,6.0.9-8da3e8f707~116~ubuntu22.04.1*%
%TF.CreationDate,2022-11-17T13:26:58-05:00*%
%TF.ProjectId,can-crusher-pi-hat,63616e2d-6372-4757-9368-65722d70692d,rev?*%
%TF.SameCoordinates,Original*%
%TF.FileFunction,Copper,L1,Top*%
%TF.FilePolarity,Positive*%
%FSLAX46Y46*%
G04 Gerber Fmt 4.6, Leading zero omitted, Abs format (unit mm)*
G04 Created by KiCad (PCBNEW 6.0.9-8da3e8f707~116~ubuntu22.04.1) date 2022-11-17 13:26:58*
%MOMM*%
%LPD*%
G01*
G04 APERTURE LIST*
%TA.AperFunction,ComponentPad*%
%ADD10R,1.700000X1.700000*%
%TD*%
%TA.AperFunction,ComponentPad*%
%ADD11O,1.700000X1.700000*%
%TD*%
%TA.AperFunction,ComponentPad*%
%ADD12R,1.560000X1.560000*%
%TD*%
%TA.AperFunction,ComponentPad*%
%ADD13C,1.560000*%
%TD*%
%TA.AperFunction,ComponentPad*%
%ADD14R,1.600000X1.600000*%
%TD*%
%TA.AperFunction,ComponentPad*%
%ADD15C,1.600000*%
%TD*%
%TA.AperFunction,ViaPad*%
%ADD16C,0.800000*%
%TD*%
%TA.AperFunction,Conductor*%
%ADD17C,1.000000*%
%TD*%
%TA.AperFunction,Conductor*%
%ADD18C,0.250000*%
%TD*%
G04 APERTURE END LIST*
D10*
%TO.P,J3,1,+5V_IN*%
%TO.N,+5V*%
X130175000Y-56896000D03*
D11*
%TO.P,J3,2,GND*%
%TO.N,GND*%
X132715000Y-56896000D03*
%TO.P,J3,3,TX*%
%TO.N,Net-(J1-Pad8)*%
X135255000Y-56896000D03*
%TO.P,J3,4,RX*%
%TO.N,Net-(J1-Pad10)*%
X137795000Y-56896000D03*
%TD*%
D12*
%TO.P,RV1,1,1*%
%TO.N,+3V3*%
X148590000Y-59309000D03*
D13*
%TO.P,RV1,2,2*%
%TO.N,Net-(J2-Pad7)*%
X146090000Y-54309000D03*
%TO.P,RV1,3,3*%
%TO.N,GND*%
X143590000Y-59309000D03*
%TD*%
D14*
%TO.P,C1,1*%
%TO.N,+5V*%
X123991380Y-56896000D03*
D15*
%TO.P,C1,2*%
%TO.N,GND*%
X121491380Y-56896000D03*
%TD*%
D10*
%TO.P,J2,1,Touch_IRQ*%
%TO.N,Net-(J1-Pad37)*%
X111404000Y-57668000D03*
D11*
%TO.P,J2,2,TOUCH_MISO*%
%TO.N,Net-(J1-Pad21)*%
X111404000Y-60208000D03*
%TO.P,J2,3,Touch_MOSI*%
%TO.N,Net-(J1-Pad19)*%
X111404000Y-62748000D03*
%TO.P,J2,4,Touch_CS*%
%TO.N,Net-(J1-Pad24)*%
X111404000Y-65288000D03*
%TO.P,J2,5,Touch_CLK*%
%TO.N,Net-(J1-Pad23)*%
X111404000Y-67828000D03*
%TO.P,J2,6,LCD_MISO*%
%TO.N,Net-(J1-Pad35)*%
X111404000Y-70368000D03*
%TO.P,J2,7,LCD_BKLIGHT*%
%TO.N,Net-(J2-Pad7)*%
X111404000Y-72908000D03*
%TO.P,J2,8,LCD_CLK*%
%TO.N,Net-(J1-Pad40)*%
X111404000Y-75448000D03*
%TO.P,J2,9,LCD_MOSI*%
%TO.N,Net-(J1-Pad38)*%
X111404000Y-77988000D03*
%TO.P,J2,10,LCD_DC*%
%TO.N,Net-(J1-Pad31)*%
X111404000Y-80528000D03*
%TO.P,J2,11,LCD_RESET*%
%TO.N,Net-(J1-Pad29)*%
X111404000Y-83068000D03*
%TO.P,J2,12,LCD_CS*%
%TO.N,Net-(J1-Pad12)*%
X111404000Y-85608000D03*
%TO.P,J2,13,GND*%
%TO.N,GND*%
X111404000Y-88148000D03*
%TO.P,J2,14,3V3_VCC*%
%TO.N,+3V3*%
X111404000Y-90688000D03*
%TD*%
D10*
%TO.P,J1,1,3V3*%
%TO.N,+3V3*%
X124243000Y-68374000D03*
D11*
%TO.P,J1,2,5V*%
%TO.N,+5V*%
X124243000Y-65834000D03*
%TO.P,J1,3,SDA/GPIO2*%
%TO.N,unconnected-(J1-Pad3)*%
X126783000Y-68374000D03*
%TO.P,J1,4,5V*%
%TO.N,+5V*%
X126783000Y-65834000D03*
%TO.P,J1,5,SCL/GPIO3*%
%TO.N,unconnected-(J1-Pad5)*%
X129323000Y-68374000D03*
%TO.P,J1,6,GND*%
%TO.N,GND*%
X129323000Y-65834000D03*
%TO.P,J1,7,GCLK0/GPIO4*%
%TO.N,unconnected-(J1-Pad7)*%
X131863000Y-68374000D03*
%TO.P,J1,8,GPIO14/TXD*%
%TO.N,Net-(J1-Pad8)*%
X131863000Y-65834000D03*
%TO.P,J1,9,GND*%
%TO.N,GND*%
X134403000Y-68374000D03*
%TO.P,J1,10,GPIO15/RXD*%
%TO.N,Net-(J1-Pad10)*%
X134403000Y-65834000D03*
%TO.P,J1,11,GPIO17*%
%TO.N,unconnected-(J1-Pad11)*%
X136943000Y-68374000D03*
%TO.P,J1,12,GPIO18/PWM0*%
%TO.N,Net-(J1-Pad12)*%
X136943000Y-65834000D03*
%TO.P,J1,13,GPIO27*%
%TO.N,unconnected-(J1-Pad13)*%
X139483000Y-68374000D03*
%TO.P,J1,14,GND*%
%TO.N,GND*%
X139483000Y-65834000D03*
%TO.P,J1,15,GPIO22*%
%TO.N,unconnected-(J1-Pad15)*%
X142023000Y-68374000D03*
%TO.P,J1,16,GPIO23*%
%TO.N,unconnected-(J1-Pad16)*%
X142023000Y-65834000D03*
%TO.P,J1,17,3V3*%
%TO.N,+3V3*%
X144563000Y-68374000D03*
%TO.P,J1,18,GPIO24*%
%TO.N,unconnected-(J1-Pad18)*%
X144563000Y-65834000D03*
%TO.P,J1,19,MOSI0/GPIO10*%
%TO.N,Net-(J1-Pad19)*%
X147103000Y-68374000D03*
%TO.P,J1,20,GND*%
%TO.N,GND*%
X147103000Y-65834000D03*
%TO.P,J1,21,MISO0/GPIO9*%
%TO.N,Net-(J1-Pad21)*%
X149643000Y-68374000D03*
%TO.P,J1,22,GPIO25*%
%TO.N,unconnected-(J1-Pad22)*%
X149643000Y-65834000D03*
%TO.P,J1,23,SCLK0/GPIO11*%
%TO.N,Net-(J1-Pad23)*%
X152183000Y-68374000D03*
%TO.P,J1,24,~{CE0}/GPIO8*%
%TO.N,Net-(J1-Pad24)*%
X152183000Y-65834000D03*
%TO.P,J1,25,GND*%
%TO.N,GND*%
X154723000Y-68374000D03*
%TO.P,J1,26,~{CE1}/GPIO7*%
%TO.N,unconnected-(J1-Pad26)*%
X154723000Y-65834000D03*
%TO.P,J1,27,ID_SD/GPIO0*%
%TO.N,unconnected-(J1-Pad27)*%
X157263000Y-68374000D03*
%TO.P,J1,28,ID_SC/GPIO1*%
%TO.N,unconnected-(J1-Pad28)*%
X157263000Y-65834000D03*
%TO.P,J1,29,GCLK1/GPIO5*%
%TO.N,Net-(J1-Pad29)*%
X159803000Y-68374000D03*
%TO.P,J1,30,GND*%
%TO.N,GND*%
X159803000Y-65834000D03*
%TO.P,J1,31,GCLK2/GPIO6*%
%TO.N,Net-(J1-Pad31)*%
X162343000Y-68374000D03*
%TO.P,J1,32,PWM0/GPIO12*%
%TO.N,unconnected-(J1-Pad32)*%
X162343000Y-65834000D03*
%TO.P,J1,33,PWM1/GPIO13*%
%TO.N,unconnected-(J1-Pad33)*%
X164883000Y-68374000D03*
%TO.P,J1,34,GND*%
%TO.N,GND*%
X164883000Y-65834000D03*
%TO.P,J1,35,GPIO19/MISO1*%
%TO.N,Net-(J1-Pad35)*%
X167423000Y-68374000D03*
%TO.P,J1,36,GPIO16*%
%TO.N,unconnected-(J1-Pad36)*%
X167423000Y-65834000D03*
%TO.P,J1,37,GPIO26*%
%TO.N,Net-(J1-Pad37)*%
X169963000Y-68374000D03*
%TO.P,J1,38,GPIO20/MOSI1*%
%TO.N,Net-(J1-Pad38)*%
X169963000Y-65834000D03*
%TO.P,J1,39,GND*%
%TO.N,GND*%
X172503000Y-68374000D03*
%TO.P,J1,40,GPIO21/SCLK1*%
%TO.N,Net-(J1-Pad40)*%
X172503000Y-65834000D03*
%TD*%
D16*
%TO.N,GND*%
X157226000Y-74422000D03*
X184277000Y-55245000D03*
X118618000Y-71247000D03*
X181991000Y-94615000D03*
X179578000Y-58547000D03*
X185166000Y-66548000D03*
X177546000Y-78105000D03*
X159893000Y-85598000D03*
X136779000Y-89535000D03*
X143256000Y-55753000D03*
X118364000Y-75311000D03*
X113919000Y-54356000D03*
X114808000Y-60452000D03*
X139827000Y-60833000D03*
X166624000Y-70866000D03*
X126746000Y-89662000D03*
X136525000Y-80645000D03*
X128905000Y-61214000D03*
X158623000Y-93345000D03*
X118364000Y-79375000D03*
X122428000Y-70739000D03*
X142748000Y-71501000D03*
X128270000Y-72009000D03*
X184277000Y-81280000D03*
X151003000Y-73279000D03*
X146050000Y-72898000D03*
X113792000Y-84328000D03*
X169799000Y-81915000D03*
X137287000Y-71374000D03*
X151003000Y-60706000D03*
X156464000Y-58674000D03*
X113665000Y-87376000D03*
X165989000Y-89789000D03*
%TO.N,Net-(J1-Pad12)*%
X120142000Y-81788000D03*
%TO.N,Net-(J1-Pad40)*%
X161036000Y-75057000D03*
%TD*%
D17*
%TO.N,+5V*%
X130175000Y-56896000D02*
X123991380Y-56896000D01*
X124243000Y-65834000D02*
X126783000Y-65834000D01*
X123991380Y-56896000D02*
X123991380Y-65582380D01*
D18*
X123991380Y-65582380D02*
X124243000Y-65834000D01*
%TO.N,+3V3*%
X125603000Y-74168000D02*
X124243000Y-72808000D01*
X145738000Y-62161000D02*
X148590000Y-59309000D01*
X110236000Y-55499000D02*
X111585000Y-55499000D01*
X124243000Y-68157000D02*
X124243000Y-68374000D01*
X109855000Y-55880000D02*
X110236000Y-55499000D01*
X145738000Y-67199000D02*
X145738000Y-62161000D01*
X144563000Y-68374000D02*
X145738000Y-67199000D01*
X138769000Y-74168000D02*
X125603000Y-74168000D01*
X111404000Y-90688000D02*
X109855000Y-89139000D01*
X144563000Y-68374000D02*
X138769000Y-74168000D01*
X111585000Y-55499000D02*
X124243000Y-68157000D01*
X124243000Y-72808000D02*
X124243000Y-68374000D01*
X109855000Y-89139000D02*
X109855000Y-55880000D01*
%TO.N,Net-(J1-Pad8)*%
X135255000Y-60579000D02*
X135255000Y-56896000D01*
X131863000Y-65834000D02*
X131863000Y-63971000D01*
X131863000Y-63971000D02*
X135255000Y-60579000D01*
%TO.N,Net-(J1-Pad10)*%
X134403000Y-65834000D02*
X134403000Y-62828000D01*
X137795000Y-59436000D02*
X137795000Y-56896000D01*
X134403000Y-62828000D02*
X137795000Y-59436000D01*
%TO.N,Net-(J1-Pad12)*%
X116322000Y-85608000D02*
X120142000Y-81788000D01*
X111404000Y-85608000D02*
X116322000Y-85608000D01*
%TO.N,Net-(J1-Pad19)*%
X111404000Y-62748000D02*
X123317000Y-74661000D01*
X140293000Y-75184000D02*
X147103000Y-68374000D01*
X123317000Y-74661000D02*
X123317000Y-75184000D01*
X123317000Y-75184000D02*
X140293000Y-75184000D01*
%TO.N,Net-(J1-Pad23)*%
X111404000Y-67828000D02*
X112786000Y-67828000D01*
X112786000Y-67828000D02*
X122174000Y-77216000D01*
X143341000Y-77216000D02*
X152183000Y-68374000D01*
X122174000Y-77216000D02*
X143341000Y-77216000D01*
%TO.N,Net-(J1-Pad24)*%
X122443000Y-76327000D02*
X140811701Y-76327000D01*
X111404000Y-65288000D02*
X122443000Y-76327000D01*
X149299299Y-67056000D02*
X150961000Y-67056000D01*
X148278000Y-68860701D02*
X148278000Y-68077299D01*
X148278000Y-68077299D02*
X149299299Y-67056000D01*
X150961000Y-67056000D02*
X152183000Y-65834000D01*
X140811701Y-76327000D02*
X148278000Y-68860701D01*
%TO.N,Net-(J1-Pad38)*%
X168788000Y-68860701D02*
X168788000Y-67009000D01*
X151765000Y-70104000D02*
X167544701Y-70104000D01*
X168788000Y-67009000D02*
X169963000Y-65834000D01*
X143881000Y-77988000D02*
X151765000Y-70104000D01*
X111404000Y-77988000D02*
X143881000Y-77988000D01*
X167544701Y-70104000D02*
X168788000Y-68860701D01*
%TO.N,Net-(J1-Pad40)*%
X167481701Y-75057000D02*
X173678000Y-68860701D01*
X161036000Y-75057000D02*
X167481701Y-75057000D01*
X173678000Y-67009000D02*
X172503000Y-65834000D01*
X173678000Y-68860701D02*
X173678000Y-67009000D01*
%TD*%
%TA.AperFunction,Conductor*%
%TO.N,GND*%
G36*
X186433621Y-52528502D02*
G01*
X186480114Y-52582158D01*
X186491500Y-52634500D01*
X186491500Y-96270500D01*
X186471498Y-96338621D01*
X186417842Y-96385114D01*
X186365500Y-96396500D01*
X109634500Y-96396500D01*
X109566379Y-96376498D01*
X109519886Y-96322842D01*
X109508500Y-96270500D01*
X109508500Y-89992594D01*
X109528502Y-89924473D01*
X109582158Y-89877980D01*
X109652432Y-89867876D01*
X109717012Y-89897370D01*
X109723595Y-89903499D01*
X110053778Y-90233682D01*
X110087804Y-90295994D01*
X110086100Y-90356448D01*
X110064989Y-90432570D01*
X110064441Y-90437700D01*
X110064440Y-90437704D01*
X110060933Y-90470522D01*
X110041251Y-90654695D01*
X110041548Y-90659848D01*
X110041548Y-90659851D01*
X110047011Y-90754590D01*
X110054110Y-90877715D01*
X110055247Y-90882761D01*
X110055248Y-90882767D01*
X110066698Y-90933573D01*
X110103222Y-91095639D01*
X110187266Y-91302616D01*
X110303987Y-91493088D01*
X110450250Y-91661938D01*
X110622126Y-91804632D01*
X110815000Y-91917338D01*
X111023692Y-91997030D01*
X111028760Y-91998061D01*
X111028763Y-91998062D01*
X111136017Y-92019883D01*
X111242597Y-92041567D01*
X111247772Y-92041757D01*
X111247774Y-92041757D01*
X111460673Y-92049564D01*
X111460677Y-92049564D01*
X111465837Y-92049753D01*
X111470957Y-92049097D01*
X111470959Y-92049097D01*
X111682288Y-92022025D01*
X111682289Y-92022025D01*
X111687416Y-92021368D01*
X111692366Y-92019883D01*
X111896429Y-91958661D01*
X111896434Y-91958659D01*
X111901384Y-91957174D01*
X112101994Y-91858896D01*
X112283860Y-91729173D01*
X112326704Y-91686479D01*
X112438435Y-91575137D01*
X112442096Y-91571489D01*
X112501594Y-91488689D01*
X112569435Y-91394277D01*
X112572453Y-91390077D01*
X112607445Y-91319277D01*
X112669136Y-91194453D01*
X112669137Y-91194451D01*
X112671430Y-91189811D01*
X112736370Y-90976069D01*
X112765529Y-90754590D01*
X112767156Y-90688000D01*
X112748852Y-90465361D01*
X112694431Y-90248702D01*
X112650143Y-90146846D01*
X117484948Y-90146846D01*
X117510909Y-90418949D01*
X117511994Y-90423383D01*
X117511995Y-90423389D01*
X117554690Y-90597868D01*
X117575878Y-90684455D01*
X117577590Y-90688681D01*
X117577591Y-90688685D01*
X117654156Y-90877715D01*
X117678493Y-90937801D01*
X117680797Y-90941736D01*
X117680799Y-90941740D01*
X117739915Y-91042701D01*
X117816606Y-91173680D01*
X117987323Y-91387151D01*
X118187068Y-91573742D01*
X118411656Y-91729544D01*
X118538501Y-91792648D01*
X118652296Y-91849261D01*
X118652299Y-91849262D01*
X118656383Y-91851294D01*
X118916121Y-91936440D01*
X118920612Y-91937220D01*
X118920613Y-91937220D01*
X119181650Y-91982544D01*
X119181658Y-91982545D01*
X119185431Y-91983200D01*
X119189268Y-91983391D01*
X119270233Y-91987422D01*
X119270241Y-91987422D01*
X119271804Y-91987500D01*
X119442434Y-91987500D01*
X119444702Y-91987335D01*
X119444714Y-91987335D01*
X119576273Y-91977789D01*
X119645622Y-91972757D01*
X119650077Y-91971773D01*
X119650080Y-91971773D01*
X119908073Y-91914814D01*
X119908077Y-91914813D01*
X119912533Y-91913829D01*
X120057526Y-91858896D01*
X120163872Y-91818605D01*
X120163875Y-91818604D01*
X120168142Y-91816987D01*
X120407094Y-91684261D01*
X120548507Y-91576338D01*
X120620751Y-91521203D01*
X120620752Y-91521202D01*
X120624383Y-91518431D01*
X120649158Y-91493088D01*
X120812264Y-91326238D01*
X120815458Y-91322971D01*
X120818147Y-91319277D01*
X120973629Y-91105667D01*
X120973632Y-91105661D01*
X120976315Y-91101976D01*
X120978437Y-91097943D01*
X120978440Y-91097938D01*
X121101460Y-90864115D01*
X121101460Y-90864114D01*
X121103586Y-90860074D01*
X121194603Y-90602334D01*
X121227052Y-90437704D01*
X121246580Y-90338627D01*
X121246581Y-90338621D01*
X121247461Y-90334155D01*
X121249876Y-90285641D01*
X121256786Y-90146846D01*
X175484948Y-90146846D01*
X175510909Y-90418949D01*
X175511994Y-90423383D01*
X175511995Y-90423389D01*
X175554690Y-90597868D01*
X175575878Y-90684455D01*
X175577590Y-90688681D01*
X175577591Y-90688685D01*
X175654156Y-90877715D01*
X175678493Y-90937801D01*
X175680797Y-90941736D01*
X175680799Y-90941740D01*
X175739915Y-91042701D01*
X175816606Y-91173680D01*
X175987323Y-91387151D01*
X176187068Y-91573742D01*
X176411656Y-91729544D01*
X176538501Y-91792648D01*
X176652296Y-91849261D01*
X176652299Y-91849262D01*
X176656383Y-91851294D01*
X176916121Y-91936440D01*
X176920612Y-91937220D01*
X176920613Y-91937220D01*
X177181650Y-91982544D01*
X177181658Y-91982545D01*
X177185431Y-91983200D01*
X177189268Y-91983391D01*
X177270233Y-91987422D01*
X177270241Y-91987422D01*
X177271804Y-91987500D01*
X177442434Y-91987500D01*
X177444702Y-91987335D01*
X177444714Y-91987335D01*
X177576273Y-91977789D01*
X177645622Y-91972757D01*
X177650077Y-91971773D01*
X177650080Y-91971773D01*
X177908073Y-91914814D01*
X177908077Y-91914813D01*
X177912533Y-91913829D01*
X178057526Y-91858896D01*
X178163872Y-91818605D01*
X178163875Y-91818604D01*
X178168142Y-91816987D01*
X178407094Y-91684261D01*
X178548507Y-91576338D01*
X178620751Y-91521203D01*
X178620752Y-91521202D01*
X178624383Y-91518431D01*
X178649158Y-91493088D01*
X178812264Y-91326238D01*
X178815458Y-91322971D01*
X178818147Y-91319277D01*
X178973629Y-91105667D01*
X178973632Y-91105661D01*
X178976315Y-91101976D01*
X178978437Y-91097943D01*
X178978440Y-91097938D01*
X179101460Y-90864115D01*
X179101460Y-90864114D01*
X179103586Y-90860074D01*
X179194603Y-90602334D01*
X179227052Y-90437704D01*
X179246580Y-90338627D01*
X179246581Y-90338621D01*
X179247461Y-90334155D01*
X179249876Y-90285641D01*
X179260825Y-90065723D01*
X179260825Y-90065717D01*
X179261052Y-90061154D01*
X179235091Y-89789051D01*
X179170122Y-89523545D01*
X179123992Y-89409654D01*
X179069220Y-89274427D01*
X179069217Y-89274421D01*
X179067507Y-89270199D01*
X178929394Y-89034320D01*
X178785205Y-88854020D01*
X178761529Y-88824415D01*
X178761528Y-88824413D01*
X178758677Y-88820849D01*
X178558932Y-88634258D01*
X178334344Y-88478456D01*
X178188256Y-88405778D01*
X178093704Y-88358739D01*
X178093701Y-88358738D01*
X178089617Y-88356706D01*
X177829879Y-88271560D01*
X177825387Y-88270780D01*
X177564350Y-88225456D01*
X177564342Y-88225455D01*
X177560569Y-88224800D01*
X177549238Y-88224236D01*
X177475767Y-88220578D01*
X177475759Y-88220578D01*
X177474196Y-88220500D01*
X177303566Y-88220500D01*
X177301298Y-88220665D01*
X177301286Y-88220665D01*
X177169727Y-88230211D01*
X177100378Y-88235243D01*
X177095923Y-88236227D01*
X177095920Y-88236227D01*
X176837927Y-88293186D01*
X176837923Y-88293187D01*
X176833467Y-88294171D01*
X176743275Y-88328342D01*
X176582128Y-88389395D01*
X176582125Y-88389396D01*
X176577858Y-88391013D01*
X176338906Y-88523739D01*
X176121617Y-88689569D01*
X175930542Y-88885029D01*
X175927855Y-88888721D01*
X175927853Y-88888723D01*
X175772371Y-89102333D01*
X175772368Y-89102339D01*
X175769685Y-89106024D01*
X175767563Y-89110057D01*
X175767560Y-89110062D01*
X175683308Y-89270199D01*
X175642414Y-89347926D01*
X175640896Y-89352225D01*
X175640895Y-89352227D01*
X175627523Y-89390094D01*
X175551397Y-89605666D01*
X175550517Y-89610132D01*
X175502002Y-89856277D01*
X175498539Y-89873845D01*
X175498312Y-89878398D01*
X175498312Y-89878401D01*
X175488987Y-90065723D01*
X175484948Y-90146846D01*
X121256786Y-90146846D01*
X121260825Y-90065723D01*
X121260825Y-90065717D01*
X121261052Y-90061154D01*
X121235091Y-89789051D01*
X121170122Y-89523545D01*
X121123992Y-89409654D01*
X121069220Y-89274427D01*
X121069217Y-89274421D01*
X121067507Y-89270199D01*
X120929394Y-89034320D01*
X120785205Y-88854020D01*
X120761529Y-88824415D01*
X120761528Y-88824413D01*
X120758677Y-88820849D01*
X120558932Y-88634258D01*
X120334344Y-88478456D01*
X120188256Y-88405778D01*
X120093704Y-88358739D01*
X120093701Y-88358738D01*
X120089617Y-88356706D01*
X119829879Y-88271560D01*
X119825387Y-88270780D01*
X119564350Y-88225456D01*
X119564342Y-88225455D01*
X119560569Y-88224800D01*
X119549238Y-88224236D01*
X119475767Y-88220578D01*
X119475759Y-88220578D01*
X119474196Y-88220500D01*
X119303566Y-88220500D01*
X119301298Y-88220665D01*
X119301286Y-88220665D01*
X119169727Y-88230211D01*
X119100378Y-88235243D01*
X119095923Y-88236227D01*
X119095920Y-88236227D01*
X118837927Y-88293186D01*
X118837923Y-88293187D01*
X118833467Y-88294171D01*
X118743275Y-88328342D01*
X118582128Y-88389395D01*
X118582125Y-88389396D01*
X118577858Y-88391013D01*
X118338906Y-88523739D01*
X118121617Y-88689569D01*
X117930542Y-88885029D01*
X117927855Y-88888721D01*
X117927853Y-88888723D01*
X117772371Y-89102333D01*
X117772368Y-89102339D01*
X117769685Y-89106024D01*
X117767563Y-89110057D01*
X117767560Y-89110062D01*
X117683308Y-89270199D01*
X117642414Y-89347926D01*
X117640896Y-89352225D01*
X117640895Y-89352227D01*
X117627523Y-89390094D01*
X117551397Y-89605666D01*
X117550517Y-89610132D01*
X117502002Y-89856277D01*
X117498539Y-89873845D01*
X117498312Y-89878398D01*
X117498312Y-89878401D01*
X117488987Y-90065723D01*
X117484948Y-90146846D01*
X112650143Y-90146846D01*
X112605354Y-90043840D01*
X112528132Y-89924473D01*
X112486822Y-89860617D01*
X112486820Y-89860614D01*
X112484014Y-89856277D01*
X112333670Y-89691051D01*
X112329619Y-89687852D01*
X112329615Y-89687848D01*
X112162414Y-89555800D01*
X112162410Y-89555798D01*
X112158359Y-89552598D01*
X112116569Y-89529529D01*
X112066598Y-89479097D01*
X112051826Y-89409654D01*
X112076942Y-89343248D01*
X112104294Y-89316641D01*
X112279328Y-89191792D01*
X112287200Y-89185139D01*
X112438052Y-89034812D01*
X112444730Y-89026965D01*
X112569003Y-88854020D01*
X112574313Y-88845183D01*
X112668670Y-88654267D01*
X112672469Y-88644672D01*
X112734377Y-88440910D01*
X112736555Y-88430837D01*
X112737986Y-88419962D01*
X112735775Y-88405778D01*
X112722617Y-88402000D01*
X111276000Y-88402000D01*
X111207879Y-88381998D01*
X111161386Y-88328342D01*
X111150000Y-88276000D01*
X111150000Y-88020000D01*
X111170002Y-87951879D01*
X111223658Y-87905386D01*
X111276000Y-87894000D01*
X112722344Y-87894000D01*
X112735875Y-87890027D01*
X112737180Y-87880947D01*
X112695214Y-87713875D01*
X112691894Y-87704124D01*
X112606972Y-87508814D01*
X112602105Y-87499739D01*
X112486426Y-87320926D01*
X112480136Y-87312757D01*
X112336806Y-87155240D01*
X112329273Y-87148215D01*
X112162139Y-87016222D01*
X112153556Y-87010520D01*
X112116602Y-86990120D01*
X112066631Y-86939687D01*
X112051859Y-86870245D01*
X112076975Y-86803839D01*
X112104327Y-86777232D01*
X112127797Y-86760491D01*
X112283860Y-86649173D01*
X112442096Y-86491489D01*
X112572453Y-86310077D01*
X112574746Y-86305437D01*
X112576446Y-86302608D01*
X112628674Y-86254518D01*
X112684451Y-86241500D01*
X116243233Y-86241500D01*
X116254416Y-86242027D01*
X116261909Y-86243702D01*
X116269835Y-86243453D01*
X116269836Y-86243453D01*
X116329986Y-86241562D01*
X116333945Y-86241500D01*
X116361856Y-86241500D01*
X116365791Y-86241003D01*
X116365856Y-86240995D01*
X116377693Y-86240062D01*
X116409951Y-86239048D01*
X116413970Y-86238922D01*
X116421889Y-86238673D01*
X116441343Y-86233021D01*
X116460700Y-86229013D01*
X116472930Y-86227468D01*
X116472931Y-86227468D01*
X116480797Y-86226474D01*
X116488168Y-86223555D01*
X116488170Y-86223555D01*
X116521912Y-86210196D01*
X116533142Y-86206351D01*
X116567983Y-86196229D01*
X116567984Y-86196229D01*
X116575593Y-86194018D01*
X116582412Y-86189985D01*
X116582417Y-86189983D01*
X116593028Y-86183707D01*
X116610776Y-86175012D01*
X116629617Y-86167552D01*
X116665387Y-86141564D01*
X116675307Y-86135048D01*
X116706535Y-86116580D01*
X116706538Y-86116578D01*
X116713362Y-86112542D01*
X116727683Y-86098221D01*
X116742717Y-86085380D01*
X116752694Y-86078131D01*
X116759107Y-86073472D01*
X116787298Y-86039395D01*
X116795288Y-86030616D01*
X120092500Y-82733405D01*
X120154812Y-82699379D01*
X120181595Y-82696500D01*
X120237487Y-82696500D01*
X120243939Y-82695128D01*
X120243944Y-82695128D01*
X120330888Y-82676647D01*
X120424288Y-82656794D01*
X120430319Y-82654109D01*
X120592722Y-82581803D01*
X120592724Y-82581802D01*
X120598752Y-82579118D01*
X120753253Y-82466866D01*
X120881040Y-82324944D01*
X120976527Y-82159556D01*
X121035542Y-81977928D01*
X121040569Y-81930104D01*
X121054814Y-81794565D01*
X121055504Y-81788000D01*
X121035542Y-81598072D01*
X120976527Y-81416444D01*
X120881040Y-81251056D01*
X120862151Y-81230077D01*
X120757675Y-81114045D01*
X120757674Y-81114044D01*
X120753253Y-81109134D01*
X120598752Y-80996882D01*
X120592724Y-80994198D01*
X120592722Y-80994197D01*
X120430319Y-80921891D01*
X120430318Y-80921891D01*
X120424288Y-80919206D01*
X120330888Y-80899353D01*
X120243944Y-80880872D01*
X120243939Y-80880872D01*
X120237487Y-80879500D01*
X120046513Y-80879500D01*
X120040061Y-80880872D01*
X120040056Y-80880872D01*
X119953112Y-80899353D01*
X119859712Y-80919206D01*
X119853682Y-80921891D01*
X119853681Y-80921891D01*
X119691278Y-80994197D01*
X119691276Y-80994198D01*
X119685248Y-80996882D01*
X119530747Y-81109134D01*
X119526326Y-81114044D01*
X119526325Y-81114045D01*
X119421850Y-81230077D01*
X119402960Y-81251056D01*
X119307473Y-81416444D01*
X119248458Y-81598072D01*
X119235274Y-81723516D01*
X119231093Y-81763293D01*
X119204080Y-81828950D01*
X119194878Y-81839218D01*
X116096500Y-84937595D01*
X116034188Y-84971621D01*
X116007405Y-84974500D01*
X112680805Y-84974500D01*
X112612684Y-84954498D01*
X112575013Y-84916940D01*
X112486822Y-84780617D01*
X112486820Y-84780614D01*
X112484014Y-84776277D01*
X112333670Y-84611051D01*
X112329619Y-84607852D01*
X112329615Y-84607848D01*
X112162414Y-84475800D01*
X112162410Y-84475798D01*
X112158359Y-84472598D01*
X112117053Y-84449796D01*
X112067084Y-84399364D01*
X112052312Y-84329921D01*
X112077428Y-84263516D01*
X112104780Y-84236909D01*
X112178070Y-84184632D01*
X112283860Y-84109173D01*
X112442096Y-83951489D01*
X112572453Y-83770077D01*
X112671430Y-83569811D01*
X112736370Y-83356069D01*
X112765529Y-83134590D01*
X112767156Y-83068000D01*
X112748852Y-82845361D01*
X112694431Y-82628702D01*
X112605354Y-82423840D01*
X112484014Y-82236277D01*
X112333670Y-82071051D01*
X112329619Y-82067852D01*
X112329615Y-82067848D01*
X112162414Y-81935800D01*
X112162410Y-81935798D01*
X112158359Y-81932598D01*
X112117053Y-81909796D01*
X112067084Y-81859364D01*
X112052312Y-81789921D01*
X112077428Y-81723516D01*
X112104780Y-81696909D01*
X112178070Y-81644632D01*
X112283860Y-81569173D01*
X112442096Y-81411489D01*
X112572453Y-81230077D01*
X112632227Y-81109134D01*
X112669136Y-81034453D01*
X112669137Y-81034451D01*
X112671430Y-81029811D01*
X112736370Y-80816069D01*
X112765529Y-80594590D01*
X112767156Y-80528000D01*
X112748852Y-80305361D01*
X112694431Y-80088702D01*
X112605354Y-79883840D01*
X112484014Y-79696277D01*
X112333670Y-79531051D01*
X112329619Y-79527852D01*
X112329615Y-79527848D01*
X112162414Y-79395800D01*
X112162410Y-79395798D01*
X112158359Y-79392598D01*
X112117053Y-79369796D01*
X112067084Y-79319364D01*
X112052312Y-79249921D01*
X112077428Y-79183516D01*
X112104780Y-79156909D01*
X112178070Y-79104632D01*
X112283860Y-79029173D01*
X112442096Y-78871489D01*
X112572453Y-78690077D01*
X112574746Y-78685437D01*
X112576446Y-78682608D01*
X112628674Y-78634518D01*
X112684451Y-78621500D01*
X143802233Y-78621500D01*
X143813416Y-78622027D01*
X143820909Y-78623702D01*
X143828835Y-78623453D01*
X143828836Y-78623453D01*
X143888986Y-78621562D01*
X143892945Y-78621500D01*
X143920856Y-78621500D01*
X143924791Y-78621003D01*
X143924856Y-78620995D01*
X143936693Y-78620062D01*
X143968951Y-78619048D01*
X143972970Y-78618922D01*
X143980889Y-78618673D01*
X144000343Y-78613021D01*
X144019700Y-78609013D01*
X144031930Y-78607468D01*
X144031931Y-78607468D01*
X144039797Y-78606474D01*
X144047168Y-78603555D01*
X144047170Y-78603555D01*
X144080912Y-78590196D01*
X144092142Y-78586351D01*
X144126983Y-78576229D01*
X144126984Y-78576229D01*
X144134593Y-78574018D01*
X144141412Y-78569985D01*
X144141417Y-78569983D01*
X144152028Y-78563707D01*
X144169776Y-78555012D01*
X144188617Y-78547552D01*
X144224387Y-78521564D01*
X144234307Y-78515048D01*
X144265535Y-78496580D01*
X144265538Y-78496578D01*
X144272362Y-78492542D01*
X144286683Y-78478221D01*
X144301717Y-78465380D01*
X144311694Y-78458131D01*
X144318107Y-78453472D01*
X144346298Y-78419395D01*
X144354288Y-78410616D01*
X151990500Y-70774405D01*
X152052812Y-70740379D01*
X152079595Y-70737500D01*
X167465934Y-70737500D01*
X167477117Y-70738027D01*
X167484610Y-70739702D01*
X167492536Y-70739453D01*
X167492537Y-70739453D01*
X167552687Y-70737562D01*
X167556646Y-70737500D01*
X167584557Y-70737500D01*
X167588492Y-70737003D01*
X167588557Y-70736995D01*
X167600394Y-70736062D01*
X167632652Y-70735048D01*
X167636671Y-70734922D01*
X167644590Y-70734673D01*
X167664044Y-70729021D01*
X167683401Y-70725013D01*
X167695631Y-70723468D01*
X167695632Y-70723468D01*
X167703498Y-70722474D01*
X167710869Y-70719555D01*
X167710871Y-70719555D01*
X167744613Y-70706196D01*
X167755843Y-70702351D01*
X167790684Y-70692229D01*
X167790685Y-70692229D01*
X167798294Y-70690018D01*
X167805113Y-70685985D01*
X167805118Y-70685983D01*
X167815729Y-70679707D01*
X167833477Y-70671012D01*
X167852318Y-70663552D01*
X167888088Y-70637564D01*
X167898008Y-70631048D01*
X167929236Y-70612580D01*
X167929239Y-70612578D01*
X167936063Y-70608542D01*
X167950384Y-70594221D01*
X167965418Y-70581380D01*
X167975395Y-70574131D01*
X167981808Y-70569472D01*
X168009999Y-70535395D01*
X168017989Y-70526616D01*
X169032134Y-69512471D01*
X169094446Y-69478445D01*
X169165261Y-69483510D01*
X169184796Y-69492777D01*
X169374000Y-69603338D01*
X169582692Y-69683030D01*
X169587760Y-69684061D01*
X169587763Y-69684062D01*
X169682862Y-69703410D01*
X169801597Y-69727567D01*
X169806772Y-69727757D01*
X169806774Y-69727757D01*
X170019673Y-69735564D01*
X170019677Y-69735564D01*
X170024837Y-69735753D01*
X170029957Y-69735097D01*
X170029959Y-69735097D01*
X170241288Y-69708025D01*
X170241289Y-69708025D01*
X170246416Y-69707368D01*
X170251366Y-69705883D01*
X170455429Y-69644661D01*
X170455434Y-69644659D01*
X170460384Y-69643174D01*
X170660994Y-69544896D01*
X170842860Y-69415173D01*
X170887137Y-69371051D01*
X170943268Y-69315115D01*
X171001096Y-69257489D01*
X171131453Y-69076077D01*
X171132640Y-69076930D01*
X171179960Y-69033362D01*
X171249897Y-69021145D01*
X171315338Y-69048678D01*
X171343166Y-69080511D01*
X171400694Y-69174388D01*
X171406777Y-69182699D01*
X171546213Y-69343667D01*
X171553580Y-69350883D01*
X171717434Y-69486916D01*
X171725881Y-69492831D01*
X171852543Y-69566846D01*
X171901267Y-69618484D01*
X171914338Y-69688267D01*
X171887607Y-69754039D01*
X171878070Y-69764727D01*
X169566519Y-72076277D01*
X167256201Y-74386595D01*
X167193889Y-74420621D01*
X167167106Y-74423500D01*
X161744200Y-74423500D01*
X161676079Y-74403498D01*
X161656853Y-74387157D01*
X161656580Y-74387460D01*
X161651668Y-74383037D01*
X161647253Y-74378134D01*
X161604357Y-74346968D01*
X161498094Y-74269763D01*
X161498093Y-74269762D01*
X161492752Y-74265882D01*
X161486724Y-74263198D01*
X161486722Y-74263197D01*
X161324319Y-74190891D01*
X161324318Y-74190891D01*
X161318288Y-74188206D01*
X161224887Y-74168353D01*
X161137944Y-74149872D01*
X161137939Y-74149872D01*
X161131487Y-74148500D01*
X160940513Y-74148500D01*
X160934061Y-74149872D01*
X160934056Y-74149872D01*
X160847113Y-74168353D01*
X160753712Y-74188206D01*
X160747682Y-74190891D01*
X160747681Y-74190891D01*
X160585278Y-74263197D01*
X160585276Y-74263198D01*
X160579248Y-74265882D01*
X160424747Y-74378134D01*
X160420326Y-74383044D01*
X160420325Y-74383045D01*
X160302778Y-74513595D01*
X160296960Y-74520056D01*
X160201473Y-74685444D01*
X160142458Y-74867072D01*
X160122496Y-75057000D01*
X160123186Y-75063565D01*
X160140734Y-75230522D01*
X160142458Y-75246928D01*
X160201473Y-75428556D01*
X160204776Y-75434278D01*
X160204777Y-75434279D01*
X160212699Y-75448000D01*
X160296960Y-75593944D01*
X160301378Y-75598851D01*
X160301379Y-75598852D01*
X160387905Y-75694949D01*
X160424747Y-75735866D01*
X160579248Y-75848118D01*
X160585276Y-75850802D01*
X160585278Y-75850803D01*
X160747681Y-75923109D01*
X160753712Y-75925794D01*
X160843396Y-75944857D01*
X160934056Y-75964128D01*
X160934061Y-75964128D01*
X160940513Y-75965500D01*
X161131487Y-75965500D01*
X161137939Y-75964128D01*
X161137944Y-75964128D01*
X161228604Y-75944857D01*
X161318288Y-75925794D01*
X161324319Y-75923109D01*
X161486722Y-75850803D01*
X161486724Y-75850802D01*
X161492752Y-75848118D01*
X161647253Y-75735866D01*
X161651668Y-75730963D01*
X161656580Y-75726540D01*
X161657705Y-75727789D01*
X161711014Y-75694949D01*
X161744200Y-75690500D01*
X167402934Y-75690500D01*
X167414117Y-75691027D01*
X167421610Y-75692702D01*
X167429536Y-75692453D01*
X167429537Y-75692453D01*
X167489687Y-75690562D01*
X167493646Y-75690500D01*
X167521557Y-75690500D01*
X167525492Y-75690003D01*
X167525557Y-75689995D01*
X167537394Y-75689062D01*
X167569652Y-75688048D01*
X167573671Y-75687922D01*
X167581590Y-75687673D01*
X167601044Y-75682021D01*
X167620401Y-75678013D01*
X167632631Y-75676468D01*
X167632632Y-75676468D01*
X167640498Y-75675474D01*
X167647869Y-75672555D01*
X167647871Y-75672555D01*
X167681613Y-75659196D01*
X167692843Y-75655351D01*
X167727684Y-75645229D01*
X167727685Y-75645229D01*
X167735294Y-75643018D01*
X167742113Y-75638985D01*
X167742118Y-75638983D01*
X167752729Y-75632707D01*
X167770477Y-75624012D01*
X167789318Y-75616552D01*
X167805479Y-75604811D01*
X167825088Y-75590564D01*
X167835008Y-75584048D01*
X167866236Y-75565580D01*
X167866239Y-75565578D01*
X167873063Y-75561542D01*
X167887384Y-75547221D01*
X167902418Y-75534380D01*
X167912395Y-75527131D01*
X167918808Y-75522472D01*
X167946999Y-75488395D01*
X167954989Y-75479616D01*
X174070253Y-69364353D01*
X174078539Y-69356813D01*
X174085018Y-69352701D01*
X174095335Y-69341715D01*
X174131643Y-69303050D01*
X174134398Y-69300208D01*
X174154135Y-69280471D01*
X174156615Y-69277274D01*
X174164320Y-69268252D01*
X174170189Y-69262002D01*
X174194586Y-69236022D01*
X174198405Y-69229076D01*
X174198407Y-69229073D01*
X174204348Y-69218267D01*
X174215199Y-69201748D01*
X174222758Y-69192002D01*
X174227614Y-69185742D01*
X174230759Y-69178473D01*
X174230762Y-69178469D01*
X174245174Y-69145164D01*
X174250391Y-69134514D01*
X174271695Y-69095761D01*
X174276733Y-69076138D01*
X174283137Y-69057435D01*
X174288033Y-69046121D01*
X174288033Y-69046120D01*
X174291181Y-69038846D01*
X174292420Y-69031023D01*
X174292423Y-69031013D01*
X174298099Y-68995177D01*
X174300505Y-68983557D01*
X174309528Y-68948412D01*
X174309528Y-68948411D01*
X174311500Y-68940731D01*
X174311500Y-68920477D01*
X174313051Y-68900766D01*
X174314980Y-68888587D01*
X174316220Y-68880758D01*
X174312059Y-68836739D01*
X174311500Y-68824882D01*
X174311500Y-67146846D01*
X175484948Y-67146846D01*
X175510909Y-67418949D01*
X175511994Y-67423383D01*
X175511995Y-67423389D01*
X175540152Y-67538457D01*
X175575878Y-67684455D01*
X175577590Y-67688681D01*
X175577591Y-67688685D01*
X175664521Y-67903305D01*
X175678493Y-67937801D01*
X175816606Y-68173680D01*
X175987323Y-68387151D01*
X176187068Y-68573742D01*
X176411656Y-68729544D01*
X176516371Y-68781639D01*
X176652296Y-68849261D01*
X176652299Y-68849262D01*
X176656383Y-68851294D01*
X176916121Y-68936440D01*
X176920612Y-68937220D01*
X176920613Y-68937220D01*
X177181650Y-68982544D01*
X177181658Y-68982545D01*
X177185431Y-68983200D01*
X177189268Y-68983391D01*
X177270233Y-68987422D01*
X177270241Y-68987422D01*
X177271804Y-68987500D01*
X177442434Y-68987500D01*
X177444702Y-68987335D01*
X177444714Y-68987335D01*
X177576273Y-68977789D01*
X177645622Y-68972757D01*
X177650077Y-68971773D01*
X177650080Y-68971773D01*
X177908073Y-68914814D01*
X177908077Y-68914813D01*
X177912533Y-68913829D01*
X178147304Y-68824882D01*
X178163872Y-68818605D01*
X178163875Y-68818604D01*
X178168142Y-68816987D01*
X178407094Y-68684261D01*
X178624383Y-68518431D01*
X178815458Y-68322971D01*
X178818147Y-68319277D01*
X178973629Y-68105667D01*
X178973632Y-68105661D01*
X178976315Y-68101976D01*
X178978437Y-68097943D01*
X178978440Y-68097938D01*
X179101460Y-67864115D01*
X179101460Y-67864114D01*
X179103586Y-67860074D01*
X179106482Y-67851875D01*
X179150494Y-67727240D01*
X179194603Y-67602334D01*
X179220482Y-67471037D01*
X179246580Y-67338627D01*
X179246581Y-67338621D01*
X179247461Y-67334155D01*
X179250585Y-67271405D01*
X179260825Y-67065723D01*
X179260825Y-67065717D01*
X179261052Y-67061154D01*
X179235091Y-66789051D01*
X179228868Y-66763616D01*
X179171207Y-66527979D01*
X179170122Y-66523545D01*
X179164289Y-66509144D01*
X179069220Y-66274427D01*
X179069217Y-66274421D01*
X179067507Y-66270199D01*
X179050785Y-66241639D01*
X178969217Y-66102333D01*
X178929394Y-66034320D01*
X178758677Y-65820849D01*
X178558932Y-65634258D01*
X178334344Y-65478456D01*
X178207499Y-65415352D01*
X178093704Y-65358739D01*
X178093701Y-65358738D01*
X178089617Y-65356706D01*
X177829879Y-65271560D01*
X177825387Y-65270780D01*
X177564350Y-65225456D01*
X177564342Y-65225455D01*
X177560569Y-65224800D01*
X177549238Y-65224236D01*
X177475767Y-65220578D01*
X177475759Y-65220578D01*
X177474196Y-65220500D01*
X177303566Y-65220500D01*
X177301298Y-65220665D01*
X177301286Y-65220665D01*
X177169727Y-65230211D01*
X177100378Y-65235243D01*
X177095923Y-65236227D01*
X177095920Y-65236227D01*
X176837927Y-65293186D01*
X176837923Y-65293187D01*
X176833467Y-65294171D01*
X176760122Y-65321959D01*
X176582128Y-65389395D01*
X176582125Y-65389396D01*
X176577858Y-65391013D01*
X176338906Y-65523739D01*
X176121617Y-65689569D01*
X176118424Y-65692835D01*
X176118422Y-65692837D01*
X176069079Y-65743313D01*
X175930542Y-65885029D01*
X175927855Y-65888721D01*
X175927853Y-65888723D01*
X175772371Y-66102333D01*
X175772368Y-66102339D01*
X175769685Y-66106024D01*
X175767563Y-66110057D01*
X175767560Y-66110062D01*
X175683308Y-66270199D01*
X175642414Y-66347926D01*
X175551397Y-66605666D01*
X175533796Y-66694966D01*
X175500775Y-66862502D01*
X175498539Y-66873845D01*
X175498312Y-66878398D01*
X175498312Y-66878401D01*
X175485755Y-67130638D01*
X175484948Y-67146846D01*
X174311500Y-67146846D01*
X174311500Y-67087767D01*
X174312027Y-67076584D01*
X174313702Y-67069091D01*
X174312949Y-67045114D01*
X174311562Y-67001001D01*
X174311500Y-66997043D01*
X174311500Y-66969144D01*
X174310996Y-66965153D01*
X174310063Y-66953311D01*
X174308923Y-66917036D01*
X174308674Y-66909111D01*
X174306462Y-66901497D01*
X174306461Y-66901492D01*
X174303023Y-66889659D01*
X174299012Y-66870295D01*
X174297467Y-66858064D01*
X174296474Y-66850203D01*
X174293557Y-66842836D01*
X174293556Y-66842831D01*
X174280198Y-66809092D01*
X174276354Y-66797865D01*
X174266230Y-66763022D01*
X174264018Y-66755407D01*
X174253707Y-66737972D01*
X174245012Y-66720224D01*
X174237552Y-66701383D01*
X174211564Y-66665613D01*
X174205048Y-66655693D01*
X174186580Y-66624465D01*
X174186578Y-66624462D01*
X174182542Y-66617638D01*
X174168221Y-66603317D01*
X174155380Y-66588283D01*
X174148131Y-66578306D01*
X174143472Y-66571893D01*
X174137368Y-66566843D01*
X174137363Y-66566838D01*
X174109402Y-66543707D01*
X174100622Y-66535717D01*
X173854218Y-66289313D01*
X173820192Y-66227001D01*
X173822755Y-66163589D01*
X173833865Y-66127022D01*
X173835370Y-66122069D01*
X173864529Y-65900590D01*
X173866156Y-65834000D01*
X173847852Y-65611361D01*
X173793431Y-65394702D01*
X173704354Y-65189840D01*
X173583014Y-65002277D01*
X173432670Y-64837051D01*
X173428619Y-64833852D01*
X173428615Y-64833848D01*
X173261414Y-64701800D01*
X173261410Y-64701798D01*
X173257359Y-64698598D01*
X173252831Y-64696098D01*
X173200945Y-64667456D01*
X173061789Y-64590638D01*
X173056920Y-64588914D01*
X173056916Y-64588912D01*
X172856087Y-64517795D01*
X172856083Y-64517794D01*
X172851212Y-64516069D01*
X172846119Y-64515162D01*
X172846116Y-64515161D01*
X172636373Y-64477800D01*
X172636367Y-64477799D01*
X172631284Y-64476894D01*
X172557452Y-64475992D01*
X172413081Y-64474228D01*
X172413079Y-64474228D01*
X172407911Y-64474165D01*
X172187091Y-64507955D01*
X171974756Y-64577357D01*
X171928257Y-64601563D01*
X171800975Y-64667822D01*
X171776607Y-64680507D01*
X171772474Y-64683610D01*
X171772471Y-64683612D01*
X171610134Y-64805498D01*
X171597965Y-64814635D01*
X171594393Y-64818373D01*
X171456127Y-64963060D01*
X171443629Y-64976138D01*
X171336201Y-65133621D01*
X171281293Y-65178621D01*
X171210768Y-65186792D01*
X171147021Y-65155538D01*
X171126324Y-65131054D01*
X171045822Y-65006617D01*
X171045820Y-65006614D01*
X171043014Y-65002277D01*
X170892670Y-64837051D01*
X170888619Y-64833852D01*
X170888615Y-64833848D01*
X170721414Y-64701800D01*
X170721410Y-64701798D01*
X170717359Y-64698598D01*
X170712831Y-64696098D01*
X170660945Y-64667456D01*
X170521789Y-64590638D01*
X170516920Y-64588914D01*
X170516916Y-64588912D01*
X170316087Y-64517795D01*
X170316083Y-64517794D01*
X170311212Y-64516069D01*
X170306119Y-64515162D01*
X170306116Y-64515161D01*
X170096373Y-64477800D01*
X170096367Y-64477799D01*
X170091284Y-64476894D01*
X170017452Y-64475992D01*
X169873081Y-64474228D01*
X169873079Y-64474228D01*
X169867911Y-64474165D01*
X169647091Y-64507955D01*
X169434756Y-64577357D01*
X169388257Y-64601563D01*
X169260975Y-64667822D01*
X169236607Y-64680507D01*
X169232474Y-64683610D01*
X169232471Y-64683612D01*
X169070134Y-64805498D01*
X169057965Y-64814635D01*
X169054393Y-64818373D01*
X168916127Y-64963060D01*
X168903629Y-64976138D01*
X168796201Y-65133621D01*
X168741293Y-65178621D01*
X168670768Y-65186792D01*
X168607021Y-65155538D01*
X168586324Y-65131054D01*
X168505822Y-65006617D01*
X168505820Y-65006614D01*
X168503014Y-65002277D01*
X168352670Y-64837051D01*
X168348619Y-64833852D01*
X168348615Y-64833848D01*
X168181414Y-64701800D01*
X168181410Y-64701798D01*
X168177359Y-64698598D01*
X168172831Y-64696098D01*
X168120945Y-64667456D01*
X167981789Y-64590638D01*
X167976920Y-64588914D01*
X167976916Y-64588912D01*
X167776087Y-64517795D01*
X167776083Y-64517794D01*
X167771212Y-64516069D01*
X167766119Y-64515162D01*
X167766116Y-64515161D01*
X167556373Y-64477800D01*
X167556367Y-64477799D01*
X167551284Y-64476894D01*
X167477452Y-64475992D01*
X167333081Y-64474228D01*
X167333079Y-64474228D01*
X167327911Y-64474165D01*
X167107091Y-64507955D01*
X166894756Y-64577357D01*
X166848257Y-64601563D01*
X166720975Y-64667822D01*
X166696607Y-64680507D01*
X166692474Y-64683610D01*
X166692471Y-64683612D01*
X166530134Y-64805498D01*
X166517965Y-64814635D01*
X166514393Y-64818373D01*
X166376127Y-64963060D01*
X166363629Y-64976138D01*
X166256204Y-65133618D01*
X166255898Y-65134066D01*
X166200987Y-65179069D01*
X166130462Y-65187240D01*
X166066715Y-65155986D01*
X166046018Y-65131502D01*
X165965426Y-65006926D01*
X165959136Y-64998757D01*
X165815806Y-64841240D01*
X165808273Y-64834215D01*
X165641139Y-64702222D01*
X165632552Y-64696517D01*
X165446117Y-64593599D01*
X165436705Y-64589369D01*
X165235959Y-64518280D01*
X165225988Y-64515646D01*
X165154837Y-64502972D01*
X165141540Y-64504432D01*
X165137000Y-64518989D01*
X165137000Y-65962000D01*
X165116998Y-66030121D01*
X165063342Y-66076614D01*
X165011000Y-66088000D01*
X164755000Y-66088000D01*
X164686879Y-66067998D01*
X164640386Y-66014342D01*
X164629000Y-65962000D01*
X164629000Y-64517102D01*
X164625082Y-64503758D01*
X164610806Y-64501771D01*
X164572324Y-64507660D01*
X164562288Y-64510051D01*
X164359868Y-64576212D01*
X164350359Y-64580209D01*
X164161463Y-64678542D01*
X164152738Y-64684036D01*
X163982433Y-64811905D01*
X163974726Y-64818748D01*
X163827590Y-64972717D01*
X163821109Y-64980722D01*
X163716498Y-65134074D01*
X163661587Y-65179076D01*
X163591062Y-65187247D01*
X163527315Y-65155993D01*
X163506618Y-65131509D01*
X163425822Y-65006617D01*
X163425820Y-65006614D01*
X163423014Y-65002277D01*
X163272670Y-64837051D01*
X163268619Y-64833852D01*
X163268615Y-64833848D01*
X163101414Y-64701800D01*
X163101410Y-64701798D01*
X163097359Y-64698598D01*
X163092831Y-64696098D01*
X163040945Y-64667456D01*
X162901789Y-64590638D01*
X162896920Y-64588914D01*
X162896916Y-64588912D01*
X162696087Y-64517795D01*
X162696083Y-64517794D01*
X162691212Y-64516069D01*
X162686119Y-64515162D01*
X162686116Y-64515161D01*
X162476373Y-64477800D01*
X162476367Y-64477799D01*
X162471284Y-64476894D01*
X162397452Y-64475992D01*
X162253081Y-64474228D01*
X162253079Y-64474228D01*
X162247911Y-64474165D01*
X162027091Y-64507955D01*
X161814756Y-64577357D01*
X161768257Y-64601563D01*
X161640975Y-64667822D01*
X161616607Y-64680507D01*
X161612474Y-64683610D01*
X161612471Y-64683612D01*
X161450134Y-64805498D01*
X161437965Y-64814635D01*
X161434393Y-64818373D01*
X161296127Y-64963060D01*
X161283629Y-64976138D01*
X161176204Y-65133618D01*
X161175898Y-65134066D01*
X161120987Y-65179069D01*
X161050462Y-65187240D01*
X160986715Y-65155986D01*
X160966018Y-65131502D01*
X160885426Y-65006926D01*
X160879136Y-64998757D01*
X160735806Y-64841240D01*
X160728273Y-64834215D01*
X160561139Y-64702222D01*
X160552552Y-64696517D01*
X160366117Y-64593599D01*
X160356705Y-64589369D01*
X160155959Y-64518280D01*
X160145988Y-64515646D01*
X160074837Y-64502972D01*
X160061540Y-64504432D01*
X160057000Y-64518989D01*
X160057000Y-65962000D01*
X160036998Y-66030121D01*
X159983342Y-66076614D01*
X159931000Y-66088000D01*
X159675000Y-66088000D01*
X159606879Y-66067998D01*
X159560386Y-66014342D01*
X159549000Y-65962000D01*
X159549000Y-64517102D01*
X159545082Y-64503758D01*
X159530806Y-64501771D01*
X159492324Y-64507660D01*
X159482288Y-64510051D01*
X159279868Y-64576212D01*
X159270359Y-64580209D01*
X159081463Y-64678542D01*
X159072738Y-64684036D01*
X158902433Y-64811905D01*
X158894726Y-64818748D01*
X158747590Y-64972717D01*
X158741109Y-64980722D01*
X158636498Y-65134074D01*
X158581587Y-65179076D01*
X158511062Y-65187247D01*
X158447315Y-65155993D01*
X158426618Y-65131509D01*
X158345822Y-65006617D01*
X158345820Y-65006614D01*
X158343014Y-65002277D01*
X158192670Y-64837051D01*
X158188619Y-64833852D01*
X158188615Y-64833848D01*
X158021414Y-64701800D01*
X158021410Y-64701798D01*
X158017359Y-64698598D01*
X158012831Y-64696098D01*
X157960945Y-64667456D01*
X157821789Y-64590638D01*
X157816920Y-64588914D01*
X157816916Y-64588912D01*
X157616087Y-64517795D01*
X157616083Y-64517794D01*
X157611212Y-64516069D01*
X157606119Y-64515162D01*
X157606116Y-64515161D01*
X157396373Y-64477800D01*
X157396367Y-64477799D01*
X157391284Y-64476894D01*
X157317452Y-64475992D01*
X157173081Y-64474228D01*
X157173079Y-64474228D01*
X157167911Y-64474165D01*
X156947091Y-64507955D01*
X156734756Y-64577357D01*
X156688257Y-64601563D01*
X156560975Y-64667822D01*
X156536607Y-64680507D01*
X156532474Y-64683610D01*
X156532471Y-64683612D01*
X156370134Y-64805498D01*
X156357965Y-64814635D01*
X156354393Y-64818373D01*
X156216127Y-64963060D01*
X156203629Y-64976138D01*
X156096201Y-65133621D01*
X156041293Y-65178621D01*
X155970768Y-65186792D01*
X155907021Y-65155538D01*
X155886324Y-65131054D01*
X155805822Y-65006617D01*
X155805820Y-65006614D01*
X155803014Y-65002277D01*
X155652670Y-64837051D01*
X155648619Y-64833852D01*
X155648615Y-64833848D01*
X155481414Y-64701800D01*
X155481410Y-64701798D01*
X155477359Y-64698598D01*
X155472831Y-64696098D01*
X155420945Y-64667456D01*
X155281789Y-64590638D01*
X155276920Y-64588914D01*
X155276916Y-64588912D01*
X155076087Y-64517795D01*
X155076083Y-64517794D01*
X155071212Y-64516069D01*
X155066119Y-64515162D01*
X155066116Y-64515161D01*
X154856373Y-64477800D01*
X154856367Y-64477799D01*
X154851284Y-64476894D01*
X154777452Y-64475992D01*
X154633081Y-64474228D01*
X154633079Y-64474228D01*
X154627911Y-64474165D01*
X154407091Y-64507955D01*
X154194756Y-64577357D01*
X154148257Y-64601563D01*
X154020975Y-64667822D01*
X153996607Y-64680507D01*
X153992474Y-64683610D01*
X153992471Y-64683612D01*
X153830134Y-64805498D01*
X153817965Y-64814635D01*
X153814393Y-64818373D01*
X153676127Y-64963060D01*
X153663629Y-64976138D01*
X153556201Y-65133621D01*
X153501293Y-65178621D01*
X153430768Y-65186792D01*
X153367021Y-65155538D01*
X153346324Y-65131054D01*
X153265822Y-65006617D01*
X153265820Y-65006614D01*
X153263014Y-65002277D01*
X153112670Y-64837051D01*
X153108619Y-64833852D01*
X153108615Y-64833848D01*
X152941414Y-64701800D01*
X152941410Y-64701798D01*
X152937359Y-64698598D01*
X152932831Y-64696098D01*
X152880945Y-64667456D01*
X152741789Y-64590638D01*
X152736920Y-64588914D01*
X152736916Y-64588912D01*
X152536087Y-64517795D01*
X152536083Y-64517794D01*
X152531212Y-64516069D01*
X152526119Y-64515162D01*
X152526116Y-64515161D01*
X152316373Y-64477800D01*
X152316367Y-64477799D01*
X152311284Y-64476894D01*
X152237452Y-64475992D01*
X152093081Y-64474228D01*
X152093079Y-64474228D01*
X152087911Y-64474165D01*
X151867091Y-64507955D01*
X151654756Y-64577357D01*
X151608257Y-64601563D01*
X151480975Y-64667822D01*
X151456607Y-64680507D01*
X151452474Y-64683610D01*
X151452471Y-64683612D01*
X151290134Y-64805498D01*
X151277965Y-64814635D01*
X151274393Y-64818373D01*
X151136127Y-64963060D01*
X151123629Y-64976138D01*
X151016201Y-65133621D01*
X150961293Y-65178621D01*
X150890768Y-65186792D01*
X150827021Y-65155538D01*
X150806324Y-65131054D01*
X150725822Y-65006617D01*
X150725820Y-65006614D01*
X150723014Y-65002277D01*
X150572670Y-64837051D01*
X150568619Y-64833852D01*
X150568615Y-64833848D01*
X150401414Y-64701800D01*
X150401410Y-64701798D01*
X150397359Y-64698598D01*
X150392831Y-64696098D01*
X150340945Y-64667456D01*
X150201789Y-64590638D01*
X150196920Y-64588914D01*
X150196916Y-64588912D01*
X149996087Y-64517795D01*
X149996083Y-64517794D01*
X149991212Y-64516069D01*
X149986119Y-64515162D01*
X149986116Y-64515161D01*
X149776373Y-64477800D01*
X149776367Y-64477799D01*
X149771284Y-64476894D01*
X149697452Y-64475992D01*
X149553081Y-64474228D01*
X149553079Y-64474228D01*
X149547911Y-64474165D01*
X149327091Y-64507955D01*
X149114756Y-64577357D01*
X149068257Y-64601563D01*
X148940975Y-64667822D01*
X148916607Y-64680507D01*
X148912474Y-64683610D01*
X148912471Y-64683612D01*
X148750134Y-64805498D01*
X148737965Y-64814635D01*
X148734393Y-64818373D01*
X148596127Y-64963060D01*
X148583629Y-64976138D01*
X148476204Y-65133618D01*
X148475898Y-65134066D01*
X148420987Y-65179069D01*
X148350462Y-65187240D01*
X148286715Y-65155986D01*
X148266018Y-65131502D01*
X148185426Y-65006926D01*
X148179136Y-64998757D01*
X148035806Y-64841240D01*
X148028273Y-64834215D01*
X147861139Y-64702222D01*
X147852552Y-64696517D01*
X147666117Y-64593599D01*
X147656705Y-64589369D01*
X147455959Y-64518280D01*
X147445988Y-64515646D01*
X147374837Y-64502972D01*
X147361540Y-64504432D01*
X147357000Y-64518989D01*
X147357000Y-65962000D01*
X147336998Y-66030121D01*
X147283342Y-66076614D01*
X147231000Y-66088000D01*
X146975000Y-66088000D01*
X146906879Y-66067998D01*
X146860386Y-66014342D01*
X146849000Y-65962000D01*
X146849000Y-64517102D01*
X146845082Y-64503758D01*
X146830806Y-64501771D01*
X146792324Y-64507660D01*
X146782288Y-64510051D01*
X146579868Y-64576212D01*
X146570362Y-64580208D01*
X146555679Y-64587851D01*
X146486019Y-64601563D01*
X146420004Y-64575437D01*
X146378594Y-64517768D01*
X146371500Y-64476087D01*
X146371500Y-62475594D01*
X146391502Y-62407473D01*
X146408405Y-62386499D01*
X148160500Y-60634405D01*
X148222812Y-60600379D01*
X148249595Y-60597500D01*
X149418134Y-60597500D01*
X149480316Y-60590745D01*
X149616705Y-60539615D01*
X149733261Y-60452261D01*
X149820615Y-60335705D01*
X149871745Y-60199316D01*
X149878500Y-60137134D01*
X149878500Y-58480866D01*
X149871745Y-58418684D01*
X149820615Y-58282295D01*
X149733261Y-58165739D01*
X149616705Y-58078385D01*
X149480316Y-58027255D01*
X149418134Y-58020500D01*
X147761866Y-58020500D01*
X147699684Y-58027255D01*
X147563295Y-58078385D01*
X147446739Y-58165739D01*
X147359385Y-58282295D01*
X147308255Y-58418684D01*
X147301500Y-58480866D01*
X147301500Y-59649406D01*
X147281498Y-59717527D01*
X147264595Y-59738501D01*
X145345747Y-61657348D01*
X145337461Y-61664888D01*
X145330982Y-61669000D01*
X145325557Y-61674777D01*
X145284357Y-61718651D01*
X145281602Y-61721493D01*
X145261865Y-61741230D01*
X145259385Y-61744427D01*
X145251682Y-61753447D01*
X145221414Y-61785679D01*
X145217595Y-61792625D01*
X145217593Y-61792628D01*
X145211652Y-61803434D01*
X145200801Y-61819953D01*
X145188386Y-61835959D01*
X145185241Y-61843228D01*
X145185238Y-61843232D01*
X145170826Y-61876537D01*
X145165609Y-61887187D01*
X145144305Y-61925940D01*
X145142334Y-61933615D01*
X145142334Y-61933616D01*
X145139267Y-61945562D01*
X145132863Y-61964266D01*
X145124819Y-61982855D01*
X145123580Y-61990678D01*
X145123577Y-61990688D01*
X145117901Y-62026524D01*
X145115495Y-62038144D01*
X145104500Y-62080970D01*
X145104500Y-62101224D01*
X145102949Y-62120934D01*
X145099780Y-62140943D01*
X145100526Y-62148835D01*
X145103941Y-62184961D01*
X145104500Y-62196819D01*
X145104500Y-64406230D01*
X145084498Y-64474351D01*
X145030842Y-64520844D01*
X144960568Y-64530948D01*
X144936439Y-64525002D01*
X144916094Y-64517797D01*
X144916085Y-64517795D01*
X144911212Y-64516069D01*
X144906119Y-64515162D01*
X144906116Y-64515161D01*
X144696373Y-64477800D01*
X144696367Y-64477799D01*
X144691284Y-64476894D01*
X144617452Y-64475992D01*
X144473081Y-64474228D01*
X144473079Y-64474228D01*
X144467911Y-64474165D01*
X144247091Y-64507955D01*
X144034756Y-64577357D01*
X143988257Y-64601563D01*
X143860975Y-64667822D01*
X143836607Y-64680507D01*
X143832474Y-64683610D01*
X143832471Y-64683612D01*
X143670134Y-64805498D01*
X143657965Y-64814635D01*
X143654393Y-64818373D01*
X143516127Y-64963060D01*
X143503629Y-64976138D01*
X143396201Y-65133621D01*
X143341293Y-65178621D01*
X143270768Y-65186792D01*
X143207021Y-65155538D01*
X143186324Y-65131054D01*
X143105822Y-65006617D01*
X143105820Y-65006614D01*
X143103014Y-65002277D01*
X142952670Y-64837051D01*
X142948619Y-64833852D01*
X142948615Y-64833848D01*
X142781414Y-64701800D01*
X142781410Y-64701798D01*
X142777359Y-64698598D01*
X142772831Y-64696098D01*
X142720945Y-64667456D01*
X142581789Y-64590638D01*
X142576920Y-64588914D01*
X142576916Y-64588912D01*
X142376087Y-64517795D01*
X142376083Y-64517794D01*
X142371212Y-64516069D01*
X142366119Y-64515162D01*
X142366116Y-64515161D01*
X142156373Y-64477800D01*
X142156367Y-64477799D01*
X142151284Y-64476894D01*
X142077452Y-64475992D01*
X141933081Y-64474228D01*
X141933079Y-64474228D01*
X141927911Y-64474165D01*
X141707091Y-64507955D01*
X141494756Y-64577357D01*
X141448257Y-64601563D01*
X141320975Y-64667822D01*
X141296607Y-64680507D01*
X141292474Y-64683610D01*
X141292471Y-64683612D01*
X141130134Y-64805498D01*
X141117965Y-64814635D01*
X141114393Y-64818373D01*
X140976127Y-64963060D01*
X140963629Y-64976138D01*
X140856204Y-65133618D01*
X140855898Y-65134066D01*
X140800987Y-65179069D01*
X140730462Y-65187240D01*
X140666715Y-65155986D01*
X140646018Y-65131502D01*
X140565426Y-65006926D01*
X140559136Y-64998757D01*
X140415806Y-64841240D01*
X140408273Y-64834215D01*
X140241139Y-64702222D01*
X140232552Y-64696517D01*
X140046117Y-64593599D01*
X140036705Y-64589369D01*
X139835959Y-64518280D01*
X139825988Y-64515646D01*
X139754837Y-64502972D01*
X139741540Y-64504432D01*
X139737000Y-64518989D01*
X139737000Y-65962000D01*
X139716998Y-66030121D01*
X139663342Y-66076614D01*
X139611000Y-66088000D01*
X139355000Y-66088000D01*
X139286879Y-66067998D01*
X139240386Y-66014342D01*
X139229000Y-65962000D01*
X139229000Y-64517102D01*
X139225082Y-64503758D01*
X139210806Y-64501771D01*
X139172324Y-64507660D01*
X139162288Y-64510051D01*
X138959868Y-64576212D01*
X138950359Y-64580209D01*
X138761463Y-64678542D01*
X138752738Y-64684036D01*
X138582433Y-64811905D01*
X138574726Y-64818748D01*
X138427590Y-64972717D01*
X138421109Y-64980722D01*
X138316498Y-65134074D01*
X138261587Y-65179076D01*
X138191062Y-65187247D01*
X138127315Y-65155993D01*
X138106618Y-65131509D01*
X138025822Y-65006617D01*
X138025820Y-65006614D01*
X138023014Y-65002277D01*
X137872670Y-64837051D01*
X137868619Y-64833852D01*
X137868615Y-64833848D01*
X137701414Y-64701800D01*
X137701410Y-64701798D01*
X137697359Y-64698598D01*
X137692831Y-64696098D01*
X137640945Y-64667456D01*
X137501789Y-64590638D01*
X137496920Y-64588914D01*
X137496916Y-64588912D01*
X137296087Y-64517795D01*
X137296083Y-64517794D01*
X137291212Y-64516069D01*
X137286119Y-64515162D01*
X137286116Y-64515161D01*
X137076373Y-64477800D01*
X137076367Y-64477799D01*
X137071284Y-64476894D01*
X136997452Y-64475992D01*
X136853081Y-64474228D01*
X136853079Y-64474228D01*
X136847911Y-64474165D01*
X136627091Y-64507955D01*
X136414756Y-64577357D01*
X136368257Y-64601563D01*
X136240975Y-64667822D01*
X136216607Y-64680507D01*
X136212474Y-64683610D01*
X136212471Y-64683612D01*
X136050134Y-64805498D01*
X136037965Y-64814635D01*
X136034393Y-64818373D01*
X135896127Y-64963060D01*
X135883629Y-64976138D01*
X135776201Y-65133621D01*
X135721293Y-65178621D01*
X135650768Y-65186792D01*
X135587021Y-65155538D01*
X135566324Y-65131054D01*
X135485822Y-65006617D01*
X135485820Y-65006614D01*
X135483014Y-65002277D01*
X135332670Y-64837051D01*
X135328619Y-64833852D01*
X135328615Y-64833848D01*
X135161414Y-64701800D01*
X135161410Y-64701798D01*
X135157359Y-64698598D01*
X135152835Y-64696101D01*
X135152831Y-64696098D01*
X135101608Y-64667822D01*
X135051636Y-64617390D01*
X135036500Y-64557513D01*
X135036500Y-63142594D01*
X135056502Y-63074473D01*
X135073405Y-63053499D01*
X137746202Y-60380702D01*
X142882853Y-60380702D01*
X142892149Y-60392717D01*
X142939032Y-60425545D01*
X142948527Y-60431028D01*
X143142810Y-60521622D01*
X143153106Y-60525370D01*
X143360177Y-60580855D01*
X143370964Y-60582757D01*
X143584525Y-60601441D01*
X143595475Y-60601441D01*
X143809036Y-60582757D01*
X143819823Y-60580855D01*
X144026894Y-60525370D01*
X144037190Y-60521622D01*
X144231473Y-60431028D01*
X144240968Y-60425545D01*
X144288689Y-60392130D01*
X144297064Y-60381653D01*
X144289996Y-60368206D01*
X143602812Y-59681022D01*
X143588868Y-59673408D01*
X143587035Y-59673539D01*
X143580420Y-59677790D01*
X142889283Y-60368927D01*
X142882853Y-60380702D01*
X137746202Y-60380702D01*
X138187247Y-59939657D01*
X138195537Y-59932113D01*
X138202018Y-59928000D01*
X138248659Y-59878332D01*
X138251413Y-59875491D01*
X138271134Y-59855770D01*
X138273612Y-59852575D01*
X138281318Y-59843553D01*
X138306158Y-59817101D01*
X138311586Y-59811321D01*
X138321346Y-59793568D01*
X138332199Y-59777045D01*
X138339753Y-59767306D01*
X138344613Y-59761041D01*
X138362176Y-59720457D01*
X138367383Y-59709827D01*
X138388695Y-59671060D01*
X138390666Y-59663383D01*
X138390668Y-59663378D01*
X138393732Y-59651442D01*
X138400138Y-59632730D01*
X138405034Y-59621417D01*
X138408181Y-59614145D01*
X138415097Y-59570481D01*
X138417504Y-59558860D01*
X138426528Y-59523711D01*
X138426528Y-59523710D01*
X138428500Y-59516030D01*
X138428500Y-59495769D01*
X138430051Y-59476058D01*
X138431979Y-59463885D01*
X138433219Y-59456057D01*
X138429059Y-59412046D01*
X138428500Y-59400189D01*
X138428500Y-59314475D01*
X142297559Y-59314475D01*
X142316243Y-59528036D01*
X142318145Y-59538823D01*
X142373630Y-59745894D01*
X142377378Y-59756190D01*
X142467972Y-59950473D01*
X142473455Y-59959968D01*
X142506870Y-60007689D01*
X142517347Y-60016064D01*
X142530794Y-60008996D01*
X143217978Y-59321812D01*
X143224356Y-59310132D01*
X143954408Y-59310132D01*
X143954539Y-59311965D01*
X143958790Y-59318580D01*
X144649927Y-60009717D01*
X144661702Y-60016147D01*
X144673717Y-60006851D01*
X144706545Y-59959968D01*
X144712028Y-59950473D01*
X144802622Y-59756190D01*
X144806370Y-59745894D01*
X144861855Y-59538823D01*
X144863757Y-59528036D01*
X144882441Y-59314475D01*
X144882441Y-59303525D01*
X144863757Y-59089964D01*
X144861855Y-59079177D01*
X144806370Y-58872106D01*
X144802622Y-58861810D01*
X144712028Y-58667527D01*
X144706545Y-58658032D01*
X144673130Y-58610311D01*
X144662653Y-58601936D01*
X144649206Y-58609004D01*
X143962022Y-59296188D01*
X143954408Y-59310132D01*
X143224356Y-59310132D01*
X143225592Y-59307868D01*
X143225461Y-59306035D01*
X143221210Y-59299420D01*
X142530073Y-58608283D01*
X142518298Y-58601853D01*
X142506283Y-58611149D01*
X142473455Y-58658032D01*
X142467972Y-58667527D01*
X142377378Y-58861810D01*
X142373630Y-58872106D01*
X142318145Y-59079177D01*
X142316243Y-59089964D01*
X142297559Y-59303525D01*
X142297559Y-59314475D01*
X138428500Y-59314475D01*
X138428500Y-58236347D01*
X142882936Y-58236347D01*
X142890004Y-58249794D01*
X143577188Y-58936978D01*
X143591132Y-58944592D01*
X143592965Y-58944461D01*
X143599580Y-58940210D01*
X144290717Y-58249073D01*
X144297147Y-58237298D01*
X144287851Y-58225283D01*
X144240968Y-58192455D01*
X144231473Y-58186972D01*
X144037190Y-58096378D01*
X144026894Y-58092630D01*
X143819823Y-58037145D01*
X143809036Y-58035243D01*
X143595475Y-58016559D01*
X143584525Y-58016559D01*
X143370964Y-58035243D01*
X143360177Y-58037145D01*
X143153106Y-58092630D01*
X143142810Y-58096378D01*
X142948527Y-58186972D01*
X142939032Y-58192455D01*
X142891311Y-58225870D01*
X142882936Y-58236347D01*
X138428500Y-58236347D01*
X138428500Y-58176427D01*
X138448502Y-58108306D01*
X138489618Y-58068550D01*
X138492994Y-58066896D01*
X138674860Y-57937173D01*
X138687576Y-57924502D01*
X138803891Y-57808592D01*
X138833096Y-57779489D01*
X138845678Y-57761980D01*
X138960435Y-57602277D01*
X138963453Y-57598077D01*
X138976142Y-57572404D01*
X139060136Y-57402453D01*
X139060137Y-57402451D01*
X139062430Y-57397811D01*
X139127370Y-57184069D01*
X139156529Y-56962590D01*
X139158156Y-56896000D01*
X139139852Y-56673361D01*
X139085431Y-56456702D01*
X138996354Y-56251840D01*
X138925557Y-56142404D01*
X138877822Y-56068617D01*
X138877820Y-56068614D01*
X138875014Y-56064277D01*
X138724670Y-55899051D01*
X138720619Y-55895852D01*
X138720615Y-55895848D01*
X138553414Y-55763800D01*
X138553410Y-55763798D01*
X138549359Y-55760598D01*
X138542092Y-55756586D01*
X138489145Y-55727358D01*
X138353789Y-55652638D01*
X138348920Y-55650914D01*
X138348916Y-55650912D01*
X138148087Y-55579795D01*
X138148083Y-55579794D01*
X138143212Y-55578069D01*
X138138119Y-55577162D01*
X138138116Y-55577161D01*
X137928373Y-55539800D01*
X137928367Y-55539799D01*
X137923284Y-55538894D01*
X137849452Y-55537992D01*
X137705081Y-55536228D01*
X137705079Y-55536228D01*
X137699911Y-55536165D01*
X137479091Y-55569955D01*
X137266756Y-55639357D01*
X137068607Y-55742507D01*
X137064474Y-55745610D01*
X137064471Y-55745612D01*
X136915180Y-55857703D01*
X136889965Y-55876635D01*
X136735629Y-56038138D01*
X136628201Y-56195621D01*
X136573293Y-56240621D01*
X136502768Y-56248792D01*
X136439021Y-56217538D01*
X136418324Y-56193054D01*
X136337822Y-56068617D01*
X136337820Y-56068614D01*
X136335014Y-56064277D01*
X136184670Y-55899051D01*
X136180619Y-55895852D01*
X136180615Y-55895848D01*
X136013414Y-55763800D01*
X136013410Y-55763798D01*
X136009359Y-55760598D01*
X136002092Y-55756586D01*
X135949145Y-55727358D01*
X135813789Y-55652638D01*
X135808920Y-55650914D01*
X135808916Y-55650912D01*
X135608087Y-55579795D01*
X135608083Y-55579794D01*
X135603212Y-55578069D01*
X135598119Y-55577162D01*
X135598116Y-55577161D01*
X135388373Y-55539800D01*
X135388367Y-55539799D01*
X135383284Y-55538894D01*
X135309452Y-55537992D01*
X135165081Y-55536228D01*
X135165079Y-55536228D01*
X135159911Y-55536165D01*
X134939091Y-55569955D01*
X134726756Y-55639357D01*
X134528607Y-55742507D01*
X134524474Y-55745610D01*
X134524471Y-55745612D01*
X134375180Y-55857703D01*
X134349965Y-55876635D01*
X134195629Y-56038138D01*
X134088204Y-56195618D01*
X134087898Y-56196066D01*
X134032987Y-56241069D01*
X133962462Y-56249240D01*
X133898715Y-56217986D01*
X133878018Y-56193502D01*
X133797426Y-56068926D01*
X133791136Y-56060757D01*
X133647806Y-55903240D01*
X133640273Y-55896215D01*
X133473139Y-55764222D01*
X133464552Y-55758517D01*
X133278117Y-55655599D01*
X133268705Y-55651369D01*
X133067959Y-55580280D01*
X133057988Y-55577646D01*
X132986837Y-55564972D01*
X132973540Y-55566432D01*
X132969000Y-55580989D01*
X132969000Y-58214517D01*
X132973064Y-58228359D01*
X132986478Y-58230393D01*
X132993184Y-58229534D01*
X133003262Y-58227392D01*
X133207255Y-58166191D01*
X133216842Y-58162433D01*
X133408095Y-58068739D01*
X133416945Y-58063464D01*
X133590328Y-57939792D01*
X133598200Y-57933139D01*
X133749052Y-57782812D01*
X133755730Y-57774965D01*
X133883022Y-57597819D01*
X133884279Y-57598722D01*
X133931373Y-57555362D01*
X134001311Y-57543145D01*
X134066751Y-57570678D01*
X134094579Y-57602511D01*
X134099828Y-57611077D01*
X134154987Y-57701088D01*
X134301250Y-57869938D01*
X134473126Y-58012632D01*
X134552923Y-58059261D01*
X134559070Y-58062853D01*
X134607794Y-58114491D01*
X134621500Y-58171641D01*
X134621500Y-60264405D01*
X134601498Y-60332526D01*
X134584595Y-60353500D01*
X131470747Y-63467348D01*
X131462461Y-63474888D01*
X131455982Y-63479000D01*
X131450557Y-63484777D01*
X131409357Y-63528651D01*
X131406602Y-63531493D01*
X131386865Y-63551230D01*
X131384385Y-63554427D01*
X131376682Y-63563447D01*
X131346414Y-63595679D01*
X131342595Y-63602625D01*
X131342593Y-63602628D01*
X131336652Y-63613434D01*
X131325801Y-63629953D01*
X131313386Y-63645959D01*
X131310241Y-63653228D01*
X131310238Y-63653232D01*
X131295826Y-63686537D01*
X131290609Y-63697187D01*
X131269305Y-63735940D01*
X131267334Y-63743615D01*
X131267334Y-63743616D01*
X131264267Y-63755562D01*
X131257863Y-63774266D01*
X131249819Y-63792855D01*
X131248580Y-63800678D01*
X131248577Y-63800688D01*
X131242901Y-63836524D01*
X131240495Y-63848144D01*
X131229500Y-63890970D01*
X131229500Y-63911224D01*
X131227949Y-63930934D01*
X131224780Y-63950943D01*
X131225526Y-63958835D01*
X131228941Y-63994961D01*
X131229500Y-64006819D01*
X131229500Y-64555692D01*
X131209498Y-64623813D01*
X131161683Y-64667453D01*
X131136607Y-64680507D01*
X131132474Y-64683610D01*
X131132471Y-64683612D01*
X130970134Y-64805498D01*
X130957965Y-64814635D01*
X130954393Y-64818373D01*
X130816127Y-64963060D01*
X130803629Y-64976138D01*
X130696204Y-65133618D01*
X130695898Y-65134066D01*
X130640987Y-65179069D01*
X130570462Y-65187240D01*
X130506715Y-65155986D01*
X130486018Y-65131502D01*
X130405426Y-65006926D01*
X130399136Y-64998757D01*
X130255806Y-64841240D01*
X130248273Y-64834215D01*
X130081139Y-64702222D01*
X130072552Y-64696517D01*
X129886117Y-64593599D01*
X129876705Y-64589369D01*
X129675959Y-64518280D01*
X129665988Y-64515646D01*
X129594837Y-64502972D01*
X129581540Y-64504432D01*
X129577000Y-64518989D01*
X129577000Y-65962000D01*
X129556998Y-66030121D01*
X129503342Y-66076614D01*
X129451000Y-66088000D01*
X129195000Y-66088000D01*
X129126879Y-66067998D01*
X129080386Y-66014342D01*
X129069000Y-65962000D01*
X129069000Y-64517102D01*
X129065082Y-64503758D01*
X129050806Y-64501771D01*
X129012324Y-64507660D01*
X129002288Y-64510051D01*
X128799868Y-64576212D01*
X128790359Y-64580209D01*
X128601463Y-64678542D01*
X128592738Y-64684036D01*
X128422433Y-64811905D01*
X128414726Y-64818748D01*
X128267590Y-64972717D01*
X128261109Y-64980722D01*
X128156498Y-65134074D01*
X128101587Y-65179076D01*
X128031062Y-65187247D01*
X127967315Y-65155993D01*
X127946618Y-65131509D01*
X127865822Y-65006617D01*
X127865820Y-65006614D01*
X127863014Y-65002277D01*
X127712670Y-64837051D01*
X127708619Y-64833852D01*
X127708615Y-64833848D01*
X127541414Y-64701800D01*
X127541410Y-64701798D01*
X127537359Y-64698598D01*
X127532831Y-64696098D01*
X127480945Y-64667456D01*
X127341789Y-64590638D01*
X127336920Y-64588914D01*
X127336916Y-64588912D01*
X127136087Y-64517795D01*
X127136083Y-64517794D01*
X127131212Y-64516069D01*
X127126119Y-64515162D01*
X127126116Y-64515161D01*
X126916373Y-64477800D01*
X126916367Y-64477799D01*
X126911284Y-64476894D01*
X126837452Y-64475992D01*
X126693081Y-64474228D01*
X126693079Y-64474228D01*
X126687911Y-64474165D01*
X126467091Y-64507955D01*
X126254756Y-64577357D01*
X126208257Y-64601563D01*
X126080975Y-64667822D01*
X126056607Y-64680507D01*
X126052474Y-64683610D01*
X126052471Y-64683612D01*
X125897111Y-64800260D01*
X125830626Y-64825166D01*
X125821458Y-64825500D01*
X125201799Y-64825500D01*
X125133678Y-64805498D01*
X125123707Y-64798382D01*
X125047788Y-64738425D01*
X125006725Y-64680508D01*
X124999880Y-64639543D01*
X124999880Y-58238275D01*
X125019882Y-58170154D01*
X125050315Y-58137449D01*
X125087926Y-58109261D01*
X125154641Y-58059261D01*
X125232829Y-57954935D01*
X125289688Y-57912420D01*
X125333655Y-57904500D01*
X128753991Y-57904500D01*
X128822112Y-57924502D01*
X128868605Y-57978158D01*
X128870903Y-57983694D01*
X128871232Y-57984296D01*
X128874385Y-57992705D01*
X128961739Y-58109261D01*
X129078295Y-58196615D01*
X129214684Y-58247745D01*
X129276866Y-58254500D01*
X131073134Y-58254500D01*
X131135316Y-58247745D01*
X131271705Y-58196615D01*
X131388261Y-58109261D01*
X131475615Y-57992705D01*
X131519798Y-57874848D01*
X131562440Y-57818084D01*
X131629001Y-57793384D01*
X131698350Y-57808592D01*
X131733017Y-57836580D01*
X131758218Y-57865673D01*
X131765580Y-57872883D01*
X131929434Y-58008916D01*
X131937881Y-58014831D01*
X132121756Y-58122279D01*
X132131042Y-58126729D01*
X132330001Y-58202703D01*
X132339899Y-58205579D01*
X132443250Y-58226606D01*
X132457299Y-58225410D01*
X132461000Y-58215065D01*
X132461000Y-55579102D01*
X132457082Y-55565758D01*
X132442806Y-55563771D01*
X132404324Y-55569660D01*
X132394288Y-55572051D01*
X132191868Y-55638212D01*
X132182359Y-55642209D01*
X131993463Y-55740542D01*
X131984738Y-55746036D01*
X131814433Y-55873905D01*
X131806726Y-55880748D01*
X131729478Y-55961584D01*
X131667954Y-55997014D01*
X131597042Y-55993557D01*
X131539255Y-55952311D01*
X131520402Y-55918763D01*
X131478767Y-55807703D01*
X131475615Y-55799295D01*
X131388261Y-55682739D01*
X131271705Y-55595385D01*
X131135316Y-55544255D01*
X131073134Y-55537500D01*
X129276866Y-55537500D01*
X129214684Y-55544255D01*
X129078295Y-55595385D01*
X128961739Y-55682739D01*
X128874385Y-55799295D01*
X128871233Y-55807703D01*
X128866923Y-55815575D01*
X128865259Y-55814664D01*
X128829337Y-55862490D01*
X128762776Y-55887193D01*
X128753991Y-55887500D01*
X125333655Y-55887500D01*
X125265534Y-55867498D01*
X125232829Y-55837065D01*
X125216040Y-55814664D01*
X125154641Y-55732739D01*
X125038085Y-55645385D01*
X124901696Y-55594255D01*
X124839514Y-55587500D01*
X123143246Y-55587500D01*
X123081064Y-55594255D01*
X122944675Y-55645385D01*
X122828119Y-55732739D01*
X122740765Y-55849295D01*
X122689635Y-55985684D01*
X122688312Y-55997866D01*
X122683473Y-56042411D01*
X122682880Y-56047866D01*
X122682880Y-56051185D01*
X122659227Y-56118110D01*
X122613224Y-56153804D01*
X122614239Y-56155734D01*
X122603380Y-56161442D01*
X122603135Y-56161632D01*
X122602977Y-56161653D01*
X122564946Y-56181644D01*
X121863402Y-56883188D01*
X121855788Y-56897132D01*
X121855919Y-56898965D01*
X121860170Y-56905580D01*
X122565667Y-57611077D01*
X122607409Y-57633871D01*
X122617409Y-57636047D01*
X122667607Y-57686253D01*
X122682831Y-57739814D01*
X122682880Y-57740719D01*
X122682880Y-57744134D01*
X122689635Y-57806316D01*
X122740765Y-57942705D01*
X122828119Y-58059261D01*
X122894834Y-58109261D01*
X122932445Y-58137449D01*
X122974960Y-58194308D01*
X122982880Y-58238275D01*
X122982880Y-65294141D01*
X122971167Y-65347192D01*
X122965869Y-65358605D01*
X122965867Y-65358612D01*
X122963688Y-65363305D01*
X122903989Y-65578570D01*
X122903440Y-65583707D01*
X122898831Y-65626837D01*
X122871704Y-65692447D01*
X122813411Y-65732975D01*
X122742462Y-65735555D01*
X122684449Y-65702544D01*
X114963967Y-57982062D01*
X120769873Y-57982062D01*
X120779169Y-57994077D01*
X120830374Y-58029931D01*
X120839869Y-58035414D01*
X121037327Y-58127490D01*
X121047619Y-58131236D01*
X121258068Y-58187625D01*
X121268861Y-58189528D01*
X121485905Y-58208517D01*
X121496855Y-58208517D01*
X121713899Y-58189528D01*
X121724692Y-58187625D01*
X121935141Y-58131236D01*
X121945433Y-58127490D01*
X122142891Y-58035414D01*
X122152386Y-58029931D01*
X122204428Y-57993491D01*
X122212804Y-57983012D01*
X122205736Y-57969566D01*
X121504192Y-57268022D01*
X121490248Y-57260408D01*
X121488415Y-57260539D01*
X121481800Y-57264790D01*
X120776303Y-57970287D01*
X120769873Y-57982062D01*
X114963967Y-57982062D01*
X113883380Y-56901475D01*
X120178863Y-56901475D01*
X120197852Y-57118519D01*
X120199755Y-57129312D01*
X120256144Y-57339761D01*
X120259890Y-57350053D01*
X120351966Y-57547511D01*
X120357449Y-57557006D01*
X120393889Y-57609048D01*
X120404368Y-57617424D01*
X120417814Y-57610356D01*
X121119358Y-56908812D01*
X121126972Y-56894868D01*
X121126841Y-56893035D01*
X121122590Y-56886420D01*
X120417093Y-56180923D01*
X120405318Y-56174493D01*
X120393303Y-56183789D01*
X120357449Y-56234994D01*
X120351966Y-56244489D01*
X120259890Y-56441947D01*
X120256144Y-56452239D01*
X120199755Y-56662688D01*
X120197852Y-56673481D01*
X120178863Y-56890525D01*
X120178863Y-56901475D01*
X113883380Y-56901475D01*
X112790893Y-55808988D01*
X120769956Y-55808988D01*
X120777024Y-55822434D01*
X121478568Y-56523978D01*
X121492512Y-56531592D01*
X121494345Y-56531461D01*
X121500960Y-56527210D01*
X122206457Y-55821713D01*
X122212887Y-55809938D01*
X122203591Y-55797923D01*
X122152386Y-55762069D01*
X122142891Y-55756586D01*
X121945433Y-55664510D01*
X121935141Y-55660764D01*
X121724692Y-55604375D01*
X121713899Y-55602472D01*
X121496855Y-55583483D01*
X121485905Y-55583483D01*
X121268861Y-55602472D01*
X121258068Y-55604375D01*
X121047619Y-55660764D01*
X121037327Y-55664510D01*
X120839869Y-55756586D01*
X120830374Y-55762069D01*
X120778332Y-55798509D01*
X120769956Y-55808988D01*
X112790893Y-55808988D01*
X112088652Y-55106747D01*
X112081112Y-55098461D01*
X112077000Y-55091982D01*
X112027348Y-55045356D01*
X112024507Y-55042602D01*
X112004770Y-55022865D01*
X112001573Y-55020385D01*
X111992551Y-55012680D01*
X111979116Y-55000064D01*
X111960321Y-54982414D01*
X111953375Y-54978595D01*
X111953372Y-54978593D01*
X111942566Y-54972652D01*
X111926047Y-54961801D01*
X111925583Y-54961441D01*
X111910041Y-54949386D01*
X111902772Y-54946241D01*
X111902768Y-54946238D01*
X111869463Y-54931826D01*
X111858813Y-54926609D01*
X111820060Y-54905305D01*
X111800437Y-54900267D01*
X111781734Y-54893863D01*
X111770420Y-54888967D01*
X111770419Y-54888967D01*
X111763145Y-54885819D01*
X111755322Y-54884580D01*
X111755312Y-54884577D01*
X111719476Y-54878901D01*
X111707856Y-54876495D01*
X111672711Y-54867472D01*
X111672710Y-54867472D01*
X111665030Y-54865500D01*
X111644776Y-54865500D01*
X111625065Y-54863949D01*
X111622534Y-54863548D01*
X111605057Y-54860780D01*
X111597165Y-54861526D01*
X111561039Y-54864941D01*
X111549181Y-54865500D01*
X110314763Y-54865500D01*
X110303579Y-54864973D01*
X110296091Y-54863299D01*
X110288168Y-54863548D01*
X110228033Y-54865438D01*
X110224075Y-54865500D01*
X110196144Y-54865500D01*
X110192229Y-54865995D01*
X110192225Y-54865995D01*
X110192167Y-54866003D01*
X110192138Y-54866006D01*
X110180296Y-54866939D01*
X110136110Y-54868327D01*
X110118744Y-54873372D01*
X110116658Y-54873978D01*
X110097306Y-54877986D01*
X110085068Y-54879532D01*
X110085066Y-54879533D01*
X110077203Y-54880526D01*
X110036086Y-54896806D01*
X110024885Y-54900641D01*
X109982406Y-54912982D01*
X109975587Y-54917015D01*
X109975582Y-54917017D01*
X109964971Y-54923293D01*
X109947221Y-54931990D01*
X109928383Y-54939448D01*
X109921967Y-54944109D01*
X109921966Y-54944110D01*
X109912855Y-54950730D01*
X109899799Y-54960216D01*
X109892625Y-54965428D01*
X109882701Y-54971947D01*
X109851460Y-54990422D01*
X109851455Y-54990426D01*
X109844637Y-54994458D01*
X109830313Y-55008782D01*
X109815281Y-55021621D01*
X109798893Y-55033528D01*
X109770712Y-55067593D01*
X109762722Y-55076373D01*
X109723595Y-55115500D01*
X109661283Y-55149526D01*
X109590468Y-55144461D01*
X109533632Y-55101914D01*
X109508821Y-55035394D01*
X109508500Y-55026405D01*
X109508500Y-54309000D01*
X144796578Y-54309000D01*
X144816228Y-54533600D01*
X144874581Y-54751376D01*
X144876903Y-54756357D01*
X144876904Y-54756358D01*
X144966915Y-54949386D01*
X144969864Y-54955711D01*
X145099181Y-55140396D01*
X145258604Y-55299819D01*
X145443289Y-55429136D01*
X145448267Y-55431457D01*
X145448270Y-55431459D01*
X145642642Y-55522096D01*
X145647624Y-55524419D01*
X145652932Y-55525841D01*
X145652934Y-55525842D01*
X145860085Y-55581348D01*
X145860087Y-55581348D01*
X145865400Y-55582772D01*
X146090000Y-55602422D01*
X146314600Y-55582772D01*
X146319913Y-55581348D01*
X146319915Y-55581348D01*
X146527066Y-55525842D01*
X146527068Y-55525841D01*
X146532376Y-55524419D01*
X146537358Y-55522096D01*
X146731730Y-55431459D01*
X146731733Y-55431457D01*
X146736711Y-55429136D01*
X146921396Y-55299819D01*
X147080819Y-55140396D01*
X147210136Y-54955711D01*
X147213086Y-54949386D01*
X147303096Y-54756358D01*
X147303097Y-54756357D01*
X147305419Y-54751376D01*
X147363772Y-54533600D01*
X147383422Y-54309000D01*
X147363772Y-54084400D01*
X147305419Y-53866624D01*
X147210136Y-53662289D01*
X147080819Y-53477604D01*
X146921396Y-53318181D01*
X146736711Y-53188864D01*
X146731733Y-53186543D01*
X146731730Y-53186541D01*
X146537358Y-53095904D01*
X146537357Y-53095903D01*
X146532376Y-53093581D01*
X146527068Y-53092159D01*
X146527066Y-53092158D01*
X146319915Y-53036652D01*
X146319913Y-53036652D01*
X146314600Y-53035228D01*
X146090000Y-53015578D01*
X145865400Y-53035228D01*
X145860087Y-53036652D01*
X145860085Y-53036652D01*
X145652934Y-53092158D01*
X145652932Y-53092159D01*
X145647624Y-53093581D01*
X145642643Y-53095903D01*
X145642642Y-53095904D01*
X145448270Y-53186541D01*
X145448267Y-53186543D01*
X145443289Y-53188864D01*
X145258604Y-53318181D01*
X145099181Y-53477604D01*
X144969864Y-53662289D01*
X144874581Y-53866624D01*
X144816228Y-54084400D01*
X144796578Y-54309000D01*
X109508500Y-54309000D01*
X109508500Y-52634500D01*
X109528502Y-52566379D01*
X109582158Y-52519886D01*
X109634500Y-52508500D01*
X186365500Y-52508500D01*
X186433621Y-52528502D01*
G37*
%TD.AperFunction*%
%TA.AperFunction,Conductor*%
G36*
X112685571Y-68623475D02*
G01*
X121201500Y-77139405D01*
X121235526Y-77201717D01*
X121230461Y-77272532D01*
X121187914Y-77329368D01*
X121121394Y-77354179D01*
X121112405Y-77354500D01*
X112680805Y-77354500D01*
X112612684Y-77334498D01*
X112575013Y-77296940D01*
X112486822Y-77160617D01*
X112486820Y-77160614D01*
X112484014Y-77156277D01*
X112333670Y-76991051D01*
X112329619Y-76987852D01*
X112329615Y-76987848D01*
X112162414Y-76855800D01*
X112162410Y-76855798D01*
X112158359Y-76852598D01*
X112117053Y-76829796D01*
X112067084Y-76779364D01*
X112052312Y-76709921D01*
X112077428Y-76643516D01*
X112104780Y-76616909D01*
X112178070Y-76564632D01*
X112283860Y-76489173D01*
X112442096Y-76331489D01*
X112572453Y-76150077D01*
X112671430Y-75949811D01*
X112736370Y-75736069D01*
X112765529Y-75514590D01*
X112766281Y-75483827D01*
X112767074Y-75451365D01*
X112767074Y-75451361D01*
X112767156Y-75448000D01*
X112748852Y-75225361D01*
X112694431Y-75008702D01*
X112605354Y-74803840D01*
X112484014Y-74616277D01*
X112333670Y-74451051D01*
X112329619Y-74447852D01*
X112329615Y-74447848D01*
X112162414Y-74315800D01*
X112162410Y-74315798D01*
X112158359Y-74312598D01*
X112117053Y-74289796D01*
X112067084Y-74239364D01*
X112052312Y-74169921D01*
X112077428Y-74103516D01*
X112104780Y-74076909D01*
X112178070Y-74024632D01*
X112283860Y-73949173D01*
X112442096Y-73791489D01*
X112572453Y-73610077D01*
X112671430Y-73409811D01*
X112712906Y-73273298D01*
X112734865Y-73201023D01*
X112734865Y-73201021D01*
X112736370Y-73196069D01*
X112765529Y-72974590D01*
X112765611Y-72971240D01*
X112767074Y-72911365D01*
X112767074Y-72911361D01*
X112767156Y-72908000D01*
X112748852Y-72685361D01*
X112694431Y-72468702D01*
X112605354Y-72263840D01*
X112484014Y-72076277D01*
X112333670Y-71911051D01*
X112329619Y-71907852D01*
X112329615Y-71907848D01*
X112162414Y-71775800D01*
X112162410Y-71775798D01*
X112158359Y-71772598D01*
X112117053Y-71749796D01*
X112067084Y-71699364D01*
X112052312Y-71629921D01*
X112077428Y-71563516D01*
X112104780Y-71536909D01*
X112178070Y-71484632D01*
X112283860Y-71409173D01*
X112442096Y-71251489D01*
X112572453Y-71070077D01*
X112671430Y-70869811D01*
X112714205Y-70729022D01*
X112734865Y-70661023D01*
X112734865Y-70661021D01*
X112736370Y-70656069D01*
X112765529Y-70434590D01*
X112767156Y-70368000D01*
X112748852Y-70145361D01*
X112694431Y-69928702D01*
X112605354Y-69723840D01*
X112553169Y-69643174D01*
X112486822Y-69540617D01*
X112486820Y-69540614D01*
X112484014Y-69536277D01*
X112333670Y-69371051D01*
X112329619Y-69367852D01*
X112329615Y-69367848D01*
X112162414Y-69235800D01*
X112162410Y-69235798D01*
X112158359Y-69232598D01*
X112117053Y-69209796D01*
X112067084Y-69159364D01*
X112052312Y-69089921D01*
X112077428Y-69023516D01*
X112104780Y-68996909D01*
X112188461Y-68937220D01*
X112283860Y-68869173D01*
X112338454Y-68814770D01*
X112438435Y-68715137D01*
X112442096Y-68711489D01*
X112445112Y-68707292D01*
X112494153Y-68639044D01*
X112550148Y-68595396D01*
X112620851Y-68588950D01*
X112685571Y-68623475D01*
G37*
%TD.AperFunction*%
%TA.AperFunction,Conductor*%
G36*
X148739753Y-69399018D02*
G01*
X148776206Y-69420130D01*
X148861126Y-69490632D01*
X149054000Y-69603338D01*
X149262692Y-69683030D01*
X149267760Y-69684061D01*
X149267763Y-69684062D01*
X149362862Y-69703410D01*
X149481597Y-69727567D01*
X149486771Y-69727757D01*
X149486773Y-69727757D01*
X149554293Y-69730233D01*
X149628649Y-69732959D01*
X149695990Y-69755443D01*
X149740486Y-69810767D01*
X149748008Y-69881364D01*
X149713126Y-69947969D01*
X143115500Y-76545595D01*
X143053188Y-76579621D01*
X143026405Y-76582500D01*
X141756295Y-76582500D01*
X141688174Y-76562498D01*
X141641681Y-76508842D01*
X141631577Y-76438568D01*
X141661071Y-76373988D01*
X141667200Y-76367405D01*
X148606626Y-69427979D01*
X148668938Y-69393953D01*
X148739753Y-69399018D01*
G37*
%TD.AperFunction*%
%TA.AperFunction,Conductor*%
G36*
X112981733Y-65221637D02*
G01*
X122646595Y-74886499D01*
X122680621Y-74948811D01*
X122683500Y-74975594D01*
X122683500Y-75112207D01*
X122681268Y-75135816D01*
X122679725Y-75143906D01*
X122680223Y-75151817D01*
X122683251Y-75199951D01*
X122683500Y-75207862D01*
X122683500Y-75223856D01*
X122685506Y-75239730D01*
X122686248Y-75247590D01*
X122689775Y-75303650D01*
X122692225Y-75311191D01*
X122692321Y-75311487D01*
X122697494Y-75334631D01*
X122697532Y-75334935D01*
X122697533Y-75334940D01*
X122698526Y-75342797D01*
X122701442Y-75350161D01*
X122703415Y-75357846D01*
X122701018Y-75358461D01*
X122706382Y-75416968D01*
X122673612Y-75479949D01*
X122611994Y-75515215D01*
X122541091Y-75511570D01*
X122493655Y-75481751D01*
X117701923Y-70690018D01*
X112755218Y-65743313D01*
X112721192Y-65681001D01*
X112723755Y-65617589D01*
X112734865Y-65581022D01*
X112736370Y-65576069D01*
X112765529Y-65354590D01*
X112765710Y-65347192D01*
X112766676Y-65307654D01*
X112788336Y-65240042D01*
X112843111Y-65194874D01*
X112913611Y-65186490D01*
X112981733Y-65221637D01*
G37*
%TD.AperFunction*%
%TA.AperFunction,Conductor*%
G36*
X121205717Y-66015621D02*
G01*
X122847595Y-67657499D01*
X122881621Y-67719811D01*
X122884500Y-67746594D01*
X122884500Y-69272134D01*
X122891255Y-69334316D01*
X122942385Y-69470705D01*
X123029739Y-69587261D01*
X123146295Y-69674615D01*
X123282684Y-69725745D01*
X123344866Y-69732500D01*
X123483500Y-69732500D01*
X123551621Y-69752502D01*
X123598114Y-69806158D01*
X123609500Y-69858500D01*
X123609500Y-72729233D01*
X123608973Y-72740416D01*
X123607298Y-72747909D01*
X123607547Y-72755835D01*
X123607547Y-72755836D01*
X123609438Y-72815986D01*
X123609500Y-72819945D01*
X123609500Y-72847856D01*
X123609997Y-72851790D01*
X123609997Y-72851791D01*
X123610005Y-72851856D01*
X123610938Y-72863693D01*
X123612327Y-72907889D01*
X123617978Y-72927339D01*
X123621987Y-72946700D01*
X123624526Y-72966797D01*
X123627445Y-72974168D01*
X123627445Y-72974170D01*
X123640804Y-73007912D01*
X123644649Y-73019142D01*
X123656982Y-73061593D01*
X123661015Y-73068412D01*
X123661017Y-73068417D01*
X123667293Y-73079028D01*
X123675988Y-73096776D01*
X123683448Y-73115617D01*
X123688110Y-73122033D01*
X123688110Y-73122034D01*
X123709436Y-73151387D01*
X123715952Y-73161307D01*
X123733477Y-73190939D01*
X123738458Y-73199362D01*
X123752779Y-73213683D01*
X123765619Y-73228716D01*
X123777528Y-73245107D01*
X123783634Y-73250158D01*
X123811605Y-73273298D01*
X123820384Y-73281288D01*
X124874501Y-74335405D01*
X124908527Y-74397717D01*
X124903462Y-74468532D01*
X124860915Y-74525368D01*
X124794395Y-74550179D01*
X124785406Y-74550500D01*
X124040226Y-74550500D01*
X123972105Y-74530498D01*
X123923074Y-74470882D01*
X123919200Y-74461097D01*
X123915355Y-74449870D01*
X123909185Y-74428635D01*
X123903018Y-74407407D01*
X123898984Y-74400585D01*
X123898981Y-74400579D01*
X123892706Y-74389968D01*
X123884010Y-74372218D01*
X123879472Y-74360756D01*
X123879469Y-74360751D01*
X123876552Y-74353383D01*
X123850573Y-74317625D01*
X123844057Y-74307707D01*
X123825575Y-74276457D01*
X123821542Y-74269637D01*
X123807218Y-74255313D01*
X123794376Y-74240278D01*
X123793712Y-74239364D01*
X123782472Y-74223893D01*
X123748406Y-74195711D01*
X123739627Y-74187722D01*
X118652984Y-69101079D01*
X118618958Y-69038767D01*
X118624023Y-68967952D01*
X118666570Y-68911116D01*
X118733090Y-68886305D01*
X118781328Y-68892253D01*
X118818305Y-68904374D01*
X118911788Y-68935020D01*
X118911793Y-68935021D01*
X118916121Y-68936440D01*
X118920612Y-68937220D01*
X118920613Y-68937220D01*
X119181650Y-68982544D01*
X119181658Y-68982545D01*
X119185431Y-68983200D01*
X119189268Y-68983391D01*
X119270233Y-68987422D01*
X119270241Y-68987422D01*
X119271804Y-68987500D01*
X119442434Y-68987500D01*
X119444702Y-68987335D01*
X119444714Y-68987335D01*
X119576273Y-68977789D01*
X119645622Y-68972757D01*
X119650077Y-68971773D01*
X119650080Y-68971773D01*
X119908073Y-68914814D01*
X119908077Y-68914813D01*
X119912533Y-68913829D01*
X120147304Y-68824882D01*
X120163872Y-68818605D01*
X120163875Y-68818604D01*
X120168142Y-68816987D01*
X120407094Y-68684261D01*
X120624383Y-68518431D01*
X120815458Y-68322971D01*
X120818147Y-68319277D01*
X120973629Y-68105667D01*
X120973632Y-68105661D01*
X120976315Y-68101976D01*
X120978437Y-68097943D01*
X120978440Y-68097938D01*
X121101460Y-67864115D01*
X121101460Y-67864114D01*
X121103586Y-67860074D01*
X121106482Y-67851875D01*
X121150494Y-67727240D01*
X121194603Y-67602334D01*
X121220482Y-67471037D01*
X121246580Y-67338627D01*
X121246581Y-67338621D01*
X121247461Y-67334155D01*
X121250585Y-67271405D01*
X121260825Y-67065723D01*
X121260825Y-67065717D01*
X121261052Y-67061154D01*
X121235091Y-66789051D01*
X121228868Y-66763616D01*
X121171207Y-66527979D01*
X121170122Y-66523545D01*
X121164289Y-66509144D01*
X121069220Y-66274427D01*
X121069217Y-66274421D01*
X121067507Y-66270199D01*
X121050785Y-66241639D01*
X121007890Y-66168381D01*
X120990730Y-66099490D01*
X121013541Y-66032257D01*
X121069079Y-65988030D01*
X121139711Y-65980850D01*
X121205717Y-66015621D01*
G37*
%TD.AperFunction*%
%TA.AperFunction,Conductor*%
G36*
X144401597Y-69727567D02*
G01*
X144406771Y-69727757D01*
X144406773Y-69727757D01*
X144474293Y-69730233D01*
X144548649Y-69732959D01*
X144615990Y-69755443D01*
X144660486Y-69810767D01*
X144668008Y-69881364D01*
X144633126Y-69947969D01*
X140067500Y-74513595D01*
X140005188Y-74547621D01*
X139978405Y-74550500D01*
X139586594Y-74550500D01*
X139518473Y-74530498D01*
X139471980Y-74476842D01*
X139461876Y-74406568D01*
X139491370Y-74341988D01*
X139497499Y-74335405D01*
X144107549Y-69725355D01*
X144169861Y-69691329D01*
X144221762Y-69690979D01*
X144401597Y-69727567D01*
G37*
%TD.AperFunction*%
%TA.AperFunction,Conductor*%
G36*
X134599121Y-68140002D02*
G01*
X134645614Y-68193658D01*
X134657000Y-68246000D01*
X134657000Y-69692517D01*
X134661064Y-69706359D01*
X134674478Y-69708393D01*
X134681184Y-69707534D01*
X134691262Y-69705392D01*
X134895255Y-69644191D01*
X134904842Y-69640433D01*
X135096095Y-69546739D01*
X135104945Y-69541464D01*
X135278328Y-69417792D01*
X135286200Y-69411139D01*
X135437052Y-69260812D01*
X135443730Y-69252965D01*
X135571022Y-69075819D01*
X135572279Y-69076722D01*
X135619373Y-69033362D01*
X135689311Y-69021145D01*
X135754751Y-69048678D01*
X135782579Y-69080511D01*
X135791924Y-69095761D01*
X135842987Y-69179088D01*
X135989250Y-69347938D01*
X136161126Y-69490632D01*
X136354000Y-69603338D01*
X136562692Y-69683030D01*
X136567760Y-69684061D01*
X136567763Y-69684062D01*
X136662862Y-69703410D01*
X136781597Y-69727567D01*
X136786772Y-69727757D01*
X136786774Y-69727757D01*
X136999673Y-69735564D01*
X136999677Y-69735564D01*
X137004837Y-69735753D01*
X137009957Y-69735097D01*
X137009959Y-69735097D01*
X137221288Y-69708025D01*
X137221289Y-69708025D01*
X137226416Y-69707368D01*
X137231366Y-69705883D01*
X137435429Y-69644661D01*
X137435434Y-69644659D01*
X137440384Y-69643174D01*
X137640994Y-69544896D01*
X137822860Y-69415173D01*
X137867137Y-69371051D01*
X137923268Y-69315115D01*
X137981096Y-69257489D01*
X138111453Y-69076077D01*
X138112776Y-69077028D01*
X138159645Y-69033857D01*
X138229580Y-69021625D01*
X138295026Y-69049144D01*
X138322875Y-69080994D01*
X138331924Y-69095761D01*
X138382987Y-69179088D01*
X138529250Y-69347938D01*
X138701126Y-69490632D01*
X138894000Y-69603338D01*
X139102692Y-69683030D01*
X139107760Y-69684061D01*
X139107763Y-69684062D01*
X139202862Y-69703410D01*
X139321597Y-69727567D01*
X139326772Y-69727757D01*
X139326774Y-69727757D01*
X139539673Y-69735564D01*
X139539677Y-69735564D01*
X139544837Y-69735753D01*
X139549957Y-69735097D01*
X139549959Y-69735097D01*
X139761288Y-69708025D01*
X139761289Y-69708025D01*
X139766416Y-69707368D01*
X139771366Y-69705883D01*
X139975429Y-69644661D01*
X139975434Y-69644659D01*
X139980384Y-69643174D01*
X140180994Y-69544896D01*
X140362860Y-69415173D01*
X140407137Y-69371051D01*
X140463268Y-69315115D01*
X140521096Y-69257489D01*
X140651453Y-69076077D01*
X140652776Y-69077028D01*
X140699645Y-69033857D01*
X140769580Y-69021625D01*
X140835026Y-69049144D01*
X140862875Y-69080994D01*
X140871924Y-69095761D01*
X140922987Y-69179088D01*
X141069250Y-69347938D01*
X141241126Y-69490632D01*
X141434000Y-69603338D01*
X141642692Y-69683030D01*
X141647760Y-69684061D01*
X141647763Y-69684062D01*
X141742862Y-69703410D01*
X141861597Y-69727567D01*
X141866771Y-69727757D01*
X141866773Y-69727757D01*
X141934293Y-69730233D01*
X142008649Y-69732959D01*
X142075990Y-69755443D01*
X142120486Y-69810767D01*
X142128008Y-69881364D01*
X142093126Y-69947969D01*
X138543500Y-73497595D01*
X138481188Y-73531621D01*
X138454405Y-73534500D01*
X125917595Y-73534500D01*
X125849474Y-73514498D01*
X125828500Y-73497595D01*
X124913405Y-72582500D01*
X124879379Y-72520188D01*
X124876500Y-72493405D01*
X124876500Y-69858500D01*
X124896502Y-69790379D01*
X124950158Y-69743886D01*
X125002500Y-69732500D01*
X125141134Y-69732500D01*
X125203316Y-69725745D01*
X125339705Y-69674615D01*
X125456261Y-69587261D01*
X125543615Y-69470705D01*
X125565799Y-69411529D01*
X125587598Y-69353382D01*
X125630240Y-69296618D01*
X125696802Y-69271918D01*
X125766150Y-69287126D01*
X125800817Y-69315114D01*
X125829250Y-69347938D01*
X126001126Y-69490632D01*
X126194000Y-69603338D01*
X126402692Y-69683030D01*
X126407760Y-69684061D01*
X126407763Y-69684062D01*
X126502862Y-69703410D01*
X126621597Y-69727567D01*
X126626772Y-69727757D01*
X126626774Y-69727757D01*
X126839673Y-69735564D01*
X126839677Y-69735564D01*
X126844837Y-69735753D01*
X126849957Y-69735097D01*
X126849959Y-69735097D01*
X127061288Y-69708025D01*
X127061289Y-69708025D01*
X127066416Y-69707368D01*
X127071366Y-69705883D01*
X127275429Y-69644661D01*
X127275434Y-69644659D01*
X127280384Y-69643174D01*
X127480994Y-69544896D01*
X127662860Y-69415173D01*
X127707137Y-69371051D01*
X127763268Y-69315115D01*
X127821096Y-69257489D01*
X127951453Y-69076077D01*
X127952776Y-69077028D01*
X127999645Y-69033857D01*
X128069580Y-69021625D01*
X128135026Y-69049144D01*
X128162875Y-69080994D01*
X128171924Y-69095761D01*
X128222987Y-69179088D01*
X128369250Y-69347938D01*
X128541126Y-69490632D01*
X128734000Y-69603338D01*
X128942692Y-69683030D01*
X128947760Y-69684061D01*
X128947763Y-69684062D01*
X129042862Y-69703410D01*
X129161597Y-69727567D01*
X129166772Y-69727757D01*
X129166774Y-69727757D01*
X129379673Y-69735564D01*
X129379677Y-69735564D01*
X129384837Y-69735753D01*
X129389957Y-69735097D01*
X129389959Y-69735097D01*
X129601288Y-69708025D01*
X129601289Y-69708025D01*
X129606416Y-69707368D01*
X129611366Y-69705883D01*
X129815429Y-69644661D01*
X129815434Y-69644659D01*
X129820384Y-69643174D01*
X130020994Y-69544896D01*
X130202860Y-69415173D01*
X130247137Y-69371051D01*
X130303268Y-69315115D01*
X130361096Y-69257489D01*
X130491453Y-69076077D01*
X130492776Y-69077028D01*
X130539645Y-69033857D01*
X130609580Y-69021625D01*
X130675026Y-69049144D01*
X130702875Y-69080994D01*
X130711924Y-69095761D01*
X130762987Y-69179088D01*
X130909250Y-69347938D01*
X131081126Y-69490632D01*
X131274000Y-69603338D01*
X131482692Y-69683030D01*
X131487760Y-69684061D01*
X131487763Y-69684062D01*
X131582862Y-69703410D01*
X131701597Y-69727567D01*
X131706772Y-69727757D01*
X131706774Y-69727757D01*
X131919673Y-69735564D01*
X131919677Y-69735564D01*
X131924837Y-69735753D01*
X131929957Y-69735097D01*
X131929959Y-69735097D01*
X132141288Y-69708025D01*
X132141289Y-69708025D01*
X132146416Y-69707368D01*
X132151366Y-69705883D01*
X132355429Y-69644661D01*
X132355434Y-69644659D01*
X132360384Y-69643174D01*
X132560994Y-69544896D01*
X132742860Y-69415173D01*
X132787137Y-69371051D01*
X132843268Y-69315115D01*
X132901096Y-69257489D01*
X133031453Y-69076077D01*
X133032640Y-69076930D01*
X133079960Y-69033362D01*
X133149897Y-69021145D01*
X133215338Y-69048678D01*
X133243166Y-69080511D01*
X133300694Y-69174388D01*
X133306777Y-69182699D01*
X133446213Y-69343667D01*
X133453580Y-69350883D01*
X133617434Y-69486916D01*
X133625881Y-69492831D01*
X133809756Y-69600279D01*
X133819042Y-69604729D01*
X134018001Y-69680703D01*
X134027899Y-69683579D01*
X134131250Y-69704606D01*
X134145299Y-69703410D01*
X134149000Y-69693065D01*
X134149000Y-68246000D01*
X134169002Y-68177879D01*
X134222658Y-68131386D01*
X134275000Y-68120000D01*
X134531000Y-68120000D01*
X134599121Y-68140002D01*
G37*
%TD.AperFunction*%
%TA.AperFunction,Conductor*%
G36*
X112971012Y-57781370D02*
G01*
X112977595Y-57787499D01*
X120453859Y-65263763D01*
X120487885Y-65326075D01*
X120482820Y-65396890D01*
X120440273Y-65453726D01*
X120373753Y-65478537D01*
X120308641Y-65465669D01*
X120093704Y-65358739D01*
X120093701Y-65358738D01*
X120089617Y-65356706D01*
X119829879Y-65271560D01*
X119825387Y-65270780D01*
X119564350Y-65225456D01*
X119564342Y-65225455D01*
X119560569Y-65224800D01*
X119549238Y-65224236D01*
X119475767Y-65220578D01*
X119475759Y-65220578D01*
X119474196Y-65220500D01*
X119303566Y-65220500D01*
X119301298Y-65220665D01*
X119301286Y-65220665D01*
X119169727Y-65230211D01*
X119100378Y-65235243D01*
X119095923Y-65236227D01*
X119095920Y-65236227D01*
X118837927Y-65293186D01*
X118837923Y-65293187D01*
X118833467Y-65294171D01*
X118760122Y-65321959D01*
X118582128Y-65389395D01*
X118582125Y-65389396D01*
X118577858Y-65391013D01*
X118338906Y-65523739D01*
X118121617Y-65689569D01*
X118118424Y-65692835D01*
X118118422Y-65692837D01*
X118069079Y-65743313D01*
X117930542Y-65885029D01*
X117927855Y-65888721D01*
X117927853Y-65888723D01*
X117772371Y-66102333D01*
X117772368Y-66102339D01*
X117769685Y-66106024D01*
X117767563Y-66110057D01*
X117767560Y-66110062D01*
X117683308Y-66270199D01*
X117642414Y-66347926D01*
X117551397Y-66605666D01*
X117533796Y-66694966D01*
X117500775Y-66862502D01*
X117498539Y-66873845D01*
X117498312Y-66878398D01*
X117498312Y-66878401D01*
X117485755Y-67130638D01*
X117484948Y-67146846D01*
X117510909Y-67418949D01*
X117511994Y-67423383D01*
X117511995Y-67423389D01*
X117540152Y-67538457D01*
X117575878Y-67684455D01*
X117577592Y-67688687D01*
X117577680Y-67688959D01*
X117579582Y-67759930D01*
X117542812Y-67820663D01*
X117479044Y-67851875D01*
X117408525Y-67843658D01*
X117368683Y-67816778D01*
X112755218Y-63203313D01*
X112721192Y-63141001D01*
X112723755Y-63077589D01*
X112734865Y-63041022D01*
X112736370Y-63036069D01*
X112765529Y-62814590D01*
X112767156Y-62748000D01*
X112748852Y-62525361D01*
X112694431Y-62308702D01*
X112605354Y-62103840D01*
X112522379Y-61975580D01*
X112486822Y-61920617D01*
X112486820Y-61920614D01*
X112484014Y-61916277D01*
X112333670Y-61751051D01*
X112329619Y-61747852D01*
X112329615Y-61747848D01*
X112162414Y-61615800D01*
X112162410Y-61615798D01*
X112158359Y-61612598D01*
X112117053Y-61589796D01*
X112067084Y-61539364D01*
X112052312Y-61469921D01*
X112077428Y-61403516D01*
X112104780Y-61376909D01*
X112178070Y-61324632D01*
X112283860Y-61249173D01*
X112442096Y-61091489D01*
X112572453Y-60910077D01*
X112671430Y-60709811D01*
X112736370Y-60496069D01*
X112765529Y-60274590D01*
X112765611Y-60271240D01*
X112767074Y-60211365D01*
X112767074Y-60211361D01*
X112767156Y-60208000D01*
X112748852Y-59985361D01*
X112694431Y-59768702D01*
X112605354Y-59563840D01*
X112535626Y-59456057D01*
X112486822Y-59380617D01*
X112486820Y-59380614D01*
X112484014Y-59376277D01*
X112411139Y-59296188D01*
X112336798Y-59214488D01*
X112305746Y-59150642D01*
X112314141Y-59080143D01*
X112359317Y-59025375D01*
X112385761Y-59011706D01*
X112492297Y-58971767D01*
X112500705Y-58968615D01*
X112617261Y-58881261D01*
X112704615Y-58764705D01*
X112755745Y-58628316D01*
X112762500Y-58566134D01*
X112762500Y-57876594D01*
X112782502Y-57808473D01*
X112836158Y-57761980D01*
X112906432Y-57751876D01*
X112971012Y-57781370D01*
G37*
%TD.AperFunction*%
%TD*%
%TA.AperFunction,Conductor*%
%TO.N,GND*%
G36*
X125730000Y-79248000D02*
G01*
X121000530Y-82085682D01*
X121012568Y-82048635D01*
X121035542Y-81977928D01*
X121040569Y-81930104D01*
X121054814Y-81794565D01*
X121055504Y-81788000D01*
X121035542Y-81598072D01*
X120976527Y-81416444D01*
X120881040Y-81251056D01*
X120862151Y-81230077D01*
X120757675Y-81114045D01*
X120757674Y-81114044D01*
X120753253Y-81109134D01*
X120598752Y-80996882D01*
X120592724Y-80994198D01*
X120592722Y-80994197D01*
X120430319Y-80921891D01*
X120430318Y-80921891D01*
X120424288Y-80919206D01*
X120330888Y-80899353D01*
X120243944Y-80880872D01*
X120243939Y-80880872D01*
X120237487Y-80879500D01*
X120046513Y-80879500D01*
X120040061Y-80880872D01*
X120040056Y-80880872D01*
X119953112Y-80899353D01*
X119859712Y-80919206D01*
X119853682Y-80921891D01*
X119853681Y-80921891D01*
X119691278Y-80994197D01*
X119691276Y-80994198D01*
X119685248Y-80996882D01*
X119530747Y-81109134D01*
X119526326Y-81114044D01*
X119526325Y-81114045D01*
X119421850Y-81230077D01*
X119402960Y-81251056D01*
X119307473Y-81416444D01*
X119248458Y-81598072D01*
X119235274Y-81723516D01*
X119231093Y-81763293D01*
X119204080Y-81828950D01*
X119194878Y-81839218D01*
X116096500Y-84937595D01*
X116034188Y-84971621D01*
X116007405Y-84974500D01*
X112680805Y-84974500D01*
X112612684Y-84954498D01*
X112575013Y-84916940D01*
X112486822Y-84780617D01*
X112486820Y-84780614D01*
X112484014Y-84776277D01*
X112333670Y-84611051D01*
X112329619Y-84607852D01*
X112329615Y-84607848D01*
X112162414Y-84475800D01*
X112162410Y-84475798D01*
X112158359Y-84472598D01*
X112117053Y-84449796D01*
X112067084Y-84399364D01*
X112052312Y-84329921D01*
X112077428Y-84263516D01*
X112104780Y-84236909D01*
X112178070Y-84184632D01*
X112283860Y-84109173D01*
X112442096Y-83951489D01*
X112572453Y-83770077D01*
X112671430Y-83569811D01*
X112736370Y-83356069D01*
X112765529Y-83134590D01*
X112767156Y-83068000D01*
X112748852Y-82845361D01*
X112694431Y-82628702D01*
X112605354Y-82423840D01*
X112484014Y-82236277D01*
X112333670Y-82071051D01*
X112329619Y-82067852D01*
X112329615Y-82067848D01*
X112162414Y-81935800D01*
X112162410Y-81935798D01*
X112158359Y-81932598D01*
X112117053Y-81909796D01*
X112067084Y-81859364D01*
X112052312Y-81789921D01*
X112077428Y-81723516D01*
X112104780Y-81696909D01*
X112178070Y-81644632D01*
X112283860Y-81569173D01*
X112442096Y-81411489D01*
X112572453Y-81230077D01*
X112632227Y-81109134D01*
X112669136Y-81034453D01*
X112669137Y-81034451D01*
X112671430Y-81029811D01*
X112736370Y-80816069D01*
X112765529Y-80594590D01*
X112767156Y-80528000D01*
X112748852Y-80305361D01*
X112694431Y-80088702D01*
X112605354Y-79883840D01*
X112484014Y-79696277D01*
X112333670Y-79531051D01*
X112329619Y-79527852D01*
X112329615Y-79527848D01*
X112162414Y-79395800D01*
X112162410Y-79395798D01*
X112158359Y-79392598D01*
X112117053Y-79369796D01*
X112067084Y-79319364D01*
X112052312Y-79249921D01*
X112077428Y-79183516D01*
X112104780Y-79156909D01*
X112178070Y-79104632D01*
X112283860Y-79029173D01*
X112442096Y-78871489D01*
X112572453Y-78690077D01*
X112574746Y-78685437D01*
X112576446Y-78682608D01*
X112628674Y-78634518D01*
X112684451Y-78621500D01*
X124997825Y-78621500D01*
X125730000Y-79248000D01*
G37*
%TD.AperFunction*%
%TA.AperFunction,Conductor*%
G36*
X112733435Y-68671339D02*
G01*
X121201500Y-77139405D01*
X121235526Y-77201717D01*
X121230461Y-77272532D01*
X121187914Y-77329368D01*
X121121394Y-77354179D01*
X121112405Y-77354500D01*
X112680805Y-77354500D01*
X112612684Y-77334498D01*
X112575013Y-77296940D01*
X112486822Y-77160617D01*
X112486820Y-77160614D01*
X112484014Y-77156277D01*
X112333670Y-76991051D01*
X112329619Y-76987852D01*
X112329615Y-76987848D01*
X112162414Y-76855800D01*
X112162410Y-76855798D01*
X112158359Y-76852598D01*
X112117053Y-76829796D01*
X112067084Y-76779364D01*
X112052312Y-76709921D01*
X112077428Y-76643516D01*
X112104780Y-76616909D01*
X112234588Y-76524318D01*
X112283860Y-76489173D01*
X112442096Y-76331489D01*
X112572453Y-76150077D01*
X112671430Y-75949811D01*
X112736370Y-75736069D01*
X112765529Y-75514590D01*
X112767156Y-75448000D01*
X112748852Y-75225361D01*
X112694431Y-75008702D01*
X112605354Y-74803840D01*
X112484014Y-74616277D01*
X112333670Y-74451051D01*
X112329619Y-74447852D01*
X112329615Y-74447848D01*
X112162414Y-74315800D01*
X112162410Y-74315798D01*
X112158359Y-74312598D01*
X112117053Y-74289796D01*
X112067084Y-74239364D01*
X112052312Y-74169921D01*
X112077428Y-74103516D01*
X112104780Y-74076909D01*
X112178070Y-74024632D01*
X112283860Y-73949173D01*
X112442096Y-73791489D01*
X112464018Y-73760982D01*
X112569435Y-73614277D01*
X112572453Y-73610077D01*
X112671430Y-73409811D01*
X112721471Y-73245107D01*
X112734865Y-73201023D01*
X112734865Y-73201021D01*
X112736370Y-73196069D01*
X112765529Y-72974590D01*
X112765611Y-72971240D01*
X112767074Y-72911365D01*
X112767074Y-72911361D01*
X112767156Y-72908000D01*
X112748852Y-72685361D01*
X112694431Y-72468702D01*
X112605354Y-72263840D01*
X112484014Y-72076277D01*
X112333670Y-71911051D01*
X112329619Y-71907852D01*
X112329615Y-71907848D01*
X112162414Y-71775800D01*
X112162410Y-71775798D01*
X112158359Y-71772598D01*
X112117053Y-71749796D01*
X112067084Y-71699364D01*
X112052312Y-71629921D01*
X112077428Y-71563516D01*
X112104780Y-71536909D01*
X112178070Y-71484632D01*
X112283860Y-71409173D01*
X112442096Y-71251489D01*
X112572453Y-71070077D01*
X112671430Y-70869811D01*
X112736370Y-70656069D01*
X112765529Y-70434590D01*
X112767156Y-70368000D01*
X112748852Y-70145361D01*
X112694431Y-69928702D01*
X112605354Y-69723840D01*
X112484014Y-69536277D01*
X112333670Y-69371051D01*
X112329619Y-69367852D01*
X112329615Y-69367848D01*
X112162414Y-69235800D01*
X112162410Y-69235798D01*
X112158359Y-69232598D01*
X112117053Y-69209796D01*
X112067084Y-69159364D01*
X112052312Y-69089921D01*
X112077428Y-69023516D01*
X112104780Y-68996909D01*
X112178070Y-68944632D01*
X112283860Y-68869173D01*
X112442096Y-68711489D01*
X112480512Y-68658027D01*
X112733435Y-68671339D01*
G37*
%TD.AperFunction*%
%TD*%
M02*
