M48
; DRILL file {KiCad 6.0.9-8da3e8f707~116~ubuntu22.04.1} date Thu 17 Nov 2022 01:27:04 PM EST
; FORMAT={-:-/ absolute / inch / decimal}
; #@! TF.CreationDate,2022-11-17T13:27:04-05:00
; #@! TF.GenerationSoftware,Kicad,Pcbnew,6.0.9-8da3e8f707~116~ubuntu22.04.1
; #@! TF.FileFunction,Plated,1,2,PTH
FMAT,2
INCH
; #@! TA.AperFunction,Plated,PTH,ViaDrill
T1C0.0157
; #@! TA.AperFunction,Plated,PTH,ComponentDrill
T2C0.0315
; #@! TA.AperFunction,Plated,PTH,ComponentDrill
T3C0.0394
%
G90
G05
T1
X4.475Y-3.44
X4.48Y-3.32
X4.485Y-2.14
X4.52Y-2.38
X4.66Y-2.965
X4.66Y-3.125
X4.67Y-2.805
X4.73Y-3.22
X4.82Y-2.785
X4.99Y-3.53
X5.05Y-2.835
X5.075Y-2.41
X5.375Y-3.175
X5.385Y-3.525
X5.405Y-2.81
X5.505Y-2.395
X5.62Y-2.815
X5.64Y-2.195
X5.75Y-2.87
X5.945Y-2.39
X5.945Y-2.885
X6.16Y-2.31
X6.19Y-2.93
X6.245Y-3.675
X6.295Y-3.37
X6.34Y-2.955
X6.535Y-3.535
X6.56Y-2.79
X6.685Y-3.225
X6.99Y-3.075
X7.07Y-2.305
X7.165Y-3.725
X7.255Y-2.175
X7.255Y-3.2
X7.29Y-2.62
T2
X4.7831Y-2.24
X4.8816Y-2.24
T3
X4.386Y-2.2704
X4.386Y-2.3704
X4.386Y-2.4704
X4.386Y-2.5704
X4.386Y-2.6704
X4.386Y-2.7704
X4.386Y-2.8704
X4.386Y-2.9704
X4.386Y-3.0704
X4.386Y-3.1704
X4.386Y-3.2704
X4.386Y-3.3704
X4.386Y-3.4704
X4.386Y-3.5704
X4.8915Y-2.5919
X4.8915Y-2.6919
X4.9915Y-2.5919
X4.9915Y-2.6919
X5.0915Y-2.5919
X5.0915Y-2.6919
X5.125Y-2.24
X5.1915Y-2.5919
X5.1915Y-2.6919
X5.225Y-2.24
X5.2915Y-2.5919
X5.2915Y-2.6919
X5.325Y-2.24
X5.3915Y-2.5919
X5.3915Y-2.6919
X5.425Y-2.24
X5.4915Y-2.5919
X5.4915Y-2.6919
X5.5915Y-2.5919
X5.5915Y-2.6919
X5.6531Y-2.335
X5.6915Y-2.5919
X5.6915Y-2.6919
X5.7516Y-2.1381
X5.7915Y-2.5919
X5.7915Y-2.6919
X5.85Y-2.335
X5.8915Y-2.5919
X5.8915Y-2.6919
X5.9915Y-2.5919
X5.9915Y-2.6919
X6.0915Y-2.5919
X6.0915Y-2.6919
X6.1915Y-2.5919
X6.1915Y-2.6919
X6.2915Y-2.5919
X6.2915Y-2.6919
X6.3915Y-2.5919
X6.3915Y-2.6919
X6.4915Y-2.5919
X6.4915Y-2.6919
X6.5915Y-2.5919
X6.5915Y-2.6919
X6.6915Y-2.5919
X6.6915Y-2.6919
X6.7915Y-2.5919
X6.7915Y-2.6919
T0
M30
