M48
; DRILL file {KiCad 6.0.8-f2edbf62ab~116~ubuntu22.04.1} date Wed 12 Oct 2022 11:28:24 AM EDT
; FORMAT={-:-/ absolute / inch / decimal}
; #@! TF.CreationDate,2022-10-12T11:28:24-04:00
; #@! TF.GenerationSoftware,Kicad,Pcbnew,6.0.8-f2edbf62ab~116~ubuntu22.04.1
; #@! TF.FileFunction,Plated,1,2,PTH
FMAT,2
INCH
; #@! TA.AperFunction,Plated,PTH,ViaDrill
T1C0.0157
; #@! TA.AperFunction,Plated,PTH,ComponentDrill
T2C0.0295
; #@! TA.AperFunction,Plated,PTH,ComponentDrill
T3C0.0300
; #@! TA.AperFunction,Plated,PTH,ComponentDrill
T4C0.0315
; #@! TA.AperFunction,Plated,PTH,ComponentDrill
T5C0.0354
; #@! TA.AperFunction,Plated,PTH,ComponentDrill
T6C0.0374
; #@! TA.AperFunction,Plated,PTH,ComponentDrill
T7C0.0394
; #@! TA.AperFunction,Plated,PTH,ComponentDrill
T8C0.0402
; #@! TA.AperFunction,Plated,PTH,ComponentDrill
T9C0.0433
%
G90
G05
T1
X3.95Y-5.7
X4.0Y-4.8
X4.05Y-3.2
X4.1Y-3.65
X4.15Y-2.35
X4.3Y-4.7
X4.45Y-2.75
X4.6Y-2.35
X4.8Y-4.4
X5.1Y-5.55
X5.7Y-5.05
X5.8Y-2.35
X5.8Y-3.2
X5.85Y-4.5
X5.9Y-4.75
X6.85Y-5.45
X7.0Y-2.35
X7.0Y-3.0756
X7.0Y-4.25
X7.15Y-4.05
X7.5Y-4.25
X7.5Y-4.65
X7.6Y-5.35
T2
X6.9Y-3.75
X6.95Y-3.75
X7.0Y-3.75
T3
X4.8568Y-2.8602
X4.8568Y-3.1602
X4.8568Y-3.2602
X4.8568Y-3.3602
X4.9568Y-2.8602
X4.9568Y-3.3602
X5.0568Y-2.8602
X5.0568Y-3.3602
X5.1568Y-2.8602
X5.1568Y-3.3602
X5.2568Y-2.8602
X5.2568Y-3.3602
X5.3568Y-2.8602
X5.3568Y-3.3602
X5.4568Y-2.8602
X5.4568Y-3.3602
X5.5568Y-2.8602
X5.5568Y-3.3602
X6.0379Y-2.8602
X6.0379Y-3.1602
X6.0379Y-3.2602
X6.0379Y-3.3602
X6.1379Y-2.8602
X6.1379Y-3.3602
X6.2379Y-2.8602
X6.2379Y-3.3602
X6.3379Y-2.8602
X6.3379Y-3.3602
X6.4379Y-2.8602
X6.4379Y-3.3602
X6.5379Y-2.8602
X6.5379Y-3.3602
X6.6379Y-2.8602
X6.6379Y-3.3602
X6.7379Y-2.8602
X6.7379Y-3.3602
T4
X6.45Y-4.55
X6.45Y-4.8
X6.45Y-5.05
X6.45Y-5.35
X6.85Y-4.55
X6.85Y-4.8
X6.85Y-5.05
X6.85Y-5.35
X7.2409Y-2.8346
X7.2409Y-3.1102
X7.2409Y-3.8976
X7.6409Y-2.8346
X7.6409Y-3.1102
X7.6409Y-3.8976
T5
X7.2Y-4.75
X7.2Y-4.8
X7.2Y-4.85
X7.2Y-4.9
T6
X5.0524Y-2.3307
X5.1508Y-2.3307
X5.2492Y-2.3307
X5.3476Y-2.3307
X6.2402Y-2.3207
X6.3386Y-2.3207
X6.437Y-2.3207
X6.5354Y-2.3207
T7
X4.3Y-5.8
X4.4Y-5.8
X4.5Y-5.8
X4.6Y-5.8
X4.7Y-5.8
X4.8Y-5.8
X4.9Y-5.8
X5.0Y-5.8
X6.6Y-5.8
X6.7Y-5.8
X6.8Y-5.8
X6.9Y-5.8
X7.0Y-5.8
X7.1Y-5.8
X7.6Y-5.7
X7.6Y-5.8
T8
X5.45Y-3.95
X5.45Y-4.05
X5.45Y-4.15
X5.45Y-4.25
X5.45Y-4.35
X5.45Y-4.45
X5.45Y-4.55
X5.45Y-4.65
X5.45Y-4.75
X5.45Y-4.85
X5.45Y-4.95
X5.45Y-5.05
X5.45Y-5.15
X5.45Y-5.25
X5.45Y-5.35
X5.45Y-5.45
X5.45Y-5.55
X5.45Y-5.65
X5.45Y-5.75
X5.45Y-5.85
X5.7Y-3.9591
X5.8Y-3.9591
X5.9Y-3.9591
X6.15Y-3.95
X6.15Y-4.05
X6.15Y-4.15
X6.15Y-4.25
X6.15Y-4.35
X6.15Y-4.45
X6.15Y-4.55
X6.15Y-4.65
X6.15Y-4.75
X6.15Y-4.85
X6.15Y-4.95
X6.15Y-5.05
X6.15Y-5.15
X6.15Y-5.25
X6.15Y-5.35
X6.15Y-5.45
X6.15Y-5.55
X6.15Y-5.65
X6.15Y-5.75
X6.15Y-5.85
T9
X4.7933Y-4.6358
X4.7933Y-4.813
X5.0492Y-4.6358
X5.0492Y-4.813
X7.1114Y-5.122
X7.1114Y-5.378
X7.2886Y-5.122
X7.2886Y-5.378
X7.4409Y-3.4252
X7.4409Y-3.5252
X7.4409Y-3.6252
T7
G00X7.3031Y-2.2933
M15
G01X7.3031Y-2.2343
M16
G05
G00X7.5059Y-2.3031
M15
G01X7.4547Y-2.3031
M16
G05
G00X7.5197Y-2.5394
M15
G01X7.4409Y-2.5394
M16
G05
G00X7.6575Y-2.2933
M15
G01X7.6575Y-2.2343
M16
G05
T0
M30
