%TF.GenerationSoftware,KiCad,Pcbnew,6.0.9-8da3e8f707~117~ubuntu22.04.1*%
%TF.CreationDate,2022-11-25T15:55:34-05:00*%
%TF.ProjectId,can-crusher,63616e2d-6372-4757-9368-65722e6b6963,2*%
%TF.SameCoordinates,Original*%
%TF.FileFunction,Soldermask,Top*%
%TF.FilePolarity,Negative*%
%FSLAX46Y46*%
G04 Gerber Fmt 4.6, Leading zero omitted, Abs format (unit mm)*
G04 Created by KiCad (PCBNEW 6.0.9-8da3e8f707~117~ubuntu22.04.1) date 2022-11-25 15:55:34*
%MOMM*%
%LPD*%
G01*
G04 APERTURE LIST*
G04 Aperture macros list*
%AMRoundRect*
0 Rectangle with rounded corners*
0 $1 Rounding radius*
0 $2 $3 $4 $5 $6 $7 $8 $9 X,Y pos of 4 corners*
0 Add a 4 corners polygon primitive as box body*
4,1,4,$2,$3,$4,$5,$6,$7,$8,$9,$2,$3,0*
0 Add four circle primitives for the rounded corners*
1,1,$1+$1,$2,$3*
1,1,$1+$1,$4,$5*
1,1,$1+$1,$6,$7*
1,1,$1+$1,$8,$9*
0 Add four rect primitives between the rounded corners*
20,1,$1+$1,$2,$3,$4,$5,0*
20,1,$1+$1,$4,$5,$6,$7,0*
20,1,$1+$1,$6,$7,$8,$9,0*
20,1,$1+$1,$8,$9,$2,$3,0*%
G04 Aperture macros list end*
%ADD10R,3.500000X3.500000*%
%ADD11C,3.500000*%
%ADD12R,1.600000X1.600000*%
%ADD13C,1.600000*%
%ADD14R,1.905000X2.000000*%
%ADD15O,1.905000X2.000000*%
%ADD16RoundRect,0.250000X0.450000X-0.262500X0.450000X0.262500X-0.450000X0.262500X-0.450000X-0.262500X0*%
%ADD17RoundRect,0.250000X-0.625000X0.312500X-0.625000X-0.312500X0.625000X-0.312500X0.625000X0.312500X0*%
%ADD18RoundRect,0.250000X0.600000X0.725000X-0.600000X0.725000X-0.600000X-0.725000X0.600000X-0.725000X0*%
%ADD19O,1.700000X1.950000*%
%ADD20R,1.524000X1.524000*%
%ADD21C,1.524000*%
%ADD22R,4.600000X1.100000*%
%ADD23R,9.400000X10.800000*%
%ADD24RoundRect,0.150000X0.150000X-0.587500X0.150000X0.587500X-0.150000X0.587500X-0.150000X-0.587500X0*%
%ADD25RoundRect,0.250000X0.625000X-0.312500X0.625000X0.312500X-0.625000X0.312500X-0.625000X-0.312500X0*%
%ADD26R,1.700000X1.700000*%
%ADD27O,1.700000X1.700000*%
%ADD28R,0.600000X0.450000*%
%ADD29RoundRect,0.250000X0.787500X1.025000X-0.787500X1.025000X-0.787500X-1.025000X0.787500X-1.025000X0*%
%ADD30C,2.775000*%
%ADD31R,2.775000X2.775000*%
%ADD32O,1.800000X1.800000*%
%ADD33O,1.500000X1.500000*%
%ADD34R,3.500000X1.700000*%
%ADD35R,1.700000X3.500000*%
%ADD36R,4.000000X2.000000*%
%ADD37O,3.300000X2.000000*%
%ADD38O,2.000000X3.500000*%
%ADD39C,2.000000*%
%ADD40RoundRect,0.250000X-0.450000X0.262500X-0.450000X-0.262500X0.450000X-0.262500X0.450000X0.262500X0*%
%ADD41C,2.600000*%
G04 APERTURE END LIST*
D10*
%TO.C,X1*%
X115292500Y-69331000D03*
D11*
X106152500Y-69331000D03*
X110212500Y-69331000D03*
X101072500Y-69331000D03*
%TD*%
D12*
%TO.C,C2*%
X128651000Y-77938621D03*
D13*
X128651000Y-80438621D03*
%TD*%
D14*
%TO.C,Q1*%
X110490000Y-109220000D03*
D15*
X107950000Y-109220000D03*
X105410000Y-109220000D03*
%TD*%
D16*
%TO.C,R1*%
X165100000Y-135532500D03*
X165100000Y-133707500D03*
%TD*%
D17*
%TO.C,R5*%
X107950000Y-98867500D03*
X107950000Y-101792500D03*
%TD*%
D18*
%TO.C,J1*%
X166000000Y-58945000D03*
D19*
X163500000Y-58945000D03*
X161000000Y-58945000D03*
X158500000Y-58945000D03*
%TD*%
D20*
%TO.C,U1*%
X153362500Y-85350000D03*
D21*
X155902500Y-85350000D03*
X158442500Y-85350000D03*
X160982500Y-85350000D03*
X163522500Y-85350000D03*
X166062500Y-85350000D03*
X168602500Y-85350000D03*
X171142500Y-85350000D03*
X171142500Y-72650000D03*
X168602500Y-72650000D03*
X166062500Y-72650000D03*
X163522500Y-72650000D03*
X160982500Y-72650000D03*
X158442500Y-72650000D03*
X155902500Y-72650000D03*
X153362500Y-72650000D03*
X153362500Y-80270000D03*
X153362500Y-82810000D03*
%TD*%
D22*
%TO.C,U4*%
X113036000Y-138478000D03*
X113036000Y-140178000D03*
X113036000Y-141878000D03*
D23*
X122186000Y-141878000D03*
D22*
X113036000Y-143578000D03*
X113036000Y-145278000D03*
%TD*%
D24*
%TO.C,Q2*%
X116095500Y-116634500D03*
X117995500Y-116634500D03*
X117045500Y-114759500D03*
%TD*%
D25*
%TO.C,R7*%
X102870000Y-101792500D03*
X102870000Y-98867500D03*
%TD*%
D26*
%TO.C,J2*%
X167640000Y-147320000D03*
D27*
X170180000Y-147320000D03*
X172720000Y-147320000D03*
X175260000Y-147320000D03*
X177800000Y-147320000D03*
X180340000Y-147320000D03*
%TD*%
D28*
%TO.C,D1*%
X106079000Y-140462000D03*
X103979000Y-140462000D03*
%TD*%
D29*
%TO.C,C4*%
X107633500Y-145669000D03*
X101408500Y-145669000D03*
%TD*%
D30*
%TO.C,SW3*%
X113896500Y-77553750D03*
D31*
X113896500Y-84553750D03*
%TD*%
D26*
%TO.C,J6*%
X193167000Y-135128000D03*
D27*
X193167000Y-132588000D03*
X193167000Y-130048000D03*
X193167000Y-127508000D03*
X193167000Y-124968000D03*
X193167000Y-122428000D03*
X193167000Y-119888000D03*
X193167000Y-117348000D03*
X193167000Y-114808000D03*
%TD*%
D32*
%TO.C,U2*%
X150045000Y-148460000D03*
D33*
X149745000Y-145430000D03*
D32*
X144595000Y-148460000D03*
D33*
X144895000Y-145430000D03*
D27*
X156210000Y-148590000D03*
D34*
X157110000Y-148590000D03*
X157110000Y-146050000D03*
D27*
X156210000Y-146050000D03*
D34*
X157110000Y-143510000D03*
D26*
X156210000Y-143510000D03*
D34*
X157110000Y-140970000D03*
D27*
X156210000Y-140970000D03*
X156210000Y-138430000D03*
D34*
X157110000Y-138430000D03*
X157110000Y-135890000D03*
D27*
X156210000Y-135890000D03*
D34*
X157110000Y-133350000D03*
D27*
X156210000Y-133350000D03*
D34*
X157110000Y-130810000D03*
D26*
X156210000Y-130810000D03*
D34*
X157110000Y-128270000D03*
D27*
X156210000Y-128270000D03*
D34*
X157110000Y-125730000D03*
D27*
X156210000Y-125730000D03*
X156210000Y-123190000D03*
D34*
X157110000Y-123190000D03*
D27*
X156210000Y-120650000D03*
D34*
X157110000Y-120650000D03*
D26*
X156210000Y-118110000D03*
D34*
X157110000Y-118110000D03*
X157110000Y-115570000D03*
D27*
X156210000Y-115570000D03*
X156210000Y-113030000D03*
D34*
X157110000Y-113030000D03*
X157110000Y-110490000D03*
D27*
X156210000Y-110490000D03*
D34*
X157110000Y-107950000D03*
D27*
X156210000Y-107950000D03*
D34*
X157110000Y-105410000D03*
D26*
X156210000Y-105410000D03*
D34*
X157110000Y-102870000D03*
D27*
X156210000Y-102870000D03*
D34*
X157110000Y-100330000D03*
D27*
X156210000Y-100330000D03*
X138430000Y-100330000D03*
D34*
X137530000Y-100330000D03*
D27*
X138430000Y-102870000D03*
D34*
X137530000Y-102870000D03*
D26*
X138430000Y-105410000D03*
D34*
X137530000Y-105410000D03*
X137530000Y-107950000D03*
D27*
X138430000Y-107950000D03*
D34*
X137530000Y-110490000D03*
D27*
X138430000Y-110490000D03*
X138430000Y-113030000D03*
D34*
X137530000Y-113030000D03*
X137530000Y-115570000D03*
D27*
X138430000Y-115570000D03*
D26*
X138430000Y-118110000D03*
D34*
X137530000Y-118110000D03*
D27*
X138430000Y-120650000D03*
D34*
X137530000Y-120650000D03*
X137530000Y-123190000D03*
D27*
X138430000Y-123190000D03*
X138430000Y-125730000D03*
D34*
X137530000Y-125730000D03*
X137530000Y-128270000D03*
D27*
X138430000Y-128270000D03*
D26*
X138430000Y-130810000D03*
D34*
X137530000Y-130810000D03*
D27*
X138430000Y-133350000D03*
D34*
X137530000Y-133350000D03*
D27*
X138430000Y-135890000D03*
D34*
X137530000Y-135890000D03*
D27*
X138430000Y-138430000D03*
D34*
X137530000Y-138430000D03*
D27*
X138430000Y-140970000D03*
D34*
X137530000Y-140970000D03*
X137530000Y-143510000D03*
D26*
X138430000Y-143510000D03*
D34*
X137530000Y-146050000D03*
D27*
X138430000Y-146050000D03*
D34*
X137530000Y-148590000D03*
D27*
X138430000Y-148590000D03*
X149860000Y-100560000D03*
D35*
X149860000Y-99660000D03*
X147320000Y-99660000D03*
D26*
X147320000Y-100560000D03*
D27*
X144780000Y-100560000D03*
D35*
X144780000Y-99660000D03*
%TD*%
D13*
%TO.C,J5*%
X102870000Y-54500000D03*
D36*
X102870000Y-63500000D03*
D37*
X102870000Y-57500000D03*
D38*
X107370000Y-56500000D03*
X98370000Y-56500000D03*
%TD*%
D17*
%TO.C,R6*%
X113030000Y-98867500D03*
X113030000Y-101792500D03*
%TD*%
D18*
%TO.C,J4*%
X135830000Y-59199000D03*
D19*
X133330000Y-59199000D03*
X130830000Y-59199000D03*
X128330000Y-59199000D03*
%TD*%
D20*
%TO.C,U3*%
X123362500Y-85350000D03*
D21*
X125902500Y-85350000D03*
X128442500Y-85350000D03*
X130982500Y-85350000D03*
X133522500Y-85350000D03*
X136062500Y-85350000D03*
X138602500Y-85350000D03*
X141142500Y-85350000D03*
X141142500Y-72650000D03*
X138602500Y-72650000D03*
X136062500Y-72650000D03*
X133522500Y-72650000D03*
X130982500Y-72650000D03*
X128442500Y-72650000D03*
X125902500Y-72650000D03*
X123362500Y-72650000D03*
X123362500Y-80270000D03*
X123362500Y-82810000D03*
%TD*%
D12*
%TO.C,C3*%
X118745000Y-132500380D03*
D13*
X118745000Y-130000380D03*
%TD*%
D39*
%TO.C,SW1*%
X182095000Y-97409000D03*
X188595000Y-97409000D03*
X182095000Y-101909000D03*
X188595000Y-101909000D03*
%TD*%
D26*
%TO.C,J3*%
X193040000Y-147320000D03*
D27*
X193040000Y-144780000D03*
%TD*%
D40*
%TO.C,R8*%
X115697000Y-120857000D03*
X115697000Y-122682000D03*
%TD*%
D12*
%TO.C,C1*%
X158623000Y-77557621D03*
D13*
X158623000Y-80057621D03*
%TD*%
D41*
%TO.C,L1*%
X106807000Y-129667000D03*
X101807000Y-129667000D03*
%TD*%
M02*
