%TF.GenerationSoftware,KiCad,Pcbnew,6.0.9-8da3e8f707~117~ubuntu22.04.1*%
%TF.CreationDate,2022-11-25T15:55:34-05:00*%
%TF.ProjectId,can-crusher,63616e2d-6372-4757-9368-65722e6b6963,2*%
%TF.SameCoordinates,Original*%
%TF.FileFunction,Legend,Top*%
%TF.FilePolarity,Positive*%
%FSLAX46Y46*%
G04 Gerber Fmt 4.6, Leading zero omitted, Abs format (unit mm)*
G04 Created by KiCad (PCBNEW 6.0.9-8da3e8f707~117~ubuntu22.04.1) date 2022-11-25 15:55:34*
%MOMM*%
%LPD*%
G01*
G04 APERTURE LIST*
%ADD10C,0.150000*%
%ADD11C,0.127000*%
%ADD12C,0.200000*%
%ADD13C,0.120000*%
G04 APERTURE END LIST*
D10*
%TO.C,X1*%
X114097976Y-72518380D02*
X114764642Y-73518380D01*
X114764642Y-72518380D02*
X114097976Y-73518380D01*
X115669404Y-73518380D02*
X115097976Y-73518380D01*
X115383690Y-73518380D02*
X115383690Y-72518380D01*
X115288452Y-72661238D01*
X115193214Y-72756476D01*
X115097976Y-72804095D01*
%TO.C,C2*%
X133408142Y-79355287D02*
X133455761Y-79402906D01*
X133503380Y-79545763D01*
X133503380Y-79641001D01*
X133455761Y-79783859D01*
X133360523Y-79879097D01*
X133265285Y-79926716D01*
X133074809Y-79974335D01*
X132931952Y-79974335D01*
X132741476Y-79926716D01*
X132646238Y-79879097D01*
X132551000Y-79783859D01*
X132503380Y-79641001D01*
X132503380Y-79545763D01*
X132551000Y-79402906D01*
X132598619Y-79355287D01*
X132598619Y-78974335D02*
X132551000Y-78926716D01*
X132503380Y-78831478D01*
X132503380Y-78593382D01*
X132551000Y-78498144D01*
X132598619Y-78450525D01*
X132693857Y-78402906D01*
X132789095Y-78402906D01*
X132931952Y-78450525D01*
X133503380Y-79021954D01*
X133503380Y-78402906D01*
%TO.C,Q1*%
X107854761Y-114037619D02*
X107759523Y-113990000D01*
X107664285Y-113894761D01*
X107521428Y-113751904D01*
X107426190Y-113704285D01*
X107330952Y-113704285D01*
X107378571Y-113942380D02*
X107283333Y-113894761D01*
X107188095Y-113799523D01*
X107140476Y-113609047D01*
X107140476Y-113275714D01*
X107188095Y-113085238D01*
X107283333Y-112990000D01*
X107378571Y-112942380D01*
X107569047Y-112942380D01*
X107664285Y-112990000D01*
X107759523Y-113085238D01*
X107807142Y-113275714D01*
X107807142Y-113609047D01*
X107759523Y-113799523D01*
X107664285Y-113894761D01*
X107569047Y-113942380D01*
X107378571Y-113942380D01*
X108759523Y-113942380D02*
X108188095Y-113942380D01*
X108473809Y-113942380D02*
X108473809Y-112942380D01*
X108378571Y-113085238D01*
X108283333Y-113180476D01*
X108188095Y-113228095D01*
%TO.C,R1*%
X163902380Y-134786666D02*
X163426190Y-135120000D01*
X163902380Y-135358095D02*
X162902380Y-135358095D01*
X162902380Y-134977142D01*
X162950000Y-134881904D01*
X162997619Y-134834285D01*
X163092857Y-134786666D01*
X163235714Y-134786666D01*
X163330952Y-134834285D01*
X163378571Y-134881904D01*
X163426190Y-134977142D01*
X163426190Y-135358095D01*
X163902380Y-133834285D02*
X163902380Y-134405714D01*
X163902380Y-134120000D02*
X162902380Y-134120000D01*
X163045238Y-134215238D01*
X163140476Y-134310476D01*
X163188095Y-134405714D01*
%TO.C,R5*%
X110222380Y-100496666D02*
X109746190Y-100830000D01*
X110222380Y-101068095D02*
X109222380Y-101068095D01*
X109222380Y-100687142D01*
X109270000Y-100591904D01*
X109317619Y-100544285D01*
X109412857Y-100496666D01*
X109555714Y-100496666D01*
X109650952Y-100544285D01*
X109698571Y-100591904D01*
X109746190Y-100687142D01*
X109746190Y-101068095D01*
X109222380Y-99591904D02*
X109222380Y-100068095D01*
X109698571Y-100115714D01*
X109650952Y-100068095D01*
X109603333Y-99972857D01*
X109603333Y-99734761D01*
X109650952Y-99639523D01*
X109698571Y-99591904D01*
X109793809Y-99544285D01*
X110031904Y-99544285D01*
X110127142Y-99591904D01*
X110174761Y-99639523D01*
X110222380Y-99734761D01*
X110222380Y-99972857D01*
X110174761Y-100068095D01*
X110127142Y-100115714D01*
%TO.C,J1*%
X161916666Y-61947380D02*
X161916666Y-62661666D01*
X161869047Y-62804523D01*
X161773809Y-62899761D01*
X161630952Y-62947380D01*
X161535714Y-62947380D01*
X162916666Y-62947380D02*
X162345238Y-62947380D01*
X162630952Y-62947380D02*
X162630952Y-61947380D01*
X162535714Y-62090238D01*
X162440476Y-62185476D01*
X162345238Y-62233095D01*
X157297619Y-54749761D02*
X157440476Y-54797380D01*
X157678571Y-54797380D01*
X157773809Y-54749761D01*
X157821428Y-54702142D01*
X157869047Y-54606904D01*
X157869047Y-54511666D01*
X157821428Y-54416428D01*
X157773809Y-54368809D01*
X157678571Y-54321190D01*
X157488095Y-54273571D01*
X157392857Y-54225952D01*
X157345238Y-54178333D01*
X157297619Y-54083095D01*
X157297619Y-53987857D01*
X157345238Y-53892619D01*
X157392857Y-53845000D01*
X157488095Y-53797380D01*
X157726190Y-53797380D01*
X157869047Y-53845000D01*
X158154761Y-54130714D02*
X158535714Y-54130714D01*
X158297619Y-53797380D02*
X158297619Y-54654523D01*
X158345238Y-54749761D01*
X158440476Y-54797380D01*
X158535714Y-54797380D01*
X159250000Y-54749761D02*
X159154761Y-54797380D01*
X158964285Y-54797380D01*
X158869047Y-54749761D01*
X158821428Y-54654523D01*
X158821428Y-54273571D01*
X158869047Y-54178333D01*
X158964285Y-54130714D01*
X159154761Y-54130714D01*
X159250000Y-54178333D01*
X159297619Y-54273571D01*
X159297619Y-54368809D01*
X158821428Y-54464047D01*
X159726190Y-54130714D02*
X159726190Y-55130714D01*
X159726190Y-54178333D02*
X159821428Y-54130714D01*
X160011904Y-54130714D01*
X160107142Y-54178333D01*
X160154761Y-54225952D01*
X160202380Y-54321190D01*
X160202380Y-54606904D01*
X160154761Y-54702142D01*
X160107142Y-54749761D01*
X160011904Y-54797380D01*
X159821428Y-54797380D01*
X159726190Y-54749761D01*
X160630952Y-54130714D02*
X160630952Y-55130714D01*
X160630952Y-54178333D02*
X160726190Y-54130714D01*
X160916666Y-54130714D01*
X161011904Y-54178333D01*
X161059523Y-54225952D01*
X161107142Y-54321190D01*
X161107142Y-54606904D01*
X161059523Y-54702142D01*
X161011904Y-54749761D01*
X160916666Y-54797380D01*
X160726190Y-54797380D01*
X160630952Y-54749761D01*
X161916666Y-54749761D02*
X161821428Y-54797380D01*
X161630952Y-54797380D01*
X161535714Y-54749761D01*
X161488095Y-54654523D01*
X161488095Y-54273571D01*
X161535714Y-54178333D01*
X161630952Y-54130714D01*
X161821428Y-54130714D01*
X161916666Y-54178333D01*
X161964285Y-54273571D01*
X161964285Y-54368809D01*
X161488095Y-54464047D01*
X162392857Y-54797380D02*
X162392857Y-54130714D01*
X162392857Y-54321190D02*
X162440476Y-54225952D01*
X162488095Y-54178333D01*
X162583333Y-54130714D01*
X162678571Y-54130714D01*
X164345238Y-54797380D02*
X164011904Y-54321190D01*
X163773809Y-54797380D02*
X163773809Y-53797380D01*
X164154761Y-53797380D01*
X164250000Y-53845000D01*
X164297619Y-53892619D01*
X164345238Y-53987857D01*
X164345238Y-54130714D01*
X164297619Y-54225952D01*
X164250000Y-54273571D01*
X164154761Y-54321190D01*
X163773809Y-54321190D01*
X164773809Y-54797380D02*
X164773809Y-54130714D01*
X164773809Y-53797380D02*
X164726190Y-53845000D01*
X164773809Y-53892619D01*
X164821428Y-53845000D01*
X164773809Y-53797380D01*
X164773809Y-53892619D01*
X165678571Y-54130714D02*
X165678571Y-54940238D01*
X165630952Y-55035476D01*
X165583333Y-55083095D01*
X165488095Y-55130714D01*
X165345238Y-55130714D01*
X165250000Y-55083095D01*
X165678571Y-54749761D02*
X165583333Y-54797380D01*
X165392857Y-54797380D01*
X165297619Y-54749761D01*
X165250000Y-54702142D01*
X165202380Y-54606904D01*
X165202380Y-54321190D01*
X165250000Y-54225952D01*
X165297619Y-54178333D01*
X165392857Y-54130714D01*
X165583333Y-54130714D01*
X165678571Y-54178333D01*
X166154761Y-54797380D02*
X166154761Y-53797380D01*
X166583333Y-54797380D02*
X166583333Y-54273571D01*
X166535714Y-54178333D01*
X166440476Y-54130714D01*
X166297619Y-54130714D01*
X166202380Y-54178333D01*
X166154761Y-54225952D01*
X166916666Y-54130714D02*
X167297619Y-54130714D01*
X167059523Y-53797380D02*
X167059523Y-54654523D01*
X167107142Y-54749761D01*
X167202380Y-54797380D01*
X167297619Y-54797380D01*
%TO.C,U1*%
X175674880Y-81031904D02*
X176484404Y-81031904D01*
X176579642Y-80984285D01*
X176627261Y-80936666D01*
X176674880Y-80841428D01*
X176674880Y-80650952D01*
X176627261Y-80555714D01*
X176579642Y-80508095D01*
X176484404Y-80460476D01*
X175674880Y-80460476D01*
X176674880Y-79460476D02*
X176674880Y-80031904D01*
X176674880Y-79746190D02*
X175674880Y-79746190D01*
X175817738Y-79841428D01*
X175912976Y-79936666D01*
X175960595Y-80031904D01*
X163974880Y-89527023D02*
X162974880Y-89527023D01*
X162974880Y-89146071D01*
X163022500Y-89050833D01*
X163070119Y-89003214D01*
X163165357Y-88955595D01*
X163308214Y-88955595D01*
X163403452Y-89003214D01*
X163451071Y-89050833D01*
X163498690Y-89146071D01*
X163498690Y-89527023D01*
X163974880Y-88527023D02*
X162974880Y-88527023D01*
X162974880Y-88288928D01*
X163022500Y-88146071D01*
X163117738Y-88050833D01*
X163212976Y-88003214D01*
X163403452Y-87955595D01*
X163546309Y-87955595D01*
X163736785Y-88003214D01*
X163832023Y-88050833D01*
X163927261Y-88146071D01*
X163974880Y-88288928D01*
X163974880Y-88527023D01*
X163974880Y-87527023D02*
X162974880Y-87527023D01*
X163974880Y-86955595D01*
X162974880Y-86955595D01*
X168054880Y-71187261D02*
X169054880Y-70853928D01*
X168054880Y-70520595D01*
X169054880Y-70187261D02*
X168054880Y-70187261D01*
X168054880Y-69949166D01*
X168102500Y-69806309D01*
X168197738Y-69711071D01*
X168292976Y-69663452D01*
X168483452Y-69615833D01*
X168626309Y-69615833D01*
X168816785Y-69663452D01*
X168912023Y-69711071D01*
X169007261Y-69806309D01*
X169054880Y-69949166D01*
X169054880Y-70187261D01*
X169054880Y-69187261D02*
X168054880Y-69187261D01*
X168054880Y-68949166D01*
X168102500Y-68806309D01*
X168197738Y-68711071D01*
X168292976Y-68663452D01*
X168483452Y-68615833D01*
X168626309Y-68615833D01*
X168816785Y-68663452D01*
X168912023Y-68711071D01*
X169007261Y-68806309D01*
X169054880Y-68949166D01*
X169054880Y-69187261D01*
X152814880Y-71187261D02*
X153814880Y-70853928D01*
X152814880Y-70520595D01*
X153814880Y-70187261D02*
X152814880Y-70187261D01*
X153529166Y-69853928D01*
X152814880Y-69520595D01*
X153814880Y-69520595D01*
X166419642Y-88717500D02*
X166467261Y-88765119D01*
X166514880Y-88907976D01*
X166514880Y-89003214D01*
X166467261Y-89146071D01*
X166372023Y-89241309D01*
X166276785Y-89288928D01*
X166086309Y-89336547D01*
X165943452Y-89336547D01*
X165752976Y-89288928D01*
X165657738Y-89241309D01*
X165562500Y-89146071D01*
X165514880Y-89003214D01*
X165514880Y-88907976D01*
X165562500Y-88765119D01*
X165610119Y-88717500D01*
X166514880Y-87812738D02*
X166514880Y-88288928D01*
X165514880Y-88288928D01*
X166514880Y-87479404D02*
X165514880Y-87479404D01*
X166514880Y-86907976D02*
X165943452Y-87336547D01*
X165514880Y-86907976D02*
X166086309Y-87479404D01*
X163451071Y-70711071D02*
X163498690Y-70568214D01*
X163546309Y-70520595D01*
X163641547Y-70472976D01*
X163784404Y-70472976D01*
X163879642Y-70520595D01*
X163927261Y-70568214D01*
X163974880Y-70663452D01*
X163974880Y-71044404D01*
X162974880Y-71044404D01*
X162974880Y-70711071D01*
X163022500Y-70615833D01*
X163070119Y-70568214D01*
X163165357Y-70520595D01*
X163260595Y-70520595D01*
X163355833Y-70568214D01*
X163403452Y-70615833D01*
X163451071Y-70711071D01*
X163451071Y-71044404D01*
X163974880Y-69520595D02*
X163974880Y-70092023D01*
X163974880Y-69806309D02*
X162974880Y-69806309D01*
X163117738Y-69901547D01*
X163212976Y-69996785D01*
X163260595Y-70092023D01*
X171594880Y-88955595D02*
X170594880Y-88955595D01*
X170594880Y-88717500D01*
X170642500Y-88574642D01*
X170737738Y-88479404D01*
X170832976Y-88431785D01*
X171023452Y-88384166D01*
X171166309Y-88384166D01*
X171356785Y-88431785D01*
X171452023Y-88479404D01*
X171547261Y-88574642D01*
X171594880Y-88717500D01*
X171594880Y-88955595D01*
X171594880Y-87955595D02*
X170594880Y-87955595D01*
X171594880Y-86907976D02*
X171118690Y-87241309D01*
X171594880Y-87479404D02*
X170594880Y-87479404D01*
X170594880Y-87098452D01*
X170642500Y-87003214D01*
X170690119Y-86955595D01*
X170785357Y-86907976D01*
X170928214Y-86907976D01*
X171023452Y-86955595D01*
X171071071Y-87003214D01*
X171118690Y-87098452D01*
X171118690Y-87479404D01*
X158894880Y-89527023D02*
X157894880Y-89527023D01*
X158609166Y-89193690D01*
X157894880Y-88860357D01*
X158894880Y-88860357D01*
X158847261Y-88431785D02*
X158894880Y-88288928D01*
X158894880Y-88050833D01*
X158847261Y-87955595D01*
X158799642Y-87907976D01*
X158704404Y-87860357D01*
X158609166Y-87860357D01*
X158513928Y-87907976D01*
X158466309Y-87955595D01*
X158418690Y-88050833D01*
X158371071Y-88241309D01*
X158323452Y-88336547D01*
X158275833Y-88384166D01*
X158180595Y-88431785D01*
X158085357Y-88431785D01*
X157990119Y-88384166D01*
X157942500Y-88336547D01*
X157894880Y-88241309D01*
X157894880Y-88003214D01*
X157942500Y-87860357D01*
X157990119Y-87479404D02*
X157942500Y-87431785D01*
X157894880Y-87336547D01*
X157894880Y-87098452D01*
X157942500Y-87003214D01*
X157990119Y-86955595D01*
X158085357Y-86907976D01*
X158180595Y-86907976D01*
X158323452Y-86955595D01*
X158894880Y-87527023D01*
X158894880Y-86907976D01*
X156354880Y-89527023D02*
X155354880Y-89527023D01*
X156069166Y-89193690D01*
X155354880Y-88860357D01*
X156354880Y-88860357D01*
X156307261Y-88431785D02*
X156354880Y-88288928D01*
X156354880Y-88050833D01*
X156307261Y-87955595D01*
X156259642Y-87907976D01*
X156164404Y-87860357D01*
X156069166Y-87860357D01*
X155973928Y-87907976D01*
X155926309Y-87955595D01*
X155878690Y-88050833D01*
X155831071Y-88241309D01*
X155783452Y-88336547D01*
X155735833Y-88384166D01*
X155640595Y-88431785D01*
X155545357Y-88431785D01*
X155450119Y-88384166D01*
X155402500Y-88336547D01*
X155354880Y-88241309D01*
X155354880Y-88003214D01*
X155402500Y-87860357D01*
X156354880Y-86907976D02*
X156354880Y-87479404D01*
X156354880Y-87193690D02*
X155354880Y-87193690D01*
X155497738Y-87288928D01*
X155592976Y-87384166D01*
X155640595Y-87479404D01*
X161149166Y-71092023D02*
X161149166Y-70615833D01*
X161434880Y-71187261D02*
X160434880Y-70853928D01*
X161434880Y-70520595D01*
X160530119Y-70234880D02*
X160482500Y-70187261D01*
X160434880Y-70092023D01*
X160434880Y-69853928D01*
X160482500Y-69758690D01*
X160530119Y-69711071D01*
X160625357Y-69663452D01*
X160720595Y-69663452D01*
X160863452Y-69711071D01*
X161434880Y-70282500D01*
X161434880Y-69663452D01*
X158609166Y-71092023D02*
X158609166Y-70615833D01*
X158894880Y-71187261D02*
X157894880Y-70853928D01*
X158894880Y-70520595D01*
X158894880Y-69663452D02*
X158894880Y-70234880D01*
X158894880Y-69949166D02*
X157894880Y-69949166D01*
X158037738Y-70044404D01*
X158132976Y-70139642D01*
X158180595Y-70234880D01*
X151903809Y-83357619D02*
X151570476Y-82357619D01*
X151237142Y-83357619D01*
X150332380Y-82357619D02*
X150665714Y-82833809D01*
X150903809Y-82357619D02*
X150903809Y-83357619D01*
X150522857Y-83357619D01*
X150427619Y-83310000D01*
X150380000Y-83262380D01*
X150332380Y-83167142D01*
X150332380Y-83024285D01*
X150380000Y-82929047D01*
X150427619Y-82881428D01*
X150522857Y-82833809D01*
X150903809Y-82833809D01*
X149903809Y-82881428D02*
X149570476Y-82881428D01*
X149427619Y-82357619D02*
X149903809Y-82357619D01*
X149903809Y-83357619D01*
X149427619Y-83357619D01*
X148665714Y-82881428D02*
X148999047Y-82881428D01*
X148999047Y-82357619D02*
X148999047Y-83357619D01*
X148522857Y-83357619D01*
X165991071Y-70711071D02*
X166038690Y-70568214D01*
X166086309Y-70520595D01*
X166181547Y-70472976D01*
X166324404Y-70472976D01*
X166419642Y-70520595D01*
X166467261Y-70568214D01*
X166514880Y-70663452D01*
X166514880Y-71044404D01*
X165514880Y-71044404D01*
X165514880Y-70711071D01*
X165562500Y-70615833D01*
X165610119Y-70568214D01*
X165705357Y-70520595D01*
X165800595Y-70520595D01*
X165895833Y-70568214D01*
X165943452Y-70615833D01*
X165991071Y-70711071D01*
X165991071Y-71044404D01*
X165610119Y-70092023D02*
X165562500Y-70044404D01*
X165514880Y-69949166D01*
X165514880Y-69711071D01*
X165562500Y-69615833D01*
X165610119Y-69568214D01*
X165705357Y-69520595D01*
X165800595Y-69520595D01*
X165943452Y-69568214D01*
X166514880Y-70139642D01*
X166514880Y-69520595D01*
X153291071Y-88431785D02*
X153291071Y-88098452D01*
X153814880Y-87955595D02*
X153814880Y-88431785D01*
X152814880Y-88431785D01*
X152814880Y-87955595D01*
X153814880Y-87527023D02*
X152814880Y-87527023D01*
X153814880Y-86955595D01*
X152814880Y-86955595D01*
X161434880Y-89527023D02*
X160434880Y-89527023D01*
X160434880Y-89146071D01*
X160482500Y-89050833D01*
X160530119Y-89003214D01*
X160625357Y-88955595D01*
X160768214Y-88955595D01*
X160863452Y-89003214D01*
X160911071Y-89050833D01*
X160958690Y-89146071D01*
X160958690Y-89527023D01*
X161434880Y-88527023D02*
X160434880Y-88527023D01*
X160434880Y-88288928D01*
X160482500Y-88146071D01*
X160577738Y-88050833D01*
X160672976Y-88003214D01*
X160863452Y-87955595D01*
X161006309Y-87955595D01*
X161196785Y-88003214D01*
X161292023Y-88050833D01*
X161387261Y-88146071D01*
X161434880Y-88288928D01*
X161434880Y-88527023D01*
X161434880Y-87527023D02*
X160434880Y-87527023D01*
X161434880Y-86955595D01*
X160434880Y-86955595D01*
X151475238Y-79817619D02*
X151475238Y-80817619D01*
X151237142Y-80817619D01*
X151094285Y-80770000D01*
X150999047Y-80674761D01*
X150951428Y-80579523D01*
X150903809Y-80389047D01*
X150903809Y-80246190D01*
X150951428Y-80055714D01*
X150999047Y-79960476D01*
X151094285Y-79865238D01*
X151237142Y-79817619D01*
X151475238Y-79817619D01*
X150475238Y-79817619D02*
X150475238Y-80817619D01*
X150046666Y-80103333D02*
X149570476Y-80103333D01*
X150141904Y-79817619D02*
X149808571Y-80817619D01*
X149475238Y-79817619D01*
X148618095Y-80770000D02*
X148713333Y-80817619D01*
X148856190Y-80817619D01*
X148999047Y-80770000D01*
X149094285Y-80674761D01*
X149141904Y-80579523D01*
X149189523Y-80389047D01*
X149189523Y-80246190D01*
X149141904Y-80055714D01*
X149094285Y-79960476D01*
X148999047Y-79865238D01*
X148856190Y-79817619D01*
X148760952Y-79817619D01*
X148618095Y-79865238D01*
X148570476Y-79912857D01*
X148570476Y-80246190D01*
X148760952Y-80246190D01*
X173134880Y-84214285D02*
X173134880Y-83642857D01*
X174134880Y-83928571D02*
X173134880Y-83928571D01*
X174134880Y-83309523D02*
X173134880Y-83309523D01*
X173849166Y-82976190D01*
X173134880Y-82642857D01*
X174134880Y-82642857D01*
X174039642Y-81595238D02*
X174087261Y-81642857D01*
X174134880Y-81785714D01*
X174134880Y-81880952D01*
X174087261Y-82023809D01*
X173992023Y-82119047D01*
X173896785Y-82166666D01*
X173706309Y-82214285D01*
X173563452Y-82214285D01*
X173372976Y-82166666D01*
X173277738Y-82119047D01*
X173182500Y-82023809D01*
X173134880Y-81880952D01*
X173134880Y-81785714D01*
X173182500Y-81642857D01*
X173230119Y-81595238D01*
X173230119Y-81214285D02*
X173182500Y-81166666D01*
X173134880Y-81071428D01*
X173134880Y-80833333D01*
X173182500Y-80738095D01*
X173230119Y-80690476D01*
X173325357Y-80642857D01*
X173420595Y-80642857D01*
X173563452Y-80690476D01*
X174134880Y-81261904D01*
X174134880Y-80642857D01*
X173230119Y-80261904D02*
X173182500Y-80214285D01*
X173134880Y-80119047D01*
X173134880Y-79880952D01*
X173182500Y-79785714D01*
X173230119Y-79738095D01*
X173325357Y-79690476D01*
X173420595Y-79690476D01*
X173563452Y-79738095D01*
X174134880Y-80309523D01*
X174134880Y-79690476D01*
X173134880Y-79071428D02*
X173134880Y-78976190D01*
X173182500Y-78880952D01*
X173230119Y-78833333D01*
X173325357Y-78785714D01*
X173515833Y-78738095D01*
X173753928Y-78738095D01*
X173944404Y-78785714D01*
X174039642Y-78833333D01*
X174087261Y-78880952D01*
X174134880Y-78976190D01*
X174134880Y-79071428D01*
X174087261Y-79166666D01*
X174039642Y-79214285D01*
X173944404Y-79261904D01*
X173753928Y-79309523D01*
X173515833Y-79309523D01*
X173325357Y-79261904D01*
X173230119Y-79214285D01*
X173182500Y-79166666D01*
X173134880Y-79071428D01*
X174134880Y-78261904D02*
X174134880Y-78071428D01*
X174087261Y-77976190D01*
X174039642Y-77928571D01*
X173896785Y-77833333D01*
X173706309Y-77785714D01*
X173325357Y-77785714D01*
X173230119Y-77833333D01*
X173182500Y-77880952D01*
X173134880Y-77976190D01*
X173134880Y-78166666D01*
X173182500Y-78261904D01*
X173230119Y-78309523D01*
X173325357Y-78357142D01*
X173563452Y-78357142D01*
X173658690Y-78309523D01*
X173706309Y-78261904D01*
X173753928Y-78166666D01*
X173753928Y-77976190D01*
X173706309Y-77880952D01*
X173658690Y-77833333D01*
X173563452Y-77785714D01*
X173468214Y-76690476D02*
X174134880Y-76452380D01*
X173468214Y-76214285D01*
X174134880Y-75309523D02*
X174134880Y-75880952D01*
X174134880Y-75595238D02*
X173134880Y-75595238D01*
X173277738Y-75690476D01*
X173372976Y-75785714D01*
X173420595Y-75880952D01*
X174039642Y-74880952D02*
X174087261Y-74833333D01*
X174134880Y-74880952D01*
X174087261Y-74928571D01*
X174039642Y-74880952D01*
X174134880Y-74880952D01*
X173230119Y-74452380D02*
X173182500Y-74404761D01*
X173134880Y-74309523D01*
X173134880Y-74071428D01*
X173182500Y-73976190D01*
X173230119Y-73928571D01*
X173325357Y-73880952D01*
X173420595Y-73880952D01*
X173563452Y-73928571D01*
X174134880Y-74500000D01*
X174134880Y-73880952D01*
X171071071Y-82857142D02*
X171118690Y-82714285D01*
X171166309Y-82666666D01*
X171261547Y-82619047D01*
X171404404Y-82619047D01*
X171499642Y-82666666D01*
X171547261Y-82714285D01*
X171594880Y-82809523D01*
X171594880Y-83190476D01*
X170594880Y-83190476D01*
X170594880Y-82857142D01*
X170642500Y-82761904D01*
X170690119Y-82714285D01*
X170785357Y-82666666D01*
X170880595Y-82666666D01*
X170975833Y-82714285D01*
X171023452Y-82761904D01*
X171071071Y-82857142D01*
X171071071Y-83190476D01*
X171594880Y-82190476D02*
X170928214Y-82190476D01*
X170594880Y-82190476D02*
X170642500Y-82238095D01*
X170690119Y-82190476D01*
X170642500Y-82142857D01*
X170594880Y-82190476D01*
X170690119Y-82190476D01*
X170928214Y-81285714D02*
X171737738Y-81285714D01*
X171832976Y-81333333D01*
X171880595Y-81380952D01*
X171928214Y-81476190D01*
X171928214Y-81619047D01*
X171880595Y-81714285D01*
X171547261Y-81285714D02*
X171594880Y-81380952D01*
X171594880Y-81571428D01*
X171547261Y-81666666D01*
X171499642Y-81714285D01*
X171404404Y-81761904D01*
X171118690Y-81761904D01*
X171023452Y-81714285D01*
X170975833Y-81666666D01*
X170928214Y-81571428D01*
X170928214Y-81380952D01*
X170975833Y-81285714D01*
X170594880Y-80952380D02*
X170594880Y-80380952D01*
X171594880Y-80666666D02*
X170594880Y-80666666D01*
X171594880Y-80047619D02*
X170928214Y-80047619D01*
X171118690Y-80047619D02*
X171023452Y-80000000D01*
X170975833Y-79952380D01*
X170928214Y-79857142D01*
X170928214Y-79761904D01*
X171547261Y-79047619D02*
X171594880Y-79142857D01*
X171594880Y-79333333D01*
X171547261Y-79428571D01*
X171452023Y-79476190D01*
X171071071Y-79476190D01*
X170975833Y-79428571D01*
X170928214Y-79333333D01*
X170928214Y-79142857D01*
X170975833Y-79047619D01*
X171071071Y-79000000D01*
X171166309Y-79000000D01*
X171261547Y-79476190D01*
X171547261Y-78190476D02*
X171594880Y-78285714D01*
X171594880Y-78476190D01*
X171547261Y-78571428D01*
X171452023Y-78619047D01*
X171071071Y-78619047D01*
X170975833Y-78571428D01*
X170928214Y-78476190D01*
X170928214Y-78285714D01*
X170975833Y-78190476D01*
X171071071Y-78142857D01*
X171166309Y-78142857D01*
X171261547Y-78619047D01*
X170594880Y-77857142D02*
X170594880Y-77285714D01*
X171594880Y-77571428D02*
X170594880Y-77571428D01*
X171547261Y-76571428D02*
X171594880Y-76666666D01*
X171594880Y-76857142D01*
X171547261Y-76952380D01*
X171452023Y-77000000D01*
X171071071Y-77000000D01*
X170975833Y-76952380D01*
X170928214Y-76857142D01*
X170928214Y-76666666D01*
X170975833Y-76571428D01*
X171071071Y-76523809D01*
X171166309Y-76523809D01*
X171261547Y-77000000D01*
X171547261Y-75666666D02*
X171594880Y-75761904D01*
X171594880Y-75952380D01*
X171547261Y-76047619D01*
X171499642Y-76095238D01*
X171404404Y-76142857D01*
X171118690Y-76142857D01*
X171023452Y-76095238D01*
X170975833Y-76047619D01*
X170928214Y-75952380D01*
X170928214Y-75761904D01*
X170975833Y-75666666D01*
X171594880Y-75238095D02*
X170594880Y-75238095D01*
X171594880Y-74809523D02*
X171071071Y-74809523D01*
X170975833Y-74857142D01*
X170928214Y-74952380D01*
X170928214Y-75095238D01*
X170975833Y-75190476D01*
X171023452Y-75238095D01*
X169007261Y-90142023D02*
X169054880Y-89999166D01*
X169054880Y-89761071D01*
X169007261Y-89665833D01*
X168959642Y-89618214D01*
X168864404Y-89570595D01*
X168769166Y-89570595D01*
X168673928Y-89618214D01*
X168626309Y-89665833D01*
X168578690Y-89761071D01*
X168531071Y-89951547D01*
X168483452Y-90046785D01*
X168435833Y-90094404D01*
X168340595Y-90142023D01*
X168245357Y-90142023D01*
X168150119Y-90094404D01*
X168102500Y-90046785D01*
X168054880Y-89951547D01*
X168054880Y-89713452D01*
X168102500Y-89570595D01*
X168054880Y-89284880D02*
X168054880Y-88713452D01*
X169054880Y-88999166D02*
X168054880Y-88999166D01*
X168531071Y-88380119D02*
X168531071Y-88046785D01*
X169054880Y-87903928D02*
X169054880Y-88380119D01*
X168054880Y-88380119D01*
X168054880Y-87903928D01*
X169054880Y-87475357D02*
X168054880Y-87475357D01*
X168054880Y-87094404D01*
X168102500Y-86999166D01*
X168150119Y-86951547D01*
X168245357Y-86903928D01*
X168388214Y-86903928D01*
X168483452Y-86951547D01*
X168531071Y-86999166D01*
X168578690Y-87094404D01*
X168578690Y-87475357D01*
X170642500Y-70520595D02*
X170594880Y-70615833D01*
X170594880Y-70758690D01*
X170642500Y-70901547D01*
X170737738Y-70996785D01*
X170832976Y-71044404D01*
X171023452Y-71092023D01*
X171166309Y-71092023D01*
X171356785Y-71044404D01*
X171452023Y-70996785D01*
X171547261Y-70901547D01*
X171594880Y-70758690D01*
X171594880Y-70663452D01*
X171547261Y-70520595D01*
X171499642Y-70472976D01*
X171166309Y-70472976D01*
X171166309Y-70663452D01*
X171594880Y-70044404D02*
X170594880Y-70044404D01*
X171594880Y-69472976D01*
X170594880Y-69472976D01*
X171594880Y-68996785D02*
X170594880Y-68996785D01*
X170594880Y-68758690D01*
X170642500Y-68615833D01*
X170737738Y-68520595D01*
X170832976Y-68472976D01*
X171023452Y-68425357D01*
X171166309Y-68425357D01*
X171356785Y-68472976D01*
X171452023Y-68520595D01*
X171547261Y-68615833D01*
X171594880Y-68758690D01*
X171594880Y-68996785D01*
X155402500Y-70520595D02*
X155354880Y-70615833D01*
X155354880Y-70758690D01*
X155402500Y-70901547D01*
X155497738Y-70996785D01*
X155592976Y-71044404D01*
X155783452Y-71092023D01*
X155926309Y-71092023D01*
X156116785Y-71044404D01*
X156212023Y-70996785D01*
X156307261Y-70901547D01*
X156354880Y-70758690D01*
X156354880Y-70663452D01*
X156307261Y-70520595D01*
X156259642Y-70472976D01*
X155926309Y-70472976D01*
X155926309Y-70663452D01*
X156354880Y-70044404D02*
X155354880Y-70044404D01*
X156354880Y-69472976D01*
X155354880Y-69472976D01*
X156354880Y-68996785D02*
X155354880Y-68996785D01*
X155354880Y-68758690D01*
X155402500Y-68615833D01*
X155497738Y-68520595D01*
X155592976Y-68472976D01*
X155783452Y-68425357D01*
X155926309Y-68425357D01*
X156116785Y-68472976D01*
X156212023Y-68520595D01*
X156307261Y-68615833D01*
X156354880Y-68758690D01*
X156354880Y-68996785D01*
%TO.C,U4*%
X118049095Y-134680380D02*
X118049095Y-135489904D01*
X118096714Y-135585142D01*
X118144333Y-135632761D01*
X118239571Y-135680380D01*
X118430047Y-135680380D01*
X118525285Y-135632761D01*
X118572904Y-135585142D01*
X118620523Y-135489904D01*
X118620523Y-134680380D01*
X119525285Y-135013714D02*
X119525285Y-135680380D01*
X119287190Y-134632761D02*
X119049095Y-135347047D01*
X119668142Y-135347047D01*
%TO.C,Q2*%
X115193119Y-115792238D02*
X115145500Y-115887476D01*
X115050261Y-115982714D01*
X114907404Y-116125571D01*
X114859785Y-116220809D01*
X114859785Y-116316047D01*
X115097880Y-116268428D02*
X115050261Y-116363666D01*
X114955023Y-116458904D01*
X114764547Y-116506523D01*
X114431214Y-116506523D01*
X114240738Y-116458904D01*
X114145500Y-116363666D01*
X114097880Y-116268428D01*
X114097880Y-116077952D01*
X114145500Y-115982714D01*
X114240738Y-115887476D01*
X114431214Y-115839857D01*
X114764547Y-115839857D01*
X114955023Y-115887476D01*
X115050261Y-115982714D01*
X115097880Y-116077952D01*
X115097880Y-116268428D01*
X114193119Y-115458904D02*
X114145500Y-115411285D01*
X114097880Y-115316047D01*
X114097880Y-115077952D01*
X114145500Y-114982714D01*
X114193119Y-114935095D01*
X114288357Y-114887476D01*
X114383595Y-114887476D01*
X114526452Y-114935095D01*
X115097880Y-115506523D01*
X115097880Y-114887476D01*
%TO.C,R7*%
X101502380Y-100496666D02*
X101026190Y-100830000D01*
X101502380Y-101068095D02*
X100502380Y-101068095D01*
X100502380Y-100687142D01*
X100550000Y-100591904D01*
X100597619Y-100544285D01*
X100692857Y-100496666D01*
X100835714Y-100496666D01*
X100930952Y-100544285D01*
X100978571Y-100591904D01*
X101026190Y-100687142D01*
X101026190Y-101068095D01*
X100502380Y-100163333D02*
X100502380Y-99496666D01*
X101502380Y-99925238D01*
%TO.C,J2*%
X164322380Y-147653333D02*
X165036666Y-147653333D01*
X165179523Y-147700952D01*
X165274761Y-147796190D01*
X165322380Y-147939047D01*
X165322380Y-148034285D01*
X164417619Y-147224761D02*
X164370000Y-147177142D01*
X164322380Y-147081904D01*
X164322380Y-146843809D01*
X164370000Y-146748571D01*
X164417619Y-146700952D01*
X164512857Y-146653333D01*
X164608095Y-146653333D01*
X164750952Y-146700952D01*
X165322380Y-147272380D01*
X165322380Y-146653333D01*
X167384880Y-141327142D02*
X167337261Y-141374761D01*
X167194404Y-141422380D01*
X167099166Y-141422380D01*
X166956309Y-141374761D01*
X166861071Y-141279523D01*
X166813452Y-141184285D01*
X166765833Y-140993809D01*
X166765833Y-140850952D01*
X166813452Y-140660476D01*
X166861071Y-140565238D01*
X166956309Y-140470000D01*
X167099166Y-140422380D01*
X167194404Y-140422380D01*
X167337261Y-140470000D01*
X167384880Y-140517619D01*
X167956309Y-141422380D02*
X167861071Y-141374761D01*
X167813452Y-141327142D01*
X167765833Y-141231904D01*
X167765833Y-140946190D01*
X167813452Y-140850952D01*
X167861071Y-140803333D01*
X167956309Y-140755714D01*
X168099166Y-140755714D01*
X168194404Y-140803333D01*
X168242023Y-140850952D01*
X168289642Y-140946190D01*
X168289642Y-141231904D01*
X168242023Y-141327142D01*
X168194404Y-141374761D01*
X168099166Y-141422380D01*
X167956309Y-141422380D01*
X168718214Y-140755714D02*
X168718214Y-141422380D01*
X168718214Y-140850952D02*
X168765833Y-140803333D01*
X168861071Y-140755714D01*
X169003928Y-140755714D01*
X169099166Y-140803333D01*
X169146785Y-140898571D01*
X169146785Y-141422380D01*
X169480119Y-140755714D02*
X169861071Y-140755714D01*
X169622976Y-140422380D02*
X169622976Y-141279523D01*
X169670595Y-141374761D01*
X169765833Y-141422380D01*
X169861071Y-141422380D01*
X170194404Y-141422380D02*
X170194404Y-140755714D01*
X170194404Y-140946190D02*
X170242023Y-140850952D01*
X170289642Y-140803333D01*
X170384880Y-140755714D01*
X170480119Y-140755714D01*
X170956309Y-141422380D02*
X170861071Y-141374761D01*
X170813452Y-141327142D01*
X170765833Y-141231904D01*
X170765833Y-140946190D01*
X170813452Y-140850952D01*
X170861071Y-140803333D01*
X170956309Y-140755714D01*
X171099166Y-140755714D01*
X171194404Y-140803333D01*
X171242023Y-140850952D01*
X171289642Y-140946190D01*
X171289642Y-141231904D01*
X171242023Y-141327142D01*
X171194404Y-141374761D01*
X171099166Y-141422380D01*
X170956309Y-141422380D01*
X171861071Y-141422380D02*
X171765833Y-141374761D01*
X171718214Y-141279523D01*
X171718214Y-140422380D01*
X173003928Y-140422380D02*
X173003928Y-141231904D01*
X173051547Y-141327142D01*
X173099166Y-141374761D01*
X173194404Y-141422380D01*
X173384880Y-141422380D01*
X173480119Y-141374761D01*
X173527738Y-141327142D01*
X173575357Y-141231904D01*
X173575357Y-140422380D01*
X174003928Y-141136666D02*
X174480119Y-141136666D01*
X173908690Y-141422380D02*
X174242023Y-140422380D01*
X174575357Y-141422380D01*
X175480119Y-141422380D02*
X175146785Y-140946190D01*
X174908690Y-141422380D02*
X174908690Y-140422380D01*
X175289642Y-140422380D01*
X175384880Y-140470000D01*
X175432500Y-140517619D01*
X175480119Y-140612857D01*
X175480119Y-140755714D01*
X175432500Y-140850952D01*
X175384880Y-140898571D01*
X175289642Y-140946190D01*
X174908690Y-140946190D01*
X175765833Y-140422380D02*
X176337261Y-140422380D01*
X176051547Y-141422380D02*
X176051547Y-140422380D01*
X169632380Y-144587261D02*
X169632380Y-144015833D01*
X170632380Y-144301547D02*
X169632380Y-144301547D01*
X169632380Y-143777738D02*
X170632380Y-143111071D01*
X169632380Y-143111071D02*
X170632380Y-143777738D01*
X173172380Y-143872976D02*
X172696190Y-144206309D01*
X173172380Y-144444404D02*
X172172380Y-144444404D01*
X172172380Y-144063452D01*
X172220000Y-143968214D01*
X172267619Y-143920595D01*
X172362857Y-143872976D01*
X172505714Y-143872976D01*
X172600952Y-143920595D01*
X172648571Y-143968214D01*
X172696190Y-144063452D01*
X172696190Y-144444404D01*
X172172380Y-143539642D02*
X173172380Y-142872976D01*
X172172380Y-142872976D02*
X173172380Y-143539642D01*
X179840000Y-143920595D02*
X179792380Y-144015833D01*
X179792380Y-144158690D01*
X179840000Y-144301547D01*
X179935238Y-144396785D01*
X180030476Y-144444404D01*
X180220952Y-144492023D01*
X180363809Y-144492023D01*
X180554285Y-144444404D01*
X180649523Y-144396785D01*
X180744761Y-144301547D01*
X180792380Y-144158690D01*
X180792380Y-144063452D01*
X180744761Y-143920595D01*
X180697142Y-143872976D01*
X180363809Y-143872976D01*
X180363809Y-144063452D01*
X180792380Y-143444404D02*
X179792380Y-143444404D01*
X180792380Y-142872976D01*
X179792380Y-142872976D01*
X180792380Y-142396785D02*
X179792380Y-142396785D01*
X179792380Y-142158690D01*
X179840000Y-142015833D01*
X179935238Y-141920595D01*
X180030476Y-141872976D01*
X180220952Y-141825357D01*
X180363809Y-141825357D01*
X180554285Y-141872976D01*
X180649523Y-141920595D01*
X180744761Y-142015833D01*
X180792380Y-142158690D01*
X180792380Y-142396785D01*
%TO.C,D1*%
X104290904Y-142764380D02*
X104290904Y-141764380D01*
X104529000Y-141764380D01*
X104671857Y-141812000D01*
X104767095Y-141907238D01*
X104814714Y-142002476D01*
X104862333Y-142192952D01*
X104862333Y-142335809D01*
X104814714Y-142526285D01*
X104767095Y-142621523D01*
X104671857Y-142716761D01*
X104529000Y-142764380D01*
X104290904Y-142764380D01*
X105814714Y-142764380D02*
X105243285Y-142764380D01*
X105529000Y-142764380D02*
X105529000Y-141764380D01*
X105433761Y-141907238D01*
X105338523Y-142002476D01*
X105243285Y-142050095D01*
%TO.C,C4*%
X104354333Y-149126142D02*
X104306714Y-149173761D01*
X104163857Y-149221380D01*
X104068619Y-149221380D01*
X103925761Y-149173761D01*
X103830523Y-149078523D01*
X103782904Y-148983285D01*
X103735285Y-148792809D01*
X103735285Y-148649952D01*
X103782904Y-148459476D01*
X103830523Y-148364238D01*
X103925761Y-148269000D01*
X104068619Y-148221380D01*
X104163857Y-148221380D01*
X104306714Y-148269000D01*
X104354333Y-148316619D01*
X105211476Y-148554714D02*
X105211476Y-149221380D01*
X104973380Y-148173761D02*
X104735285Y-148888047D01*
X105354333Y-148888047D01*
%TO.C,SW3*%
X117406666Y-94576666D02*
X117473333Y-94376666D01*
X117473333Y-94043333D01*
X117406666Y-93910000D01*
X117340000Y-93843333D01*
X117206666Y-93776666D01*
X117073333Y-93776666D01*
X116940000Y-93843333D01*
X116873333Y-93910000D01*
X116806666Y-94043333D01*
X116740000Y-94310000D01*
X116673333Y-94443333D01*
X116606666Y-94510000D01*
X116473333Y-94576666D01*
X116340000Y-94576666D01*
X116206666Y-94510000D01*
X116140000Y-94443333D01*
X116073333Y-94310000D01*
X116073333Y-93976666D01*
X116140000Y-93776666D01*
X116073333Y-93310000D02*
X117473333Y-92976666D01*
X116473333Y-92710000D01*
X117473333Y-92443333D01*
X116073333Y-92110000D01*
X116073333Y-91710000D02*
X116073333Y-90843333D01*
X116606666Y-91310000D01*
X116606666Y-91110000D01*
X116673333Y-90976666D01*
X116740000Y-90910000D01*
X116873333Y-90843333D01*
X117206666Y-90843333D01*
X117340000Y-90910000D01*
X117406666Y-90976666D01*
X117473333Y-91110000D01*
X117473333Y-91510000D01*
X117406666Y-91643333D01*
X117340000Y-91710000D01*
%TO.C,J6*%
X192833666Y-137350380D02*
X192833666Y-138064666D01*
X192786047Y-138207523D01*
X192690809Y-138302761D01*
X192547952Y-138350380D01*
X192452714Y-138350380D01*
X193738428Y-137350380D02*
X193547952Y-137350380D01*
X193452714Y-137398000D01*
X193405095Y-137445619D01*
X193309857Y-137588476D01*
X193262238Y-137778952D01*
X193262238Y-138159904D01*
X193309857Y-138255142D01*
X193357476Y-138302761D01*
X193452714Y-138350380D01*
X193643190Y-138350380D01*
X193738428Y-138302761D01*
X193786047Y-138255142D01*
X193833666Y-138159904D01*
X193833666Y-137921809D01*
X193786047Y-137826571D01*
X193738428Y-137778952D01*
X193643190Y-137731333D01*
X193452714Y-137731333D01*
X193357476Y-137778952D01*
X193309857Y-137826571D01*
X193262238Y-137921809D01*
X183904619Y-111966571D02*
X184237952Y-111966571D01*
X184380809Y-112490380D02*
X183904619Y-112490380D01*
X183904619Y-111490380D01*
X184380809Y-111490380D01*
X184714142Y-112490380D02*
X185237952Y-111823714D01*
X184714142Y-111823714D02*
X185237952Y-112490380D01*
X185618904Y-111823714D02*
X185618904Y-112823714D01*
X185618904Y-111871333D02*
X185714142Y-111823714D01*
X185904619Y-111823714D01*
X185999857Y-111871333D01*
X186047476Y-111918952D01*
X186095095Y-112014190D01*
X186095095Y-112299904D01*
X186047476Y-112395142D01*
X185999857Y-112442761D01*
X185904619Y-112490380D01*
X185714142Y-112490380D01*
X185618904Y-112442761D01*
X186952238Y-112490380D02*
X186952238Y-111966571D01*
X186904619Y-111871333D01*
X186809380Y-111823714D01*
X186618904Y-111823714D01*
X186523666Y-111871333D01*
X186952238Y-112442761D02*
X186857000Y-112490380D01*
X186618904Y-112490380D01*
X186523666Y-112442761D01*
X186476047Y-112347523D01*
X186476047Y-112252285D01*
X186523666Y-112157047D01*
X186618904Y-112109428D01*
X186857000Y-112109428D01*
X186952238Y-112061809D01*
X187428428Y-111823714D02*
X187428428Y-112490380D01*
X187428428Y-111918952D02*
X187476047Y-111871333D01*
X187571285Y-111823714D01*
X187714142Y-111823714D01*
X187809380Y-111871333D01*
X187857000Y-111966571D01*
X187857000Y-112490380D01*
X188285571Y-112442761D02*
X188380809Y-112490380D01*
X188571285Y-112490380D01*
X188666523Y-112442761D01*
X188714142Y-112347523D01*
X188714142Y-112299904D01*
X188666523Y-112204666D01*
X188571285Y-112157047D01*
X188428428Y-112157047D01*
X188333190Y-112109428D01*
X188285571Y-112014190D01*
X188285571Y-111966571D01*
X188333190Y-111871333D01*
X188428428Y-111823714D01*
X188571285Y-111823714D01*
X188666523Y-111871333D01*
X189142714Y-112490380D02*
X189142714Y-111823714D01*
X189142714Y-111490380D02*
X189095095Y-111538000D01*
X189142714Y-111585619D01*
X189190333Y-111538000D01*
X189142714Y-111490380D01*
X189142714Y-111585619D01*
X189761761Y-112490380D02*
X189666523Y-112442761D01*
X189618904Y-112395142D01*
X189571285Y-112299904D01*
X189571285Y-112014190D01*
X189618904Y-111918952D01*
X189666523Y-111871333D01*
X189761761Y-111823714D01*
X189904619Y-111823714D01*
X189999857Y-111871333D01*
X190047476Y-111918952D01*
X190095095Y-112014190D01*
X190095095Y-112299904D01*
X190047476Y-112395142D01*
X189999857Y-112442761D01*
X189904619Y-112490380D01*
X189761761Y-112490380D01*
X190523666Y-111823714D02*
X190523666Y-112490380D01*
X190523666Y-111918952D02*
X190571285Y-111871333D01*
X190666523Y-111823714D01*
X190809380Y-111823714D01*
X190904619Y-111871333D01*
X190952238Y-111966571D01*
X190952238Y-112490380D01*
X192190333Y-112490380D02*
X192190333Y-111490380D01*
X192571285Y-111490380D01*
X192666523Y-111538000D01*
X192714142Y-111585619D01*
X192761761Y-111680857D01*
X192761761Y-111823714D01*
X192714142Y-111918952D01*
X192666523Y-111966571D01*
X192571285Y-112014190D01*
X192190333Y-112014190D01*
X193333190Y-112490380D02*
X193237952Y-112442761D01*
X193190333Y-112395142D01*
X193142714Y-112299904D01*
X193142714Y-112014190D01*
X193190333Y-111918952D01*
X193237952Y-111871333D01*
X193333190Y-111823714D01*
X193476047Y-111823714D01*
X193571285Y-111871333D01*
X193618904Y-111918952D01*
X193666523Y-112014190D01*
X193666523Y-112299904D01*
X193618904Y-112395142D01*
X193571285Y-112442761D01*
X193476047Y-112490380D01*
X193333190Y-112490380D01*
X194095095Y-112490380D02*
X194095095Y-111823714D01*
X194095095Y-112014190D02*
X194142714Y-111918952D01*
X194190333Y-111871333D01*
X194285571Y-111823714D01*
X194380809Y-111823714D01*
X194571285Y-111823714D02*
X194952238Y-111823714D01*
X194714142Y-111490380D02*
X194714142Y-112347523D01*
X194761761Y-112442761D01*
X194857000Y-112490380D01*
X194952238Y-112490380D01*
X187549404Y-119388000D02*
X187454166Y-119340380D01*
X187311309Y-119340380D01*
X187168452Y-119388000D01*
X187073214Y-119483238D01*
X187025595Y-119578476D01*
X186977976Y-119768952D01*
X186977976Y-119911809D01*
X187025595Y-120102285D01*
X187073214Y-120197523D01*
X187168452Y-120292761D01*
X187311309Y-120340380D01*
X187406547Y-120340380D01*
X187549404Y-120292761D01*
X187597023Y-120245142D01*
X187597023Y-119911809D01*
X187406547Y-119911809D01*
X188025595Y-120340380D02*
X188025595Y-119340380D01*
X188406547Y-119340380D01*
X188501785Y-119388000D01*
X188549404Y-119435619D01*
X188597023Y-119530857D01*
X188597023Y-119673714D01*
X188549404Y-119768952D01*
X188501785Y-119816571D01*
X188406547Y-119864190D01*
X188025595Y-119864190D01*
X189025595Y-120340380D02*
X189025595Y-119340380D01*
X189692261Y-119340380D02*
X189882738Y-119340380D01*
X189977976Y-119388000D01*
X190073214Y-119483238D01*
X190120833Y-119673714D01*
X190120833Y-120007047D01*
X190073214Y-120197523D01*
X189977976Y-120292761D01*
X189882738Y-120340380D01*
X189692261Y-120340380D01*
X189597023Y-120292761D01*
X189501785Y-120197523D01*
X189454166Y-120007047D01*
X189454166Y-119673714D01*
X189501785Y-119483238D01*
X189597023Y-119388000D01*
X189692261Y-119340380D01*
X190692261Y-119768952D02*
X190597023Y-119721333D01*
X190549404Y-119673714D01*
X190501785Y-119578476D01*
X190501785Y-119530857D01*
X190549404Y-119435619D01*
X190597023Y-119388000D01*
X190692261Y-119340380D01*
X190882738Y-119340380D01*
X190977976Y-119388000D01*
X191025595Y-119435619D01*
X191073214Y-119530857D01*
X191073214Y-119578476D01*
X191025595Y-119673714D01*
X190977976Y-119721333D01*
X190882738Y-119768952D01*
X190692261Y-119768952D01*
X190597023Y-119816571D01*
X190549404Y-119864190D01*
X190501785Y-119959428D01*
X190501785Y-120149904D01*
X190549404Y-120245142D01*
X190597023Y-120292761D01*
X190692261Y-120340380D01*
X190882738Y-120340380D01*
X190977976Y-120292761D01*
X191025595Y-120245142D01*
X191073214Y-120149904D01*
X191073214Y-119959428D01*
X191025595Y-119864190D01*
X190977976Y-119816571D01*
X190882738Y-119768952D01*
X187549404Y-124595000D02*
X187454166Y-124547380D01*
X187311309Y-124547380D01*
X187168452Y-124595000D01*
X187073214Y-124690238D01*
X187025595Y-124785476D01*
X186977976Y-124975952D01*
X186977976Y-125118809D01*
X187025595Y-125309285D01*
X187073214Y-125404523D01*
X187168452Y-125499761D01*
X187311309Y-125547380D01*
X187406547Y-125547380D01*
X187549404Y-125499761D01*
X187597023Y-125452142D01*
X187597023Y-125118809D01*
X187406547Y-125118809D01*
X188025595Y-125547380D02*
X188025595Y-124547380D01*
X188406547Y-124547380D01*
X188501785Y-124595000D01*
X188549404Y-124642619D01*
X188597023Y-124737857D01*
X188597023Y-124880714D01*
X188549404Y-124975952D01*
X188501785Y-125023571D01*
X188406547Y-125071190D01*
X188025595Y-125071190D01*
X189025595Y-125547380D02*
X189025595Y-124547380D01*
X189692261Y-124547380D02*
X189882738Y-124547380D01*
X189977976Y-124595000D01*
X190073214Y-124690238D01*
X190120833Y-124880714D01*
X190120833Y-125214047D01*
X190073214Y-125404523D01*
X189977976Y-125499761D01*
X189882738Y-125547380D01*
X189692261Y-125547380D01*
X189597023Y-125499761D01*
X189501785Y-125404523D01*
X189454166Y-125214047D01*
X189454166Y-124880714D01*
X189501785Y-124690238D01*
X189597023Y-124595000D01*
X189692261Y-124547380D01*
X190977976Y-124547380D02*
X190787500Y-124547380D01*
X190692261Y-124595000D01*
X190644642Y-124642619D01*
X190549404Y-124785476D01*
X190501785Y-124975952D01*
X190501785Y-125356904D01*
X190549404Y-125452142D01*
X190597023Y-125499761D01*
X190692261Y-125547380D01*
X190882738Y-125547380D01*
X190977976Y-125499761D01*
X191025595Y-125452142D01*
X191073214Y-125356904D01*
X191073214Y-125118809D01*
X191025595Y-125023571D01*
X190977976Y-124975952D01*
X190882738Y-124928333D01*
X190692261Y-124928333D01*
X190597023Y-124975952D01*
X190549404Y-125023571D01*
X190501785Y-125118809D01*
X186660404Y-132215000D02*
X186565166Y-132167380D01*
X186422309Y-132167380D01*
X186279452Y-132215000D01*
X186184214Y-132310238D01*
X186136595Y-132405476D01*
X186088976Y-132595952D01*
X186088976Y-132738809D01*
X186136595Y-132929285D01*
X186184214Y-133024523D01*
X186279452Y-133119761D01*
X186422309Y-133167380D01*
X186517547Y-133167380D01*
X186660404Y-133119761D01*
X186708023Y-133072142D01*
X186708023Y-132738809D01*
X186517547Y-132738809D01*
X187136595Y-133167380D02*
X187136595Y-132167380D01*
X187517547Y-132167380D01*
X187612785Y-132215000D01*
X187660404Y-132262619D01*
X187708023Y-132357857D01*
X187708023Y-132500714D01*
X187660404Y-132595952D01*
X187612785Y-132643571D01*
X187517547Y-132691190D01*
X187136595Y-132691190D01*
X188136595Y-133167380D02*
X188136595Y-132167380D01*
X188803261Y-132167380D02*
X188993738Y-132167380D01*
X189088976Y-132215000D01*
X189184214Y-132310238D01*
X189231833Y-132500714D01*
X189231833Y-132834047D01*
X189184214Y-133024523D01*
X189088976Y-133119761D01*
X188993738Y-133167380D01*
X188803261Y-133167380D01*
X188708023Y-133119761D01*
X188612785Y-133024523D01*
X188565166Y-132834047D01*
X188565166Y-132500714D01*
X188612785Y-132310238D01*
X188708023Y-132215000D01*
X188803261Y-132167380D01*
X189612785Y-132262619D02*
X189660404Y-132215000D01*
X189755642Y-132167380D01*
X189993738Y-132167380D01*
X190088976Y-132215000D01*
X190136595Y-132262619D01*
X190184214Y-132357857D01*
X190184214Y-132453095D01*
X190136595Y-132595952D01*
X189565166Y-133167380D01*
X190184214Y-133167380D01*
X190755642Y-132595952D02*
X190660404Y-132548333D01*
X190612785Y-132500714D01*
X190565166Y-132405476D01*
X190565166Y-132357857D01*
X190612785Y-132262619D01*
X190660404Y-132215000D01*
X190755642Y-132167380D01*
X190946119Y-132167380D01*
X191041357Y-132215000D01*
X191088976Y-132262619D01*
X191136595Y-132357857D01*
X191136595Y-132405476D01*
X191088976Y-132500714D01*
X191041357Y-132548333D01*
X190946119Y-132595952D01*
X190755642Y-132595952D01*
X190660404Y-132643571D01*
X190612785Y-132691190D01*
X190565166Y-132786428D01*
X190565166Y-132976904D01*
X190612785Y-133072142D01*
X190660404Y-133119761D01*
X190755642Y-133167380D01*
X190946119Y-133167380D01*
X191041357Y-133119761D01*
X191088976Y-133072142D01*
X191136595Y-132976904D01*
X191136595Y-132786428D01*
X191088976Y-132691190D01*
X191041357Y-132643571D01*
X190946119Y-132595952D01*
X187549404Y-116848000D02*
X187454166Y-116800380D01*
X187311309Y-116800380D01*
X187168452Y-116848000D01*
X187073214Y-116943238D01*
X187025595Y-117038476D01*
X186977976Y-117228952D01*
X186977976Y-117371809D01*
X187025595Y-117562285D01*
X187073214Y-117657523D01*
X187168452Y-117752761D01*
X187311309Y-117800380D01*
X187406547Y-117800380D01*
X187549404Y-117752761D01*
X187597023Y-117705142D01*
X187597023Y-117371809D01*
X187406547Y-117371809D01*
X188025595Y-117800380D02*
X188025595Y-116800380D01*
X188406547Y-116800380D01*
X188501785Y-116848000D01*
X188549404Y-116895619D01*
X188597023Y-116990857D01*
X188597023Y-117133714D01*
X188549404Y-117228952D01*
X188501785Y-117276571D01*
X188406547Y-117324190D01*
X188025595Y-117324190D01*
X189025595Y-117800380D02*
X189025595Y-116800380D01*
X189692261Y-116800380D02*
X189882738Y-116800380D01*
X189977976Y-116848000D01*
X190073214Y-116943238D01*
X190120833Y-117133714D01*
X190120833Y-117467047D01*
X190073214Y-117657523D01*
X189977976Y-117752761D01*
X189882738Y-117800380D01*
X189692261Y-117800380D01*
X189597023Y-117752761D01*
X189501785Y-117657523D01*
X189454166Y-117467047D01*
X189454166Y-117133714D01*
X189501785Y-116943238D01*
X189597023Y-116848000D01*
X189692261Y-116800380D01*
X190597023Y-117800380D02*
X190787500Y-117800380D01*
X190882738Y-117752761D01*
X190930357Y-117705142D01*
X191025595Y-117562285D01*
X191073214Y-117371809D01*
X191073214Y-116990857D01*
X191025595Y-116895619D01*
X190977976Y-116848000D01*
X190882738Y-116800380D01*
X190692261Y-116800380D01*
X190597023Y-116848000D01*
X190549404Y-116895619D01*
X190501785Y-116990857D01*
X190501785Y-117228952D01*
X190549404Y-117324190D01*
X190597023Y-117371809D01*
X190692261Y-117419428D01*
X190882738Y-117419428D01*
X190977976Y-117371809D01*
X191025595Y-117324190D01*
X191073214Y-117228952D01*
X187279595Y-114752428D02*
X188041500Y-114752428D01*
X187660547Y-115133380D02*
X187660547Y-114371476D01*
X188422452Y-114133380D02*
X189041500Y-114133380D01*
X188708166Y-114514333D01*
X188851023Y-114514333D01*
X188946261Y-114561952D01*
X188993880Y-114609571D01*
X189041500Y-114704809D01*
X189041500Y-114942904D01*
X188993880Y-115038142D01*
X188946261Y-115085761D01*
X188851023Y-115133380D01*
X188565309Y-115133380D01*
X188470071Y-115085761D01*
X188422452Y-115038142D01*
X189327214Y-114133380D02*
X189660547Y-115133380D01*
X189993880Y-114133380D01*
X190231976Y-114133380D02*
X190851023Y-114133380D01*
X190517690Y-114514333D01*
X190660547Y-114514333D01*
X190755785Y-114561952D01*
X190803404Y-114609571D01*
X190851023Y-114704809D01*
X190851023Y-114942904D01*
X190803404Y-115038142D01*
X190755785Y-115085761D01*
X190660547Y-115133380D01*
X190374833Y-115133380D01*
X190279595Y-115085761D01*
X190231976Y-115038142D01*
X187549404Y-127008000D02*
X187454166Y-126960380D01*
X187311309Y-126960380D01*
X187168452Y-127008000D01*
X187073214Y-127103238D01*
X187025595Y-127198476D01*
X186977976Y-127388952D01*
X186977976Y-127531809D01*
X187025595Y-127722285D01*
X187073214Y-127817523D01*
X187168452Y-127912761D01*
X187311309Y-127960380D01*
X187406547Y-127960380D01*
X187549404Y-127912761D01*
X187597023Y-127865142D01*
X187597023Y-127531809D01*
X187406547Y-127531809D01*
X188025595Y-127960380D02*
X188025595Y-126960380D01*
X188406547Y-126960380D01*
X188501785Y-127008000D01*
X188549404Y-127055619D01*
X188597023Y-127150857D01*
X188597023Y-127293714D01*
X188549404Y-127388952D01*
X188501785Y-127436571D01*
X188406547Y-127484190D01*
X188025595Y-127484190D01*
X189025595Y-127960380D02*
X189025595Y-126960380D01*
X189692261Y-126960380D02*
X189882738Y-126960380D01*
X189977976Y-127008000D01*
X190073214Y-127103238D01*
X190120833Y-127293714D01*
X190120833Y-127627047D01*
X190073214Y-127817523D01*
X189977976Y-127912761D01*
X189882738Y-127960380D01*
X189692261Y-127960380D01*
X189597023Y-127912761D01*
X189501785Y-127817523D01*
X189454166Y-127627047D01*
X189454166Y-127293714D01*
X189501785Y-127103238D01*
X189597023Y-127008000D01*
X189692261Y-126960380D01*
X190454166Y-126960380D02*
X191073214Y-126960380D01*
X190739880Y-127341333D01*
X190882738Y-127341333D01*
X190977976Y-127388952D01*
X191025595Y-127436571D01*
X191073214Y-127531809D01*
X191073214Y-127769904D01*
X191025595Y-127865142D01*
X190977976Y-127912761D01*
X190882738Y-127960380D01*
X190597023Y-127960380D01*
X190501785Y-127912761D01*
X190454166Y-127865142D01*
X187549404Y-122055000D02*
X187454166Y-122007380D01*
X187311309Y-122007380D01*
X187168452Y-122055000D01*
X187073214Y-122150238D01*
X187025595Y-122245476D01*
X186977976Y-122435952D01*
X186977976Y-122578809D01*
X187025595Y-122769285D01*
X187073214Y-122864523D01*
X187168452Y-122959761D01*
X187311309Y-123007380D01*
X187406547Y-123007380D01*
X187549404Y-122959761D01*
X187597023Y-122912142D01*
X187597023Y-122578809D01*
X187406547Y-122578809D01*
X188025595Y-123007380D02*
X188025595Y-122007380D01*
X188406547Y-122007380D01*
X188501785Y-122055000D01*
X188549404Y-122102619D01*
X188597023Y-122197857D01*
X188597023Y-122340714D01*
X188549404Y-122435952D01*
X188501785Y-122483571D01*
X188406547Y-122531190D01*
X188025595Y-122531190D01*
X189025595Y-123007380D02*
X189025595Y-122007380D01*
X189692261Y-122007380D02*
X189882738Y-122007380D01*
X189977976Y-122055000D01*
X190073214Y-122150238D01*
X190120833Y-122340714D01*
X190120833Y-122674047D01*
X190073214Y-122864523D01*
X189977976Y-122959761D01*
X189882738Y-123007380D01*
X189692261Y-123007380D01*
X189597023Y-122959761D01*
X189501785Y-122864523D01*
X189454166Y-122674047D01*
X189454166Y-122340714D01*
X189501785Y-122150238D01*
X189597023Y-122055000D01*
X189692261Y-122007380D01*
X190454166Y-122007380D02*
X191120833Y-122007380D01*
X190692261Y-123007380D01*
X187549404Y-129548000D02*
X187454166Y-129500380D01*
X187311309Y-129500380D01*
X187168452Y-129548000D01*
X187073214Y-129643238D01*
X187025595Y-129738476D01*
X186977976Y-129928952D01*
X186977976Y-130071809D01*
X187025595Y-130262285D01*
X187073214Y-130357523D01*
X187168452Y-130452761D01*
X187311309Y-130500380D01*
X187406547Y-130500380D01*
X187549404Y-130452761D01*
X187597023Y-130405142D01*
X187597023Y-130071809D01*
X187406547Y-130071809D01*
X188025595Y-130500380D02*
X188025595Y-129500380D01*
X188406547Y-129500380D01*
X188501785Y-129548000D01*
X188549404Y-129595619D01*
X188597023Y-129690857D01*
X188597023Y-129833714D01*
X188549404Y-129928952D01*
X188501785Y-129976571D01*
X188406547Y-130024190D01*
X188025595Y-130024190D01*
X189025595Y-130500380D02*
X189025595Y-129500380D01*
X189692261Y-129500380D02*
X189882738Y-129500380D01*
X189977976Y-129548000D01*
X190073214Y-129643238D01*
X190120833Y-129833714D01*
X190120833Y-130167047D01*
X190073214Y-130357523D01*
X189977976Y-130452761D01*
X189882738Y-130500380D01*
X189692261Y-130500380D01*
X189597023Y-130452761D01*
X189501785Y-130357523D01*
X189454166Y-130167047D01*
X189454166Y-129833714D01*
X189501785Y-129643238D01*
X189597023Y-129548000D01*
X189692261Y-129500380D01*
X190501785Y-129595619D02*
X190549404Y-129548000D01*
X190644642Y-129500380D01*
X190882738Y-129500380D01*
X190977976Y-129548000D01*
X191025595Y-129595619D01*
X191073214Y-129690857D01*
X191073214Y-129786095D01*
X191025595Y-129928952D01*
X190454166Y-130500380D01*
X191073214Y-130500380D01*
X188438404Y-134501000D02*
X188343166Y-134453380D01*
X188200309Y-134453380D01*
X188057452Y-134501000D01*
X187962214Y-134596238D01*
X187914595Y-134691476D01*
X187866976Y-134881952D01*
X187866976Y-135024809D01*
X187914595Y-135215285D01*
X187962214Y-135310523D01*
X188057452Y-135405761D01*
X188200309Y-135453380D01*
X188295547Y-135453380D01*
X188438404Y-135405761D01*
X188486023Y-135358142D01*
X188486023Y-135024809D01*
X188295547Y-135024809D01*
X188914595Y-135453380D02*
X188914595Y-134453380D01*
X189486023Y-135453380D01*
X189486023Y-134453380D01*
X189962214Y-135453380D02*
X189962214Y-134453380D01*
X190200309Y-134453380D01*
X190343166Y-134501000D01*
X190438404Y-134596238D01*
X190486023Y-134691476D01*
X190533642Y-134881952D01*
X190533642Y-135024809D01*
X190486023Y-135215285D01*
X190438404Y-135310523D01*
X190343166Y-135405761D01*
X190200309Y-135453380D01*
X189962214Y-135453380D01*
%TO.C,U2*%
X146558095Y-123912380D02*
X146558095Y-124721904D01*
X146605714Y-124817142D01*
X146653333Y-124864761D01*
X146748571Y-124912380D01*
X146939047Y-124912380D01*
X147034285Y-124864761D01*
X147081904Y-124817142D01*
X147129523Y-124721904D01*
X147129523Y-123912380D01*
X147558095Y-124007619D02*
X147605714Y-123960000D01*
X147700952Y-123912380D01*
X147939047Y-123912380D01*
X148034285Y-123960000D01*
X148081904Y-124007619D01*
X148129523Y-124102857D01*
X148129523Y-124198095D01*
X148081904Y-124340952D01*
X147510476Y-124912380D01*
X148129523Y-124912380D01*
X133409847Y-138750592D02*
X133760033Y-138400406D01*
X133786971Y-138804467D01*
X133867783Y-138723654D01*
X133948595Y-138696717D01*
X134002470Y-138696717D01*
X134083282Y-138723654D01*
X134217969Y-138858341D01*
X134244906Y-138939154D01*
X134244906Y-138993028D01*
X134217969Y-139073841D01*
X134056345Y-139235465D01*
X133975532Y-139262402D01*
X133921658Y-139262402D01*
X133921658Y-138238781D02*
X134675905Y-138615905D01*
X134298781Y-137861658D01*
X134433468Y-137726971D02*
X134783654Y-137376784D01*
X134810592Y-137780845D01*
X134891404Y-137700033D01*
X134972216Y-137673096D01*
X135026091Y-137673096D01*
X135106903Y-137700033D01*
X135241590Y-137834720D01*
X135268528Y-137915532D01*
X135268528Y-137969407D01*
X135241590Y-138050219D01*
X135079966Y-138211844D01*
X134999154Y-138238781D01*
X134945279Y-138238781D01*
X151210476Y-98583809D02*
X151324761Y-98621904D01*
X151515238Y-98621904D01*
X151591428Y-98583809D01*
X151629523Y-98545714D01*
X151667619Y-98469523D01*
X151667619Y-98393333D01*
X151629523Y-98317142D01*
X151591428Y-98279047D01*
X151515238Y-98240952D01*
X151362857Y-98202857D01*
X151286666Y-98164761D01*
X151248571Y-98126666D01*
X151210476Y-98050476D01*
X151210476Y-97974285D01*
X151248571Y-97898095D01*
X151286666Y-97860000D01*
X151362857Y-97821904D01*
X151553333Y-97821904D01*
X151667619Y-97860000D01*
X151934285Y-97821904D02*
X152124761Y-98621904D01*
X152277142Y-98050476D01*
X152429523Y-98621904D01*
X152620000Y-97821904D01*
X153381904Y-98545714D02*
X153343809Y-98583809D01*
X153229523Y-98621904D01*
X153153333Y-98621904D01*
X153039047Y-98583809D01*
X152962857Y-98507619D01*
X152924761Y-98431428D01*
X152886666Y-98279047D01*
X152886666Y-98164761D01*
X152924761Y-98012380D01*
X152962857Y-97936190D01*
X153039047Y-97860000D01*
X153153333Y-97821904D01*
X153229523Y-97821904D01*
X153343809Y-97860000D01*
X153381904Y-97898095D01*
X154105714Y-98621904D02*
X153724761Y-98621904D01*
X153724761Y-97821904D01*
X154372380Y-98621904D02*
X154372380Y-97821904D01*
X154829523Y-98621904D02*
X154486666Y-98164761D01*
X154829523Y-97821904D02*
X154372380Y-98279047D01*
X133806158Y-118258155D02*
X133725346Y-118285093D01*
X133644534Y-118365905D01*
X133590659Y-118473654D01*
X133590659Y-118581404D01*
X133617597Y-118662216D01*
X133698409Y-118796903D01*
X133779221Y-118877715D01*
X133913908Y-118958528D01*
X133994720Y-118985465D01*
X134102470Y-118985465D01*
X134210219Y-118931590D01*
X134264094Y-118877715D01*
X134317969Y-118769966D01*
X134317969Y-118716091D01*
X134129407Y-118527529D01*
X134021658Y-118635279D01*
X134614280Y-118527529D02*
X134048595Y-117961844D01*
X134937529Y-118204280D01*
X134371844Y-117638595D01*
X135206903Y-117934906D02*
X134641218Y-117369221D01*
X134775905Y-117234534D01*
X134883654Y-117180659D01*
X134991404Y-117180659D01*
X135072216Y-117207597D01*
X135206903Y-117288409D01*
X135287715Y-117369221D01*
X135368528Y-117503908D01*
X135395465Y-117584720D01*
X135395465Y-117692470D01*
X135341590Y-117800219D01*
X135206903Y-117934906D01*
X159417722Y-108340592D02*
X159336910Y-108367529D01*
X159256097Y-108448341D01*
X159202223Y-108556091D01*
X159202223Y-108663841D01*
X159229160Y-108744653D01*
X159309972Y-108879340D01*
X159390784Y-108960152D01*
X159525471Y-109040964D01*
X159606284Y-109067902D01*
X159714033Y-109067902D01*
X159821783Y-109014027D01*
X159875658Y-108960152D01*
X159929532Y-108852402D01*
X159929532Y-108798528D01*
X159740971Y-108609966D01*
X159633221Y-108717715D01*
X160225844Y-108609966D02*
X159660158Y-108044280D01*
X159875658Y-107828781D01*
X159956470Y-107801844D01*
X160010345Y-107801844D01*
X160091157Y-107828781D01*
X160171969Y-107909593D01*
X160198906Y-107990406D01*
X160198906Y-108044280D01*
X160171969Y-108125093D01*
X159956470Y-108340592D01*
X161087841Y-107747969D02*
X160764592Y-108071218D01*
X160926216Y-107909593D02*
X160360531Y-107343908D01*
X160387468Y-107478595D01*
X160387468Y-107586345D01*
X160360531Y-107667157D01*
X160710717Y-106993722D02*
X161060903Y-106643536D01*
X161087841Y-107047597D01*
X161168653Y-106966784D01*
X161249465Y-106939847D01*
X161303340Y-106939847D01*
X161384152Y-106966784D01*
X161518839Y-107101471D01*
X161545776Y-107182284D01*
X161545776Y-107236158D01*
X161518839Y-107316971D01*
X161357215Y-107478595D01*
X161276402Y-107505532D01*
X161222528Y-107505532D01*
X159333096Y-125881218D02*
X159252284Y-125908155D01*
X159171471Y-125988967D01*
X159117597Y-126096717D01*
X159117597Y-126204467D01*
X159144534Y-126285279D01*
X159225346Y-126419966D01*
X159306158Y-126500778D01*
X159440845Y-126581590D01*
X159521658Y-126608528D01*
X159629407Y-126608528D01*
X159737157Y-126554653D01*
X159791032Y-126500778D01*
X159844906Y-126393028D01*
X159844906Y-126339154D01*
X159656345Y-126150592D01*
X159548595Y-126258341D01*
X160141218Y-126150592D02*
X159575532Y-125584906D01*
X159791032Y-125369407D01*
X159871844Y-125342470D01*
X159925719Y-125342470D01*
X160006531Y-125369407D01*
X160087343Y-125450219D01*
X160114280Y-125531032D01*
X160114280Y-125584906D01*
X160087343Y-125665719D01*
X159871844Y-125881218D01*
X160087343Y-125073096D02*
X160464467Y-124695972D01*
X160787715Y-125504094D01*
X159563722Y-113420592D02*
X159482910Y-113447529D01*
X159402097Y-113528341D01*
X159348223Y-113636091D01*
X159348223Y-113743841D01*
X159375160Y-113824653D01*
X159455972Y-113959340D01*
X159536784Y-114040152D01*
X159671471Y-114120964D01*
X159752284Y-114147902D01*
X159860033Y-114147902D01*
X159967783Y-114094027D01*
X160021658Y-114040152D01*
X160075532Y-113932402D01*
X160075532Y-113878528D01*
X159886971Y-113689966D01*
X159779221Y-113797715D01*
X160371844Y-113689966D02*
X159806158Y-113124280D01*
X160021658Y-112908781D01*
X160102470Y-112881844D01*
X160156345Y-112881844D01*
X160237157Y-112908781D01*
X160317969Y-112989593D01*
X160344906Y-113070406D01*
X160344906Y-113124280D01*
X160317969Y-113205093D01*
X160102470Y-113420592D01*
X161233841Y-112827969D02*
X160910592Y-113151218D01*
X161072216Y-112989593D02*
X160506531Y-112423908D01*
X160533468Y-112558595D01*
X160533468Y-112666345D01*
X160506531Y-112747157D01*
X161772589Y-112289221D02*
X161449340Y-112612470D01*
X161610964Y-112450845D02*
X161045279Y-111885160D01*
X161072216Y-112019847D01*
X161072216Y-112127597D01*
X161045279Y-112208409D01*
X159433096Y-138551218D02*
X159352284Y-138578155D01*
X159271471Y-138658967D01*
X159217597Y-138766717D01*
X159217597Y-138874467D01*
X159244534Y-138955279D01*
X159325346Y-139089966D01*
X159406158Y-139170778D01*
X159540845Y-139251590D01*
X159621658Y-139278528D01*
X159729407Y-139278528D01*
X159837157Y-139224653D01*
X159891032Y-139170778D01*
X159944906Y-139063028D01*
X159944906Y-139009154D01*
X159756345Y-138820592D01*
X159648595Y-138928341D01*
X160241218Y-138820592D02*
X159675532Y-138254906D01*
X159891032Y-138039407D01*
X159971844Y-138012470D01*
X160025719Y-138012470D01*
X160106531Y-138039407D01*
X160187343Y-138120219D01*
X160214280Y-138201032D01*
X160214280Y-138254906D01*
X160187343Y-138335719D01*
X159971844Y-138551218D01*
X160187343Y-137743096D02*
X160537529Y-137392910D01*
X160564467Y-137796971D01*
X160645279Y-137716158D01*
X160726091Y-137689221D01*
X160779966Y-137689221D01*
X160860778Y-137716158D01*
X160995465Y-137850845D01*
X161022402Y-137931658D01*
X161022402Y-137985532D01*
X160995465Y-138066345D01*
X160833841Y-138227969D01*
X160753028Y-138254906D01*
X160699154Y-138254906D01*
X159406158Y-130958155D02*
X159325346Y-130985093D01*
X159244534Y-131065905D01*
X159190659Y-131173654D01*
X159190659Y-131281404D01*
X159217597Y-131362216D01*
X159298409Y-131496903D01*
X159379221Y-131577715D01*
X159513908Y-131658528D01*
X159594720Y-131685465D01*
X159702470Y-131685465D01*
X159810219Y-131631590D01*
X159864094Y-131577715D01*
X159917969Y-131469966D01*
X159917969Y-131416091D01*
X159729407Y-131227529D01*
X159621658Y-131335279D01*
X160214280Y-131227529D02*
X159648595Y-130661844D01*
X160537529Y-130904280D01*
X159971844Y-130338595D01*
X160806903Y-130634906D02*
X160241218Y-130069221D01*
X160375905Y-129934534D01*
X160483654Y-129880659D01*
X160591404Y-129880659D01*
X160672216Y-129907597D01*
X160806903Y-129988409D01*
X160887715Y-130069221D01*
X160968528Y-130203908D01*
X160995465Y-130284720D01*
X160995465Y-130392470D01*
X160941590Y-130500219D01*
X160806903Y-130634906D01*
X133309722Y-113420592D02*
X133228910Y-113447529D01*
X133148097Y-113528341D01*
X133094223Y-113636091D01*
X133094223Y-113743841D01*
X133121160Y-113824653D01*
X133201972Y-113959340D01*
X133282784Y-114040152D01*
X133417471Y-114120964D01*
X133498284Y-114147902D01*
X133606033Y-114147902D01*
X133713783Y-114094027D01*
X133767658Y-114040152D01*
X133821532Y-113932402D01*
X133821532Y-113878528D01*
X133632971Y-113689966D01*
X133525221Y-113797715D01*
X134117844Y-113689966D02*
X133552158Y-113124280D01*
X133767658Y-112908781D01*
X133848470Y-112881844D01*
X133902345Y-112881844D01*
X133983157Y-112908781D01*
X134063969Y-112989593D01*
X134090906Y-113070406D01*
X134090906Y-113124280D01*
X134063969Y-113205093D01*
X133848470Y-113420592D01*
X134144781Y-112639407D02*
X134144781Y-112585532D01*
X134171719Y-112504720D01*
X134306406Y-112370033D01*
X134387218Y-112343096D01*
X134441093Y-112343096D01*
X134521905Y-112370033D01*
X134575780Y-112423908D01*
X134629654Y-112531658D01*
X134629654Y-113178155D01*
X134979841Y-112827969D01*
X134764341Y-111912097D02*
X134818216Y-111858223D01*
X134899028Y-111831285D01*
X134952903Y-111831285D01*
X135033715Y-111858223D01*
X135168402Y-111939035D01*
X135303089Y-112073722D01*
X135383902Y-112208409D01*
X135410839Y-112289221D01*
X135410839Y-112343096D01*
X135383902Y-112423908D01*
X135330027Y-112477783D01*
X135249215Y-112504720D01*
X135195340Y-112504720D01*
X135114528Y-112477783D01*
X134979841Y-112396971D01*
X134845154Y-112262284D01*
X134764341Y-112127597D01*
X134737404Y-112046784D01*
X134737404Y-111992910D01*
X134764341Y-111912097D01*
X159463722Y-103260592D02*
X159382910Y-103287529D01*
X159302097Y-103368341D01*
X159248223Y-103476091D01*
X159248223Y-103583841D01*
X159275160Y-103664653D01*
X159355972Y-103799340D01*
X159436784Y-103880152D01*
X159571471Y-103960964D01*
X159652284Y-103987902D01*
X159760033Y-103987902D01*
X159867783Y-103934027D01*
X159921658Y-103880152D01*
X159975532Y-103772402D01*
X159975532Y-103718528D01*
X159786971Y-103529966D01*
X159679221Y-103637715D01*
X160271844Y-103529966D02*
X159706158Y-102964280D01*
X159921658Y-102748781D01*
X160002470Y-102721844D01*
X160056345Y-102721844D01*
X160137157Y-102748781D01*
X160217969Y-102829593D01*
X160244906Y-102910406D01*
X160244906Y-102964280D01*
X160217969Y-103045093D01*
X160002470Y-103260592D01*
X161133841Y-102667969D02*
X160810592Y-102991218D01*
X160972216Y-102829593D02*
X160406531Y-102263908D01*
X160433468Y-102398595D01*
X160433468Y-102506345D01*
X160406531Y-102587157D01*
X161241590Y-101805972D02*
X161618714Y-102183096D01*
X160891404Y-101725160D02*
X161160778Y-102263908D01*
X161510964Y-101913722D01*
X159533096Y-146181218D02*
X159452284Y-146208155D01*
X159371471Y-146288967D01*
X159317597Y-146396717D01*
X159317597Y-146504467D01*
X159344534Y-146585279D01*
X159425346Y-146719966D01*
X159506158Y-146800778D01*
X159640845Y-146881590D01*
X159721658Y-146908528D01*
X159829407Y-146908528D01*
X159937157Y-146854653D01*
X159991032Y-146800778D01*
X160044906Y-146693028D01*
X160044906Y-146639154D01*
X159856345Y-146450592D01*
X159748595Y-146558341D01*
X160341218Y-146450592D02*
X159775532Y-145884906D01*
X159991032Y-145669407D01*
X160071844Y-145642470D01*
X160125719Y-145642470D01*
X160206531Y-145669407D01*
X160287343Y-145750219D01*
X160314280Y-145831032D01*
X160314280Y-145884906D01*
X160287343Y-145965719D01*
X160071844Y-146181218D01*
X161203215Y-145588595D02*
X160879966Y-145911844D01*
X161041590Y-145750219D02*
X160475905Y-145184534D01*
X160502842Y-145319221D01*
X160502842Y-145426971D01*
X160475905Y-145507783D01*
X131842131Y-142818308D02*
X132192317Y-142468122D01*
X132219255Y-142872183D01*
X132300067Y-142791370D01*
X132380879Y-142764433D01*
X132434754Y-142764433D01*
X132515566Y-142791370D01*
X132650253Y-142926057D01*
X132677190Y-143006870D01*
X132677190Y-143060744D01*
X132650253Y-143141557D01*
X132488629Y-143303181D01*
X132407816Y-143330118D01*
X132353942Y-143330118D01*
X132353942Y-142306497D02*
X133108189Y-142683621D01*
X132731065Y-141929374D01*
X132865752Y-141794687D02*
X133215938Y-141444500D01*
X133242876Y-141848561D01*
X133323688Y-141767749D01*
X133404500Y-141740812D01*
X133458375Y-141740812D01*
X133539187Y-141767749D01*
X133673874Y-141902436D01*
X133700812Y-141983248D01*
X133700812Y-142037123D01*
X133673874Y-142117935D01*
X133512250Y-142279560D01*
X133431438Y-142306497D01*
X133377563Y-142306497D01*
X133943248Y-141956311D02*
X134374247Y-141525312D01*
X134158748Y-141040439D02*
X134347309Y-140851877D01*
X134724433Y-141067377D02*
X134455059Y-141336751D01*
X133889374Y-140771065D01*
X134158748Y-140501691D01*
X134966870Y-140824940D02*
X134401184Y-140259255D01*
X135290118Y-140501691D01*
X134724433Y-139936006D01*
X159433096Y-123311218D02*
X159352284Y-123338155D01*
X159271471Y-123418967D01*
X159217597Y-123526717D01*
X159217597Y-123634467D01*
X159244534Y-123715279D01*
X159325346Y-123849966D01*
X159406158Y-123930778D01*
X159540845Y-124011590D01*
X159621658Y-124038528D01*
X159729407Y-124038528D01*
X159837157Y-123984653D01*
X159891032Y-123930778D01*
X159944906Y-123823028D01*
X159944906Y-123769154D01*
X159756345Y-123580592D01*
X159648595Y-123688341D01*
X160241218Y-123580592D02*
X159675532Y-123014906D01*
X159891032Y-122799407D01*
X159971844Y-122772470D01*
X160025719Y-122772470D01*
X160106531Y-122799407D01*
X160187343Y-122880219D01*
X160214280Y-122961032D01*
X160214280Y-123014906D01*
X160187343Y-123095719D01*
X159971844Y-123311218D01*
X160564467Y-122610845D02*
X160483654Y-122637783D01*
X160429780Y-122637783D01*
X160348967Y-122610845D01*
X160322030Y-122583908D01*
X160295093Y-122503096D01*
X160295093Y-122449221D01*
X160322030Y-122368409D01*
X160429780Y-122260659D01*
X160510592Y-122233722D01*
X160564467Y-122233722D01*
X160645279Y-122260659D01*
X160672216Y-122287597D01*
X160699154Y-122368409D01*
X160699154Y-122422284D01*
X160672216Y-122503096D01*
X160564467Y-122610845D01*
X160537529Y-122691658D01*
X160537529Y-122745532D01*
X160564467Y-122826345D01*
X160672216Y-122934094D01*
X160753028Y-122961032D01*
X160806903Y-122961032D01*
X160887715Y-122934094D01*
X160995465Y-122826345D01*
X161022402Y-122745532D01*
X161022402Y-122691658D01*
X160995465Y-122610845D01*
X160887715Y-122503096D01*
X160806903Y-122476158D01*
X160753028Y-122476158D01*
X160672216Y-122503096D01*
X159406158Y-143658155D02*
X159325346Y-143685093D01*
X159244534Y-143765905D01*
X159190659Y-143873654D01*
X159190659Y-143981404D01*
X159217597Y-144062216D01*
X159298409Y-144196903D01*
X159379221Y-144277715D01*
X159513908Y-144358528D01*
X159594720Y-144385465D01*
X159702470Y-144385465D01*
X159810219Y-144331590D01*
X159864094Y-144277715D01*
X159917969Y-144169966D01*
X159917969Y-144116091D01*
X159729407Y-143927529D01*
X159621658Y-144035279D01*
X160214280Y-143927529D02*
X159648595Y-143361844D01*
X160537529Y-143604280D01*
X159971844Y-143038595D01*
X160806903Y-143334906D02*
X160241218Y-142769221D01*
X160375905Y-142634534D01*
X160483654Y-142580659D01*
X160591404Y-142580659D01*
X160672216Y-142607597D01*
X160806903Y-142688409D01*
X160887715Y-142769221D01*
X160968528Y-142903908D01*
X160995465Y-142984720D01*
X160995465Y-143092470D01*
X160941590Y-143200219D01*
X160806903Y-143334906D01*
X132673129Y-149387309D02*
X133427377Y-149764433D01*
X133050253Y-149010186D01*
X133696751Y-148902436D02*
X133804500Y-148848561D01*
X133858375Y-148848561D01*
X133939187Y-148875499D01*
X134020000Y-148956311D01*
X134046937Y-149037123D01*
X134046937Y-149090998D01*
X134020000Y-149171810D01*
X133804500Y-149387309D01*
X133238815Y-148821624D01*
X133427377Y-148633062D01*
X133508189Y-148606125D01*
X133562064Y-148606125D01*
X133642876Y-148633062D01*
X133696751Y-148686937D01*
X133723688Y-148767749D01*
X133723688Y-148821624D01*
X133696751Y-148902436D01*
X133508189Y-149090998D01*
X133804500Y-148255938D02*
X134262436Y-148713874D01*
X134343248Y-148740812D01*
X134397123Y-148740812D01*
X134477935Y-148713874D01*
X134585685Y-148606125D01*
X134612622Y-148525312D01*
X134612622Y-148471438D01*
X134585685Y-148390625D01*
X134127749Y-147932690D01*
X134908934Y-148229001D02*
X135016683Y-148175126D01*
X135151370Y-148040439D01*
X135178308Y-147959627D01*
X135178308Y-147905752D01*
X135151370Y-147824940D01*
X135097496Y-147771065D01*
X135016683Y-147744128D01*
X134962809Y-147744128D01*
X134881996Y-147771065D01*
X134747309Y-147851877D01*
X134666497Y-147878815D01*
X134612622Y-147878815D01*
X134531810Y-147851877D01*
X134477935Y-147798003D01*
X134450998Y-147717190D01*
X134450998Y-147663316D01*
X134477935Y-147582503D01*
X134612622Y-147447816D01*
X134720372Y-147393942D01*
X133309722Y-133994592D02*
X133228910Y-134021529D01*
X133148097Y-134102341D01*
X133094223Y-134210091D01*
X133094223Y-134317841D01*
X133121160Y-134398653D01*
X133201972Y-134533340D01*
X133282784Y-134614152D01*
X133417471Y-134694964D01*
X133498284Y-134721902D01*
X133606033Y-134721902D01*
X133713783Y-134668027D01*
X133767658Y-134614152D01*
X133821532Y-134506402D01*
X133821532Y-134452528D01*
X133632971Y-134263966D01*
X133525221Y-134371715D01*
X134117844Y-134263966D02*
X133552158Y-133698280D01*
X133767658Y-133482781D01*
X133848470Y-133455844D01*
X133902345Y-133455844D01*
X133983157Y-133482781D01*
X134063969Y-133563593D01*
X134090906Y-133644406D01*
X134090906Y-133698280D01*
X134063969Y-133779093D01*
X133848470Y-133994592D01*
X134144781Y-133213407D02*
X134144781Y-133159532D01*
X134171719Y-133078720D01*
X134306406Y-132944033D01*
X134387218Y-132917096D01*
X134441093Y-132917096D01*
X134521905Y-132944033D01*
X134575780Y-132997908D01*
X134629654Y-133105658D01*
X134629654Y-133752155D01*
X134979841Y-133401969D01*
X134979841Y-132755471D02*
X134899028Y-132782409D01*
X134845154Y-132782409D01*
X134764341Y-132755471D01*
X134737404Y-132728534D01*
X134710467Y-132647722D01*
X134710467Y-132593847D01*
X134737404Y-132513035D01*
X134845154Y-132405285D01*
X134925966Y-132378348D01*
X134979841Y-132378348D01*
X135060653Y-132405285D01*
X135087590Y-132432223D01*
X135114528Y-132513035D01*
X135114528Y-132566910D01*
X135087590Y-132647722D01*
X134979841Y-132755471D01*
X134952903Y-132836284D01*
X134952903Y-132890158D01*
X134979841Y-132970971D01*
X135087590Y-133078720D01*
X135168402Y-133105658D01*
X135222277Y-133105658D01*
X135303089Y-133078720D01*
X135410839Y-132970971D01*
X135437776Y-132890158D01*
X135437776Y-132836284D01*
X135410839Y-132755471D01*
X135303089Y-132647722D01*
X135222277Y-132620784D01*
X135168402Y-132620784D01*
X135087590Y-132647722D01*
X133363597Y-131900964D02*
X133632971Y-131631590D01*
X133471346Y-132116463D02*
X133094223Y-131362216D01*
X133848470Y-131739340D01*
X133794595Y-130715719D02*
X133713783Y-130742656D01*
X133632971Y-130823468D01*
X133579096Y-130931218D01*
X133579096Y-131038967D01*
X133606033Y-131119780D01*
X133686845Y-131254467D01*
X133767658Y-131335279D01*
X133902345Y-131416091D01*
X133983157Y-131443028D01*
X134090906Y-131443028D01*
X134198656Y-131389154D01*
X134252531Y-131335279D01*
X134306406Y-131227529D01*
X134306406Y-131173654D01*
X134117844Y-130985093D01*
X134010094Y-131092842D01*
X134602717Y-130985093D02*
X134037032Y-130419407D01*
X134925966Y-130661844D01*
X134360280Y-130096158D01*
X135195340Y-130392470D02*
X134629654Y-129826784D01*
X134764341Y-129692097D01*
X134872091Y-129638223D01*
X134979841Y-129638223D01*
X135060653Y-129665160D01*
X135195340Y-129745972D01*
X135276152Y-129826784D01*
X135356964Y-129961471D01*
X135383902Y-130042284D01*
X135383902Y-130150033D01*
X135330027Y-130257783D01*
X135195340Y-130392470D01*
X133309722Y-128650592D02*
X133228910Y-128677529D01*
X133148097Y-128758341D01*
X133094223Y-128866091D01*
X133094223Y-128973841D01*
X133121160Y-129054653D01*
X133201972Y-129189340D01*
X133282784Y-129270152D01*
X133417471Y-129350964D01*
X133498284Y-129377902D01*
X133606033Y-129377902D01*
X133713783Y-129324027D01*
X133767658Y-129270152D01*
X133821532Y-129162402D01*
X133821532Y-129108528D01*
X133632971Y-128919966D01*
X133525221Y-129027715D01*
X134117844Y-128919966D02*
X133552158Y-128354280D01*
X133767658Y-128138781D01*
X133848470Y-128111844D01*
X133902345Y-128111844D01*
X133983157Y-128138781D01*
X134063969Y-128219593D01*
X134090906Y-128300406D01*
X134090906Y-128354280D01*
X134063969Y-128435093D01*
X133848470Y-128650592D01*
X134144781Y-127869407D02*
X134144781Y-127815532D01*
X134171719Y-127734720D01*
X134306406Y-127600033D01*
X134387218Y-127573096D01*
X134441093Y-127573096D01*
X134521905Y-127600033D01*
X134575780Y-127653908D01*
X134629654Y-127761658D01*
X134629654Y-128408155D01*
X134979841Y-128057969D01*
X134602717Y-127303722D02*
X134979841Y-126926598D01*
X135303089Y-127734720D01*
X133309722Y-103260592D02*
X133228910Y-103287529D01*
X133148097Y-103368341D01*
X133094223Y-103476091D01*
X133094223Y-103583841D01*
X133121160Y-103664653D01*
X133201972Y-103799340D01*
X133282784Y-103880152D01*
X133417471Y-103960964D01*
X133498284Y-103987902D01*
X133606033Y-103987902D01*
X133713783Y-103934027D01*
X133767658Y-103880152D01*
X133821532Y-103772402D01*
X133821532Y-103718528D01*
X133632971Y-103529966D01*
X133525221Y-103637715D01*
X134117844Y-103529966D02*
X133552158Y-102964280D01*
X133767658Y-102748781D01*
X133848470Y-102721844D01*
X133902345Y-102721844D01*
X133983157Y-102748781D01*
X134063969Y-102829593D01*
X134090906Y-102910406D01*
X134090906Y-102964280D01*
X134063969Y-103045093D01*
X133848470Y-103260592D01*
X134979841Y-102667969D02*
X134656592Y-102991218D01*
X134818216Y-102829593D02*
X134252531Y-102263908D01*
X134279468Y-102398595D01*
X134279468Y-102506345D01*
X134252531Y-102587157D01*
X134602717Y-101913722D02*
X134979841Y-101536598D01*
X135303089Y-102344720D01*
X132840473Y-146709966D02*
X133594720Y-147087089D01*
X133217597Y-146332842D01*
X133917969Y-146709966D02*
X134025719Y-146656091D01*
X134160406Y-146521404D01*
X134187343Y-146440592D01*
X134187343Y-146386717D01*
X134160406Y-146305905D01*
X134106531Y-146252030D01*
X134025719Y-146225093D01*
X133971844Y-146225093D01*
X133891032Y-146252030D01*
X133756345Y-146332842D01*
X133675532Y-146359780D01*
X133621658Y-146359780D01*
X133540845Y-146332842D01*
X133486971Y-146278967D01*
X133460033Y-146198155D01*
X133460033Y-146144280D01*
X133486971Y-146063468D01*
X133621658Y-145928781D01*
X133729407Y-145874906D01*
X134348967Y-145794094D02*
X134618341Y-146063468D01*
X133864094Y-145686345D02*
X134348967Y-145794094D01*
X134241218Y-145309221D01*
X134941590Y-145686345D02*
X135049340Y-145632470D01*
X135184027Y-145497783D01*
X135210964Y-145416971D01*
X135210964Y-145363096D01*
X135184027Y-145282284D01*
X135130152Y-145228409D01*
X135049340Y-145201471D01*
X134995465Y-145201471D01*
X134914653Y-145228409D01*
X134779966Y-145309221D01*
X134699154Y-145336158D01*
X134645279Y-145336158D01*
X134564467Y-145309221D01*
X134510592Y-145255346D01*
X134483654Y-145174534D01*
X134483654Y-145120659D01*
X134510592Y-145039847D01*
X134645279Y-144905160D01*
X134753028Y-144851285D01*
X133309722Y-121040592D02*
X133228910Y-121067529D01*
X133148097Y-121148341D01*
X133094223Y-121256091D01*
X133094223Y-121363841D01*
X133121160Y-121444653D01*
X133201972Y-121579340D01*
X133282784Y-121660152D01*
X133417471Y-121740964D01*
X133498284Y-121767902D01*
X133606033Y-121767902D01*
X133713783Y-121714027D01*
X133767658Y-121660152D01*
X133821532Y-121552402D01*
X133821532Y-121498528D01*
X133632971Y-121309966D01*
X133525221Y-121417715D01*
X134117844Y-121309966D02*
X133552158Y-120744280D01*
X133767658Y-120528781D01*
X133848470Y-120501844D01*
X133902345Y-120501844D01*
X133983157Y-120528781D01*
X134063969Y-120609593D01*
X134090906Y-120690406D01*
X134090906Y-120744280D01*
X134063969Y-120825093D01*
X133848470Y-121040592D01*
X134144781Y-120259407D02*
X134144781Y-120205532D01*
X134171719Y-120124720D01*
X134306406Y-119990033D01*
X134387218Y-119963096D01*
X134441093Y-119963096D01*
X134521905Y-119990033D01*
X134575780Y-120043908D01*
X134629654Y-120151658D01*
X134629654Y-120798155D01*
X134979841Y-120447969D01*
X134683529Y-119720659D02*
X134683529Y-119666784D01*
X134710467Y-119585972D01*
X134845154Y-119451285D01*
X134925966Y-119424348D01*
X134979841Y-119424348D01*
X135060653Y-119451285D01*
X135114528Y-119505160D01*
X135168402Y-119612910D01*
X135168402Y-120259407D01*
X135518589Y-119909221D01*
X133309722Y-100720592D02*
X133228910Y-100747529D01*
X133148097Y-100828341D01*
X133094223Y-100936091D01*
X133094223Y-101043841D01*
X133121160Y-101124653D01*
X133201972Y-101259340D01*
X133282784Y-101340152D01*
X133417471Y-101420964D01*
X133498284Y-101447902D01*
X133606033Y-101447902D01*
X133713783Y-101394027D01*
X133767658Y-101340152D01*
X133821532Y-101232402D01*
X133821532Y-101178528D01*
X133632971Y-100989966D01*
X133525221Y-101097715D01*
X134117844Y-100989966D02*
X133552158Y-100424280D01*
X133767658Y-100208781D01*
X133848470Y-100181844D01*
X133902345Y-100181844D01*
X133983157Y-100208781D01*
X134063969Y-100289593D01*
X134090906Y-100370406D01*
X134090906Y-100424280D01*
X134063969Y-100505093D01*
X133848470Y-100720592D01*
X134979841Y-100127969D02*
X134656592Y-100451218D01*
X134818216Y-100289593D02*
X134252531Y-99723908D01*
X134279468Y-99858595D01*
X134279468Y-99966345D01*
X134252531Y-100047157D01*
X134899028Y-99077410D02*
X134791279Y-99185160D01*
X134764341Y-99265972D01*
X134764341Y-99319847D01*
X134791279Y-99454534D01*
X134872091Y-99589221D01*
X135087590Y-99804720D01*
X135168402Y-99831658D01*
X135222277Y-99831658D01*
X135303089Y-99804720D01*
X135410839Y-99696971D01*
X135437776Y-99616158D01*
X135437776Y-99562284D01*
X135410839Y-99481471D01*
X135276152Y-99346784D01*
X135195340Y-99319847D01*
X135141465Y-99319847D01*
X135060653Y-99346784D01*
X134952903Y-99454534D01*
X134925966Y-99535346D01*
X134925966Y-99589221D01*
X134952903Y-99670033D01*
X159433096Y-133471218D02*
X159352284Y-133498155D01*
X159271471Y-133578967D01*
X159217597Y-133686717D01*
X159217597Y-133794467D01*
X159244534Y-133875279D01*
X159325346Y-134009966D01*
X159406158Y-134090778D01*
X159540845Y-134171590D01*
X159621658Y-134198528D01*
X159729407Y-134198528D01*
X159837157Y-134144653D01*
X159891032Y-134090778D01*
X159944906Y-133983028D01*
X159944906Y-133929154D01*
X159756345Y-133740592D01*
X159648595Y-133848341D01*
X160241218Y-133740592D02*
X159675532Y-133174906D01*
X159891032Y-132959407D01*
X159971844Y-132932470D01*
X160025719Y-132932470D01*
X160106531Y-132959407D01*
X160187343Y-133040219D01*
X160214280Y-133121032D01*
X160214280Y-133174906D01*
X160187343Y-133255719D01*
X159971844Y-133471218D01*
X160510592Y-132339847D02*
X160241218Y-132609221D01*
X160483654Y-132905532D01*
X160483654Y-132851658D01*
X160510592Y-132770845D01*
X160645279Y-132636158D01*
X160726091Y-132609221D01*
X160779966Y-132609221D01*
X160860778Y-132636158D01*
X160995465Y-132770845D01*
X161022402Y-132851658D01*
X161022402Y-132905532D01*
X160995465Y-132986345D01*
X160860778Y-133121032D01*
X160779966Y-133147969D01*
X160726091Y-133147969D01*
X159563722Y-110880592D02*
X159482910Y-110907529D01*
X159402097Y-110988341D01*
X159348223Y-111096091D01*
X159348223Y-111203841D01*
X159375160Y-111284653D01*
X159455972Y-111419340D01*
X159536784Y-111500152D01*
X159671471Y-111580964D01*
X159752284Y-111607902D01*
X159860033Y-111607902D01*
X159967783Y-111554027D01*
X160021658Y-111500152D01*
X160075532Y-111392402D01*
X160075532Y-111338528D01*
X159886971Y-111149966D01*
X159779221Y-111257715D01*
X160371844Y-111149966D02*
X159806158Y-110584280D01*
X160021658Y-110368781D01*
X160102470Y-110341844D01*
X160156345Y-110341844D01*
X160237157Y-110368781D01*
X160317969Y-110449593D01*
X160344906Y-110530406D01*
X160344906Y-110584280D01*
X160317969Y-110665093D01*
X160102470Y-110880592D01*
X161233841Y-110287969D02*
X160910592Y-110611218D01*
X161072216Y-110449593D02*
X160506531Y-109883908D01*
X160533468Y-110018595D01*
X160533468Y-110126345D01*
X160506531Y-110207157D01*
X160937529Y-109560659D02*
X160937529Y-109506784D01*
X160964467Y-109425972D01*
X161099154Y-109291285D01*
X161179966Y-109264348D01*
X161233841Y-109264348D01*
X161314653Y-109291285D01*
X161368528Y-109345160D01*
X161422402Y-109452910D01*
X161422402Y-110099407D01*
X161772589Y-109749221D01*
X159433096Y-136011218D02*
X159352284Y-136038155D01*
X159271471Y-136118967D01*
X159217597Y-136226717D01*
X159217597Y-136334467D01*
X159244534Y-136415279D01*
X159325346Y-136549966D01*
X159406158Y-136630778D01*
X159540845Y-136711590D01*
X159621658Y-136738528D01*
X159729407Y-136738528D01*
X159837157Y-136684653D01*
X159891032Y-136630778D01*
X159944906Y-136523028D01*
X159944906Y-136469154D01*
X159756345Y-136280592D01*
X159648595Y-136388341D01*
X160241218Y-136280592D02*
X159675532Y-135714906D01*
X159891032Y-135499407D01*
X159971844Y-135472470D01*
X160025719Y-135472470D01*
X160106531Y-135499407D01*
X160187343Y-135580219D01*
X160214280Y-135661032D01*
X160214280Y-135714906D01*
X160187343Y-135795719D01*
X159971844Y-136011218D01*
X160672216Y-135095346D02*
X161049340Y-135472470D01*
X160322030Y-135014534D02*
X160591404Y-135553282D01*
X160941590Y-135203096D01*
X159406158Y-105558155D02*
X159325346Y-105585093D01*
X159244534Y-105665905D01*
X159190659Y-105773654D01*
X159190659Y-105881404D01*
X159217597Y-105962216D01*
X159298409Y-106096903D01*
X159379221Y-106177715D01*
X159513908Y-106258528D01*
X159594720Y-106285465D01*
X159702470Y-106285465D01*
X159810219Y-106231590D01*
X159864094Y-106177715D01*
X159917969Y-106069966D01*
X159917969Y-106016091D01*
X159729407Y-105827529D01*
X159621658Y-105935279D01*
X160214280Y-105827529D02*
X159648595Y-105261844D01*
X160537529Y-105504280D01*
X159971844Y-104938595D01*
X160806903Y-105234906D02*
X160241218Y-104669221D01*
X160375905Y-104534534D01*
X160483654Y-104480659D01*
X160591404Y-104480659D01*
X160672216Y-104507597D01*
X160806903Y-104588409D01*
X160887715Y-104669221D01*
X160968528Y-104803908D01*
X160995465Y-104884720D01*
X160995465Y-104992470D01*
X160941590Y-105100219D01*
X160806903Y-105234906D01*
X133806158Y-105558155D02*
X133725346Y-105585093D01*
X133644534Y-105665905D01*
X133590659Y-105773654D01*
X133590659Y-105881404D01*
X133617597Y-105962216D01*
X133698409Y-106096903D01*
X133779221Y-106177715D01*
X133913908Y-106258528D01*
X133994720Y-106285465D01*
X134102470Y-106285465D01*
X134210219Y-106231590D01*
X134264094Y-106177715D01*
X134317969Y-106069966D01*
X134317969Y-106016091D01*
X134129407Y-105827529D01*
X134021658Y-105935279D01*
X134614280Y-105827529D02*
X134048595Y-105261844D01*
X134937529Y-105504280D01*
X134371844Y-104938595D01*
X135206903Y-105234906D02*
X134641218Y-104669221D01*
X134775905Y-104534534D01*
X134883654Y-104480659D01*
X134991404Y-104480659D01*
X135072216Y-104507597D01*
X135206903Y-104588409D01*
X135287715Y-104669221D01*
X135368528Y-104803908D01*
X135395465Y-104884720D01*
X135395465Y-104992470D01*
X135341590Y-105100219D01*
X135206903Y-105234906D01*
X133806158Y-143658155D02*
X133725346Y-143685093D01*
X133644534Y-143765905D01*
X133590659Y-143873654D01*
X133590659Y-143981404D01*
X133617597Y-144062216D01*
X133698409Y-144196903D01*
X133779221Y-144277715D01*
X133913908Y-144358528D01*
X133994720Y-144385465D01*
X134102470Y-144385465D01*
X134210219Y-144331590D01*
X134264094Y-144277715D01*
X134317969Y-144169966D01*
X134317969Y-144116091D01*
X134129407Y-143927529D01*
X134021658Y-144035279D01*
X134614280Y-143927529D02*
X134048595Y-143361844D01*
X134937529Y-143604280D01*
X134371844Y-143038595D01*
X135206903Y-143334906D02*
X134641218Y-142769221D01*
X134775905Y-142634534D01*
X134883654Y-142580659D01*
X134991404Y-142580659D01*
X135072216Y-142607597D01*
X135206903Y-142688409D01*
X135287715Y-142769221D01*
X135368528Y-142903908D01*
X135395465Y-142984720D01*
X135395465Y-143092470D01*
X135341590Y-143200219D01*
X135206903Y-143334906D01*
X159433096Y-148711218D02*
X159352284Y-148738155D01*
X159271471Y-148818967D01*
X159217597Y-148926717D01*
X159217597Y-149034467D01*
X159244534Y-149115279D01*
X159325346Y-149249966D01*
X159406158Y-149330778D01*
X159540845Y-149411590D01*
X159621658Y-149438528D01*
X159729407Y-149438528D01*
X159837157Y-149384653D01*
X159891032Y-149330778D01*
X159944906Y-149223028D01*
X159944906Y-149169154D01*
X159756345Y-148980592D01*
X159648595Y-149088341D01*
X160241218Y-148980592D02*
X159675532Y-148414906D01*
X159891032Y-148199407D01*
X159971844Y-148172470D01*
X160025719Y-148172470D01*
X160106531Y-148199407D01*
X160187343Y-148280219D01*
X160214280Y-148361032D01*
X160214280Y-148414906D01*
X160187343Y-148495719D01*
X159971844Y-148711218D01*
X160348967Y-147741471D02*
X160402842Y-147687597D01*
X160483654Y-147660659D01*
X160537529Y-147660659D01*
X160618341Y-147687597D01*
X160753028Y-147768409D01*
X160887715Y-147903096D01*
X160968528Y-148037783D01*
X160995465Y-148118595D01*
X160995465Y-148172470D01*
X160968528Y-148253282D01*
X160914653Y-148307157D01*
X160833841Y-148334094D01*
X160779966Y-148334094D01*
X160699154Y-148307157D01*
X160564467Y-148226345D01*
X160429780Y-148091658D01*
X160348967Y-147956971D01*
X160322030Y-147876158D01*
X160322030Y-147822284D01*
X160348967Y-147741471D01*
X133309722Y-126120592D02*
X133228910Y-126147529D01*
X133148097Y-126228341D01*
X133094223Y-126336091D01*
X133094223Y-126443841D01*
X133121160Y-126524653D01*
X133201972Y-126659340D01*
X133282784Y-126740152D01*
X133417471Y-126820964D01*
X133498284Y-126847902D01*
X133606033Y-126847902D01*
X133713783Y-126794027D01*
X133767658Y-126740152D01*
X133821532Y-126632402D01*
X133821532Y-126578528D01*
X133632971Y-126389966D01*
X133525221Y-126497715D01*
X134117844Y-126389966D02*
X133552158Y-125824280D01*
X133767658Y-125608781D01*
X133848470Y-125581844D01*
X133902345Y-125581844D01*
X133983157Y-125608781D01*
X134063969Y-125689593D01*
X134090906Y-125770406D01*
X134090906Y-125824280D01*
X134063969Y-125905093D01*
X133848470Y-126120592D01*
X134144781Y-125339407D02*
X134144781Y-125285532D01*
X134171719Y-125204720D01*
X134306406Y-125070033D01*
X134387218Y-125043096D01*
X134441093Y-125043096D01*
X134521905Y-125070033D01*
X134575780Y-125123908D01*
X134629654Y-125231658D01*
X134629654Y-125878155D01*
X134979841Y-125527969D01*
X134899028Y-124477410D02*
X134791279Y-124585160D01*
X134764341Y-124665972D01*
X134764341Y-124719847D01*
X134791279Y-124854534D01*
X134872091Y-124989221D01*
X135087590Y-125204720D01*
X135168402Y-125231658D01*
X135222277Y-125231658D01*
X135303089Y-125204720D01*
X135410839Y-125096971D01*
X135437776Y-125016158D01*
X135437776Y-124962284D01*
X135410839Y-124881471D01*
X135276152Y-124746784D01*
X135195340Y-124719847D01*
X135141465Y-124719847D01*
X135060653Y-124746784D01*
X134952903Y-124854534D01*
X134925966Y-124935346D01*
X134925966Y-124989221D01*
X134952903Y-125070033D01*
X140024761Y-98583809D02*
X140139047Y-98621904D01*
X140329523Y-98621904D01*
X140405714Y-98583809D01*
X140443809Y-98545714D01*
X140481904Y-98469523D01*
X140481904Y-98393333D01*
X140443809Y-98317142D01*
X140405714Y-98279047D01*
X140329523Y-98240952D01*
X140177142Y-98202857D01*
X140100952Y-98164761D01*
X140062857Y-98126666D01*
X140024761Y-98050476D01*
X140024761Y-97974285D01*
X140062857Y-97898095D01*
X140100952Y-97860000D01*
X140177142Y-97821904D01*
X140367619Y-97821904D01*
X140481904Y-97860000D01*
X140748571Y-97821904D02*
X140939047Y-98621904D01*
X141091428Y-98050476D01*
X141243809Y-98621904D01*
X141434285Y-97821904D01*
X141739047Y-98621904D02*
X141739047Y-97821904D01*
X141929523Y-97821904D01*
X142043809Y-97860000D01*
X142120000Y-97936190D01*
X142158095Y-98012380D01*
X142196190Y-98164761D01*
X142196190Y-98279047D01*
X142158095Y-98431428D01*
X142120000Y-98507619D01*
X142043809Y-98583809D01*
X141929523Y-98621904D01*
X141739047Y-98621904D01*
X142539047Y-98621904D02*
X142539047Y-97821904D01*
X143072380Y-97821904D02*
X143224761Y-97821904D01*
X143300952Y-97860000D01*
X143377142Y-97936190D01*
X143415238Y-98088571D01*
X143415238Y-98355238D01*
X143377142Y-98507619D01*
X143300952Y-98583809D01*
X143224761Y-98621904D01*
X143072380Y-98621904D01*
X142996190Y-98583809D01*
X142920000Y-98507619D01*
X142881904Y-98355238D01*
X142881904Y-98088571D01*
X142920000Y-97936190D01*
X142996190Y-97860000D01*
X143072380Y-97821904D01*
X133309722Y-115950592D02*
X133228910Y-115977529D01*
X133148097Y-116058341D01*
X133094223Y-116166091D01*
X133094223Y-116273841D01*
X133121160Y-116354653D01*
X133201972Y-116489340D01*
X133282784Y-116570152D01*
X133417471Y-116650964D01*
X133498284Y-116677902D01*
X133606033Y-116677902D01*
X133713783Y-116624027D01*
X133767658Y-116570152D01*
X133821532Y-116462402D01*
X133821532Y-116408528D01*
X133632971Y-116219966D01*
X133525221Y-116327715D01*
X134117844Y-116219966D02*
X133552158Y-115654280D01*
X133767658Y-115438781D01*
X133848470Y-115411844D01*
X133902345Y-115411844D01*
X133983157Y-115438781D01*
X134063969Y-115519593D01*
X134090906Y-115600406D01*
X134090906Y-115654280D01*
X134063969Y-115735093D01*
X133848470Y-115950592D01*
X134144781Y-115169407D02*
X134144781Y-115115532D01*
X134171719Y-115034720D01*
X134306406Y-114900033D01*
X134387218Y-114873096D01*
X134441093Y-114873096D01*
X134521905Y-114900033D01*
X134575780Y-114953908D01*
X134629654Y-115061658D01*
X134629654Y-115708155D01*
X134979841Y-115357969D01*
X135518589Y-114819221D02*
X135195340Y-115142470D01*
X135356964Y-114980845D02*
X134791279Y-114415160D01*
X134818216Y-114549847D01*
X134818216Y-114657597D01*
X134791279Y-114738409D01*
X159533096Y-141091218D02*
X159452284Y-141118155D01*
X159371471Y-141198967D01*
X159317597Y-141306717D01*
X159317597Y-141414467D01*
X159344534Y-141495279D01*
X159425346Y-141629966D01*
X159506158Y-141710778D01*
X159640845Y-141791590D01*
X159721658Y-141818528D01*
X159829407Y-141818528D01*
X159937157Y-141764653D01*
X159991032Y-141710778D01*
X160044906Y-141603028D01*
X160044906Y-141549154D01*
X159856345Y-141360592D01*
X159748595Y-141468341D01*
X160341218Y-141360592D02*
X159775532Y-140794906D01*
X159991032Y-140579407D01*
X160071844Y-140552470D01*
X160125719Y-140552470D01*
X160206531Y-140579407D01*
X160287343Y-140660219D01*
X160314280Y-140741032D01*
X160314280Y-140794906D01*
X160287343Y-140875719D01*
X160071844Y-141091218D01*
X160368155Y-140310033D02*
X160368155Y-140256158D01*
X160395093Y-140175346D01*
X160529780Y-140040659D01*
X160610592Y-140013722D01*
X160664467Y-140013722D01*
X160745279Y-140040659D01*
X160799154Y-140094534D01*
X160853028Y-140202284D01*
X160853028Y-140848781D01*
X161203215Y-140498595D01*
X159417722Y-100720592D02*
X159336910Y-100747529D01*
X159256097Y-100828341D01*
X159202223Y-100936091D01*
X159202223Y-101043841D01*
X159229160Y-101124653D01*
X159309972Y-101259340D01*
X159390784Y-101340152D01*
X159525471Y-101420964D01*
X159606284Y-101447902D01*
X159714033Y-101447902D01*
X159821783Y-101394027D01*
X159875658Y-101340152D01*
X159929532Y-101232402D01*
X159929532Y-101178528D01*
X159740971Y-100989966D01*
X159633221Y-101097715D01*
X160225844Y-100989966D02*
X159660158Y-100424280D01*
X159875658Y-100208781D01*
X159956470Y-100181844D01*
X160010345Y-100181844D01*
X160091157Y-100208781D01*
X160171969Y-100289593D01*
X160198906Y-100370406D01*
X160198906Y-100424280D01*
X160171969Y-100505093D01*
X159956470Y-100720592D01*
X161087841Y-100127969D02*
X160764592Y-100451218D01*
X160926216Y-100289593D02*
X160360531Y-99723908D01*
X160387468Y-99858595D01*
X160387468Y-99966345D01*
X160360531Y-100047157D01*
X161033966Y-99050473D02*
X160764592Y-99319847D01*
X161007028Y-99616158D01*
X161007028Y-99562284D01*
X161033966Y-99481471D01*
X161168653Y-99346784D01*
X161249465Y-99319847D01*
X161303340Y-99319847D01*
X161384152Y-99346784D01*
X161518839Y-99481471D01*
X161545776Y-99562284D01*
X161545776Y-99616158D01*
X161518839Y-99696971D01*
X161384152Y-99831658D01*
X161303340Y-99858595D01*
X161249465Y-99858595D01*
X159406158Y-118258155D02*
X159325346Y-118285093D01*
X159244534Y-118365905D01*
X159190659Y-118473654D01*
X159190659Y-118581404D01*
X159217597Y-118662216D01*
X159298409Y-118796903D01*
X159379221Y-118877715D01*
X159513908Y-118958528D01*
X159594720Y-118985465D01*
X159702470Y-118985465D01*
X159810219Y-118931590D01*
X159864094Y-118877715D01*
X159917969Y-118769966D01*
X159917969Y-118716091D01*
X159729407Y-118527529D01*
X159621658Y-118635279D01*
X160214280Y-118527529D02*
X159648595Y-117961844D01*
X160537529Y-118204280D01*
X159971844Y-117638595D01*
X160806903Y-117934906D02*
X160241218Y-117369221D01*
X160375905Y-117234534D01*
X160483654Y-117180659D01*
X160591404Y-117180659D01*
X160672216Y-117207597D01*
X160806903Y-117288409D01*
X160887715Y-117369221D01*
X160968528Y-117503908D01*
X160995465Y-117584720D01*
X160995465Y-117692470D01*
X160941590Y-117800219D01*
X160806903Y-117934906D01*
X159433096Y-128391218D02*
X159352284Y-128418155D01*
X159271471Y-128498967D01*
X159217597Y-128606717D01*
X159217597Y-128714467D01*
X159244534Y-128795279D01*
X159325346Y-128929966D01*
X159406158Y-129010778D01*
X159540845Y-129091590D01*
X159621658Y-129118528D01*
X159729407Y-129118528D01*
X159837157Y-129064653D01*
X159891032Y-129010778D01*
X159944906Y-128903028D01*
X159944906Y-128849154D01*
X159756345Y-128660592D01*
X159648595Y-128768341D01*
X160241218Y-128660592D02*
X159675532Y-128094906D01*
X159891032Y-127879407D01*
X159971844Y-127852470D01*
X160025719Y-127852470D01*
X160106531Y-127879407D01*
X160187343Y-127960219D01*
X160214280Y-128041032D01*
X160214280Y-128094906D01*
X160187343Y-128175719D01*
X159971844Y-128391218D01*
X160483654Y-127286784D02*
X160375905Y-127394534D01*
X160348967Y-127475346D01*
X160348967Y-127529221D01*
X160375905Y-127663908D01*
X160456717Y-127798595D01*
X160672216Y-128014094D01*
X160753028Y-128041032D01*
X160806903Y-128041032D01*
X160887715Y-128014094D01*
X160995465Y-127906345D01*
X161022402Y-127825532D01*
X161022402Y-127771658D01*
X160995465Y-127690845D01*
X160860778Y-127556158D01*
X160779966Y-127529221D01*
X160726091Y-127529221D01*
X160645279Y-127556158D01*
X160537529Y-127663908D01*
X160510592Y-127744720D01*
X160510592Y-127798595D01*
X160537529Y-127879407D01*
X133309722Y-108340592D02*
X133228910Y-108367529D01*
X133148097Y-108448341D01*
X133094223Y-108556091D01*
X133094223Y-108663841D01*
X133121160Y-108744653D01*
X133201972Y-108879340D01*
X133282784Y-108960152D01*
X133417471Y-109040964D01*
X133498284Y-109067902D01*
X133606033Y-109067902D01*
X133713783Y-109014027D01*
X133767658Y-108960152D01*
X133821532Y-108852402D01*
X133821532Y-108798528D01*
X133632971Y-108609966D01*
X133525221Y-108717715D01*
X134117844Y-108609966D02*
X133552158Y-108044280D01*
X133767658Y-107828781D01*
X133848470Y-107801844D01*
X133902345Y-107801844D01*
X133983157Y-107828781D01*
X134063969Y-107909593D01*
X134090906Y-107990406D01*
X134090906Y-108044280D01*
X134063969Y-108125093D01*
X133848470Y-108340592D01*
X134979841Y-107747969D02*
X134656592Y-108071218D01*
X134818216Y-107909593D02*
X134252531Y-107343908D01*
X134279468Y-107478595D01*
X134279468Y-107586345D01*
X134252531Y-107667157D01*
X134979841Y-107101471D02*
X134899028Y-107128409D01*
X134845154Y-107128409D01*
X134764341Y-107101471D01*
X134737404Y-107074534D01*
X134710467Y-106993722D01*
X134710467Y-106939847D01*
X134737404Y-106859035D01*
X134845154Y-106751285D01*
X134925966Y-106724348D01*
X134979841Y-106724348D01*
X135060653Y-106751285D01*
X135087590Y-106778223D01*
X135114528Y-106859035D01*
X135114528Y-106912910D01*
X135087590Y-106993722D01*
X134979841Y-107101471D01*
X134952903Y-107182284D01*
X134952903Y-107236158D01*
X134979841Y-107316971D01*
X135087590Y-107424720D01*
X135168402Y-107451658D01*
X135222277Y-107451658D01*
X135303089Y-107424720D01*
X135410839Y-107316971D01*
X135437776Y-107236158D01*
X135437776Y-107182284D01*
X135410839Y-107101471D01*
X135303089Y-106993722D01*
X135222277Y-106966784D01*
X135168402Y-106966784D01*
X135087590Y-106993722D01*
X131474788Y-138993773D02*
X131744162Y-138724399D01*
X131582537Y-139209272D02*
X131205414Y-138455025D01*
X131959661Y-138832149D01*
X132148223Y-138643587D02*
X131582537Y-138077902D01*
X131717224Y-137943215D01*
X131824974Y-137889340D01*
X131932723Y-137889340D01*
X132013536Y-137916277D01*
X132148223Y-137997089D01*
X132229035Y-138077902D01*
X132309847Y-138212589D01*
X132336784Y-138293401D01*
X132336784Y-138401150D01*
X132282910Y-138508900D01*
X132148223Y-138643587D01*
X132983282Y-137700778D02*
X132983282Y-137754653D01*
X132929407Y-137862402D01*
X132875532Y-137916277D01*
X132767783Y-137970152D01*
X132660033Y-137970152D01*
X132579221Y-137943215D01*
X132444534Y-137862402D01*
X132363722Y-137781590D01*
X132282910Y-137646903D01*
X132255972Y-137566091D01*
X132255972Y-137458341D01*
X132309847Y-137350592D01*
X132363722Y-137296717D01*
X132471471Y-137242842D01*
X132525346Y-137242842D01*
X133198781Y-137700778D02*
X133629780Y-137269780D01*
X133064094Y-136596345D02*
X133818341Y-136973468D01*
X133441218Y-136219221D01*
X134518714Y-136273096D02*
X134060778Y-136192284D01*
X134195465Y-136596345D02*
X133629780Y-136030659D01*
X133845279Y-135815160D01*
X133926091Y-135788223D01*
X133979966Y-135788223D01*
X134060778Y-135815160D01*
X134141590Y-135895972D01*
X134168528Y-135976784D01*
X134168528Y-136030659D01*
X134141590Y-136111471D01*
X133926091Y-136326971D01*
X134464839Y-135734348D02*
X134653401Y-135545786D01*
X135030524Y-135761285D02*
X134761150Y-136030659D01*
X134195465Y-135464974D01*
X134464839Y-135195600D01*
X135165211Y-135033975D02*
X134976650Y-135222537D01*
X135272961Y-135518849D02*
X134707276Y-134953163D01*
X134976650Y-134683789D01*
X159433096Y-120771218D02*
X159352284Y-120798155D01*
X159271471Y-120878967D01*
X159217597Y-120986717D01*
X159217597Y-121094467D01*
X159244534Y-121175279D01*
X159325346Y-121309966D01*
X159406158Y-121390778D01*
X159540845Y-121471590D01*
X159621658Y-121498528D01*
X159729407Y-121498528D01*
X159837157Y-121444653D01*
X159891032Y-121390778D01*
X159944906Y-121283028D01*
X159944906Y-121229154D01*
X159756345Y-121040592D01*
X159648595Y-121148341D01*
X160241218Y-121040592D02*
X159675532Y-120474906D01*
X159891032Y-120259407D01*
X159971844Y-120232470D01*
X160025719Y-120232470D01*
X160106531Y-120259407D01*
X160187343Y-120340219D01*
X160214280Y-120421032D01*
X160214280Y-120474906D01*
X160187343Y-120555719D01*
X159971844Y-120771218D01*
X160833841Y-120447969D02*
X160941590Y-120340219D01*
X160968528Y-120259407D01*
X160968528Y-120205532D01*
X160941590Y-120070845D01*
X160860778Y-119936158D01*
X160645279Y-119720659D01*
X160564467Y-119693722D01*
X160510592Y-119693722D01*
X160429780Y-119720659D01*
X160322030Y-119828409D01*
X160295093Y-119909221D01*
X160295093Y-119963096D01*
X160322030Y-120043908D01*
X160456717Y-120178595D01*
X160537529Y-120205532D01*
X160591404Y-120205532D01*
X160672216Y-120178595D01*
X160779966Y-120070845D01*
X160806903Y-119990033D01*
X160806903Y-119936158D01*
X160779966Y-119855346D01*
X133309722Y-110880592D02*
X133228910Y-110907529D01*
X133148097Y-110988341D01*
X133094223Y-111096091D01*
X133094223Y-111203841D01*
X133121160Y-111284653D01*
X133201972Y-111419340D01*
X133282784Y-111500152D01*
X133417471Y-111580964D01*
X133498284Y-111607902D01*
X133606033Y-111607902D01*
X133713783Y-111554027D01*
X133767658Y-111500152D01*
X133821532Y-111392402D01*
X133821532Y-111338528D01*
X133632971Y-111149966D01*
X133525221Y-111257715D01*
X134117844Y-111149966D02*
X133552158Y-110584280D01*
X133767658Y-110368781D01*
X133848470Y-110341844D01*
X133902345Y-110341844D01*
X133983157Y-110368781D01*
X134063969Y-110449593D01*
X134090906Y-110530406D01*
X134090906Y-110584280D01*
X134063969Y-110665093D01*
X133848470Y-110880592D01*
X134979841Y-110287969D02*
X134656592Y-110611218D01*
X134818216Y-110449593D02*
X134252531Y-109883908D01*
X134279468Y-110018595D01*
X134279468Y-110126345D01*
X134252531Y-110207157D01*
X135249215Y-110018595D02*
X135356964Y-109910845D01*
X135383902Y-109830033D01*
X135383902Y-109776158D01*
X135356964Y-109641471D01*
X135276152Y-109506784D01*
X135060653Y-109291285D01*
X134979841Y-109264348D01*
X134925966Y-109264348D01*
X134845154Y-109291285D01*
X134737404Y-109399035D01*
X134710467Y-109479847D01*
X134710467Y-109533722D01*
X134737404Y-109614534D01*
X134872091Y-109749221D01*
X134952903Y-109776158D01*
X135006778Y-109776158D01*
X135087590Y-109749221D01*
X135195340Y-109641471D01*
X135222277Y-109560659D01*
X135222277Y-109506784D01*
X135195340Y-109425972D01*
X134158375Y-123863435D02*
X133700439Y-123782622D01*
X133835126Y-124186683D02*
X133269441Y-123620998D01*
X133484940Y-123405499D01*
X133565752Y-123378561D01*
X133619627Y-123378561D01*
X133700439Y-123405499D01*
X133781251Y-123486311D01*
X133808189Y-123567123D01*
X133808189Y-123620998D01*
X133781251Y-123701810D01*
X133565752Y-123917309D01*
X133835126Y-123055312D02*
X134293062Y-123513248D01*
X134373874Y-123540186D01*
X134427749Y-123540186D01*
X134508561Y-123513248D01*
X134616311Y-123405499D01*
X134643248Y-123324687D01*
X134643248Y-123270812D01*
X134616311Y-123189999D01*
X134158375Y-122732064D01*
X134993435Y-123028375D02*
X134427749Y-122462690D01*
X135316683Y-122705126D01*
X134750998Y-122139441D01*
X159417722Y-115960592D02*
X159336910Y-115987529D01*
X159256097Y-116068341D01*
X159202223Y-116176091D01*
X159202223Y-116283841D01*
X159229160Y-116364653D01*
X159309972Y-116499340D01*
X159390784Y-116580152D01*
X159525471Y-116660964D01*
X159606284Y-116687902D01*
X159714033Y-116687902D01*
X159821783Y-116634027D01*
X159875658Y-116580152D01*
X159929532Y-116472402D01*
X159929532Y-116418528D01*
X159740971Y-116229966D01*
X159633221Y-116337715D01*
X160225844Y-116229966D02*
X159660158Y-115664280D01*
X159875658Y-115448781D01*
X159956470Y-115421844D01*
X160010345Y-115421844D01*
X160091157Y-115448781D01*
X160171969Y-115529593D01*
X160198906Y-115610406D01*
X160198906Y-115664280D01*
X160171969Y-115745093D01*
X159956470Y-115960592D01*
X161087841Y-115367969D02*
X160764592Y-115691218D01*
X160926216Y-115529593D02*
X160360531Y-114963908D01*
X160387468Y-115098595D01*
X160387468Y-115206345D01*
X160360531Y-115287157D01*
X160872341Y-114452097D02*
X160926216Y-114398223D01*
X161007028Y-114371285D01*
X161060903Y-114371285D01*
X161141715Y-114398223D01*
X161276402Y-114479035D01*
X161411089Y-114613722D01*
X161491902Y-114748409D01*
X161518839Y-114829221D01*
X161518839Y-114883096D01*
X161491902Y-114963908D01*
X161438027Y-115017783D01*
X161357215Y-115044720D01*
X161303340Y-115044720D01*
X161222528Y-115017783D01*
X161087841Y-114936971D01*
X160953154Y-114802284D01*
X160872341Y-114667597D01*
X160845404Y-114586784D01*
X160845404Y-114532910D01*
X160872341Y-114452097D01*
%TO.C,J5*%
X102536666Y-65252380D02*
X102536666Y-65966666D01*
X102489047Y-66109523D01*
X102393809Y-66204761D01*
X102250952Y-66252380D01*
X102155714Y-66252380D01*
X103489047Y-65252380D02*
X103012857Y-65252380D01*
X102965238Y-65728571D01*
X103012857Y-65680952D01*
X103108095Y-65633333D01*
X103346190Y-65633333D01*
X103441428Y-65680952D01*
X103489047Y-65728571D01*
X103536666Y-65823809D01*
X103536666Y-66061904D01*
X103489047Y-66157142D01*
X103441428Y-66204761D01*
X103346190Y-66252380D01*
X103108095Y-66252380D01*
X103012857Y-66204761D01*
X102965238Y-66157142D01*
X94797619Y-55469404D02*
X94797619Y-54897976D01*
X94797619Y-55183690D02*
X95797619Y-55183690D01*
X95654761Y-55088452D01*
X95559523Y-54993214D01*
X95511904Y-54897976D01*
X95702380Y-55850357D02*
X95750000Y-55897976D01*
X95797619Y-55993214D01*
X95797619Y-56231309D01*
X95750000Y-56326547D01*
X95702380Y-56374166D01*
X95607142Y-56421785D01*
X95511904Y-56421785D01*
X95369047Y-56374166D01*
X94797619Y-55802738D01*
X94797619Y-56421785D01*
X95797619Y-57469404D02*
X94797619Y-57802738D01*
X95797619Y-58136071D01*
X94797619Y-58612261D02*
X94845238Y-58517023D01*
X94892857Y-58469404D01*
X94988095Y-58421785D01*
X95273809Y-58421785D01*
X95369047Y-58469404D01*
X95416666Y-58517023D01*
X95464285Y-58612261D01*
X95464285Y-58755119D01*
X95416666Y-58850357D01*
X95369047Y-58897976D01*
X95273809Y-58945595D01*
X94988095Y-58945595D01*
X94892857Y-58897976D01*
X94845238Y-58850357D01*
X94797619Y-58755119D01*
X94797619Y-58612261D01*
X94797619Y-59517023D02*
X94845238Y-59421785D01*
X94940476Y-59374166D01*
X95797619Y-59374166D01*
X95464285Y-59755119D02*
X95464285Y-60136071D01*
X95797619Y-59897976D02*
X94940476Y-59897976D01*
X94845238Y-59945595D01*
X94797619Y-60040833D01*
X94797619Y-60136071D01*
X94797619Y-61231309D02*
X95464285Y-61231309D01*
X95797619Y-61231309D02*
X95750000Y-61183690D01*
X95702380Y-61231309D01*
X95750000Y-61278928D01*
X95797619Y-61231309D01*
X95702380Y-61231309D01*
X95464285Y-61707500D02*
X94797619Y-61707500D01*
X95369047Y-61707500D02*
X95416666Y-61755119D01*
X95464285Y-61850357D01*
X95464285Y-61993214D01*
X95416666Y-62088452D01*
X95321428Y-62136071D01*
X94797619Y-62136071D01*
%TO.C,R6*%
X115302380Y-100496666D02*
X114826190Y-100830000D01*
X115302380Y-101068095D02*
X114302380Y-101068095D01*
X114302380Y-100687142D01*
X114350000Y-100591904D01*
X114397619Y-100544285D01*
X114492857Y-100496666D01*
X114635714Y-100496666D01*
X114730952Y-100544285D01*
X114778571Y-100591904D01*
X114826190Y-100687142D01*
X114826190Y-101068095D01*
X114302380Y-99639523D02*
X114302380Y-99830000D01*
X114350000Y-99925238D01*
X114397619Y-99972857D01*
X114540476Y-100068095D01*
X114730952Y-100115714D01*
X115111904Y-100115714D01*
X115207142Y-100068095D01*
X115254761Y-100020476D01*
X115302380Y-99925238D01*
X115302380Y-99734761D01*
X115254761Y-99639523D01*
X115207142Y-99591904D01*
X115111904Y-99544285D01*
X114873809Y-99544285D01*
X114778571Y-99591904D01*
X114730952Y-99639523D01*
X114683333Y-99734761D01*
X114683333Y-99925238D01*
X114730952Y-100020476D01*
X114778571Y-100068095D01*
X114873809Y-100115714D01*
%TO.C,J4*%
X131746666Y-62201380D02*
X131746666Y-62915666D01*
X131699047Y-63058523D01*
X131603809Y-63153761D01*
X131460952Y-63201380D01*
X131365714Y-63201380D01*
X132651428Y-62534714D02*
X132651428Y-63201380D01*
X132413333Y-62153761D02*
X132175238Y-62868047D01*
X132794285Y-62868047D01*
X127651428Y-55003761D02*
X127794285Y-55051380D01*
X128032380Y-55051380D01*
X128127619Y-55003761D01*
X128175238Y-54956142D01*
X128222857Y-54860904D01*
X128222857Y-54765666D01*
X128175238Y-54670428D01*
X128127619Y-54622809D01*
X128032380Y-54575190D01*
X127841904Y-54527571D01*
X127746666Y-54479952D01*
X127699047Y-54432333D01*
X127651428Y-54337095D01*
X127651428Y-54241857D01*
X127699047Y-54146619D01*
X127746666Y-54099000D01*
X127841904Y-54051380D01*
X128080000Y-54051380D01*
X128222857Y-54099000D01*
X128508571Y-54384714D02*
X128889523Y-54384714D01*
X128651428Y-54051380D02*
X128651428Y-54908523D01*
X128699047Y-55003761D01*
X128794285Y-55051380D01*
X128889523Y-55051380D01*
X129603809Y-55003761D02*
X129508571Y-55051380D01*
X129318095Y-55051380D01*
X129222857Y-55003761D01*
X129175238Y-54908523D01*
X129175238Y-54527571D01*
X129222857Y-54432333D01*
X129318095Y-54384714D01*
X129508571Y-54384714D01*
X129603809Y-54432333D01*
X129651428Y-54527571D01*
X129651428Y-54622809D01*
X129175238Y-54718047D01*
X130080000Y-54384714D02*
X130080000Y-55384714D01*
X130080000Y-54432333D02*
X130175238Y-54384714D01*
X130365714Y-54384714D01*
X130460952Y-54432333D01*
X130508571Y-54479952D01*
X130556190Y-54575190D01*
X130556190Y-54860904D01*
X130508571Y-54956142D01*
X130460952Y-55003761D01*
X130365714Y-55051380D01*
X130175238Y-55051380D01*
X130080000Y-55003761D01*
X130984761Y-54384714D02*
X130984761Y-55384714D01*
X130984761Y-54432333D02*
X131080000Y-54384714D01*
X131270476Y-54384714D01*
X131365714Y-54432333D01*
X131413333Y-54479952D01*
X131460952Y-54575190D01*
X131460952Y-54860904D01*
X131413333Y-54956142D01*
X131365714Y-55003761D01*
X131270476Y-55051380D01*
X131080000Y-55051380D01*
X130984761Y-55003761D01*
X132270476Y-55003761D02*
X132175238Y-55051380D01*
X131984761Y-55051380D01*
X131889523Y-55003761D01*
X131841904Y-54908523D01*
X131841904Y-54527571D01*
X131889523Y-54432333D01*
X131984761Y-54384714D01*
X132175238Y-54384714D01*
X132270476Y-54432333D01*
X132318095Y-54527571D01*
X132318095Y-54622809D01*
X131841904Y-54718047D01*
X132746666Y-55051380D02*
X132746666Y-54384714D01*
X132746666Y-54575190D02*
X132794285Y-54479952D01*
X132841904Y-54432333D01*
X132937142Y-54384714D01*
X133032380Y-54384714D01*
X134603809Y-55051380D02*
X134127619Y-55051380D01*
X134127619Y-54051380D01*
X135318095Y-55003761D02*
X135222857Y-55051380D01*
X135032380Y-55051380D01*
X134937142Y-55003761D01*
X134889523Y-54908523D01*
X134889523Y-54527571D01*
X134937142Y-54432333D01*
X135032380Y-54384714D01*
X135222857Y-54384714D01*
X135318095Y-54432333D01*
X135365714Y-54527571D01*
X135365714Y-54622809D01*
X134889523Y-54718047D01*
X135651428Y-54384714D02*
X136032380Y-54384714D01*
X135794285Y-55051380D02*
X135794285Y-54194238D01*
X135841904Y-54099000D01*
X135937142Y-54051380D01*
X136032380Y-54051380D01*
X136222857Y-54384714D02*
X136603809Y-54384714D01*
X136365714Y-54051380D02*
X136365714Y-54908523D01*
X136413333Y-55003761D01*
X136508571Y-55051380D01*
X136603809Y-55051380D01*
%TO.C,U3*%
X143134880Y-88651904D02*
X143944404Y-88651904D01*
X144039642Y-88604285D01*
X144087261Y-88556666D01*
X144134880Y-88461428D01*
X144134880Y-88270952D01*
X144087261Y-88175714D01*
X144039642Y-88128095D01*
X143944404Y-88080476D01*
X143134880Y-88080476D01*
X143134880Y-87699523D02*
X143134880Y-87080476D01*
X143515833Y-87413809D01*
X143515833Y-87270952D01*
X143563452Y-87175714D01*
X143611071Y-87128095D01*
X143706309Y-87080476D01*
X143944404Y-87080476D01*
X144039642Y-87128095D01*
X144087261Y-87175714D01*
X144134880Y-87270952D01*
X144134880Y-87556666D01*
X144087261Y-87651904D01*
X144039642Y-87699523D01*
X136419642Y-88717500D02*
X136467261Y-88765119D01*
X136514880Y-88907976D01*
X136514880Y-89003214D01*
X136467261Y-89146071D01*
X136372023Y-89241309D01*
X136276785Y-89288928D01*
X136086309Y-89336547D01*
X135943452Y-89336547D01*
X135752976Y-89288928D01*
X135657738Y-89241309D01*
X135562500Y-89146071D01*
X135514880Y-89003214D01*
X135514880Y-88907976D01*
X135562500Y-88765119D01*
X135610119Y-88717500D01*
X136514880Y-87812738D02*
X136514880Y-88288928D01*
X135514880Y-88288928D01*
X136514880Y-87479404D02*
X135514880Y-87479404D01*
X136514880Y-86907976D02*
X135943452Y-87336547D01*
X135514880Y-86907976D02*
X136086309Y-87479404D01*
X123291071Y-88431785D02*
X123291071Y-88098452D01*
X123814880Y-87955595D02*
X123814880Y-88431785D01*
X122814880Y-88431785D01*
X122814880Y-87955595D01*
X123814880Y-87527023D02*
X122814880Y-87527023D01*
X123814880Y-86955595D01*
X122814880Y-86955595D01*
X135991071Y-70711071D02*
X136038690Y-70568214D01*
X136086309Y-70520595D01*
X136181547Y-70472976D01*
X136324404Y-70472976D01*
X136419642Y-70520595D01*
X136467261Y-70568214D01*
X136514880Y-70663452D01*
X136514880Y-71044404D01*
X135514880Y-71044404D01*
X135514880Y-70711071D01*
X135562500Y-70615833D01*
X135610119Y-70568214D01*
X135705357Y-70520595D01*
X135800595Y-70520595D01*
X135895833Y-70568214D01*
X135943452Y-70615833D01*
X135991071Y-70711071D01*
X135991071Y-71044404D01*
X135610119Y-70092023D02*
X135562500Y-70044404D01*
X135514880Y-69949166D01*
X135514880Y-69711071D01*
X135562500Y-69615833D01*
X135610119Y-69568214D01*
X135705357Y-69520595D01*
X135800595Y-69520595D01*
X135943452Y-69568214D01*
X136514880Y-70139642D01*
X136514880Y-69520595D01*
X140642500Y-70520595D02*
X140594880Y-70615833D01*
X140594880Y-70758690D01*
X140642500Y-70901547D01*
X140737738Y-70996785D01*
X140832976Y-71044404D01*
X141023452Y-71092023D01*
X141166309Y-71092023D01*
X141356785Y-71044404D01*
X141452023Y-70996785D01*
X141547261Y-70901547D01*
X141594880Y-70758690D01*
X141594880Y-70663452D01*
X141547261Y-70520595D01*
X141499642Y-70472976D01*
X141166309Y-70472976D01*
X141166309Y-70663452D01*
X141594880Y-70044404D02*
X140594880Y-70044404D01*
X141594880Y-69472976D01*
X140594880Y-69472976D01*
X141594880Y-68996785D02*
X140594880Y-68996785D01*
X140594880Y-68758690D01*
X140642500Y-68615833D01*
X140737738Y-68520595D01*
X140832976Y-68472976D01*
X141023452Y-68425357D01*
X141166309Y-68425357D01*
X141356785Y-68472976D01*
X141452023Y-68520595D01*
X141547261Y-68615833D01*
X141594880Y-68758690D01*
X141594880Y-68996785D01*
X128894880Y-89527023D02*
X127894880Y-89527023D01*
X128609166Y-89193690D01*
X127894880Y-88860357D01*
X128894880Y-88860357D01*
X128847261Y-88431785D02*
X128894880Y-88288928D01*
X128894880Y-88050833D01*
X128847261Y-87955595D01*
X128799642Y-87907976D01*
X128704404Y-87860357D01*
X128609166Y-87860357D01*
X128513928Y-87907976D01*
X128466309Y-87955595D01*
X128418690Y-88050833D01*
X128371071Y-88241309D01*
X128323452Y-88336547D01*
X128275833Y-88384166D01*
X128180595Y-88431785D01*
X128085357Y-88431785D01*
X127990119Y-88384166D01*
X127942500Y-88336547D01*
X127894880Y-88241309D01*
X127894880Y-88003214D01*
X127942500Y-87860357D01*
X127990119Y-87479404D02*
X127942500Y-87431785D01*
X127894880Y-87336547D01*
X127894880Y-87098452D01*
X127942500Y-87003214D01*
X127990119Y-86955595D01*
X128085357Y-86907976D01*
X128180595Y-86907976D01*
X128323452Y-86955595D01*
X128894880Y-87527023D01*
X128894880Y-86907976D01*
X138054880Y-71187261D02*
X139054880Y-70853928D01*
X138054880Y-70520595D01*
X139054880Y-70187261D02*
X138054880Y-70187261D01*
X138054880Y-69949166D01*
X138102500Y-69806309D01*
X138197738Y-69711071D01*
X138292976Y-69663452D01*
X138483452Y-69615833D01*
X138626309Y-69615833D01*
X138816785Y-69663452D01*
X138912023Y-69711071D01*
X139007261Y-69806309D01*
X139054880Y-69949166D01*
X139054880Y-70187261D01*
X139054880Y-69187261D02*
X138054880Y-69187261D01*
X138054880Y-68949166D01*
X138102500Y-68806309D01*
X138197738Y-68711071D01*
X138292976Y-68663452D01*
X138483452Y-68615833D01*
X138626309Y-68615833D01*
X138816785Y-68663452D01*
X138912023Y-68711071D01*
X139007261Y-68806309D01*
X139054880Y-68949166D01*
X139054880Y-69187261D01*
X128609166Y-71092023D02*
X128609166Y-70615833D01*
X128894880Y-71187261D02*
X127894880Y-70853928D01*
X128894880Y-70520595D01*
X128894880Y-69663452D02*
X128894880Y-70234880D01*
X128894880Y-69949166D02*
X127894880Y-69949166D01*
X128037738Y-70044404D01*
X128132976Y-70139642D01*
X128180595Y-70234880D01*
X141071071Y-82857142D02*
X141118690Y-82714285D01*
X141166309Y-82666666D01*
X141261547Y-82619047D01*
X141404404Y-82619047D01*
X141499642Y-82666666D01*
X141547261Y-82714285D01*
X141594880Y-82809523D01*
X141594880Y-83190476D01*
X140594880Y-83190476D01*
X140594880Y-82857142D01*
X140642500Y-82761904D01*
X140690119Y-82714285D01*
X140785357Y-82666666D01*
X140880595Y-82666666D01*
X140975833Y-82714285D01*
X141023452Y-82761904D01*
X141071071Y-82857142D01*
X141071071Y-83190476D01*
X141594880Y-82190476D02*
X140928214Y-82190476D01*
X140594880Y-82190476D02*
X140642500Y-82238095D01*
X140690119Y-82190476D01*
X140642500Y-82142857D01*
X140594880Y-82190476D01*
X140690119Y-82190476D01*
X140928214Y-81285714D02*
X141737738Y-81285714D01*
X141832976Y-81333333D01*
X141880595Y-81380952D01*
X141928214Y-81476190D01*
X141928214Y-81619047D01*
X141880595Y-81714285D01*
X141547261Y-81285714D02*
X141594880Y-81380952D01*
X141594880Y-81571428D01*
X141547261Y-81666666D01*
X141499642Y-81714285D01*
X141404404Y-81761904D01*
X141118690Y-81761904D01*
X141023452Y-81714285D01*
X140975833Y-81666666D01*
X140928214Y-81571428D01*
X140928214Y-81380952D01*
X140975833Y-81285714D01*
X140594880Y-80952380D02*
X140594880Y-80380952D01*
X141594880Y-80666666D02*
X140594880Y-80666666D01*
X141594880Y-80047619D02*
X140928214Y-80047619D01*
X141118690Y-80047619D02*
X141023452Y-80000000D01*
X140975833Y-79952380D01*
X140928214Y-79857142D01*
X140928214Y-79761904D01*
X141547261Y-79047619D02*
X141594880Y-79142857D01*
X141594880Y-79333333D01*
X141547261Y-79428571D01*
X141452023Y-79476190D01*
X141071071Y-79476190D01*
X140975833Y-79428571D01*
X140928214Y-79333333D01*
X140928214Y-79142857D01*
X140975833Y-79047619D01*
X141071071Y-79000000D01*
X141166309Y-79000000D01*
X141261547Y-79476190D01*
X141547261Y-78190476D02*
X141594880Y-78285714D01*
X141594880Y-78476190D01*
X141547261Y-78571428D01*
X141452023Y-78619047D01*
X141071071Y-78619047D01*
X140975833Y-78571428D01*
X140928214Y-78476190D01*
X140928214Y-78285714D01*
X140975833Y-78190476D01*
X141071071Y-78142857D01*
X141166309Y-78142857D01*
X141261547Y-78619047D01*
X140594880Y-77857142D02*
X140594880Y-77285714D01*
X141594880Y-77571428D02*
X140594880Y-77571428D01*
X141547261Y-76571428D02*
X141594880Y-76666666D01*
X141594880Y-76857142D01*
X141547261Y-76952380D01*
X141452023Y-77000000D01*
X141071071Y-77000000D01*
X140975833Y-76952380D01*
X140928214Y-76857142D01*
X140928214Y-76666666D01*
X140975833Y-76571428D01*
X141071071Y-76523809D01*
X141166309Y-76523809D01*
X141261547Y-77000000D01*
X141547261Y-75666666D02*
X141594880Y-75761904D01*
X141594880Y-75952380D01*
X141547261Y-76047619D01*
X141499642Y-76095238D01*
X141404404Y-76142857D01*
X141118690Y-76142857D01*
X141023452Y-76095238D01*
X140975833Y-76047619D01*
X140928214Y-75952380D01*
X140928214Y-75761904D01*
X140975833Y-75666666D01*
X141594880Y-75238095D02*
X140594880Y-75238095D01*
X141594880Y-74809523D02*
X141071071Y-74809523D01*
X140975833Y-74857142D01*
X140928214Y-74952380D01*
X140928214Y-75095238D01*
X140975833Y-75190476D01*
X141023452Y-75238095D01*
X121475238Y-79817619D02*
X121475238Y-80817619D01*
X121237142Y-80817619D01*
X121094285Y-80770000D01*
X120999047Y-80674761D01*
X120951428Y-80579523D01*
X120903809Y-80389047D01*
X120903809Y-80246190D01*
X120951428Y-80055714D01*
X120999047Y-79960476D01*
X121094285Y-79865238D01*
X121237142Y-79817619D01*
X121475238Y-79817619D01*
X120475238Y-79817619D02*
X120475238Y-80817619D01*
X120046666Y-80103333D02*
X119570476Y-80103333D01*
X120141904Y-79817619D02*
X119808571Y-80817619D01*
X119475238Y-79817619D01*
X118618095Y-80770000D02*
X118713333Y-80817619D01*
X118856190Y-80817619D01*
X118999047Y-80770000D01*
X119094285Y-80674761D01*
X119141904Y-80579523D01*
X119189523Y-80389047D01*
X119189523Y-80246190D01*
X119141904Y-80055714D01*
X119094285Y-79960476D01*
X118999047Y-79865238D01*
X118856190Y-79817619D01*
X118760952Y-79817619D01*
X118618095Y-79865238D01*
X118570476Y-79912857D01*
X118570476Y-80246190D01*
X118760952Y-80246190D01*
X141594880Y-88955595D02*
X140594880Y-88955595D01*
X140594880Y-88717500D01*
X140642500Y-88574642D01*
X140737738Y-88479404D01*
X140832976Y-88431785D01*
X141023452Y-88384166D01*
X141166309Y-88384166D01*
X141356785Y-88431785D01*
X141452023Y-88479404D01*
X141547261Y-88574642D01*
X141594880Y-88717500D01*
X141594880Y-88955595D01*
X141594880Y-87955595D02*
X140594880Y-87955595D01*
X141594880Y-86907976D02*
X141118690Y-87241309D01*
X141594880Y-87479404D02*
X140594880Y-87479404D01*
X140594880Y-87098452D01*
X140642500Y-87003214D01*
X140690119Y-86955595D01*
X140785357Y-86907976D01*
X140928214Y-86907976D01*
X141023452Y-86955595D01*
X141071071Y-87003214D01*
X141118690Y-87098452D01*
X141118690Y-87479404D01*
X126354880Y-89527023D02*
X125354880Y-89527023D01*
X126069166Y-89193690D01*
X125354880Y-88860357D01*
X126354880Y-88860357D01*
X126307261Y-88431785D02*
X126354880Y-88288928D01*
X126354880Y-88050833D01*
X126307261Y-87955595D01*
X126259642Y-87907976D01*
X126164404Y-87860357D01*
X126069166Y-87860357D01*
X125973928Y-87907976D01*
X125926309Y-87955595D01*
X125878690Y-88050833D01*
X125831071Y-88241309D01*
X125783452Y-88336547D01*
X125735833Y-88384166D01*
X125640595Y-88431785D01*
X125545357Y-88431785D01*
X125450119Y-88384166D01*
X125402500Y-88336547D01*
X125354880Y-88241309D01*
X125354880Y-88003214D01*
X125402500Y-87860357D01*
X126354880Y-86907976D02*
X126354880Y-87479404D01*
X126354880Y-87193690D02*
X125354880Y-87193690D01*
X125497738Y-87288928D01*
X125592976Y-87384166D01*
X125640595Y-87479404D01*
X122814880Y-71187261D02*
X123814880Y-70853928D01*
X122814880Y-70520595D01*
X123814880Y-70187261D02*
X122814880Y-70187261D01*
X123529166Y-69853928D01*
X122814880Y-69520595D01*
X123814880Y-69520595D01*
X133974880Y-89527023D02*
X132974880Y-89527023D01*
X132974880Y-89146071D01*
X133022500Y-89050833D01*
X133070119Y-89003214D01*
X133165357Y-88955595D01*
X133308214Y-88955595D01*
X133403452Y-89003214D01*
X133451071Y-89050833D01*
X133498690Y-89146071D01*
X133498690Y-89527023D01*
X133974880Y-88527023D02*
X132974880Y-88527023D01*
X132974880Y-88288928D01*
X133022500Y-88146071D01*
X133117738Y-88050833D01*
X133212976Y-88003214D01*
X133403452Y-87955595D01*
X133546309Y-87955595D01*
X133736785Y-88003214D01*
X133832023Y-88050833D01*
X133927261Y-88146071D01*
X133974880Y-88288928D01*
X133974880Y-88527023D01*
X133974880Y-87527023D02*
X132974880Y-87527023D01*
X133974880Y-86955595D01*
X132974880Y-86955595D01*
X121903809Y-83357619D02*
X121570476Y-82357619D01*
X121237142Y-83357619D01*
X120332380Y-82357619D02*
X120665714Y-82833809D01*
X120903809Y-82357619D02*
X120903809Y-83357619D01*
X120522857Y-83357619D01*
X120427619Y-83310000D01*
X120380000Y-83262380D01*
X120332380Y-83167142D01*
X120332380Y-83024285D01*
X120380000Y-82929047D01*
X120427619Y-82881428D01*
X120522857Y-82833809D01*
X120903809Y-82833809D01*
X119903809Y-82881428D02*
X119570476Y-82881428D01*
X119427619Y-82357619D02*
X119903809Y-82357619D01*
X119903809Y-83357619D01*
X119427619Y-83357619D01*
X118665714Y-82881428D02*
X118999047Y-82881428D01*
X118999047Y-82357619D02*
X118999047Y-83357619D01*
X118522857Y-83357619D01*
X125402500Y-70520595D02*
X125354880Y-70615833D01*
X125354880Y-70758690D01*
X125402500Y-70901547D01*
X125497738Y-70996785D01*
X125592976Y-71044404D01*
X125783452Y-71092023D01*
X125926309Y-71092023D01*
X126116785Y-71044404D01*
X126212023Y-70996785D01*
X126307261Y-70901547D01*
X126354880Y-70758690D01*
X126354880Y-70663452D01*
X126307261Y-70520595D01*
X126259642Y-70472976D01*
X125926309Y-70472976D01*
X125926309Y-70663452D01*
X126354880Y-70044404D02*
X125354880Y-70044404D01*
X126354880Y-69472976D01*
X125354880Y-69472976D01*
X126354880Y-68996785D02*
X125354880Y-68996785D01*
X125354880Y-68758690D01*
X125402500Y-68615833D01*
X125497738Y-68520595D01*
X125592976Y-68472976D01*
X125783452Y-68425357D01*
X125926309Y-68425357D01*
X126116785Y-68472976D01*
X126212023Y-68520595D01*
X126307261Y-68615833D01*
X126354880Y-68758690D01*
X126354880Y-68996785D01*
X139007261Y-90142023D02*
X139054880Y-89999166D01*
X139054880Y-89761071D01*
X139007261Y-89665833D01*
X138959642Y-89618214D01*
X138864404Y-89570595D01*
X138769166Y-89570595D01*
X138673928Y-89618214D01*
X138626309Y-89665833D01*
X138578690Y-89761071D01*
X138531071Y-89951547D01*
X138483452Y-90046785D01*
X138435833Y-90094404D01*
X138340595Y-90142023D01*
X138245357Y-90142023D01*
X138150119Y-90094404D01*
X138102500Y-90046785D01*
X138054880Y-89951547D01*
X138054880Y-89713452D01*
X138102500Y-89570595D01*
X138054880Y-89284880D02*
X138054880Y-88713452D01*
X139054880Y-88999166D02*
X138054880Y-88999166D01*
X138531071Y-88380119D02*
X138531071Y-88046785D01*
X139054880Y-87903928D02*
X139054880Y-88380119D01*
X138054880Y-88380119D01*
X138054880Y-87903928D01*
X139054880Y-87475357D02*
X138054880Y-87475357D01*
X138054880Y-87094404D01*
X138102500Y-86999166D01*
X138150119Y-86951547D01*
X138245357Y-86903928D01*
X138388214Y-86903928D01*
X138483452Y-86951547D01*
X138531071Y-86999166D01*
X138578690Y-87094404D01*
X138578690Y-87475357D01*
X143134880Y-84541309D02*
X143134880Y-83969880D01*
X144134880Y-84255595D02*
X143134880Y-84255595D01*
X144134880Y-83636547D02*
X143134880Y-83636547D01*
X143849166Y-83303214D01*
X143134880Y-82969880D01*
X144134880Y-82969880D01*
X144039642Y-81922261D02*
X144087261Y-81969880D01*
X144134880Y-82112738D01*
X144134880Y-82207976D01*
X144087261Y-82350833D01*
X143992023Y-82446071D01*
X143896785Y-82493690D01*
X143706309Y-82541309D01*
X143563452Y-82541309D01*
X143372976Y-82493690D01*
X143277738Y-82446071D01*
X143182500Y-82350833D01*
X143134880Y-82207976D01*
X143134880Y-82112738D01*
X143182500Y-81969880D01*
X143230119Y-81922261D01*
X143230119Y-81541309D02*
X143182500Y-81493690D01*
X143134880Y-81398452D01*
X143134880Y-81160357D01*
X143182500Y-81065119D01*
X143230119Y-81017500D01*
X143325357Y-80969880D01*
X143420595Y-80969880D01*
X143563452Y-81017500D01*
X144134880Y-81588928D01*
X144134880Y-80969880D01*
X143230119Y-80588928D02*
X143182500Y-80541309D01*
X143134880Y-80446071D01*
X143134880Y-80207976D01*
X143182500Y-80112738D01*
X143230119Y-80065119D01*
X143325357Y-80017500D01*
X143420595Y-80017500D01*
X143563452Y-80065119D01*
X144134880Y-80636547D01*
X144134880Y-80017500D01*
X143134880Y-79398452D02*
X143134880Y-79303214D01*
X143182500Y-79207976D01*
X143230119Y-79160357D01*
X143325357Y-79112738D01*
X143515833Y-79065119D01*
X143753928Y-79065119D01*
X143944404Y-79112738D01*
X144039642Y-79160357D01*
X144087261Y-79207976D01*
X144134880Y-79303214D01*
X144134880Y-79398452D01*
X144087261Y-79493690D01*
X144039642Y-79541309D01*
X143944404Y-79588928D01*
X143753928Y-79636547D01*
X143515833Y-79636547D01*
X143325357Y-79588928D01*
X143230119Y-79541309D01*
X143182500Y-79493690D01*
X143134880Y-79398452D01*
X144134880Y-78588928D02*
X144134880Y-78398452D01*
X144087261Y-78303214D01*
X144039642Y-78255595D01*
X143896785Y-78160357D01*
X143706309Y-78112738D01*
X143325357Y-78112738D01*
X143230119Y-78160357D01*
X143182500Y-78207976D01*
X143134880Y-78303214D01*
X143134880Y-78493690D01*
X143182500Y-78588928D01*
X143230119Y-78636547D01*
X143325357Y-78684166D01*
X143563452Y-78684166D01*
X143658690Y-78636547D01*
X143706309Y-78588928D01*
X143753928Y-78493690D01*
X143753928Y-78303214D01*
X143706309Y-78207976D01*
X143658690Y-78160357D01*
X143563452Y-78112738D01*
X143468214Y-77017500D02*
X144134880Y-76779404D01*
X143468214Y-76541309D01*
X144134880Y-75636547D02*
X144134880Y-76207976D01*
X144134880Y-75922261D02*
X143134880Y-75922261D01*
X143277738Y-76017500D01*
X143372976Y-76112738D01*
X143420595Y-76207976D01*
X144039642Y-75207976D02*
X144087261Y-75160357D01*
X144134880Y-75207976D01*
X144087261Y-75255595D01*
X144039642Y-75207976D01*
X144134880Y-75207976D01*
X143230119Y-74779404D02*
X143182500Y-74731785D01*
X143134880Y-74636547D01*
X143134880Y-74398452D01*
X143182500Y-74303214D01*
X143230119Y-74255595D01*
X143325357Y-74207976D01*
X143420595Y-74207976D01*
X143563452Y-74255595D01*
X144134880Y-74827023D01*
X144134880Y-74207976D01*
X133451071Y-70711071D02*
X133498690Y-70568214D01*
X133546309Y-70520595D01*
X133641547Y-70472976D01*
X133784404Y-70472976D01*
X133879642Y-70520595D01*
X133927261Y-70568214D01*
X133974880Y-70663452D01*
X133974880Y-71044404D01*
X132974880Y-71044404D01*
X132974880Y-70711071D01*
X133022500Y-70615833D01*
X133070119Y-70568214D01*
X133165357Y-70520595D01*
X133260595Y-70520595D01*
X133355833Y-70568214D01*
X133403452Y-70615833D01*
X133451071Y-70711071D01*
X133451071Y-71044404D01*
X133974880Y-69520595D02*
X133974880Y-70092023D01*
X133974880Y-69806309D02*
X132974880Y-69806309D01*
X133117738Y-69901547D01*
X133212976Y-69996785D01*
X133260595Y-70092023D01*
X131149166Y-71092023D02*
X131149166Y-70615833D01*
X131434880Y-71187261D02*
X130434880Y-70853928D01*
X131434880Y-70520595D01*
X130530119Y-70234880D02*
X130482500Y-70187261D01*
X130434880Y-70092023D01*
X130434880Y-69853928D01*
X130482500Y-69758690D01*
X130530119Y-69711071D01*
X130625357Y-69663452D01*
X130720595Y-69663452D01*
X130863452Y-69711071D01*
X131434880Y-70282500D01*
X131434880Y-69663452D01*
X131434880Y-89527023D02*
X130434880Y-89527023D01*
X130434880Y-89146071D01*
X130482500Y-89050833D01*
X130530119Y-89003214D01*
X130625357Y-88955595D01*
X130768214Y-88955595D01*
X130863452Y-89003214D01*
X130911071Y-89050833D01*
X130958690Y-89146071D01*
X130958690Y-89527023D01*
X131434880Y-88527023D02*
X130434880Y-88527023D01*
X130434880Y-88288928D01*
X130482500Y-88146071D01*
X130577738Y-88050833D01*
X130672976Y-88003214D01*
X130863452Y-87955595D01*
X131006309Y-87955595D01*
X131196785Y-88003214D01*
X131292023Y-88050833D01*
X131387261Y-88146071D01*
X131434880Y-88288928D01*
X131434880Y-88527023D01*
X131434880Y-87527023D02*
X130434880Y-87527023D01*
X131434880Y-86955595D01*
X130434880Y-86955595D01*
%TO.C,C3*%
X114702142Y-131417046D02*
X114749761Y-131464665D01*
X114797380Y-131607522D01*
X114797380Y-131702760D01*
X114749761Y-131845618D01*
X114654523Y-131940856D01*
X114559285Y-131988475D01*
X114368809Y-132036094D01*
X114225952Y-132036094D01*
X114035476Y-131988475D01*
X113940238Y-131940856D01*
X113845000Y-131845618D01*
X113797380Y-131702760D01*
X113797380Y-131607522D01*
X113845000Y-131464665D01*
X113892619Y-131417046D01*
X113797380Y-131083713D02*
X113797380Y-130464665D01*
X114178333Y-130797999D01*
X114178333Y-130655141D01*
X114225952Y-130559903D01*
X114273571Y-130512284D01*
X114368809Y-130464665D01*
X114606904Y-130464665D01*
X114702142Y-130512284D01*
X114749761Y-130559903D01*
X114797380Y-130655141D01*
X114797380Y-130940856D01*
X114749761Y-131036094D01*
X114702142Y-131083713D01*
%TO.C,SW1*%
X184011666Y-95813761D02*
X184154523Y-95861380D01*
X184392619Y-95861380D01*
X184487857Y-95813761D01*
X184535476Y-95766142D01*
X184583095Y-95670904D01*
X184583095Y-95575666D01*
X184535476Y-95480428D01*
X184487857Y-95432809D01*
X184392619Y-95385190D01*
X184202142Y-95337571D01*
X184106904Y-95289952D01*
X184059285Y-95242333D01*
X184011666Y-95147095D01*
X184011666Y-95051857D01*
X184059285Y-94956619D01*
X184106904Y-94909000D01*
X184202142Y-94861380D01*
X184440238Y-94861380D01*
X184583095Y-94909000D01*
X184916428Y-94861380D02*
X185154523Y-95861380D01*
X185345000Y-95147095D01*
X185535476Y-95861380D01*
X185773571Y-94861380D01*
X186678333Y-95861380D02*
X186106904Y-95861380D01*
X186392619Y-95861380D02*
X186392619Y-94861380D01*
X186297380Y-95004238D01*
X186202142Y-95099476D01*
X186106904Y-95147095D01*
X184083095Y-104561380D02*
X183749761Y-104085190D01*
X183511666Y-104561380D02*
X183511666Y-103561380D01*
X183892619Y-103561380D01*
X183987857Y-103609000D01*
X184035476Y-103656619D01*
X184083095Y-103751857D01*
X184083095Y-103894714D01*
X184035476Y-103989952D01*
X183987857Y-104037571D01*
X183892619Y-104085190D01*
X183511666Y-104085190D01*
X184892619Y-104513761D02*
X184797380Y-104561380D01*
X184606904Y-104561380D01*
X184511666Y-104513761D01*
X184464047Y-104418523D01*
X184464047Y-104037571D01*
X184511666Y-103942333D01*
X184606904Y-103894714D01*
X184797380Y-103894714D01*
X184892619Y-103942333D01*
X184940238Y-104037571D01*
X184940238Y-104132809D01*
X184464047Y-104228047D01*
X185368809Y-104561380D02*
X185368809Y-103561380D01*
X185368809Y-103942333D02*
X185464047Y-103894714D01*
X185654523Y-103894714D01*
X185749761Y-103942333D01*
X185797380Y-103989952D01*
X185845000Y-104085190D01*
X185845000Y-104370904D01*
X185797380Y-104466142D01*
X185749761Y-104513761D01*
X185654523Y-104561380D01*
X185464047Y-104561380D01*
X185368809Y-104513761D01*
X186416428Y-104561380D02*
X186321190Y-104513761D01*
X186273571Y-104466142D01*
X186225952Y-104370904D01*
X186225952Y-104085190D01*
X186273571Y-103989952D01*
X186321190Y-103942333D01*
X186416428Y-103894714D01*
X186559285Y-103894714D01*
X186654523Y-103942333D01*
X186702142Y-103989952D01*
X186749761Y-104085190D01*
X186749761Y-104370904D01*
X186702142Y-104466142D01*
X186654523Y-104513761D01*
X186559285Y-104561380D01*
X186416428Y-104561380D01*
X187321190Y-104561380D02*
X187225952Y-104513761D01*
X187178333Y-104466142D01*
X187130714Y-104370904D01*
X187130714Y-104085190D01*
X187178333Y-103989952D01*
X187225952Y-103942333D01*
X187321190Y-103894714D01*
X187464047Y-103894714D01*
X187559285Y-103942333D01*
X187606904Y-103989952D01*
X187654523Y-104085190D01*
X187654523Y-104370904D01*
X187606904Y-104466142D01*
X187559285Y-104513761D01*
X187464047Y-104561380D01*
X187321190Y-104561380D01*
X187940238Y-103894714D02*
X188321190Y-103894714D01*
X188083095Y-103561380D02*
X188083095Y-104418523D01*
X188130714Y-104513761D01*
X188225952Y-104561380D01*
X188321190Y-104561380D01*
%TO.C,J3*%
X191436666Y-140422380D02*
X191436666Y-141136666D01*
X191389047Y-141279523D01*
X191293809Y-141374761D01*
X191150952Y-141422380D01*
X191055714Y-141422380D01*
X191817619Y-140422380D02*
X192436666Y-140422380D01*
X192103333Y-140803333D01*
X192246190Y-140803333D01*
X192341428Y-140850952D01*
X192389047Y-140898571D01*
X192436666Y-140993809D01*
X192436666Y-141231904D01*
X192389047Y-141327142D01*
X192341428Y-141374761D01*
X192246190Y-141422380D01*
X191960476Y-141422380D01*
X191865238Y-141374761D01*
X191817619Y-141327142D01*
X188317619Y-142378571D02*
X188650952Y-142378571D01*
X188793809Y-142902380D02*
X188317619Y-142902380D01*
X188317619Y-141902380D01*
X188793809Y-141902380D01*
X189127142Y-142902380D02*
X189650952Y-142235714D01*
X189127142Y-142235714D02*
X189650952Y-142902380D01*
X189889047Y-142235714D02*
X190270000Y-142235714D01*
X190031904Y-141902380D02*
X190031904Y-142759523D01*
X190079523Y-142854761D01*
X190174761Y-142902380D01*
X190270000Y-142902380D01*
X191365238Y-142235714D02*
X191365238Y-143235714D01*
X191365238Y-142283333D02*
X191460476Y-142235714D01*
X191650952Y-142235714D01*
X191746190Y-142283333D01*
X191793809Y-142330952D01*
X191841428Y-142426190D01*
X191841428Y-142711904D01*
X191793809Y-142807142D01*
X191746190Y-142854761D01*
X191650952Y-142902380D01*
X191460476Y-142902380D01*
X191365238Y-142854761D01*
X192412857Y-142902380D02*
X192317619Y-142854761D01*
X192270000Y-142807142D01*
X192222380Y-142711904D01*
X192222380Y-142426190D01*
X192270000Y-142330952D01*
X192317619Y-142283333D01*
X192412857Y-142235714D01*
X192555714Y-142235714D01*
X192650952Y-142283333D01*
X192698571Y-142330952D01*
X192746190Y-142426190D01*
X192746190Y-142711904D01*
X192698571Y-142807142D01*
X192650952Y-142854761D01*
X192555714Y-142902380D01*
X192412857Y-142902380D01*
X193079523Y-142235714D02*
X193270000Y-142902380D01*
X193460476Y-142426190D01*
X193650952Y-142902380D01*
X193841428Y-142235714D01*
X194603333Y-142854761D02*
X194508095Y-142902380D01*
X194317619Y-142902380D01*
X194222380Y-142854761D01*
X194174761Y-142759523D01*
X194174761Y-142378571D01*
X194222380Y-142283333D01*
X194317619Y-142235714D01*
X194508095Y-142235714D01*
X194603333Y-142283333D01*
X194650952Y-142378571D01*
X194650952Y-142473809D01*
X194174761Y-142569047D01*
X195079523Y-142902380D02*
X195079523Y-142235714D01*
X195079523Y-142426190D02*
X195127142Y-142330952D01*
X195174761Y-142283333D01*
X195270000Y-142235714D01*
X195365238Y-142235714D01*
X188152738Y-146772380D02*
X188486071Y-147772380D01*
X188819404Y-146772380D01*
X189724166Y-147677142D02*
X189676547Y-147724761D01*
X189533690Y-147772380D01*
X189438452Y-147772380D01*
X189295595Y-147724761D01*
X189200357Y-147629523D01*
X189152738Y-147534285D01*
X189105119Y-147343809D01*
X189105119Y-147200952D01*
X189152738Y-147010476D01*
X189200357Y-146915238D01*
X189295595Y-146820000D01*
X189438452Y-146772380D01*
X189533690Y-146772380D01*
X189676547Y-146820000D01*
X189724166Y-146867619D01*
X190724166Y-147677142D02*
X190676547Y-147724761D01*
X190533690Y-147772380D01*
X190438452Y-147772380D01*
X190295595Y-147724761D01*
X190200357Y-147629523D01*
X190152738Y-147534285D01*
X190105119Y-147343809D01*
X190105119Y-147200952D01*
X190152738Y-147010476D01*
X190200357Y-146915238D01*
X190295595Y-146820000D01*
X190438452Y-146772380D01*
X190533690Y-146772380D01*
X190676547Y-146820000D01*
X190724166Y-146867619D01*
X188468095Y-144250000D02*
X188372857Y-144202380D01*
X188230000Y-144202380D01*
X188087142Y-144250000D01*
X187991904Y-144345238D01*
X187944285Y-144440476D01*
X187896666Y-144630952D01*
X187896666Y-144773809D01*
X187944285Y-144964285D01*
X187991904Y-145059523D01*
X188087142Y-145154761D01*
X188230000Y-145202380D01*
X188325238Y-145202380D01*
X188468095Y-145154761D01*
X188515714Y-145107142D01*
X188515714Y-144773809D01*
X188325238Y-144773809D01*
X188944285Y-145202380D02*
X188944285Y-144202380D01*
X189515714Y-145202380D01*
X189515714Y-144202380D01*
X189991904Y-145202380D02*
X189991904Y-144202380D01*
X190230000Y-144202380D01*
X190372857Y-144250000D01*
X190468095Y-144345238D01*
X190515714Y-144440476D01*
X190563333Y-144630952D01*
X190563333Y-144773809D01*
X190515714Y-144964285D01*
X190468095Y-145059523D01*
X190372857Y-145154761D01*
X190230000Y-145202380D01*
X189991904Y-145202380D01*
%TO.C,R8*%
X117799380Y-121936166D02*
X117323190Y-122269500D01*
X117799380Y-122507595D02*
X116799380Y-122507595D01*
X116799380Y-122126642D01*
X116847000Y-122031404D01*
X116894619Y-121983785D01*
X116989857Y-121936166D01*
X117132714Y-121936166D01*
X117227952Y-121983785D01*
X117275571Y-122031404D01*
X117323190Y-122126642D01*
X117323190Y-122507595D01*
X117227952Y-121364738D02*
X117180333Y-121459976D01*
X117132714Y-121507595D01*
X117037476Y-121555214D01*
X116989857Y-121555214D01*
X116894619Y-121507595D01*
X116847000Y-121459976D01*
X116799380Y-121364738D01*
X116799380Y-121174261D01*
X116847000Y-121079023D01*
X116894619Y-121031404D01*
X116989857Y-120983785D01*
X117037476Y-120983785D01*
X117132714Y-121031404D01*
X117180333Y-121079023D01*
X117227952Y-121174261D01*
X117227952Y-121364738D01*
X117275571Y-121459976D01*
X117323190Y-121507595D01*
X117418428Y-121555214D01*
X117608904Y-121555214D01*
X117704142Y-121507595D01*
X117751761Y-121459976D01*
X117799380Y-121364738D01*
X117799380Y-121174261D01*
X117751761Y-121079023D01*
X117704142Y-121031404D01*
X117608904Y-120983785D01*
X117418428Y-120983785D01*
X117323190Y-121031404D01*
X117275571Y-121079023D01*
X117227952Y-121174261D01*
%TO.C,C1*%
X163380142Y-78974287D02*
X163427761Y-79021906D01*
X163475380Y-79164763D01*
X163475380Y-79260001D01*
X163427761Y-79402859D01*
X163332523Y-79498097D01*
X163237285Y-79545716D01*
X163046809Y-79593335D01*
X162903952Y-79593335D01*
X162713476Y-79545716D01*
X162618238Y-79498097D01*
X162523000Y-79402859D01*
X162475380Y-79260001D01*
X162475380Y-79164763D01*
X162523000Y-79021906D01*
X162570619Y-78974287D01*
X163475380Y-78021906D02*
X163475380Y-78593335D01*
X163475380Y-78307621D02*
X162475380Y-78307621D01*
X162618238Y-78402859D01*
X162713476Y-78498097D01*
X162761095Y-78593335D01*
%TO.C,L1*%
X104140333Y-137369380D02*
X103664142Y-137369380D01*
X103664142Y-136369380D01*
X104997476Y-137369380D02*
X104426047Y-137369380D01*
X104711761Y-137369380D02*
X104711761Y-136369380D01*
X104616523Y-136512238D01*
X104521285Y-136607476D01*
X104426047Y-136655095D01*
D11*
%TO.C,X1*%
X98532500Y-66741000D02*
X98532500Y-71181000D01*
X117832500Y-66741000D02*
X98532500Y-66741000D01*
X98532500Y-71181000D02*
X98949500Y-71181000D01*
X117832500Y-71181000D02*
X117832500Y-66741000D01*
X117415500Y-71181000D02*
X117832500Y-71181000D01*
D12*
X118812500Y-69331000D02*
G75*
G03*
X118812500Y-69331000I-100000J0D01*
G01*
D13*
%TO.C,C2*%
X127611000Y-81069621D02*
X126015000Y-81069621D01*
X127611000Y-81269621D02*
X126167000Y-81269621D01*
X131485000Y-80749621D02*
X129691000Y-80749621D01*
X130490000Y-75688380D02*
X130490000Y-76318380D01*
X127611000Y-81109621D02*
X126044000Y-81109621D01*
X130485000Y-81869621D02*
X126817000Y-81869621D01*
X131840000Y-79708621D02*
X129691000Y-79708621D01*
X127611000Y-79868621D02*
X125492000Y-79868621D01*
X127611000Y-81469621D02*
X126346000Y-81469621D01*
X127611000Y-80709621D02*
X125795000Y-80709621D01*
X127611000Y-79748621D02*
X125469000Y-79748621D01*
X131463000Y-80789621D02*
X129691000Y-80789621D01*
X130365000Y-81949621D02*
X126937000Y-81949621D01*
X127611000Y-81349621D02*
X126235000Y-81349621D01*
X131818000Y-79828621D02*
X129691000Y-79828621D01*
X131637000Y-80429621D02*
X129691000Y-80429621D01*
X131826000Y-79788621D02*
X129691000Y-79788621D01*
X127611000Y-80549621D02*
X125717000Y-80549621D01*
X131527000Y-80669621D02*
X129691000Y-80669621D01*
X131547000Y-80629621D02*
X129691000Y-80629621D01*
X130695000Y-81709621D02*
X126607000Y-81709621D01*
X127611000Y-81389621D02*
X126271000Y-81389621D01*
X131852000Y-79628621D02*
X129691000Y-79628621D01*
X129913000Y-82189621D02*
X127389000Y-82189621D01*
X131875000Y-79388621D02*
X125427000Y-79388621D01*
X130994000Y-81429621D02*
X129691000Y-81429621D01*
X131567000Y-80589621D02*
X129691000Y-80589621D01*
X127611000Y-80189621D02*
X125577000Y-80189621D01*
X131684000Y-80309621D02*
X129691000Y-80309621D01*
X131833000Y-79748621D02*
X129691000Y-79748621D01*
X130301000Y-81989621D02*
X127001000Y-81989621D01*
X127611000Y-79788621D02*
X125476000Y-79788621D01*
X131669000Y-80349621D02*
X129691000Y-80349621D01*
X127611000Y-81309621D02*
X126201000Y-81309621D01*
X127611000Y-81029621D02*
X125987000Y-81029621D01*
X131199000Y-81189621D02*
X129691000Y-81189621D01*
X130427000Y-81909621D02*
X126875000Y-81909621D01*
X127611000Y-80349621D02*
X125633000Y-80349621D01*
X131229000Y-81149621D02*
X129691000Y-81149621D01*
X127611000Y-80629621D02*
X125755000Y-80629621D01*
X129816000Y-82229621D02*
X127486000Y-82229621D01*
X131031000Y-81389621D02*
X129691000Y-81389621D01*
X131258000Y-81109621D02*
X129691000Y-81109621D01*
X131881000Y-79228621D02*
X125421000Y-79228621D01*
X127611000Y-79428621D02*
X125429000Y-79428621D01*
X131879000Y-79308621D02*
X125423000Y-79308621D01*
X131698000Y-80269621D02*
X129691000Y-80269621D01*
X129284000Y-82389621D02*
X128018000Y-82389621D01*
X131878000Y-79348621D02*
X125424000Y-79348621D01*
X127611000Y-80829621D02*
X125861000Y-80829621D01*
X127611000Y-80229621D02*
X125590000Y-80229621D01*
X131737000Y-80149621D02*
X129691000Y-80149621D01*
X130595000Y-81789621D02*
X126707000Y-81789621D01*
X131287000Y-81069621D02*
X129691000Y-81069621D01*
X131067000Y-81349621D02*
X129691000Y-81349621D01*
X131341000Y-80989621D02*
X129691000Y-80989621D01*
X131782000Y-79989621D02*
X129691000Y-79989621D01*
X127611000Y-79628621D02*
X125450000Y-79628621D01*
X131846000Y-79668621D02*
X129691000Y-79668621D01*
X130541000Y-81829621D02*
X126761000Y-81829621D01*
X127611000Y-79548621D02*
X125440000Y-79548621D01*
X131712000Y-80229621D02*
X129691000Y-80229621D01*
X131792000Y-79949621D02*
X129691000Y-79949621D01*
X131441000Y-80829621D02*
X129691000Y-80829621D01*
X131603000Y-80509621D02*
X129691000Y-80509621D01*
X127611000Y-79828621D02*
X125484000Y-79828621D01*
X130083000Y-82109621D02*
X127219000Y-82109621D01*
X130001000Y-82149621D02*
X127301000Y-82149621D01*
X131417000Y-80869621D02*
X129691000Y-80869621D01*
X127611000Y-80989621D02*
X125961000Y-80989621D01*
X130916000Y-81509621D02*
X126386000Y-81509621D01*
X127611000Y-80669621D02*
X125775000Y-80669621D01*
X131367000Y-80949621D02*
X129691000Y-80949621D01*
X129453000Y-82349621D02*
X127849000Y-82349621D01*
X127611000Y-80149621D02*
X125565000Y-80149621D01*
X127611000Y-80469621D02*
X125681000Y-80469621D01*
X131857000Y-79588621D02*
X129691000Y-79588621D01*
X131393000Y-80909621D02*
X129691000Y-80909621D01*
X127611000Y-80429621D02*
X125665000Y-80429621D01*
X130646000Y-81749621D02*
X126656000Y-81749621D01*
X127611000Y-79588621D02*
X125445000Y-79588621D01*
X129710000Y-82269621D02*
X127592000Y-82269621D01*
X131866000Y-79508621D02*
X129691000Y-79508621D01*
X129591000Y-82309621D02*
X127711000Y-82309621D01*
X129053000Y-82429621D02*
X128249000Y-82429621D01*
X127611000Y-80029621D02*
X125530000Y-80029621D01*
X127611000Y-81149621D02*
X126073000Y-81149621D01*
X131585000Y-80549621D02*
X129691000Y-80549621D01*
X127611000Y-80789621D02*
X125839000Y-80789621D01*
X130956000Y-81469621D02*
X129691000Y-81469621D01*
X131749000Y-80109621D02*
X129691000Y-80109621D01*
X131881000Y-79188621D02*
X125421000Y-79188621D01*
X131772000Y-80029621D02*
X129691000Y-80029621D01*
X127611000Y-80109621D02*
X125553000Y-80109621D01*
X127611000Y-79909621D02*
X125501000Y-79909621D01*
X131801000Y-79909621D02*
X129691000Y-79909621D01*
X131167000Y-81229621D02*
X129691000Y-81229621D01*
X127611000Y-80269621D02*
X125604000Y-80269621D01*
X127611000Y-79949621D02*
X125510000Y-79949621D01*
X131653000Y-80389621D02*
X129691000Y-80389621D01*
X127611000Y-80909621D02*
X125909000Y-80909621D01*
X131881000Y-79268621D02*
X125421000Y-79268621D01*
X127611000Y-79708621D02*
X125462000Y-79708621D01*
X130788000Y-81629621D02*
X126514000Y-81629621D01*
X127611000Y-80869621D02*
X125885000Y-80869621D01*
X130160000Y-82069621D02*
X127142000Y-82069621D01*
X127611000Y-80509621D02*
X125699000Y-80509621D01*
X127611000Y-80069621D02*
X125541000Y-80069621D01*
X127611000Y-80749621D02*
X125817000Y-80749621D01*
X127611000Y-81189621D02*
X126103000Y-81189621D01*
X127611000Y-80949621D02*
X125935000Y-80949621D01*
X131315000Y-81029621D02*
X129691000Y-81029621D01*
X127611000Y-80589621D02*
X125735000Y-80589621D01*
X131810000Y-79868621D02*
X129691000Y-79868621D01*
X131873000Y-79428621D02*
X129691000Y-79428621D01*
X131101000Y-81309621D02*
X129691000Y-81309621D01*
X127611000Y-81229621D02*
X126135000Y-81229621D01*
X127611000Y-79668621D02*
X125456000Y-79668621D01*
X127611000Y-79508621D02*
X125436000Y-79508621D01*
X131507000Y-80709621D02*
X129691000Y-80709621D01*
X127611000Y-81429621D02*
X126308000Y-81429621D01*
X130805000Y-76003380D02*
X130175000Y-76003380D01*
X131869000Y-79468621D02*
X129691000Y-79468621D01*
X131725000Y-80189621D02*
X129691000Y-80189621D01*
X127611000Y-80309621D02*
X125618000Y-80309621D01*
X130232000Y-82029621D02*
X127070000Y-82029621D01*
X130875000Y-81549621D02*
X126427000Y-81549621D01*
X127611000Y-79989621D02*
X125520000Y-79989621D01*
X127611000Y-80389621D02*
X125649000Y-80389621D01*
X131135000Y-81269621D02*
X129691000Y-81269621D01*
X127611000Y-79468621D02*
X125433000Y-79468621D01*
X130833000Y-81589621D02*
X126469000Y-81589621D01*
X130743000Y-81669621D02*
X126559000Y-81669621D01*
X131862000Y-79548621D02*
X129691000Y-79548621D01*
X131761000Y-80069621D02*
X129691000Y-80069621D01*
X131621000Y-80469621D02*
X129691000Y-80469621D01*
X131921000Y-79188621D02*
G75*
G03*
X131921000Y-79188621I-3270000J0D01*
G01*
%TO.C,Q1*%
X109800000Y-112490000D02*
X109800000Y-110980000D01*
X113070000Y-112490000D02*
X113070000Y-107849000D01*
X113070000Y-107849000D02*
X102830000Y-107849000D01*
X113070000Y-110980000D02*
X102830000Y-110980000D01*
X102830000Y-112490000D02*
X102830000Y-107849000D01*
X113070000Y-112490000D02*
X102830000Y-112490000D01*
X106099000Y-112490000D02*
X106099000Y-110980000D01*
%TO.C,R1*%
X164365000Y-134847064D02*
X164365000Y-134392936D01*
X165835000Y-134847064D02*
X165835000Y-134392936D01*
%TO.C,R5*%
X107040000Y-99602936D02*
X107040000Y-101057064D01*
X108860000Y-99602936D02*
X108860000Y-101057064D01*
%TO.C,J1*%
X166750000Y-60645000D02*
X166750000Y-61395000D01*
X168550000Y-59145000D02*
X167800000Y-59145000D01*
X156700000Y-59145000D02*
X156700000Y-56195000D01*
X159250000Y-60645000D02*
X159250000Y-61395000D01*
X157750000Y-60645000D02*
X155950000Y-60645000D01*
X155940000Y-55435000D02*
X155940000Y-61405000D01*
X165250000Y-60645000D02*
X159250000Y-60645000D01*
X168550000Y-60645000D02*
X166750000Y-60645000D01*
X167600000Y-61695000D02*
X168850000Y-61695000D01*
X168560000Y-55435000D02*
X155940000Y-55435000D01*
X168550000Y-61395000D02*
X168550000Y-60645000D01*
X157750000Y-61395000D02*
X157750000Y-60645000D01*
X155940000Y-61405000D02*
X168560000Y-61405000D01*
X156700000Y-56195000D02*
X162250000Y-56195000D01*
X168560000Y-61405000D02*
X168560000Y-55435000D01*
X166750000Y-61395000D02*
X168550000Y-61395000D01*
X159250000Y-61395000D02*
X165250000Y-61395000D01*
X167800000Y-56195000D02*
X162250000Y-56195000D01*
X155950000Y-61395000D02*
X157750000Y-61395000D01*
X167800000Y-59145000D02*
X167800000Y-56195000D01*
X155950000Y-60645000D02*
X155950000Y-61395000D01*
X155950000Y-59145000D02*
X156700000Y-59145000D01*
X165250000Y-61395000D02*
X165250000Y-60645000D01*
X168850000Y-61695000D02*
X168850000Y-60445000D01*
%TO.C,U4*%
X115861000Y-147078000D02*
X115861000Y-146128000D01*
X115861000Y-137628000D02*
X110736000Y-137628000D01*
X117361000Y-136678000D02*
X115861000Y-136678000D01*
X115861000Y-146128000D02*
X114761000Y-146128000D01*
X117361000Y-147078000D02*
X115861000Y-147078000D01*
X115861000Y-136678000D02*
X115861000Y-137628000D01*
%TO.C,Q2*%
X118605500Y-115697000D02*
X118605500Y-115047000D01*
X115485500Y-115697000D02*
X115485500Y-117372000D01*
X118605500Y-115697000D02*
X118605500Y-116347000D01*
X115485500Y-115697000D02*
X115485500Y-115047000D01*
%TO.C,R7*%
X103780000Y-101057064D02*
X103780000Y-99602936D01*
X101960000Y-101057064D02*
X101960000Y-99602936D01*
%TO.C,J2*%
X166310000Y-145990000D02*
X167640000Y-145990000D01*
X168910000Y-145990000D02*
X181670000Y-145990000D01*
X166310000Y-147320000D02*
X166310000Y-145990000D01*
X168910000Y-148650000D02*
X181670000Y-148650000D01*
X168910000Y-148650000D02*
X168910000Y-145990000D01*
X181670000Y-148650000D02*
X181670000Y-145990000D01*
%TO.C,D1*%
X106529000Y-141312000D02*
X106529000Y-139612000D01*
X106529000Y-139612000D02*
X103979000Y-139612000D01*
X106529000Y-141312000D02*
X103979000Y-141312000D01*
%TO.C,C4*%
X100871000Y-147929000D02*
X108931000Y-147929000D01*
X108931000Y-147929000D02*
X108931000Y-143409000D01*
X108931000Y-143409000D02*
X100871000Y-143409000D01*
D11*
%TO.C,SW3*%
X97496500Y-94953750D02*
X111496500Y-94953750D01*
X97496500Y-74153750D02*
X97496500Y-94953750D01*
X111496500Y-74153750D02*
X111496500Y-94953750D01*
X111496500Y-74153750D02*
X97496500Y-74153750D01*
D12*
X116250500Y-84411750D02*
G75*
G03*
X116250500Y-84411750I-100000J0D01*
G01*
D13*
%TO.C,J6*%
X194497000Y-133858000D02*
X194497000Y-113478000D01*
X194497000Y-133858000D02*
X191837000Y-133858000D01*
X193167000Y-136458000D02*
X191837000Y-136458000D01*
X191837000Y-133858000D02*
X191837000Y-113478000D01*
X191837000Y-136458000D02*
X191837000Y-135128000D01*
X194497000Y-113478000D02*
X191837000Y-113478000D01*
%TO.C,U2*%
X136820000Y-106860000D02*
X136820000Y-106460000D01*
X136820000Y-127160000D02*
X136820000Y-126760000D01*
X136820000Y-142460000D02*
X136820000Y-142060000D01*
X157820000Y-144960000D02*
X157820000Y-144560000D01*
X136820000Y-134860000D02*
X136820000Y-134460000D01*
X157820000Y-119560000D02*
X157820000Y-119160000D01*
X136820000Y-144960000D02*
X136820000Y-144560000D01*
X157820000Y-122160000D02*
X157820000Y-121760000D01*
X136820000Y-139860000D02*
X136820000Y-139460000D01*
X148820000Y-98960000D02*
X148420000Y-98960000D01*
X157820000Y-137360000D02*
X157820000Y-136960000D01*
X136820000Y-149960000D02*
X136820000Y-149660000D01*
X136820000Y-101760000D02*
X136820000Y-101360000D01*
X146220000Y-98960000D02*
X145820000Y-98960000D01*
X157820000Y-101760000D02*
X157820000Y-101360000D01*
X136820000Y-117060000D02*
X136820000Y-116660000D01*
X157820000Y-147560000D02*
X157820000Y-147160000D01*
X136820000Y-122160000D02*
X136820000Y-121760000D01*
X136820000Y-129760000D02*
X136820000Y-129360000D01*
X136820000Y-147560000D02*
X136820000Y-147160000D01*
X151020000Y-98960000D02*
X157820000Y-98960000D01*
X157820000Y-117060000D02*
X157820000Y-116660000D01*
X136820000Y-119560000D02*
X136820000Y-119160000D01*
X157820000Y-132260000D02*
X157820000Y-131860000D01*
X157820000Y-114460000D02*
X157820000Y-114060000D01*
X154813000Y-147293000D02*
X154813000Y-149960000D01*
X157820000Y-104360000D02*
X157820000Y-103960000D01*
X157820000Y-124660000D02*
X157820000Y-124260000D01*
X136820000Y-98960000D02*
X143620000Y-98960000D01*
X136820000Y-124660000D02*
X136820000Y-124260000D01*
X157820000Y-111960000D02*
X157820000Y-111560000D01*
X157820000Y-134860000D02*
X157820000Y-134460000D01*
X136820000Y-132260000D02*
X136820000Y-131860000D01*
X136820000Y-109360000D02*
X136820000Y-108960000D01*
X136820000Y-137360000D02*
X136820000Y-136960000D01*
X157820000Y-149960000D02*
X136820000Y-149960000D01*
X157820000Y-129760000D02*
X157820000Y-129360000D01*
X157820000Y-149960000D02*
X157820000Y-149660000D01*
X157820000Y-147293000D02*
X154813000Y-147293000D01*
X136820000Y-111960000D02*
X136820000Y-111560000D01*
X136820000Y-104360000D02*
X136820000Y-103960000D01*
X136820000Y-114460000D02*
X136820000Y-114060000D01*
X157820000Y-106860000D02*
X157820000Y-106460000D01*
X157820000Y-142460000D02*
X157820000Y-142060000D01*
X157820000Y-139860000D02*
X157820000Y-139460000D01*
X157820000Y-127160000D02*
X157820000Y-126760000D01*
X157820000Y-109360000D02*
X157820000Y-108960000D01*
%TO.C,J5*%
X97760000Y-54450000D02*
X97760000Y-51390000D01*
X97760000Y-51390000D02*
X107980000Y-51390000D01*
X107980000Y-64610000D02*
X105170000Y-64610000D01*
X100570000Y-64610000D02*
X97760000Y-64610000D01*
X103870000Y-64800000D02*
X101870000Y-64800000D01*
X107980000Y-51390000D02*
X107980000Y-54450000D01*
X107980000Y-58550000D02*
X107980000Y-64610000D01*
X97760000Y-64610000D02*
X97760000Y-58550000D01*
%TO.C,R6*%
X112120000Y-99602936D02*
X112120000Y-101057064D01*
X113940000Y-99602936D02*
X113940000Y-101057064D01*
%TO.C,J4*%
X127580000Y-60899000D02*
X125780000Y-60899000D01*
X125780000Y-61649000D02*
X127580000Y-61649000D01*
X127580000Y-61649000D02*
X127580000Y-60899000D01*
X125770000Y-61659000D02*
X138390000Y-61659000D01*
X125780000Y-60899000D02*
X125780000Y-61649000D01*
X136580000Y-61649000D02*
X138380000Y-61649000D01*
X125770000Y-55689000D02*
X125770000Y-61659000D01*
X129080000Y-60899000D02*
X129080000Y-61649000D01*
X126530000Y-56449000D02*
X132080000Y-56449000D01*
X137630000Y-59399000D02*
X137630000Y-56449000D01*
X138680000Y-61949000D02*
X138680000Y-60699000D01*
X135080000Y-60899000D02*
X129080000Y-60899000D01*
X138390000Y-61659000D02*
X138390000Y-55689000D01*
X138380000Y-59399000D02*
X137630000Y-59399000D01*
X136580000Y-60899000D02*
X136580000Y-61649000D01*
X138380000Y-60899000D02*
X136580000Y-60899000D01*
X137630000Y-56449000D02*
X132080000Y-56449000D01*
X138390000Y-55689000D02*
X125770000Y-55689000D01*
X129080000Y-61649000D02*
X135080000Y-61649000D01*
X126530000Y-59399000D02*
X126530000Y-56449000D01*
X137430000Y-61949000D02*
X138680000Y-61949000D01*
X138380000Y-61649000D02*
X138380000Y-60899000D01*
X125780000Y-59399000D02*
X126530000Y-59399000D01*
X135080000Y-61649000D02*
X135080000Y-60899000D01*
%TO.C,C3*%
X119785000Y-129769380D02*
X121621000Y-129769380D01*
X119785000Y-130770380D02*
X121940000Y-130770380D01*
X115515000Y-131210380D02*
X121975000Y-131210380D01*
X115759000Y-130009380D02*
X117705000Y-130009380D01*
X119785000Y-130610380D02*
X121912000Y-130610380D01*
X115527000Y-130970380D02*
X117705000Y-130970380D01*
X116167000Y-129289380D02*
X117705000Y-129289380D01*
X119785000Y-131010380D02*
X121967000Y-131010380D01*
X117580000Y-128209380D02*
X119910000Y-128209380D01*
X116911000Y-128569380D02*
X120579000Y-128569380D01*
X118112000Y-128049380D02*
X119378000Y-128049380D01*
X115671000Y-130249380D02*
X117705000Y-130249380D01*
X116855000Y-128609380D02*
X120635000Y-128609380D01*
X119785000Y-130289380D02*
X121831000Y-130289380D01*
X119785000Y-130049380D02*
X121747000Y-130049380D01*
X118343000Y-128009380D02*
X119147000Y-128009380D01*
X119785000Y-130329380D02*
X121843000Y-130329380D01*
X115578000Y-130610380D02*
X117705000Y-130610380D01*
X115515000Y-131170380D02*
X121975000Y-131170380D01*
X119785000Y-129009380D02*
X121088000Y-129009380D01*
X116229000Y-129209380D02*
X117705000Y-129209380D01*
X119785000Y-130129380D02*
X121778000Y-130129380D01*
X119785000Y-129529380D02*
X121487000Y-129529380D01*
X117395000Y-128289380D02*
X120095000Y-128289380D01*
X115698000Y-130169380D02*
X117705000Y-130169380D01*
X115647000Y-130329380D02*
X117705000Y-130329380D01*
X115517000Y-131130380D02*
X121973000Y-131130380D01*
X116521000Y-128889380D02*
X120969000Y-128889380D01*
X119785000Y-130409380D02*
X121866000Y-130409380D01*
X115727000Y-130089380D02*
X117705000Y-130089380D01*
X119785000Y-129209380D02*
X121261000Y-129209380D01*
X116906000Y-134750621D02*
X116906000Y-134120621D01*
X115614000Y-130449380D02*
X117705000Y-130449380D01*
X119785000Y-129969380D02*
X121715000Y-129969380D01*
X119785000Y-129569380D02*
X121511000Y-129569380D01*
X115911000Y-129689380D02*
X117705000Y-129689380D01*
X119785000Y-130169380D02*
X121792000Y-130169380D01*
X116138000Y-129329380D02*
X117705000Y-129329380D01*
X115793000Y-129929380D02*
X117705000Y-129929380D01*
X115563000Y-130690380D02*
X117705000Y-130690380D01*
X115521000Y-131050380D02*
X121969000Y-131050380D01*
X115534000Y-130890380D02*
X117705000Y-130890380D01*
X115712000Y-130129380D02*
X117705000Y-130129380D01*
X115955000Y-129609380D02*
X117705000Y-129609380D01*
X119785000Y-129889380D02*
X121679000Y-129889380D01*
X115659000Y-130289380D02*
X117705000Y-130289380D01*
X119785000Y-129049380D02*
X121125000Y-129049380D01*
X115530000Y-130930380D02*
X117705000Y-130930380D01*
X119785000Y-129449380D02*
X121435000Y-129449380D01*
X119785000Y-129129380D02*
X121195000Y-129129380D01*
X115570000Y-130650380D02*
X117705000Y-130650380D01*
X116329000Y-129089380D02*
X117705000Y-129089380D01*
X115811000Y-129889380D02*
X117705000Y-129889380D01*
X119785000Y-130890380D02*
X121956000Y-130890380D01*
X115595000Y-130529380D02*
X117705000Y-130529380D01*
X119785000Y-129089380D02*
X121161000Y-129089380D01*
X117313000Y-128329380D02*
X120177000Y-128329380D01*
X116701000Y-128729380D02*
X120789000Y-128729380D01*
X119785000Y-129169380D02*
X121229000Y-129169380D01*
X116480000Y-128929380D02*
X121010000Y-128929380D01*
X119785000Y-130730380D02*
X121934000Y-130730380D01*
X119785000Y-130810380D02*
X121946000Y-130810380D01*
X116750000Y-128689380D02*
X120740000Y-128689380D01*
X119785000Y-129609380D02*
X121535000Y-129609380D01*
X116295000Y-129129380D02*
X117705000Y-129129380D01*
X119785000Y-128969380D02*
X121050000Y-128969380D01*
X119785000Y-129649380D02*
X121557000Y-129649380D01*
X116029000Y-129489380D02*
X117705000Y-129489380D01*
X116365000Y-129049380D02*
X117705000Y-129049380D01*
X117236000Y-128369380D02*
X120254000Y-128369380D01*
X116563000Y-128849380D02*
X120927000Y-128849380D01*
X119785000Y-130690380D02*
X121927000Y-130690380D01*
X116261000Y-129169380D02*
X117705000Y-129169380D01*
X117686000Y-128169380D02*
X119804000Y-128169380D01*
X119785000Y-130089380D02*
X121763000Y-130089380D01*
X116440000Y-128969380D02*
X117705000Y-128969380D01*
X116653000Y-128769380D02*
X120837000Y-128769380D01*
X117943000Y-128089380D02*
X119547000Y-128089380D01*
X117483000Y-128249380D02*
X120007000Y-128249380D01*
X119785000Y-130650380D02*
X121920000Y-130650380D01*
X119785000Y-129369380D02*
X121381000Y-129369380D01*
X119785000Y-129329380D02*
X121352000Y-129329380D01*
X117095000Y-128449380D02*
X120395000Y-128449380D01*
X115539000Y-130850380D02*
X117705000Y-130850380D01*
X117031000Y-128489380D02*
X120459000Y-128489380D01*
X115544000Y-130810380D02*
X117705000Y-130810380D01*
X116608000Y-128809380D02*
X120882000Y-128809380D01*
X119785000Y-129409380D02*
X121409000Y-129409380D01*
X115775000Y-129969380D02*
X117705000Y-129969380D01*
X116591000Y-134435621D02*
X117221000Y-134435621D01*
X117805000Y-128129380D02*
X119685000Y-128129380D01*
X119785000Y-129849380D02*
X121661000Y-129849380D01*
X119785000Y-130570380D02*
X121904000Y-130570380D01*
X116197000Y-129249380D02*
X117705000Y-129249380D01*
X115635000Y-130369380D02*
X117705000Y-130369380D01*
X119785000Y-130970380D02*
X121963000Y-130970380D01*
X116402000Y-129009380D02*
X117705000Y-129009380D01*
X119785000Y-130850380D02*
X121951000Y-130850380D01*
X119785000Y-130489380D02*
X121886000Y-130489380D01*
X119785000Y-129729380D02*
X121601000Y-129729380D01*
X115624000Y-130409380D02*
X117705000Y-130409380D01*
X115849000Y-129809380D02*
X117705000Y-129809380D01*
X119785000Y-130209380D02*
X121806000Y-130209380D01*
X119785000Y-129689380D02*
X121579000Y-129689380D01*
X119785000Y-129289380D02*
X121323000Y-129289380D01*
X115515000Y-131250380D02*
X121975000Y-131250380D01*
X116055000Y-129449380D02*
X117705000Y-129449380D01*
X119785000Y-129249380D02*
X121293000Y-129249380D01*
X115523000Y-131010380D02*
X117705000Y-131010380D01*
X119785000Y-129489380D02*
X121461000Y-129489380D01*
X115550000Y-130770380D02*
X117705000Y-130770380D01*
X116081000Y-129409380D02*
X117705000Y-129409380D01*
X119785000Y-130930380D02*
X121960000Y-130930380D01*
X115518000Y-131090380D02*
X121972000Y-131090380D01*
X115586000Y-130570380D02*
X117705000Y-130570380D01*
X117164000Y-128409380D02*
X120326000Y-128409380D01*
X115979000Y-129569380D02*
X117705000Y-129569380D01*
X116969000Y-128529380D02*
X120521000Y-128529380D01*
X119785000Y-130369380D02*
X121855000Y-130369380D01*
X115684000Y-130209380D02*
X117705000Y-130209380D01*
X115829000Y-129849380D02*
X117705000Y-129849380D01*
X119785000Y-130249380D02*
X121819000Y-130249380D01*
X116003000Y-129529380D02*
X117705000Y-129529380D01*
X119785000Y-130529380D02*
X121895000Y-130529380D01*
X116801000Y-128649380D02*
X120689000Y-128649380D01*
X116109000Y-129369380D02*
X117705000Y-129369380D01*
X119785000Y-130009380D02*
X121731000Y-130009380D01*
X119785000Y-130449380D02*
X121876000Y-130449380D01*
X119785000Y-129809380D02*
X121641000Y-129809380D01*
X115869000Y-129769380D02*
X117705000Y-129769380D01*
X115933000Y-129649380D02*
X117705000Y-129649380D01*
X115556000Y-130730380D02*
X117705000Y-130730380D01*
X115604000Y-130489380D02*
X117705000Y-130489380D01*
X119785000Y-129929380D02*
X121697000Y-129929380D01*
X115743000Y-130049380D02*
X117705000Y-130049380D01*
X115889000Y-129729380D02*
X117705000Y-129729380D01*
X122015000Y-131250380D02*
G75*
G03*
X122015000Y-131250380I-3270000J0D01*
G01*
%TO.C,SW1*%
X181845000Y-98909000D02*
X181845000Y-100409000D01*
X188845000Y-100409000D02*
X188845000Y-98909000D01*
X187595000Y-96409000D02*
X183095000Y-96409000D01*
X183095000Y-102909000D02*
X187595000Y-102909000D01*
%TO.C,J3*%
X191710000Y-146050000D02*
X191710000Y-143450000D01*
X194370000Y-146050000D02*
X194370000Y-143450000D01*
X194370000Y-147320000D02*
X194370000Y-148650000D01*
X194370000Y-146050000D02*
X191710000Y-146050000D01*
X194370000Y-143450000D02*
X191710000Y-143450000D01*
X194370000Y-148650000D02*
X193040000Y-148650000D01*
%TO.C,R8*%
X116432000Y-121542436D02*
X116432000Y-121996564D01*
X114962000Y-121542436D02*
X114962000Y-121996564D01*
%TO.C,C1*%
X157583000Y-80408621D02*
X155811000Y-80408621D01*
X161073000Y-80928621D02*
X159663000Y-80928621D01*
X161339000Y-80568621D02*
X159663000Y-80568621D01*
X157583000Y-80488621D02*
X155857000Y-80488621D01*
X157583000Y-80608621D02*
X155933000Y-80608621D01*
X157583000Y-81008621D02*
X156243000Y-81008621D01*
X161853000Y-78807621D02*
X155393000Y-78807621D01*
X159788000Y-81848621D02*
X157458000Y-81848621D01*
X157583000Y-79768621D02*
X155537000Y-79768621D01*
X157583000Y-80208621D02*
X155707000Y-80208621D01*
X160132000Y-81688621D02*
X157114000Y-81688621D01*
X157583000Y-79247621D02*
X155422000Y-79247621D01*
X161847000Y-79007621D02*
X155399000Y-79007621D01*
X161365000Y-80528621D02*
X159663000Y-80528621D01*
X160847000Y-81168621D02*
X156399000Y-81168621D01*
X157583000Y-79087621D02*
X155405000Y-79087621D01*
X157583000Y-80928621D02*
X156173000Y-80928621D01*
X161851000Y-78927621D02*
X155395000Y-78927621D01*
X159885000Y-81808621D02*
X157361000Y-81808621D01*
X161287000Y-80648621D02*
X159663000Y-80648621D01*
X157583000Y-79568621D02*
X155482000Y-79568621D01*
X161853000Y-78887621D02*
X155393000Y-78887621D01*
X161853000Y-78847621D02*
X155393000Y-78847621D01*
X157583000Y-80808621D02*
X156075000Y-80808621D01*
X161805000Y-79367621D02*
X159663000Y-79367621D01*
X161754000Y-79608621D02*
X159663000Y-79608621D01*
X157583000Y-80568621D02*
X155907000Y-80568621D01*
X161790000Y-79447621D02*
X159663000Y-79447621D01*
X161709000Y-79768621D02*
X159663000Y-79768621D01*
X161171000Y-80808621D02*
X159663000Y-80808621D01*
X161107000Y-80888621D02*
X159663000Y-80888621D01*
X157583000Y-79407621D02*
X155448000Y-79407621D01*
X157583000Y-80128621D02*
X155671000Y-80128621D01*
X159973000Y-81768621D02*
X157273000Y-81768621D01*
X157583000Y-80168621D02*
X155689000Y-80168621D01*
X157583000Y-79648621D02*
X155502000Y-79648621D01*
X157583000Y-79167621D02*
X155412000Y-79167621D01*
X161798000Y-79407621D02*
X159663000Y-79407621D01*
X161039000Y-80968621D02*
X159663000Y-80968621D01*
X160618000Y-81368621D02*
X156628000Y-81368621D01*
X161850000Y-78967621D02*
X155396000Y-78967621D01*
X161539000Y-80208621D02*
X159663000Y-80208621D01*
X157583000Y-80328621D02*
X155767000Y-80328621D01*
X161230000Y-80728621D02*
X159663000Y-80728621D01*
X161764000Y-79568621D02*
X159663000Y-79568621D01*
X157583000Y-79728621D02*
X155525000Y-79728621D01*
X157583000Y-79968621D02*
X155605000Y-79968621D01*
X160462000Y-75307380D02*
X160462000Y-75937380D01*
X161479000Y-80328621D02*
X159663000Y-80328621D01*
X160567000Y-81408621D02*
X156679000Y-81408621D01*
X161625000Y-80008621D02*
X159663000Y-80008621D01*
X161834000Y-79167621D02*
X159663000Y-79167621D01*
X161201000Y-80768621D02*
X159663000Y-80768621D01*
X159025000Y-82048621D02*
X158221000Y-82048621D01*
X161557000Y-80168621D02*
X159663000Y-80168621D01*
X161656000Y-79928621D02*
X159663000Y-79928621D01*
X157583000Y-80088621D02*
X155653000Y-80088621D01*
X160337000Y-81568621D02*
X156909000Y-81568621D01*
X161721000Y-79728621D02*
X159663000Y-79728621D01*
X160805000Y-81208621D02*
X156441000Y-81208621D01*
X161744000Y-79648621D02*
X159663000Y-79648621D01*
X161841000Y-79087621D02*
X159663000Y-79087621D01*
X157583000Y-79528621D02*
X155473000Y-79528621D01*
X161609000Y-80048621D02*
X159663000Y-80048621D01*
X159425000Y-81968621D02*
X157821000Y-81968621D01*
X157583000Y-79608621D02*
X155492000Y-79608621D01*
X161782000Y-79487621D02*
X159663000Y-79487621D01*
X157583000Y-80688621D02*
X155987000Y-80688621D01*
X157583000Y-81048621D02*
X156280000Y-81048621D01*
X161519000Y-80248621D02*
X159663000Y-80248621D01*
X160928000Y-81088621D02*
X159663000Y-81088621D01*
X161413000Y-80448621D02*
X159663000Y-80448621D01*
X157583000Y-79808621D02*
X155549000Y-79808621D01*
X157583000Y-79127621D02*
X155408000Y-79127621D01*
X160399000Y-81528621D02*
X156847000Y-81528621D01*
X160966000Y-81048621D02*
X159663000Y-81048621D01*
X161457000Y-80368621D02*
X159663000Y-80368621D01*
X157583000Y-80848621D02*
X156107000Y-80848621D01*
X157583000Y-79848621D02*
X155562000Y-79848621D01*
X159256000Y-82008621D02*
X157990000Y-82008621D01*
X161313000Y-80608621D02*
X159663000Y-80608621D01*
X157583000Y-80048621D02*
X155637000Y-80048621D01*
X161389000Y-80488621D02*
X159663000Y-80488621D01*
X161697000Y-79808621D02*
X159663000Y-79808621D01*
X160055000Y-81728621D02*
X157191000Y-81728621D01*
X157583000Y-79287621D02*
X155428000Y-79287621D01*
X161499000Y-80288621D02*
X159663000Y-80288621D01*
X157583000Y-79888621D02*
X155576000Y-79888621D01*
X157583000Y-79207621D02*
X155417000Y-79207621D01*
X157583000Y-80288621D02*
X155747000Y-80288621D01*
X159563000Y-81928621D02*
X157683000Y-81928621D01*
X161733000Y-79688621D02*
X159663000Y-79688621D01*
X161684000Y-79848621D02*
X159663000Y-79848621D01*
X160273000Y-81608621D02*
X156973000Y-81608621D01*
X157583000Y-80728621D02*
X156016000Y-80728621D01*
X157583000Y-80648621D02*
X155959000Y-80648621D01*
X160667000Y-81328621D02*
X156579000Y-81328621D01*
X157583000Y-80888621D02*
X156139000Y-80888621D01*
X161259000Y-80688621D02*
X159663000Y-80688621D01*
X157583000Y-80968621D02*
X156207000Y-80968621D01*
X157583000Y-80528621D02*
X155881000Y-80528621D01*
X157583000Y-80448621D02*
X155833000Y-80448621D01*
X157583000Y-80768621D02*
X156045000Y-80768621D01*
X159682000Y-81888621D02*
X157564000Y-81888621D01*
X157583000Y-80008621D02*
X155621000Y-80008621D01*
X157583000Y-79047621D02*
X155401000Y-79047621D01*
X161139000Y-80848621D02*
X159663000Y-80848621D01*
X157583000Y-80368621D02*
X155789000Y-80368621D01*
X161670000Y-79888621D02*
X159663000Y-79888621D01*
X157583000Y-80248621D02*
X155727000Y-80248621D01*
X160204000Y-81648621D02*
X157042000Y-81648621D01*
X157583000Y-79447621D02*
X155456000Y-79447621D01*
X161003000Y-81008621D02*
X159663000Y-81008621D01*
X160777000Y-75622380D02*
X160147000Y-75622380D01*
X161818000Y-79287621D02*
X159663000Y-79287621D01*
X161824000Y-79247621D02*
X159663000Y-79247621D01*
X161641000Y-79968621D02*
X159663000Y-79968621D01*
X161838000Y-79127621D02*
X159663000Y-79127621D01*
X161829000Y-79207621D02*
X159663000Y-79207621D01*
X160457000Y-81488621D02*
X156789000Y-81488621D01*
X160760000Y-81248621D02*
X156486000Y-81248621D01*
X161435000Y-80408621D02*
X159663000Y-80408621D01*
X157583000Y-79688621D02*
X155513000Y-79688621D01*
X157583000Y-79487621D02*
X155464000Y-79487621D01*
X157583000Y-79327621D02*
X155434000Y-79327621D01*
X157583000Y-79928621D02*
X155590000Y-79928621D01*
X157583000Y-79367621D02*
X155441000Y-79367621D01*
X161773000Y-79528621D02*
X159663000Y-79528621D01*
X157583000Y-81088621D02*
X156318000Y-81088621D01*
X161812000Y-79327621D02*
X159663000Y-79327621D01*
X160513000Y-81448621D02*
X156733000Y-81448621D01*
X161575000Y-80128621D02*
X159663000Y-80128621D01*
X160715000Y-81288621D02*
X156531000Y-81288621D01*
X160888000Y-81128621D02*
X156358000Y-81128621D01*
X161845000Y-79047621D02*
X159663000Y-79047621D01*
X161593000Y-80088621D02*
X159663000Y-80088621D01*
X161893000Y-78807621D02*
G75*
G03*
X161893000Y-78807621I-3270000J0D01*
G01*
%TO.C,L1*%
X110427000Y-129667000D02*
G75*
G03*
X110427000Y-129667000I-6120000J0D01*
G01*
%TD*%
M02*
