%TF.GenerationSoftware,KiCad,Pcbnew,6.0.8-f2edbf62ab~116~ubuntu22.04.1*%
%TF.CreationDate,2022-10-12T11:28:17-04:00*%
%TF.ProjectId,can-crusher,63616e2d-6372-4757-9368-65722e6b6963,1*%
%TF.SameCoordinates,Original*%
%TF.FileFunction,Legend,Bot*%
%TF.FilePolarity,Positive*%
%FSLAX46Y46*%
G04 Gerber Fmt 4.6, Leading zero omitted, Abs format (unit mm)*
G04 Created by KiCad (PCBNEW 6.0.8-f2edbf62ab~116~ubuntu22.04.1) date 2022-10-12 11:28:17*
%MOMM*%
%LPD*%
G01*
G04 APERTURE LIST*
%ADD10C,0.150000*%
%ADD11C,0.300000*%
G04 APERTURE END LIST*
D10*
X111299047Y-52792380D02*
X111299047Y-53506666D01*
X111346666Y-53649523D01*
X111441904Y-53744761D01*
X111584761Y-53792380D01*
X111680000Y-53792380D01*
X110346666Y-53792380D02*
X110822857Y-53792380D01*
X110822857Y-52792380D01*
X109441904Y-53697142D02*
X109489523Y-53744761D01*
X109632380Y-53792380D01*
X109727619Y-53792380D01*
X109870476Y-53744761D01*
X109965714Y-53649523D01*
X110013333Y-53554285D01*
X110060952Y-53363809D01*
X110060952Y-53220952D01*
X110013333Y-53030476D01*
X109965714Y-52935238D01*
X109870476Y-52840000D01*
X109727619Y-52792380D01*
X109632380Y-52792380D01*
X109489523Y-52840000D01*
X109441904Y-52887619D01*
X108727619Y-52792380D02*
X108727619Y-53506666D01*
X108775238Y-53649523D01*
X108870476Y-53744761D01*
X109013333Y-53792380D01*
X109108571Y-53792380D01*
X107775238Y-53792380D02*
X108251428Y-53792380D01*
X108251428Y-52792380D01*
X106870476Y-53697142D02*
X106918095Y-53744761D01*
X107060952Y-53792380D01*
X107156190Y-53792380D01*
X107299047Y-53744761D01*
X107394285Y-53649523D01*
X107441904Y-53554285D01*
X107489523Y-53363809D01*
X107489523Y-53220952D01*
X107441904Y-53030476D01*
X107394285Y-52935238D01*
X107299047Y-52840000D01*
X107156190Y-52792380D01*
X107060952Y-52792380D01*
X106918095Y-52840000D01*
X106870476Y-52887619D01*
X106156190Y-52792380D02*
X106156190Y-53506666D01*
X106203809Y-53649523D01*
X106299047Y-53744761D01*
X106441904Y-53792380D01*
X106537142Y-53792380D01*
X105203809Y-53792380D02*
X105680000Y-53792380D01*
X105680000Y-52792380D01*
X104299047Y-53697142D02*
X104346666Y-53744761D01*
X104489523Y-53792380D01*
X104584761Y-53792380D01*
X104727619Y-53744761D01*
X104822857Y-53649523D01*
X104870476Y-53554285D01*
X104918095Y-53363809D01*
X104918095Y-53220952D01*
X104870476Y-53030476D01*
X104822857Y-52935238D01*
X104727619Y-52840000D01*
X104584761Y-52792380D01*
X104489523Y-52792380D01*
X104346666Y-52840000D01*
X104299047Y-52887619D01*
X103584761Y-52792380D02*
X103584761Y-53506666D01*
X103632380Y-53649523D01*
X103727619Y-53744761D01*
X103870476Y-53792380D01*
X103965714Y-53792380D01*
X102632380Y-53792380D02*
X103108571Y-53792380D01*
X103108571Y-52792380D01*
X101727619Y-53697142D02*
X101775238Y-53744761D01*
X101918095Y-53792380D01*
X102013333Y-53792380D01*
X102156190Y-53744761D01*
X102251428Y-53649523D01*
X102299047Y-53554285D01*
X102346666Y-53363809D01*
X102346666Y-53220952D01*
X102299047Y-53030476D01*
X102251428Y-52935238D01*
X102156190Y-52840000D01*
X102013333Y-52792380D01*
X101918095Y-52792380D01*
X101775238Y-52840000D01*
X101727619Y-52887619D01*
X183052380Y-56332380D02*
X183052380Y-55332380D01*
X182623809Y-56332380D02*
X182623809Y-55808571D01*
X182671428Y-55713333D01*
X182766666Y-55665714D01*
X182909523Y-55665714D01*
X183004761Y-55713333D01*
X183052380Y-55760952D01*
X182290476Y-55665714D02*
X181909523Y-55665714D01*
X182147619Y-55332380D02*
X182147619Y-56189523D01*
X182100000Y-56284761D01*
X182004761Y-56332380D01*
X181909523Y-56332380D01*
X181719047Y-55665714D02*
X181338095Y-55665714D01*
X181576190Y-55332380D02*
X181576190Y-56189523D01*
X181528571Y-56284761D01*
X181433333Y-56332380D01*
X181338095Y-56332380D01*
X181004761Y-55665714D02*
X181004761Y-56665714D01*
X181004761Y-55713333D02*
X180909523Y-55665714D01*
X180719047Y-55665714D01*
X180623809Y-55713333D01*
X180576190Y-55760952D01*
X180528571Y-55856190D01*
X180528571Y-56141904D01*
X180576190Y-56237142D01*
X180623809Y-56284761D01*
X180719047Y-56332380D01*
X180909523Y-56332380D01*
X181004761Y-56284761D01*
X180147619Y-56284761D02*
X180052380Y-56332380D01*
X179861904Y-56332380D01*
X179766666Y-56284761D01*
X179719047Y-56189523D01*
X179719047Y-56141904D01*
X179766666Y-56046666D01*
X179861904Y-55999047D01*
X180004761Y-55999047D01*
X180100000Y-55951428D01*
X180147619Y-55856190D01*
X180147619Y-55808571D01*
X180100000Y-55713333D01*
X180004761Y-55665714D01*
X179861904Y-55665714D01*
X179766666Y-55713333D01*
X179290476Y-56237142D02*
X179242857Y-56284761D01*
X179290476Y-56332380D01*
X179338095Y-56284761D01*
X179290476Y-56237142D01*
X179290476Y-56332380D01*
X179290476Y-55713333D02*
X179242857Y-55760952D01*
X179290476Y-55808571D01*
X179338095Y-55760952D01*
X179290476Y-55713333D01*
X179290476Y-55808571D01*
X178100000Y-55284761D02*
X178957142Y-56570476D01*
X177052380Y-55284761D02*
X177909523Y-56570476D01*
X176290476Y-55665714D02*
X176290476Y-56475238D01*
X176338095Y-56570476D01*
X176385714Y-56618095D01*
X176480952Y-56665714D01*
X176623809Y-56665714D01*
X176719047Y-56618095D01*
X176290476Y-56284761D02*
X176385714Y-56332380D01*
X176576190Y-56332380D01*
X176671428Y-56284761D01*
X176719047Y-56237142D01*
X176766666Y-56141904D01*
X176766666Y-55856190D01*
X176719047Y-55760952D01*
X176671428Y-55713333D01*
X176576190Y-55665714D01*
X176385714Y-55665714D01*
X176290476Y-55713333D01*
X175814285Y-56332380D02*
X175814285Y-55665714D01*
X175814285Y-55332380D02*
X175861904Y-55380000D01*
X175814285Y-55427619D01*
X175766666Y-55380000D01*
X175814285Y-55332380D01*
X175814285Y-55427619D01*
X175480952Y-55665714D02*
X175100000Y-55665714D01*
X175338095Y-55332380D02*
X175338095Y-56189523D01*
X175290476Y-56284761D01*
X175195238Y-56332380D01*
X175100000Y-56332380D01*
X174766666Y-56332380D02*
X174766666Y-55332380D01*
X174338095Y-56332380D02*
X174338095Y-55808571D01*
X174385714Y-55713333D01*
X174480952Y-55665714D01*
X174623809Y-55665714D01*
X174719047Y-55713333D01*
X174766666Y-55760952D01*
X173433333Y-55665714D02*
X173433333Y-56332380D01*
X173861904Y-55665714D02*
X173861904Y-56189523D01*
X173814285Y-56284761D01*
X173719047Y-56332380D01*
X173576190Y-56332380D01*
X173480952Y-56284761D01*
X173433333Y-56237142D01*
X172957142Y-56332380D02*
X172957142Y-55332380D01*
X172957142Y-55713333D02*
X172861904Y-55665714D01*
X172671428Y-55665714D01*
X172576190Y-55713333D01*
X172528571Y-55760952D01*
X172480952Y-55856190D01*
X172480952Y-56141904D01*
X172528571Y-56237142D01*
X172576190Y-56284761D01*
X172671428Y-56332380D01*
X172861904Y-56332380D01*
X172957142Y-56284761D01*
X172052380Y-56237142D02*
X172004761Y-56284761D01*
X172052380Y-56332380D01*
X172100000Y-56284761D01*
X172052380Y-56237142D01*
X172052380Y-56332380D01*
X171147619Y-56284761D02*
X171242857Y-56332380D01*
X171433333Y-56332380D01*
X171528571Y-56284761D01*
X171576190Y-56237142D01*
X171623809Y-56141904D01*
X171623809Y-55856190D01*
X171576190Y-55760952D01*
X171528571Y-55713333D01*
X171433333Y-55665714D01*
X171242857Y-55665714D01*
X171147619Y-55713333D01*
X170576190Y-56332380D02*
X170671428Y-56284761D01*
X170719047Y-56237142D01*
X170766666Y-56141904D01*
X170766666Y-55856190D01*
X170719047Y-55760952D01*
X170671428Y-55713333D01*
X170576190Y-55665714D01*
X170433333Y-55665714D01*
X170338095Y-55713333D01*
X170290476Y-55760952D01*
X170242857Y-55856190D01*
X170242857Y-56141904D01*
X170290476Y-56237142D01*
X170338095Y-56284761D01*
X170433333Y-56332380D01*
X170576190Y-56332380D01*
X169814285Y-56332380D02*
X169814285Y-55665714D01*
X169814285Y-55760952D02*
X169766666Y-55713333D01*
X169671428Y-55665714D01*
X169528571Y-55665714D01*
X169433333Y-55713333D01*
X169385714Y-55808571D01*
X169385714Y-56332380D01*
X169385714Y-55808571D02*
X169338095Y-55713333D01*
X169242857Y-55665714D01*
X169100000Y-55665714D01*
X169004761Y-55713333D01*
X168957142Y-55808571D01*
X168957142Y-56332380D01*
X167766666Y-55284761D02*
X168623809Y-56570476D01*
X167004761Y-55665714D02*
X167004761Y-56475238D01*
X167052380Y-56570476D01*
X167100000Y-56618095D01*
X167195238Y-56665714D01*
X167338095Y-56665714D01*
X167433333Y-56618095D01*
X167004761Y-56284761D02*
X167100000Y-56332380D01*
X167290476Y-56332380D01*
X167385714Y-56284761D01*
X167433333Y-56237142D01*
X167480952Y-56141904D01*
X167480952Y-55856190D01*
X167433333Y-55760952D01*
X167385714Y-55713333D01*
X167290476Y-55665714D01*
X167100000Y-55665714D01*
X167004761Y-55713333D01*
X166528571Y-56332380D02*
X166528571Y-55665714D01*
X166528571Y-55856190D02*
X166480952Y-55760952D01*
X166433333Y-55713333D01*
X166338095Y-55665714D01*
X166242857Y-55665714D01*
X165480952Y-56332380D02*
X165480952Y-55808571D01*
X165528571Y-55713333D01*
X165623809Y-55665714D01*
X165814285Y-55665714D01*
X165909523Y-55713333D01*
X165480952Y-56284761D02*
X165576190Y-56332380D01*
X165814285Y-56332380D01*
X165909523Y-56284761D01*
X165957142Y-56189523D01*
X165957142Y-56094285D01*
X165909523Y-55999047D01*
X165814285Y-55951428D01*
X165576190Y-55951428D01*
X165480952Y-55903809D01*
X165004761Y-55665714D02*
X165004761Y-56332380D01*
X165004761Y-55760952D02*
X164957142Y-55713333D01*
X164861904Y-55665714D01*
X164719047Y-55665714D01*
X164623809Y-55713333D01*
X164576190Y-55808571D01*
X164576190Y-56332380D01*
X164242857Y-55665714D02*
X163861904Y-55665714D01*
X164100000Y-55332380D02*
X164100000Y-56189523D01*
X164052380Y-56284761D01*
X163957142Y-56332380D01*
X163861904Y-56332380D01*
X163528571Y-55951428D02*
X162766666Y-55951428D01*
X162147619Y-56332380D02*
X162242857Y-56284761D01*
X162290476Y-56237142D01*
X162338095Y-56141904D01*
X162338095Y-55856190D01*
X162290476Y-55760952D01*
X162242857Y-55713333D01*
X162147619Y-55665714D01*
X162004761Y-55665714D01*
X161909523Y-55713333D01*
X161861904Y-55760952D01*
X161814285Y-55856190D01*
X161814285Y-56141904D01*
X161861904Y-56237142D01*
X161909523Y-56284761D01*
X162004761Y-56332380D01*
X162147619Y-56332380D01*
X161242857Y-56332380D02*
X161338095Y-56284761D01*
X161385714Y-56189523D01*
X161385714Y-55332380D01*
X160909523Y-56284761D02*
X160814285Y-56332380D01*
X160623809Y-56332380D01*
X160528571Y-56284761D01*
X160480952Y-56189523D01*
X160480952Y-56141904D01*
X160528571Y-56046666D01*
X160623809Y-55999047D01*
X160766666Y-55999047D01*
X160861904Y-55951428D01*
X160909523Y-55856190D01*
X160909523Y-55808571D01*
X160861904Y-55713333D01*
X160766666Y-55665714D01*
X160623809Y-55665714D01*
X160528571Y-55713333D01*
X159909523Y-56332380D02*
X160004761Y-56284761D01*
X160052380Y-56237142D01*
X160100000Y-56141904D01*
X160100000Y-55856190D01*
X160052380Y-55760952D01*
X160004761Y-55713333D01*
X159909523Y-55665714D01*
X159766666Y-55665714D01*
X159671428Y-55713333D01*
X159623809Y-55760952D01*
X159576190Y-55856190D01*
X159576190Y-56141904D01*
X159623809Y-56237142D01*
X159671428Y-56284761D01*
X159766666Y-56332380D01*
X159909523Y-56332380D01*
X159147619Y-55665714D02*
X159147619Y-56332380D01*
X159147619Y-55760952D02*
X159100000Y-55713333D01*
X159004761Y-55665714D01*
X158861904Y-55665714D01*
X158766666Y-55713333D01*
X158719047Y-55808571D01*
X158719047Y-56332380D01*
X157528571Y-55284761D02*
X158385714Y-56570476D01*
X156766666Y-56284761D02*
X156861904Y-56332380D01*
X157052380Y-56332380D01*
X157147619Y-56284761D01*
X157195238Y-56237142D01*
X157242857Y-56141904D01*
X157242857Y-55856190D01*
X157195238Y-55760952D01*
X157147619Y-55713333D01*
X157052380Y-55665714D01*
X156861904Y-55665714D01*
X156766666Y-55713333D01*
X155909523Y-56332380D02*
X155909523Y-55808571D01*
X155957142Y-55713333D01*
X156052380Y-55665714D01*
X156242857Y-55665714D01*
X156338095Y-55713333D01*
X155909523Y-56284761D02*
X156004761Y-56332380D01*
X156242857Y-56332380D01*
X156338095Y-56284761D01*
X156385714Y-56189523D01*
X156385714Y-56094285D01*
X156338095Y-55999047D01*
X156242857Y-55951428D01*
X156004761Y-55951428D01*
X155909523Y-55903809D01*
X155433333Y-55665714D02*
X155433333Y-56332380D01*
X155433333Y-55760952D02*
X155385714Y-55713333D01*
X155290476Y-55665714D01*
X155147619Y-55665714D01*
X155052380Y-55713333D01*
X155004761Y-55808571D01*
X155004761Y-56332380D01*
X154528571Y-55951428D02*
X153766666Y-55951428D01*
X152861904Y-56284761D02*
X152957142Y-56332380D01*
X153147619Y-56332380D01*
X153242857Y-56284761D01*
X153290476Y-56237142D01*
X153338095Y-56141904D01*
X153338095Y-55856190D01*
X153290476Y-55760952D01*
X153242857Y-55713333D01*
X153147619Y-55665714D01*
X152957142Y-55665714D01*
X152861904Y-55713333D01*
X152433333Y-56332380D02*
X152433333Y-55665714D01*
X152433333Y-55856190D02*
X152385714Y-55760952D01*
X152338095Y-55713333D01*
X152242857Y-55665714D01*
X152147619Y-55665714D01*
X151385714Y-55665714D02*
X151385714Y-56332380D01*
X151814285Y-55665714D02*
X151814285Y-56189523D01*
X151766666Y-56284761D01*
X151671428Y-56332380D01*
X151528571Y-56332380D01*
X151433333Y-56284761D01*
X151385714Y-56237142D01*
X150957142Y-56284761D02*
X150861904Y-56332380D01*
X150671428Y-56332380D01*
X150576190Y-56284761D01*
X150528571Y-56189523D01*
X150528571Y-56141904D01*
X150576190Y-56046666D01*
X150671428Y-55999047D01*
X150814285Y-55999047D01*
X150909523Y-55951428D01*
X150957142Y-55856190D01*
X150957142Y-55808571D01*
X150909523Y-55713333D01*
X150814285Y-55665714D01*
X150671428Y-55665714D01*
X150576190Y-55713333D01*
X150100000Y-56332380D02*
X150100000Y-55332380D01*
X149671428Y-56332380D02*
X149671428Y-55808571D01*
X149719047Y-55713333D01*
X149814285Y-55665714D01*
X149957142Y-55665714D01*
X150052380Y-55713333D01*
X150100000Y-55760952D01*
X148814285Y-56284761D02*
X148909523Y-56332380D01*
X149100000Y-56332380D01*
X149195238Y-56284761D01*
X149242857Y-56189523D01*
X149242857Y-55808571D01*
X149195238Y-55713333D01*
X149100000Y-55665714D01*
X148909523Y-55665714D01*
X148814285Y-55713333D01*
X148766666Y-55808571D01*
X148766666Y-55903809D01*
X149242857Y-55999047D01*
X148338095Y-56332380D02*
X148338095Y-55665714D01*
X148338095Y-55856190D02*
X148290476Y-55760952D01*
X148242857Y-55713333D01*
X148147619Y-55665714D01*
X148052380Y-55665714D01*
X147004761Y-55284761D02*
X147861904Y-56570476D01*
D11*
X194212380Y-54054285D02*
X194307619Y-54149523D01*
X194593333Y-54244761D01*
X194783809Y-54244761D01*
X195069523Y-54149523D01*
X195260000Y-53959047D01*
X195355238Y-53768571D01*
X195450476Y-53387619D01*
X195450476Y-53101904D01*
X195355238Y-52720952D01*
X195260000Y-52530476D01*
X195069523Y-52340000D01*
X194783809Y-52244761D01*
X194593333Y-52244761D01*
X194307619Y-52340000D01*
X194212380Y-52435238D01*
X192498095Y-54244761D02*
X192498095Y-53197142D01*
X192593333Y-53006666D01*
X192783809Y-52911428D01*
X193164761Y-52911428D01*
X193355238Y-53006666D01*
X192498095Y-54149523D02*
X192688571Y-54244761D01*
X193164761Y-54244761D01*
X193355238Y-54149523D01*
X193450476Y-53959047D01*
X193450476Y-53768571D01*
X193355238Y-53578095D01*
X193164761Y-53482857D01*
X192688571Y-53482857D01*
X192498095Y-53387619D01*
X191545714Y-52911428D02*
X191545714Y-54244761D01*
X191545714Y-53101904D02*
X191450476Y-53006666D01*
X191260000Y-52911428D01*
X190974285Y-52911428D01*
X190783809Y-53006666D01*
X190688571Y-53197142D01*
X190688571Y-54244761D01*
X187069523Y-54054285D02*
X187164761Y-54149523D01*
X187450476Y-54244761D01*
X187640952Y-54244761D01*
X187926666Y-54149523D01*
X188117142Y-53959047D01*
X188212380Y-53768571D01*
X188307619Y-53387619D01*
X188307619Y-53101904D01*
X188212380Y-52720952D01*
X188117142Y-52530476D01*
X187926666Y-52340000D01*
X187640952Y-52244761D01*
X187450476Y-52244761D01*
X187164761Y-52340000D01*
X187069523Y-52435238D01*
X186212380Y-54244761D02*
X186212380Y-52911428D01*
X186212380Y-53292380D02*
X186117142Y-53101904D01*
X186021904Y-53006666D01*
X185831428Y-52911428D01*
X185640952Y-52911428D01*
X184117142Y-52911428D02*
X184117142Y-54244761D01*
X184974285Y-52911428D02*
X184974285Y-53959047D01*
X184879047Y-54149523D01*
X184688571Y-54244761D01*
X184402857Y-54244761D01*
X184212380Y-54149523D01*
X184117142Y-54054285D01*
X183260000Y-54149523D02*
X183069523Y-54244761D01*
X182688571Y-54244761D01*
X182498095Y-54149523D01*
X182402857Y-53959047D01*
X182402857Y-53863809D01*
X182498095Y-53673333D01*
X182688571Y-53578095D01*
X182974285Y-53578095D01*
X183164761Y-53482857D01*
X183260000Y-53292380D01*
X183260000Y-53197142D01*
X183164761Y-53006666D01*
X182974285Y-52911428D01*
X182688571Y-52911428D01*
X182498095Y-53006666D01*
X181545714Y-54244761D02*
X181545714Y-52244761D01*
X180688571Y-54244761D02*
X180688571Y-53197142D01*
X180783809Y-53006666D01*
X180974285Y-52911428D01*
X181260000Y-52911428D01*
X181450476Y-53006666D01*
X181545714Y-53101904D01*
X178974285Y-54149523D02*
X179164761Y-54244761D01*
X179545714Y-54244761D01*
X179736190Y-54149523D01*
X179831428Y-53959047D01*
X179831428Y-53197142D01*
X179736190Y-53006666D01*
X179545714Y-52911428D01*
X179164761Y-52911428D01*
X178974285Y-53006666D01*
X178879047Y-53197142D01*
X178879047Y-53387619D01*
X179831428Y-53578095D01*
X178021904Y-54244761D02*
X178021904Y-52911428D01*
X178021904Y-53292380D02*
X177926666Y-53101904D01*
X177831428Y-53006666D01*
X177640952Y-52911428D01*
X177450476Y-52911428D01*
X174117142Y-54054285D02*
X174212380Y-54149523D01*
X174498095Y-54244761D01*
X174688571Y-54244761D01*
X174974285Y-54149523D01*
X175164761Y-53959047D01*
X175260000Y-53768571D01*
X175355238Y-53387619D01*
X175355238Y-53101904D01*
X175260000Y-52720952D01*
X175164761Y-52530476D01*
X174974285Y-52340000D01*
X174688571Y-52244761D01*
X174498095Y-52244761D01*
X174212380Y-52340000D01*
X174117142Y-52435238D01*
X172974285Y-54244761D02*
X173164761Y-54149523D01*
X173260000Y-54054285D01*
X173355238Y-53863809D01*
X173355238Y-53292380D01*
X173260000Y-53101904D01*
X173164761Y-53006666D01*
X172974285Y-52911428D01*
X172688571Y-52911428D01*
X172498095Y-53006666D01*
X172402857Y-53101904D01*
X172307619Y-53292380D01*
X172307619Y-53863809D01*
X172402857Y-54054285D01*
X172498095Y-54149523D01*
X172688571Y-54244761D01*
X172974285Y-54244761D01*
X171450476Y-52911428D02*
X171450476Y-54244761D01*
X171450476Y-53101904D02*
X171355238Y-53006666D01*
X171164761Y-52911428D01*
X170879047Y-52911428D01*
X170688571Y-53006666D01*
X170593333Y-53197142D01*
X170593333Y-54244761D01*
X169926666Y-52911428D02*
X169164761Y-52911428D01*
X169640952Y-52244761D02*
X169640952Y-53959047D01*
X169545714Y-54149523D01*
X169355238Y-54244761D01*
X169164761Y-54244761D01*
X168498095Y-54244761D02*
X168498095Y-52911428D01*
X168498095Y-53292380D02*
X168402857Y-53101904D01*
X168307619Y-53006666D01*
X168117142Y-52911428D01*
X167926666Y-52911428D01*
X166974285Y-54244761D02*
X167164761Y-54149523D01*
X167260000Y-54054285D01*
X167355238Y-53863809D01*
X167355238Y-53292380D01*
X167260000Y-53101904D01*
X167164761Y-53006666D01*
X166974285Y-52911428D01*
X166688571Y-52911428D01*
X166498095Y-53006666D01*
X166402857Y-53101904D01*
X166307619Y-53292380D01*
X166307619Y-53863809D01*
X166402857Y-54054285D01*
X166498095Y-54149523D01*
X166688571Y-54244761D01*
X166974285Y-54244761D01*
X165164761Y-54244761D02*
X165355238Y-54149523D01*
X165450476Y-53959047D01*
X165450476Y-52244761D01*
X162212380Y-53197142D02*
X161926666Y-53292380D01*
X161831428Y-53387619D01*
X161736190Y-53578095D01*
X161736190Y-53863809D01*
X161831428Y-54054285D01*
X161926666Y-54149523D01*
X162117142Y-54244761D01*
X162879047Y-54244761D01*
X162879047Y-52244761D01*
X162212380Y-52244761D01*
X162021904Y-52340000D01*
X161926666Y-52435238D01*
X161831428Y-52625714D01*
X161831428Y-52816190D01*
X161926666Y-53006666D01*
X162021904Y-53101904D01*
X162212380Y-53197142D01*
X162879047Y-53197142D01*
X160593333Y-54244761D02*
X160783809Y-54149523D01*
X160879047Y-54054285D01*
X160974285Y-53863809D01*
X160974285Y-53292380D01*
X160879047Y-53101904D01*
X160783809Y-53006666D01*
X160593333Y-52911428D01*
X160307619Y-52911428D01*
X160117142Y-53006666D01*
X160021904Y-53101904D01*
X159926666Y-53292380D01*
X159926666Y-53863809D01*
X160021904Y-54054285D01*
X160117142Y-54149523D01*
X160307619Y-54244761D01*
X160593333Y-54244761D01*
X158212380Y-54244761D02*
X158212380Y-53197142D01*
X158307619Y-53006666D01*
X158498095Y-52911428D01*
X158879047Y-52911428D01*
X159069523Y-53006666D01*
X158212380Y-54149523D02*
X158402857Y-54244761D01*
X158879047Y-54244761D01*
X159069523Y-54149523D01*
X159164761Y-53959047D01*
X159164761Y-53768571D01*
X159069523Y-53578095D01*
X158879047Y-53482857D01*
X158402857Y-53482857D01*
X158212380Y-53387619D01*
X157260000Y-54244761D02*
X157260000Y-52911428D01*
X157260000Y-53292380D02*
X157164761Y-53101904D01*
X157069523Y-53006666D01*
X156879047Y-52911428D01*
X156688571Y-52911428D01*
X155164761Y-54244761D02*
X155164761Y-52244761D01*
X155164761Y-54149523D02*
X155355238Y-54244761D01*
X155736190Y-54244761D01*
X155926666Y-54149523D01*
X156021904Y-54054285D01*
X156117142Y-53863809D01*
X156117142Y-53292380D01*
X156021904Y-53101904D01*
X155926666Y-53006666D01*
X155736190Y-52911428D01*
X155355238Y-52911428D01*
X155164761Y-53006666D01*
X150159523Y-52435238D02*
X150064285Y-52340000D01*
X149873809Y-52244761D01*
X149397619Y-52244761D01*
X149207142Y-52340000D01*
X149111904Y-52435238D01*
X149016666Y-52625714D01*
X149016666Y-52816190D01*
X149111904Y-53101904D01*
X150254761Y-54244761D01*
X149016666Y-54244761D01*
X147778571Y-52244761D02*
X147588095Y-52244761D01*
X147397619Y-52340000D01*
X147302380Y-52435238D01*
X147207142Y-52625714D01*
X147111904Y-53006666D01*
X147111904Y-53482857D01*
X147207142Y-53863809D01*
X147302380Y-54054285D01*
X147397619Y-54149523D01*
X147588095Y-54244761D01*
X147778571Y-54244761D01*
X147969047Y-54149523D01*
X148064285Y-54054285D01*
X148159523Y-53863809D01*
X148254761Y-53482857D01*
X148254761Y-53006666D01*
X148159523Y-52625714D01*
X148064285Y-52435238D01*
X147969047Y-52340000D01*
X147778571Y-52244761D01*
X146350000Y-52435238D02*
X146254761Y-52340000D01*
X146064285Y-52244761D01*
X145588095Y-52244761D01*
X145397619Y-52340000D01*
X145302380Y-52435238D01*
X145207142Y-52625714D01*
X145207142Y-52816190D01*
X145302380Y-53101904D01*
X146445238Y-54244761D01*
X145207142Y-54244761D01*
X144445238Y-52435238D02*
X144350000Y-52340000D01*
X144159523Y-52244761D01*
X143683333Y-52244761D01*
X143492857Y-52340000D01*
X143397619Y-52435238D01*
X143302380Y-52625714D01*
X143302380Y-52816190D01*
X143397619Y-53101904D01*
X144540476Y-54244761D01*
X143302380Y-54244761D01*
X142445238Y-53482857D02*
X140921428Y-53482857D01*
X138921428Y-54244761D02*
X140064285Y-54244761D01*
X139492857Y-54244761D02*
X139492857Y-52244761D01*
X139683333Y-52530476D01*
X139873809Y-52720952D01*
X140064285Y-52816190D01*
X137683333Y-52244761D02*
X137492857Y-52244761D01*
X137302380Y-52340000D01*
X137207142Y-52435238D01*
X137111904Y-52625714D01*
X137016666Y-53006666D01*
X137016666Y-53482857D01*
X137111904Y-53863809D01*
X137207142Y-54054285D01*
X137302380Y-54149523D01*
X137492857Y-54244761D01*
X137683333Y-54244761D01*
X137873809Y-54149523D01*
X137969047Y-54054285D01*
X138064285Y-53863809D01*
X138159523Y-53482857D01*
X138159523Y-53006666D01*
X138064285Y-52625714D01*
X137969047Y-52435238D01*
X137873809Y-52340000D01*
X137683333Y-52244761D01*
X136159523Y-53482857D02*
X134635714Y-53482857D01*
X132635714Y-54244761D02*
X133778571Y-54244761D01*
X133207142Y-54244761D02*
X133207142Y-52244761D01*
X133397619Y-52530476D01*
X133588095Y-52720952D01*
X133778571Y-52816190D01*
X131873809Y-52435238D02*
X131778571Y-52340000D01*
X131588095Y-52244761D01*
X131111904Y-52244761D01*
X130921428Y-52340000D01*
X130826190Y-52435238D01*
X130730952Y-52625714D01*
X130730952Y-52816190D01*
X130826190Y-53101904D01*
X131969047Y-54244761D01*
X130730952Y-54244761D01*
X128350000Y-53482857D02*
X126826190Y-53482857D01*
X123207142Y-54244761D02*
X123873809Y-53292380D01*
X124350000Y-54244761D02*
X124350000Y-52244761D01*
X123588095Y-52244761D01*
X123397619Y-52340000D01*
X123302380Y-52435238D01*
X123207142Y-52625714D01*
X123207142Y-52911428D01*
X123302380Y-53101904D01*
X123397619Y-53197142D01*
X123588095Y-53292380D01*
X124350000Y-53292380D01*
X121588095Y-54149523D02*
X121778571Y-54244761D01*
X122159523Y-54244761D01*
X122350000Y-54149523D01*
X122445238Y-53959047D01*
X122445238Y-53197142D01*
X122350000Y-53006666D01*
X122159523Y-52911428D01*
X121778571Y-52911428D01*
X121588095Y-53006666D01*
X121492857Y-53197142D01*
X121492857Y-53387619D01*
X122445238Y-53578095D01*
X120826190Y-52911428D02*
X120350000Y-54244761D01*
X119873809Y-52911428D01*
X116540476Y-54244761D02*
X117683333Y-54244761D01*
X117111904Y-54244761D02*
X117111904Y-52244761D01*
X117302380Y-52530476D01*
X117492857Y-52720952D01*
X117683333Y-52816190D01*
M02*
