%TF.GenerationSoftware,KiCad,Pcbnew,6.0.8-f2edbf62ab~116~ubuntu22.04.1*%
%TF.CreationDate,2022-10-12T11:28:17-04:00*%
%TF.ProjectId,can-crusher,63616e2d-6372-4757-9368-65722e6b6963,1*%
%TF.SameCoordinates,Original*%
%TF.FileFunction,Legend,Top*%
%TF.FilePolarity,Positive*%
%FSLAX46Y46*%
G04 Gerber Fmt 4.6, Leading zero omitted, Abs format (unit mm)*
G04 Created by KiCad (PCBNEW 6.0.8-f2edbf62ab~116~ubuntu22.04.1) date 2022-10-12 11:28:17*
%MOMM*%
%LPD*%
G01*
G04 APERTURE LIST*
%ADD10C,0.150000*%
%ADD11C,0.120000*%
G04 APERTURE END LIST*
D10*
%TO.C,D1*%
X187292380Y-123293095D02*
X186292380Y-123293095D01*
X186292380Y-123055000D01*
X186340000Y-122912142D01*
X186435238Y-122816904D01*
X186530476Y-122769285D01*
X186720952Y-122721666D01*
X186863809Y-122721666D01*
X187054285Y-122769285D01*
X187149523Y-122816904D01*
X187244761Y-122912142D01*
X187292380Y-123055000D01*
X187292380Y-123293095D01*
X187292380Y-121769285D02*
X187292380Y-122340714D01*
X187292380Y-122055000D02*
X186292380Y-122055000D01*
X186435238Y-122150238D01*
X186530476Y-122245476D01*
X186578095Y-122340714D01*
%TO.C,Q1*%
X185277619Y-89635238D02*
X185230000Y-89730476D01*
X185134761Y-89825714D01*
X184991904Y-89968571D01*
X184944285Y-90063809D01*
X184944285Y-90159047D01*
X185182380Y-90111428D02*
X185134761Y-90206666D01*
X185039523Y-90301904D01*
X184849047Y-90349523D01*
X184515714Y-90349523D01*
X184325238Y-90301904D01*
X184230000Y-90206666D01*
X184182380Y-90111428D01*
X184182380Y-89920952D01*
X184230000Y-89825714D01*
X184325238Y-89730476D01*
X184515714Y-89682857D01*
X184849047Y-89682857D01*
X185039523Y-89730476D01*
X185134761Y-89825714D01*
X185182380Y-89920952D01*
X185182380Y-90111428D01*
X185182380Y-88730476D02*
X185182380Y-89301904D01*
X185182380Y-89016190D02*
X184182380Y-89016190D01*
X184325238Y-89111428D01*
X184420476Y-89206666D01*
X184468095Y-89301904D01*
%TO.C,R1*%
X168743333Y-133972380D02*
X168410000Y-133496190D01*
X168171904Y-133972380D02*
X168171904Y-132972380D01*
X168552857Y-132972380D01*
X168648095Y-133020000D01*
X168695714Y-133067619D01*
X168743333Y-133162857D01*
X168743333Y-133305714D01*
X168695714Y-133400952D01*
X168648095Y-133448571D01*
X168552857Y-133496190D01*
X168171904Y-133496190D01*
X169695714Y-133972380D02*
X169124285Y-133972380D01*
X169410000Y-133972380D02*
X169410000Y-132972380D01*
X169314761Y-133115238D01*
X169219523Y-133210476D01*
X169124285Y-133258095D01*
%TO.C,R5*%
X188833333Y-74822380D02*
X188500000Y-74346190D01*
X188261904Y-74822380D02*
X188261904Y-73822380D01*
X188642857Y-73822380D01*
X188738095Y-73870000D01*
X188785714Y-73917619D01*
X188833333Y-74012857D01*
X188833333Y-74155714D01*
X188785714Y-74250952D01*
X188738095Y-74298571D01*
X188642857Y-74346190D01*
X188261904Y-74346190D01*
X189738095Y-73822380D02*
X189261904Y-73822380D01*
X189214285Y-74298571D01*
X189261904Y-74250952D01*
X189357142Y-74203333D01*
X189595238Y-74203333D01*
X189690476Y-74250952D01*
X189738095Y-74298571D01*
X189785714Y-74393809D01*
X189785714Y-74631904D01*
X189738095Y-74727142D01*
X189690476Y-74774761D01*
X189595238Y-74822380D01*
X189357142Y-74822380D01*
X189261904Y-74774761D01*
X189214285Y-74727142D01*
%TO.C,J1*%
X161916666Y-61947380D02*
X161916666Y-62661666D01*
X161869047Y-62804523D01*
X161773809Y-62899761D01*
X161630952Y-62947380D01*
X161535714Y-62947380D01*
X162916666Y-62947380D02*
X162345238Y-62947380D01*
X162630952Y-62947380D02*
X162630952Y-61947380D01*
X162535714Y-62090238D01*
X162440476Y-62185476D01*
X162345238Y-62233095D01*
X157297619Y-54749761D02*
X157440476Y-54797380D01*
X157678571Y-54797380D01*
X157773809Y-54749761D01*
X157821428Y-54702142D01*
X157869047Y-54606904D01*
X157869047Y-54511666D01*
X157821428Y-54416428D01*
X157773809Y-54368809D01*
X157678571Y-54321190D01*
X157488095Y-54273571D01*
X157392857Y-54225952D01*
X157345238Y-54178333D01*
X157297619Y-54083095D01*
X157297619Y-53987857D01*
X157345238Y-53892619D01*
X157392857Y-53845000D01*
X157488095Y-53797380D01*
X157726190Y-53797380D01*
X157869047Y-53845000D01*
X158154761Y-54130714D02*
X158535714Y-54130714D01*
X158297619Y-53797380D02*
X158297619Y-54654523D01*
X158345238Y-54749761D01*
X158440476Y-54797380D01*
X158535714Y-54797380D01*
X159250000Y-54749761D02*
X159154761Y-54797380D01*
X158964285Y-54797380D01*
X158869047Y-54749761D01*
X158821428Y-54654523D01*
X158821428Y-54273571D01*
X158869047Y-54178333D01*
X158964285Y-54130714D01*
X159154761Y-54130714D01*
X159250000Y-54178333D01*
X159297619Y-54273571D01*
X159297619Y-54368809D01*
X158821428Y-54464047D01*
X159726190Y-54130714D02*
X159726190Y-55130714D01*
X159726190Y-54178333D02*
X159821428Y-54130714D01*
X160011904Y-54130714D01*
X160107142Y-54178333D01*
X160154761Y-54225952D01*
X160202380Y-54321190D01*
X160202380Y-54606904D01*
X160154761Y-54702142D01*
X160107142Y-54749761D01*
X160011904Y-54797380D01*
X159821428Y-54797380D01*
X159726190Y-54749761D01*
X160630952Y-54130714D02*
X160630952Y-55130714D01*
X160630952Y-54178333D02*
X160726190Y-54130714D01*
X160916666Y-54130714D01*
X161011904Y-54178333D01*
X161059523Y-54225952D01*
X161107142Y-54321190D01*
X161107142Y-54606904D01*
X161059523Y-54702142D01*
X161011904Y-54749761D01*
X160916666Y-54797380D01*
X160726190Y-54797380D01*
X160630952Y-54749761D01*
X161916666Y-54749761D02*
X161821428Y-54797380D01*
X161630952Y-54797380D01*
X161535714Y-54749761D01*
X161488095Y-54654523D01*
X161488095Y-54273571D01*
X161535714Y-54178333D01*
X161630952Y-54130714D01*
X161821428Y-54130714D01*
X161916666Y-54178333D01*
X161964285Y-54273571D01*
X161964285Y-54368809D01*
X161488095Y-54464047D01*
X162392857Y-54797380D02*
X162392857Y-54130714D01*
X162392857Y-54321190D02*
X162440476Y-54225952D01*
X162488095Y-54178333D01*
X162583333Y-54130714D01*
X162678571Y-54130714D01*
X164345238Y-54797380D02*
X164011904Y-54321190D01*
X163773809Y-54797380D02*
X163773809Y-53797380D01*
X164154761Y-53797380D01*
X164250000Y-53845000D01*
X164297619Y-53892619D01*
X164345238Y-53987857D01*
X164345238Y-54130714D01*
X164297619Y-54225952D01*
X164250000Y-54273571D01*
X164154761Y-54321190D01*
X163773809Y-54321190D01*
X164773809Y-54797380D02*
X164773809Y-54130714D01*
X164773809Y-53797380D02*
X164726190Y-53845000D01*
X164773809Y-53892619D01*
X164821428Y-53845000D01*
X164773809Y-53797380D01*
X164773809Y-53892619D01*
X165678571Y-54130714D02*
X165678571Y-54940238D01*
X165630952Y-55035476D01*
X165583333Y-55083095D01*
X165488095Y-55130714D01*
X165345238Y-55130714D01*
X165250000Y-55083095D01*
X165678571Y-54749761D02*
X165583333Y-54797380D01*
X165392857Y-54797380D01*
X165297619Y-54749761D01*
X165250000Y-54702142D01*
X165202380Y-54606904D01*
X165202380Y-54321190D01*
X165250000Y-54225952D01*
X165297619Y-54178333D01*
X165392857Y-54130714D01*
X165583333Y-54130714D01*
X165678571Y-54178333D01*
X166154761Y-54797380D02*
X166154761Y-53797380D01*
X166583333Y-54797380D02*
X166583333Y-54273571D01*
X166535714Y-54178333D01*
X166440476Y-54130714D01*
X166297619Y-54130714D01*
X166202380Y-54178333D01*
X166154761Y-54225952D01*
X166916666Y-54130714D02*
X167297619Y-54130714D01*
X167059523Y-53797380D02*
X167059523Y-54654523D01*
X167107142Y-54749761D01*
X167202380Y-54797380D01*
X167297619Y-54797380D01*
%TO.C,U1*%
X172634880Y-81031904D02*
X173444404Y-81031904D01*
X173539642Y-80984285D01*
X173587261Y-80936666D01*
X173634880Y-80841428D01*
X173634880Y-80650952D01*
X173587261Y-80555714D01*
X173539642Y-80508095D01*
X173444404Y-80460476D01*
X172634880Y-80460476D01*
X173634880Y-79460476D02*
X173634880Y-80031904D01*
X173634880Y-79746190D02*
X172634880Y-79746190D01*
X172777738Y-79841428D01*
X172872976Y-79936666D01*
X172920595Y-80031904D01*
X163974880Y-89527023D02*
X162974880Y-89527023D01*
X162974880Y-89146071D01*
X163022500Y-89050833D01*
X163070119Y-89003214D01*
X163165357Y-88955595D01*
X163308214Y-88955595D01*
X163403452Y-89003214D01*
X163451071Y-89050833D01*
X163498690Y-89146071D01*
X163498690Y-89527023D01*
X163974880Y-88527023D02*
X162974880Y-88527023D01*
X162974880Y-88288928D01*
X163022500Y-88146071D01*
X163117738Y-88050833D01*
X163212976Y-88003214D01*
X163403452Y-87955595D01*
X163546309Y-87955595D01*
X163736785Y-88003214D01*
X163832023Y-88050833D01*
X163927261Y-88146071D01*
X163974880Y-88288928D01*
X163974880Y-88527023D01*
X163974880Y-87527023D02*
X162974880Y-87527023D01*
X163974880Y-86955595D01*
X162974880Y-86955595D01*
X168054880Y-71187261D02*
X169054880Y-70853928D01*
X168054880Y-70520595D01*
X169054880Y-70187261D02*
X168054880Y-70187261D01*
X168054880Y-69949166D01*
X168102500Y-69806309D01*
X168197738Y-69711071D01*
X168292976Y-69663452D01*
X168483452Y-69615833D01*
X168626309Y-69615833D01*
X168816785Y-69663452D01*
X168912023Y-69711071D01*
X169007261Y-69806309D01*
X169054880Y-69949166D01*
X169054880Y-70187261D01*
X169054880Y-69187261D02*
X168054880Y-69187261D01*
X168054880Y-68949166D01*
X168102500Y-68806309D01*
X168197738Y-68711071D01*
X168292976Y-68663452D01*
X168483452Y-68615833D01*
X168626309Y-68615833D01*
X168816785Y-68663452D01*
X168912023Y-68711071D01*
X169007261Y-68806309D01*
X169054880Y-68949166D01*
X169054880Y-69187261D01*
X152814880Y-71187261D02*
X153814880Y-70853928D01*
X152814880Y-70520595D01*
X153814880Y-70187261D02*
X152814880Y-70187261D01*
X153529166Y-69853928D01*
X152814880Y-69520595D01*
X153814880Y-69520595D01*
X166419642Y-88717500D02*
X166467261Y-88765119D01*
X166514880Y-88907976D01*
X166514880Y-89003214D01*
X166467261Y-89146071D01*
X166372023Y-89241309D01*
X166276785Y-89288928D01*
X166086309Y-89336547D01*
X165943452Y-89336547D01*
X165752976Y-89288928D01*
X165657738Y-89241309D01*
X165562500Y-89146071D01*
X165514880Y-89003214D01*
X165514880Y-88907976D01*
X165562500Y-88765119D01*
X165610119Y-88717500D01*
X166514880Y-87812738D02*
X166514880Y-88288928D01*
X165514880Y-88288928D01*
X166514880Y-87479404D02*
X165514880Y-87479404D01*
X166514880Y-86907976D02*
X165943452Y-87336547D01*
X165514880Y-86907976D02*
X166086309Y-87479404D01*
X163451071Y-70711071D02*
X163498690Y-70568214D01*
X163546309Y-70520595D01*
X163641547Y-70472976D01*
X163784404Y-70472976D01*
X163879642Y-70520595D01*
X163927261Y-70568214D01*
X163974880Y-70663452D01*
X163974880Y-71044404D01*
X162974880Y-71044404D01*
X162974880Y-70711071D01*
X163022500Y-70615833D01*
X163070119Y-70568214D01*
X163165357Y-70520595D01*
X163260595Y-70520595D01*
X163355833Y-70568214D01*
X163403452Y-70615833D01*
X163451071Y-70711071D01*
X163451071Y-71044404D01*
X163974880Y-69520595D02*
X163974880Y-70092023D01*
X163974880Y-69806309D02*
X162974880Y-69806309D01*
X163117738Y-69901547D01*
X163212976Y-69996785D01*
X163260595Y-70092023D01*
X171594880Y-88955595D02*
X170594880Y-88955595D01*
X170594880Y-88717500D01*
X170642500Y-88574642D01*
X170737738Y-88479404D01*
X170832976Y-88431785D01*
X171023452Y-88384166D01*
X171166309Y-88384166D01*
X171356785Y-88431785D01*
X171452023Y-88479404D01*
X171547261Y-88574642D01*
X171594880Y-88717500D01*
X171594880Y-88955595D01*
X171594880Y-87955595D02*
X170594880Y-87955595D01*
X171594880Y-86907976D02*
X171118690Y-87241309D01*
X171594880Y-87479404D02*
X170594880Y-87479404D01*
X170594880Y-87098452D01*
X170642500Y-87003214D01*
X170690119Y-86955595D01*
X170785357Y-86907976D01*
X170928214Y-86907976D01*
X171023452Y-86955595D01*
X171071071Y-87003214D01*
X171118690Y-87098452D01*
X171118690Y-87479404D01*
X158894880Y-89527023D02*
X157894880Y-89527023D01*
X158609166Y-89193690D01*
X157894880Y-88860357D01*
X158894880Y-88860357D01*
X158847261Y-88431785D02*
X158894880Y-88288928D01*
X158894880Y-88050833D01*
X158847261Y-87955595D01*
X158799642Y-87907976D01*
X158704404Y-87860357D01*
X158609166Y-87860357D01*
X158513928Y-87907976D01*
X158466309Y-87955595D01*
X158418690Y-88050833D01*
X158371071Y-88241309D01*
X158323452Y-88336547D01*
X158275833Y-88384166D01*
X158180595Y-88431785D01*
X158085357Y-88431785D01*
X157990119Y-88384166D01*
X157942500Y-88336547D01*
X157894880Y-88241309D01*
X157894880Y-88003214D01*
X157942500Y-87860357D01*
X157990119Y-87479404D02*
X157942500Y-87431785D01*
X157894880Y-87336547D01*
X157894880Y-87098452D01*
X157942500Y-87003214D01*
X157990119Y-86955595D01*
X158085357Y-86907976D01*
X158180595Y-86907976D01*
X158323452Y-86955595D01*
X158894880Y-87527023D01*
X158894880Y-86907976D01*
X156354880Y-89527023D02*
X155354880Y-89527023D01*
X156069166Y-89193690D01*
X155354880Y-88860357D01*
X156354880Y-88860357D01*
X156307261Y-88431785D02*
X156354880Y-88288928D01*
X156354880Y-88050833D01*
X156307261Y-87955595D01*
X156259642Y-87907976D01*
X156164404Y-87860357D01*
X156069166Y-87860357D01*
X155973928Y-87907976D01*
X155926309Y-87955595D01*
X155878690Y-88050833D01*
X155831071Y-88241309D01*
X155783452Y-88336547D01*
X155735833Y-88384166D01*
X155640595Y-88431785D01*
X155545357Y-88431785D01*
X155450119Y-88384166D01*
X155402500Y-88336547D01*
X155354880Y-88241309D01*
X155354880Y-88003214D01*
X155402500Y-87860357D01*
X156354880Y-86907976D02*
X156354880Y-87479404D01*
X156354880Y-87193690D02*
X155354880Y-87193690D01*
X155497738Y-87288928D01*
X155592976Y-87384166D01*
X155640595Y-87479404D01*
X161149166Y-71092023D02*
X161149166Y-70615833D01*
X161434880Y-71187261D02*
X160434880Y-70853928D01*
X161434880Y-70520595D01*
X160530119Y-70234880D02*
X160482500Y-70187261D01*
X160434880Y-70092023D01*
X160434880Y-69853928D01*
X160482500Y-69758690D01*
X160530119Y-69711071D01*
X160625357Y-69663452D01*
X160720595Y-69663452D01*
X160863452Y-69711071D01*
X161434880Y-70282500D01*
X161434880Y-69663452D01*
X158609166Y-71092023D02*
X158609166Y-70615833D01*
X158894880Y-71187261D02*
X157894880Y-70853928D01*
X158894880Y-70520595D01*
X158894880Y-69663452D02*
X158894880Y-70234880D01*
X158894880Y-69949166D02*
X157894880Y-69949166D01*
X158037738Y-70044404D01*
X158132976Y-70139642D01*
X158180595Y-70234880D01*
X151903809Y-83357619D02*
X151570476Y-82357619D01*
X151237142Y-83357619D01*
X150332380Y-82357619D02*
X150665714Y-82833809D01*
X150903809Y-82357619D02*
X150903809Y-83357619D01*
X150522857Y-83357619D01*
X150427619Y-83310000D01*
X150380000Y-83262380D01*
X150332380Y-83167142D01*
X150332380Y-83024285D01*
X150380000Y-82929047D01*
X150427619Y-82881428D01*
X150522857Y-82833809D01*
X150903809Y-82833809D01*
X149903809Y-82881428D02*
X149570476Y-82881428D01*
X149427619Y-82357619D02*
X149903809Y-82357619D01*
X149903809Y-83357619D01*
X149427619Y-83357619D01*
X148665714Y-82881428D02*
X148999047Y-82881428D01*
X148999047Y-82357619D02*
X148999047Y-83357619D01*
X148522857Y-83357619D01*
X165991071Y-70711071D02*
X166038690Y-70568214D01*
X166086309Y-70520595D01*
X166181547Y-70472976D01*
X166324404Y-70472976D01*
X166419642Y-70520595D01*
X166467261Y-70568214D01*
X166514880Y-70663452D01*
X166514880Y-71044404D01*
X165514880Y-71044404D01*
X165514880Y-70711071D01*
X165562500Y-70615833D01*
X165610119Y-70568214D01*
X165705357Y-70520595D01*
X165800595Y-70520595D01*
X165895833Y-70568214D01*
X165943452Y-70615833D01*
X165991071Y-70711071D01*
X165991071Y-71044404D01*
X165610119Y-70092023D02*
X165562500Y-70044404D01*
X165514880Y-69949166D01*
X165514880Y-69711071D01*
X165562500Y-69615833D01*
X165610119Y-69568214D01*
X165705357Y-69520595D01*
X165800595Y-69520595D01*
X165943452Y-69568214D01*
X166514880Y-70139642D01*
X166514880Y-69520595D01*
X153291071Y-88431785D02*
X153291071Y-88098452D01*
X153814880Y-87955595D02*
X153814880Y-88431785D01*
X152814880Y-88431785D01*
X152814880Y-87955595D01*
X153814880Y-87527023D02*
X152814880Y-87527023D01*
X153814880Y-86955595D01*
X152814880Y-86955595D01*
X161434880Y-89527023D02*
X160434880Y-89527023D01*
X160434880Y-89146071D01*
X160482500Y-89050833D01*
X160530119Y-89003214D01*
X160625357Y-88955595D01*
X160768214Y-88955595D01*
X160863452Y-89003214D01*
X160911071Y-89050833D01*
X160958690Y-89146071D01*
X160958690Y-89527023D01*
X161434880Y-88527023D02*
X160434880Y-88527023D01*
X160434880Y-88288928D01*
X160482500Y-88146071D01*
X160577738Y-88050833D01*
X160672976Y-88003214D01*
X160863452Y-87955595D01*
X161006309Y-87955595D01*
X161196785Y-88003214D01*
X161292023Y-88050833D01*
X161387261Y-88146071D01*
X161434880Y-88288928D01*
X161434880Y-88527023D01*
X161434880Y-87527023D02*
X160434880Y-87527023D01*
X161434880Y-86955595D01*
X160434880Y-86955595D01*
X151475238Y-79817619D02*
X151475238Y-80817619D01*
X151237142Y-80817619D01*
X151094285Y-80770000D01*
X150999047Y-80674761D01*
X150951428Y-80579523D01*
X150903809Y-80389047D01*
X150903809Y-80246190D01*
X150951428Y-80055714D01*
X150999047Y-79960476D01*
X151094285Y-79865238D01*
X151237142Y-79817619D01*
X151475238Y-79817619D01*
X150475238Y-79817619D02*
X150475238Y-80817619D01*
X150046666Y-80103333D02*
X149570476Y-80103333D01*
X150141904Y-79817619D02*
X149808571Y-80817619D01*
X149475238Y-79817619D01*
X148618095Y-80770000D02*
X148713333Y-80817619D01*
X148856190Y-80817619D01*
X148999047Y-80770000D01*
X149094285Y-80674761D01*
X149141904Y-80579523D01*
X149189523Y-80389047D01*
X149189523Y-80246190D01*
X149141904Y-80055714D01*
X149094285Y-79960476D01*
X148999047Y-79865238D01*
X148856190Y-79817619D01*
X148760952Y-79817619D01*
X148618095Y-79865238D01*
X148570476Y-79912857D01*
X148570476Y-80246190D01*
X148760952Y-80246190D01*
X156095238Y-79722380D02*
X156666666Y-79722380D01*
X156380952Y-80722380D02*
X156380952Y-79722380D01*
X157000000Y-80722380D02*
X157000000Y-79722380D01*
X157333333Y-80436666D01*
X157666666Y-79722380D01*
X157666666Y-80722380D01*
X158714285Y-80627142D02*
X158666666Y-80674761D01*
X158523809Y-80722380D01*
X158428571Y-80722380D01*
X158285714Y-80674761D01*
X158190476Y-80579523D01*
X158142857Y-80484285D01*
X158095238Y-80293809D01*
X158095238Y-80150952D01*
X158142857Y-79960476D01*
X158190476Y-79865238D01*
X158285714Y-79770000D01*
X158428571Y-79722380D01*
X158523809Y-79722380D01*
X158666666Y-79770000D01*
X158714285Y-79817619D01*
X159095238Y-79817619D02*
X159142857Y-79770000D01*
X159238095Y-79722380D01*
X159476190Y-79722380D01*
X159571428Y-79770000D01*
X159619047Y-79817619D01*
X159666666Y-79912857D01*
X159666666Y-80008095D01*
X159619047Y-80150952D01*
X159047619Y-80722380D01*
X159666666Y-80722380D01*
X160047619Y-79817619D02*
X160095238Y-79770000D01*
X160190476Y-79722380D01*
X160428571Y-79722380D01*
X160523809Y-79770000D01*
X160571428Y-79817619D01*
X160619047Y-79912857D01*
X160619047Y-80008095D01*
X160571428Y-80150952D01*
X160000000Y-80722380D01*
X160619047Y-80722380D01*
X161238095Y-79722380D02*
X161333333Y-79722380D01*
X161428571Y-79770000D01*
X161476190Y-79817619D01*
X161523809Y-79912857D01*
X161571428Y-80103333D01*
X161571428Y-80341428D01*
X161523809Y-80531904D01*
X161476190Y-80627142D01*
X161428571Y-80674761D01*
X161333333Y-80722380D01*
X161238095Y-80722380D01*
X161142857Y-80674761D01*
X161095238Y-80627142D01*
X161047619Y-80531904D01*
X161000000Y-80341428D01*
X161000000Y-80103333D01*
X161047619Y-79912857D01*
X161095238Y-79817619D01*
X161142857Y-79770000D01*
X161238095Y-79722380D01*
X162047619Y-80722380D02*
X162238095Y-80722380D01*
X162333333Y-80674761D01*
X162380952Y-80627142D01*
X162476190Y-80484285D01*
X162523809Y-80293809D01*
X162523809Y-79912857D01*
X162476190Y-79817619D01*
X162428571Y-79770000D01*
X162333333Y-79722380D01*
X162142857Y-79722380D01*
X162047619Y-79770000D01*
X162000000Y-79817619D01*
X161952380Y-79912857D01*
X161952380Y-80150952D01*
X162000000Y-80246190D01*
X162047619Y-80293809D01*
X162142857Y-80341428D01*
X162333333Y-80341428D01*
X162428571Y-80293809D01*
X162476190Y-80246190D01*
X162523809Y-80150952D01*
X163619047Y-80055714D02*
X163857142Y-80722380D01*
X164095238Y-80055714D01*
X165000000Y-80722380D02*
X164428571Y-80722380D01*
X164714285Y-80722380D02*
X164714285Y-79722380D01*
X164619047Y-79865238D01*
X164523809Y-79960476D01*
X164428571Y-80008095D01*
X165428571Y-80627142D02*
X165476190Y-80674761D01*
X165428571Y-80722380D01*
X165380952Y-80674761D01*
X165428571Y-80627142D01*
X165428571Y-80722380D01*
X165857142Y-79817619D02*
X165904761Y-79770000D01*
X166000000Y-79722380D01*
X166238095Y-79722380D01*
X166333333Y-79770000D01*
X166380952Y-79817619D01*
X166428571Y-79912857D01*
X166428571Y-80008095D01*
X166380952Y-80150952D01*
X165809523Y-80722380D01*
X166428571Y-80722380D01*
X157841428Y-77658571D02*
X157984285Y-77706190D01*
X158031904Y-77753809D01*
X158079523Y-77849047D01*
X158079523Y-77991904D01*
X158031904Y-78087142D01*
X157984285Y-78134761D01*
X157889047Y-78182380D01*
X157508095Y-78182380D01*
X157508095Y-77182380D01*
X157841428Y-77182380D01*
X157936666Y-77230000D01*
X157984285Y-77277619D01*
X158031904Y-77372857D01*
X158031904Y-77468095D01*
X157984285Y-77563333D01*
X157936666Y-77610952D01*
X157841428Y-77658571D01*
X157508095Y-77658571D01*
X158508095Y-78182380D02*
X158508095Y-77515714D01*
X158508095Y-77182380D02*
X158460476Y-77230000D01*
X158508095Y-77277619D01*
X158555714Y-77230000D01*
X158508095Y-77182380D01*
X158508095Y-77277619D01*
X159412857Y-77515714D02*
X159412857Y-78325238D01*
X159365238Y-78420476D01*
X159317619Y-78468095D01*
X159222380Y-78515714D01*
X159079523Y-78515714D01*
X158984285Y-78468095D01*
X159412857Y-78134761D02*
X159317619Y-78182380D01*
X159127142Y-78182380D01*
X159031904Y-78134761D01*
X158984285Y-78087142D01*
X158936666Y-77991904D01*
X158936666Y-77706190D01*
X158984285Y-77610952D01*
X159031904Y-77563333D01*
X159127142Y-77515714D01*
X159317619Y-77515714D01*
X159412857Y-77563333D01*
X159746190Y-77182380D02*
X160317619Y-77182380D01*
X160031904Y-78182380D02*
X160031904Y-77182380D01*
X160650952Y-78182380D02*
X160650952Y-77515714D01*
X160650952Y-77706190D02*
X160698571Y-77610952D01*
X160746190Y-77563333D01*
X160841428Y-77515714D01*
X160936666Y-77515714D01*
X161650952Y-78134761D02*
X161555714Y-78182380D01*
X161365238Y-78182380D01*
X161270000Y-78134761D01*
X161222380Y-78039523D01*
X161222380Y-77658571D01*
X161270000Y-77563333D01*
X161365238Y-77515714D01*
X161555714Y-77515714D01*
X161650952Y-77563333D01*
X161698571Y-77658571D01*
X161698571Y-77753809D01*
X161222380Y-77849047D01*
X162508095Y-78134761D02*
X162412857Y-78182380D01*
X162222380Y-78182380D01*
X162127142Y-78134761D01*
X162079523Y-78039523D01*
X162079523Y-77658571D01*
X162127142Y-77563333D01*
X162222380Y-77515714D01*
X162412857Y-77515714D01*
X162508095Y-77563333D01*
X162555714Y-77658571D01*
X162555714Y-77753809D01*
X162079523Y-77849047D01*
X162841428Y-77182380D02*
X163412857Y-77182380D01*
X163127142Y-78182380D02*
X163127142Y-77182380D01*
X164127142Y-78134761D02*
X164031904Y-78182380D01*
X163841428Y-78182380D01*
X163746190Y-78134761D01*
X163698571Y-78039523D01*
X163698571Y-77658571D01*
X163746190Y-77563333D01*
X163841428Y-77515714D01*
X164031904Y-77515714D01*
X164127142Y-77563333D01*
X164174761Y-77658571D01*
X164174761Y-77753809D01*
X163698571Y-77849047D01*
X165031904Y-78134761D02*
X164936666Y-78182380D01*
X164746190Y-78182380D01*
X164650952Y-78134761D01*
X164603333Y-78087142D01*
X164555714Y-77991904D01*
X164555714Y-77706190D01*
X164603333Y-77610952D01*
X164650952Y-77563333D01*
X164746190Y-77515714D01*
X164936666Y-77515714D01*
X165031904Y-77563333D01*
X165460476Y-78182380D02*
X165460476Y-77182380D01*
X165889047Y-78182380D02*
X165889047Y-77658571D01*
X165841428Y-77563333D01*
X165746190Y-77515714D01*
X165603333Y-77515714D01*
X165508095Y-77563333D01*
X165460476Y-77610952D01*
X169007261Y-90142023D02*
X169054880Y-89999166D01*
X169054880Y-89761071D01*
X169007261Y-89665833D01*
X168959642Y-89618214D01*
X168864404Y-89570595D01*
X168769166Y-89570595D01*
X168673928Y-89618214D01*
X168626309Y-89665833D01*
X168578690Y-89761071D01*
X168531071Y-89951547D01*
X168483452Y-90046785D01*
X168435833Y-90094404D01*
X168340595Y-90142023D01*
X168245357Y-90142023D01*
X168150119Y-90094404D01*
X168102500Y-90046785D01*
X168054880Y-89951547D01*
X168054880Y-89713452D01*
X168102500Y-89570595D01*
X168054880Y-89284880D02*
X168054880Y-88713452D01*
X169054880Y-88999166D02*
X168054880Y-88999166D01*
X168531071Y-88380119D02*
X168531071Y-88046785D01*
X169054880Y-87903928D02*
X169054880Y-88380119D01*
X168054880Y-88380119D01*
X168054880Y-87903928D01*
X169054880Y-87475357D02*
X168054880Y-87475357D01*
X168054880Y-87094404D01*
X168102500Y-86999166D01*
X168150119Y-86951547D01*
X168245357Y-86903928D01*
X168388214Y-86903928D01*
X168483452Y-86951547D01*
X168531071Y-86999166D01*
X168578690Y-87094404D01*
X168578690Y-87475357D01*
X170642500Y-70520595D02*
X170594880Y-70615833D01*
X170594880Y-70758690D01*
X170642500Y-70901547D01*
X170737738Y-70996785D01*
X170832976Y-71044404D01*
X171023452Y-71092023D01*
X171166309Y-71092023D01*
X171356785Y-71044404D01*
X171452023Y-70996785D01*
X171547261Y-70901547D01*
X171594880Y-70758690D01*
X171594880Y-70663452D01*
X171547261Y-70520595D01*
X171499642Y-70472976D01*
X171166309Y-70472976D01*
X171166309Y-70663452D01*
X171594880Y-70044404D02*
X170594880Y-70044404D01*
X171594880Y-69472976D01*
X170594880Y-69472976D01*
X171594880Y-68996785D02*
X170594880Y-68996785D01*
X170594880Y-68758690D01*
X170642500Y-68615833D01*
X170737738Y-68520595D01*
X170832976Y-68472976D01*
X171023452Y-68425357D01*
X171166309Y-68425357D01*
X171356785Y-68472976D01*
X171452023Y-68520595D01*
X171547261Y-68615833D01*
X171594880Y-68758690D01*
X171594880Y-68996785D01*
X155402500Y-70520595D02*
X155354880Y-70615833D01*
X155354880Y-70758690D01*
X155402500Y-70901547D01*
X155497738Y-70996785D01*
X155592976Y-71044404D01*
X155783452Y-71092023D01*
X155926309Y-71092023D01*
X156116785Y-71044404D01*
X156212023Y-70996785D01*
X156307261Y-70901547D01*
X156354880Y-70758690D01*
X156354880Y-70663452D01*
X156307261Y-70520595D01*
X156259642Y-70472976D01*
X155926309Y-70472976D01*
X155926309Y-70663452D01*
X156354880Y-70044404D02*
X155354880Y-70044404D01*
X156354880Y-69472976D01*
X155354880Y-69472976D01*
X156354880Y-68996785D02*
X155354880Y-68996785D01*
X155354880Y-68758690D01*
X155402500Y-68615833D01*
X155497738Y-68520595D01*
X155592976Y-68472976D01*
X155783452Y-68425357D01*
X155926309Y-68425357D01*
X156116785Y-68472976D01*
X156212023Y-68520595D01*
X156307261Y-68615833D01*
X156354880Y-68758690D01*
X156354880Y-68996785D01*
%TO.C,R4*%
X168743333Y-113652380D02*
X168410000Y-113176190D01*
X168171904Y-113652380D02*
X168171904Y-112652380D01*
X168552857Y-112652380D01*
X168648095Y-112700000D01*
X168695714Y-112747619D01*
X168743333Y-112842857D01*
X168743333Y-112985714D01*
X168695714Y-113080952D01*
X168648095Y-113128571D01*
X168552857Y-113176190D01*
X168171904Y-113176190D01*
X169600476Y-112985714D02*
X169600476Y-113652380D01*
X169362380Y-112604761D02*
X169124285Y-113319047D01*
X169743333Y-113319047D01*
%TO.C,Q2*%
X176434761Y-99357619D02*
X176339523Y-99310000D01*
X176244285Y-99214761D01*
X176101428Y-99071904D01*
X176006190Y-99024285D01*
X175910952Y-99024285D01*
X175958571Y-99262380D02*
X175863333Y-99214761D01*
X175768095Y-99119523D01*
X175720476Y-98929047D01*
X175720476Y-98595714D01*
X175768095Y-98405238D01*
X175863333Y-98310000D01*
X175958571Y-98262380D01*
X176149047Y-98262380D01*
X176244285Y-98310000D01*
X176339523Y-98405238D01*
X176387142Y-98595714D01*
X176387142Y-98929047D01*
X176339523Y-99119523D01*
X176244285Y-99214761D01*
X176149047Y-99262380D01*
X175958571Y-99262380D01*
X176768095Y-98357619D02*
X176815714Y-98310000D01*
X176910952Y-98262380D01*
X177149047Y-98262380D01*
X177244285Y-98310000D01*
X177291904Y-98357619D01*
X177339523Y-98452857D01*
X177339523Y-98548095D01*
X177291904Y-98690952D01*
X176720476Y-99262380D01*
X177339523Y-99262380D01*
%TO.C,R3*%
X168743333Y-120002380D02*
X168410000Y-119526190D01*
X168171904Y-120002380D02*
X168171904Y-119002380D01*
X168552857Y-119002380D01*
X168648095Y-119050000D01*
X168695714Y-119097619D01*
X168743333Y-119192857D01*
X168743333Y-119335714D01*
X168695714Y-119430952D01*
X168648095Y-119478571D01*
X168552857Y-119526190D01*
X168171904Y-119526190D01*
X169076666Y-119002380D02*
X169695714Y-119002380D01*
X169362380Y-119383333D01*
X169505238Y-119383333D01*
X169600476Y-119430952D01*
X169648095Y-119478571D01*
X169695714Y-119573809D01*
X169695714Y-119811904D01*
X169648095Y-119907142D01*
X169600476Y-119954761D01*
X169505238Y-120002380D01*
X169219523Y-120002380D01*
X169124285Y-119954761D01*
X169076666Y-119907142D01*
%TO.C,R7*%
X188833333Y-77082380D02*
X188500000Y-76606190D01*
X188261904Y-77082380D02*
X188261904Y-76082380D01*
X188642857Y-76082380D01*
X188738095Y-76130000D01*
X188785714Y-76177619D01*
X188833333Y-76272857D01*
X188833333Y-76415714D01*
X188785714Y-76510952D01*
X188738095Y-76558571D01*
X188642857Y-76606190D01*
X188261904Y-76606190D01*
X189166666Y-76082380D02*
X189833333Y-76082380D01*
X189404761Y-77082380D01*
%TO.C,J2*%
X164322380Y-147653333D02*
X165036666Y-147653333D01*
X165179523Y-147700952D01*
X165274761Y-147796190D01*
X165322380Y-147939047D01*
X165322380Y-148034285D01*
X164417619Y-147224761D02*
X164370000Y-147177142D01*
X164322380Y-147081904D01*
X164322380Y-146843809D01*
X164370000Y-146748571D01*
X164417619Y-146700952D01*
X164512857Y-146653333D01*
X164608095Y-146653333D01*
X164750952Y-146700952D01*
X165322380Y-147272380D01*
X165322380Y-146653333D01*
X167384880Y-141327142D02*
X167337261Y-141374761D01*
X167194404Y-141422380D01*
X167099166Y-141422380D01*
X166956309Y-141374761D01*
X166861071Y-141279523D01*
X166813452Y-141184285D01*
X166765833Y-140993809D01*
X166765833Y-140850952D01*
X166813452Y-140660476D01*
X166861071Y-140565238D01*
X166956309Y-140470000D01*
X167099166Y-140422380D01*
X167194404Y-140422380D01*
X167337261Y-140470000D01*
X167384880Y-140517619D01*
X167956309Y-141422380D02*
X167861071Y-141374761D01*
X167813452Y-141327142D01*
X167765833Y-141231904D01*
X167765833Y-140946190D01*
X167813452Y-140850952D01*
X167861071Y-140803333D01*
X167956309Y-140755714D01*
X168099166Y-140755714D01*
X168194404Y-140803333D01*
X168242023Y-140850952D01*
X168289642Y-140946190D01*
X168289642Y-141231904D01*
X168242023Y-141327142D01*
X168194404Y-141374761D01*
X168099166Y-141422380D01*
X167956309Y-141422380D01*
X168718214Y-140755714D02*
X168718214Y-141422380D01*
X168718214Y-140850952D02*
X168765833Y-140803333D01*
X168861071Y-140755714D01*
X169003928Y-140755714D01*
X169099166Y-140803333D01*
X169146785Y-140898571D01*
X169146785Y-141422380D01*
X169480119Y-140755714D02*
X169861071Y-140755714D01*
X169622976Y-140422380D02*
X169622976Y-141279523D01*
X169670595Y-141374761D01*
X169765833Y-141422380D01*
X169861071Y-141422380D01*
X170194404Y-141422380D02*
X170194404Y-140755714D01*
X170194404Y-140946190D02*
X170242023Y-140850952D01*
X170289642Y-140803333D01*
X170384880Y-140755714D01*
X170480119Y-140755714D01*
X170956309Y-141422380D02*
X170861071Y-141374761D01*
X170813452Y-141327142D01*
X170765833Y-141231904D01*
X170765833Y-140946190D01*
X170813452Y-140850952D01*
X170861071Y-140803333D01*
X170956309Y-140755714D01*
X171099166Y-140755714D01*
X171194404Y-140803333D01*
X171242023Y-140850952D01*
X171289642Y-140946190D01*
X171289642Y-141231904D01*
X171242023Y-141327142D01*
X171194404Y-141374761D01*
X171099166Y-141422380D01*
X170956309Y-141422380D01*
X171861071Y-141422380D02*
X171765833Y-141374761D01*
X171718214Y-141279523D01*
X171718214Y-140422380D01*
X173003928Y-140422380D02*
X173003928Y-141231904D01*
X173051547Y-141327142D01*
X173099166Y-141374761D01*
X173194404Y-141422380D01*
X173384880Y-141422380D01*
X173480119Y-141374761D01*
X173527738Y-141327142D01*
X173575357Y-141231904D01*
X173575357Y-140422380D01*
X174003928Y-141136666D02*
X174480119Y-141136666D01*
X173908690Y-141422380D02*
X174242023Y-140422380D01*
X174575357Y-141422380D01*
X175480119Y-141422380D02*
X175146785Y-140946190D01*
X174908690Y-141422380D02*
X174908690Y-140422380D01*
X175289642Y-140422380D01*
X175384880Y-140470000D01*
X175432500Y-140517619D01*
X175480119Y-140612857D01*
X175480119Y-140755714D01*
X175432500Y-140850952D01*
X175384880Y-140898571D01*
X175289642Y-140946190D01*
X174908690Y-140946190D01*
X175765833Y-140422380D02*
X176337261Y-140422380D01*
X176051547Y-141422380D02*
X176051547Y-140422380D01*
X169632380Y-144587261D02*
X169632380Y-144015833D01*
X170632380Y-144301547D02*
X169632380Y-144301547D01*
X169632380Y-143777738D02*
X170632380Y-143111071D01*
X169632380Y-143111071D02*
X170632380Y-143777738D01*
X173172380Y-143872976D02*
X172696190Y-144206309D01*
X173172380Y-144444404D02*
X172172380Y-144444404D01*
X172172380Y-144063452D01*
X172220000Y-143968214D01*
X172267619Y-143920595D01*
X172362857Y-143872976D01*
X172505714Y-143872976D01*
X172600952Y-143920595D01*
X172648571Y-143968214D01*
X172696190Y-144063452D01*
X172696190Y-144444404D01*
X172172380Y-143539642D02*
X173172380Y-142872976D01*
X172172380Y-142872976D02*
X173172380Y-143539642D01*
X179840000Y-143920595D02*
X179792380Y-144015833D01*
X179792380Y-144158690D01*
X179840000Y-144301547D01*
X179935238Y-144396785D01*
X180030476Y-144444404D01*
X180220952Y-144492023D01*
X180363809Y-144492023D01*
X180554285Y-144444404D01*
X180649523Y-144396785D01*
X180744761Y-144301547D01*
X180792380Y-144158690D01*
X180792380Y-144063452D01*
X180744761Y-143920595D01*
X180697142Y-143872976D01*
X180363809Y-143872976D01*
X180363809Y-144063452D01*
X180792380Y-143444404D02*
X179792380Y-143444404D01*
X180792380Y-142872976D01*
X179792380Y-142872976D01*
X180792380Y-142396785D02*
X179792380Y-142396785D01*
X179792380Y-142158690D01*
X179840000Y-142015833D01*
X179935238Y-141920595D01*
X180030476Y-141872976D01*
X180220952Y-141825357D01*
X180363809Y-141825357D01*
X180554285Y-141872976D01*
X180649523Y-141920595D01*
X180744761Y-142015833D01*
X180792380Y-142158690D01*
X180792380Y-142396785D01*
%TO.C,SW2*%
X187534761Y-134683333D02*
X187582380Y-134540476D01*
X187582380Y-134302380D01*
X187534761Y-134207142D01*
X187487142Y-134159523D01*
X187391904Y-134111904D01*
X187296666Y-134111904D01*
X187201428Y-134159523D01*
X187153809Y-134207142D01*
X187106190Y-134302380D01*
X187058571Y-134492857D01*
X187010952Y-134588095D01*
X186963333Y-134635714D01*
X186868095Y-134683333D01*
X186772857Y-134683333D01*
X186677619Y-134635714D01*
X186630000Y-134588095D01*
X186582380Y-134492857D01*
X186582380Y-134254761D01*
X186630000Y-134111904D01*
X186582380Y-133778571D02*
X187582380Y-133540476D01*
X186868095Y-133350000D01*
X187582380Y-133159523D01*
X186582380Y-132921428D01*
X186677619Y-132588095D02*
X186630000Y-132540476D01*
X186582380Y-132445238D01*
X186582380Y-132207142D01*
X186630000Y-132111904D01*
X186677619Y-132064285D01*
X186772857Y-132016666D01*
X186868095Y-132016666D01*
X187010952Y-132064285D01*
X187582380Y-132635714D01*
X187582380Y-132016666D01*
X177882380Y-139683333D02*
X178691904Y-139683333D01*
X178787142Y-139635714D01*
X178834761Y-139588095D01*
X178882380Y-139492857D01*
X178882380Y-139302380D01*
X178834761Y-139207142D01*
X178787142Y-139159523D01*
X178691904Y-139111904D01*
X177882380Y-139111904D01*
X178834761Y-138683333D02*
X178882380Y-138588095D01*
X178882380Y-138397619D01*
X178834761Y-138302380D01*
X178739523Y-138254761D01*
X178691904Y-138254761D01*
X178596666Y-138302380D01*
X178549047Y-138397619D01*
X178549047Y-138540476D01*
X178501428Y-138635714D01*
X178406190Y-138683333D01*
X178358571Y-138683333D01*
X178263333Y-138635714D01*
X178215714Y-138540476D01*
X178215714Y-138397619D01*
X178263333Y-138302380D01*
X178834761Y-137445238D02*
X178882380Y-137540476D01*
X178882380Y-137730952D01*
X178834761Y-137826190D01*
X178739523Y-137873809D01*
X178358571Y-137873809D01*
X178263333Y-137826190D01*
X178215714Y-137730952D01*
X178215714Y-137540476D01*
X178263333Y-137445238D01*
X178358571Y-137397619D01*
X178453809Y-137397619D01*
X178549047Y-137873809D01*
X178882380Y-136969047D02*
X178215714Y-136969047D01*
X178406190Y-136969047D02*
X178310952Y-136921428D01*
X178263333Y-136873809D01*
X178215714Y-136778571D01*
X178215714Y-136683333D01*
X178882380Y-135588095D02*
X177882380Y-135588095D01*
X178215714Y-135111904D02*
X178882380Y-135111904D01*
X178310952Y-135111904D02*
X178263333Y-135064285D01*
X178215714Y-134969047D01*
X178215714Y-134826190D01*
X178263333Y-134730952D01*
X178358571Y-134683333D01*
X178882380Y-134683333D01*
X178215714Y-134350000D02*
X178215714Y-133969047D01*
X177882380Y-134207142D02*
X178739523Y-134207142D01*
X178834761Y-134159523D01*
X178882380Y-134064285D01*
X178882380Y-133969047D01*
X178834761Y-133254761D02*
X178882380Y-133350000D01*
X178882380Y-133540476D01*
X178834761Y-133635714D01*
X178739523Y-133683333D01*
X178358571Y-133683333D01*
X178263333Y-133635714D01*
X178215714Y-133540476D01*
X178215714Y-133350000D01*
X178263333Y-133254761D01*
X178358571Y-133207142D01*
X178453809Y-133207142D01*
X178549047Y-133683333D01*
X178882380Y-132778571D02*
X178215714Y-132778571D01*
X178406190Y-132778571D02*
X178310952Y-132730952D01*
X178263333Y-132683333D01*
X178215714Y-132588095D01*
X178215714Y-132492857D01*
X178882380Y-131730952D02*
X178358571Y-131730952D01*
X178263333Y-131778571D01*
X178215714Y-131873809D01*
X178215714Y-132064285D01*
X178263333Y-132159523D01*
X178834761Y-131730952D02*
X178882380Y-131826190D01*
X178882380Y-132064285D01*
X178834761Y-132159523D01*
X178739523Y-132207142D01*
X178644285Y-132207142D01*
X178549047Y-132159523D01*
X178501428Y-132064285D01*
X178501428Y-131826190D01*
X178453809Y-131730952D01*
X178834761Y-130826190D02*
X178882380Y-130921428D01*
X178882380Y-131111904D01*
X178834761Y-131207142D01*
X178787142Y-131254761D01*
X178691904Y-131302380D01*
X178406190Y-131302380D01*
X178310952Y-131254761D01*
X178263333Y-131207142D01*
X178215714Y-131111904D01*
X178215714Y-130921428D01*
X178263333Y-130826190D01*
X178215714Y-130540476D02*
X178215714Y-130159523D01*
X177882380Y-130397619D02*
X178739523Y-130397619D01*
X178834761Y-130350000D01*
X178882380Y-130254761D01*
X178882380Y-130159523D01*
X178882380Y-129826190D02*
X178215714Y-129826190D01*
X177882380Y-129826190D02*
X177930000Y-129873809D01*
X177977619Y-129826190D01*
X177930000Y-129778571D01*
X177882380Y-129826190D01*
X177977619Y-129826190D01*
X178882380Y-129207142D02*
X178834761Y-129302380D01*
X178787142Y-129350000D01*
X178691904Y-129397619D01*
X178406190Y-129397619D01*
X178310952Y-129350000D01*
X178263333Y-129302380D01*
X178215714Y-129207142D01*
X178215714Y-129064285D01*
X178263333Y-128969047D01*
X178310952Y-128921428D01*
X178406190Y-128873809D01*
X178691904Y-128873809D01*
X178787142Y-128921428D01*
X178834761Y-128969047D01*
X178882380Y-129064285D01*
X178882380Y-129207142D01*
X178215714Y-128445238D02*
X178882380Y-128445238D01*
X178310952Y-128445238D02*
X178263333Y-128397619D01*
X178215714Y-128302380D01*
X178215714Y-128159523D01*
X178263333Y-128064285D01*
X178358571Y-128016666D01*
X178882380Y-128016666D01*
%TO.C,R2*%
X168743333Y-126352380D02*
X168410000Y-125876190D01*
X168171904Y-126352380D02*
X168171904Y-125352380D01*
X168552857Y-125352380D01*
X168648095Y-125400000D01*
X168695714Y-125447619D01*
X168743333Y-125542857D01*
X168743333Y-125685714D01*
X168695714Y-125780952D01*
X168648095Y-125828571D01*
X168552857Y-125876190D01*
X168171904Y-125876190D01*
X169124285Y-125447619D02*
X169171904Y-125400000D01*
X169267142Y-125352380D01*
X169505238Y-125352380D01*
X169600476Y-125400000D01*
X169648095Y-125447619D01*
X169695714Y-125542857D01*
X169695714Y-125638095D01*
X169648095Y-125780952D01*
X169076666Y-126352380D01*
X169695714Y-126352380D01*
%TO.C,J6*%
X105902380Y-147653333D02*
X106616666Y-147653333D01*
X106759523Y-147700952D01*
X106854761Y-147796190D01*
X106902380Y-147939047D01*
X106902380Y-148034285D01*
X105902380Y-146748571D02*
X105902380Y-146939047D01*
X105950000Y-147034285D01*
X105997619Y-147081904D01*
X106140476Y-147177142D01*
X106330952Y-147224761D01*
X106711904Y-147224761D01*
X106807142Y-147177142D01*
X106854761Y-147129523D01*
X106902380Y-147034285D01*
X106902380Y-146843809D01*
X106854761Y-146748571D01*
X106807142Y-146700952D01*
X106711904Y-146653333D01*
X106473809Y-146653333D01*
X106378571Y-146700952D01*
X106330952Y-146748571D01*
X106283333Y-146843809D01*
X106283333Y-147034285D01*
X106330952Y-147129523D01*
X106378571Y-147177142D01*
X106473809Y-147224761D01*
X108285595Y-135818571D02*
X108618928Y-135818571D01*
X108761785Y-136342380D02*
X108285595Y-136342380D01*
X108285595Y-135342380D01*
X108761785Y-135342380D01*
X109095119Y-136342380D02*
X109618928Y-135675714D01*
X109095119Y-135675714D02*
X109618928Y-136342380D01*
X109999880Y-135675714D02*
X109999880Y-136675714D01*
X109999880Y-135723333D02*
X110095119Y-135675714D01*
X110285595Y-135675714D01*
X110380833Y-135723333D01*
X110428452Y-135770952D01*
X110476071Y-135866190D01*
X110476071Y-136151904D01*
X110428452Y-136247142D01*
X110380833Y-136294761D01*
X110285595Y-136342380D01*
X110095119Y-136342380D01*
X109999880Y-136294761D01*
X111333214Y-136342380D02*
X111333214Y-135818571D01*
X111285595Y-135723333D01*
X111190357Y-135675714D01*
X110999880Y-135675714D01*
X110904642Y-135723333D01*
X111333214Y-136294761D02*
X111237976Y-136342380D01*
X110999880Y-136342380D01*
X110904642Y-136294761D01*
X110857023Y-136199523D01*
X110857023Y-136104285D01*
X110904642Y-136009047D01*
X110999880Y-135961428D01*
X111237976Y-135961428D01*
X111333214Y-135913809D01*
X111809404Y-135675714D02*
X111809404Y-136342380D01*
X111809404Y-135770952D02*
X111857023Y-135723333D01*
X111952261Y-135675714D01*
X112095119Y-135675714D01*
X112190357Y-135723333D01*
X112237976Y-135818571D01*
X112237976Y-136342380D01*
X112666547Y-136294761D02*
X112761785Y-136342380D01*
X112952261Y-136342380D01*
X113047500Y-136294761D01*
X113095119Y-136199523D01*
X113095119Y-136151904D01*
X113047500Y-136056666D01*
X112952261Y-136009047D01*
X112809404Y-136009047D01*
X112714166Y-135961428D01*
X112666547Y-135866190D01*
X112666547Y-135818571D01*
X112714166Y-135723333D01*
X112809404Y-135675714D01*
X112952261Y-135675714D01*
X113047500Y-135723333D01*
X113523690Y-136342380D02*
X113523690Y-135675714D01*
X113523690Y-135342380D02*
X113476071Y-135390000D01*
X113523690Y-135437619D01*
X113571309Y-135390000D01*
X113523690Y-135342380D01*
X113523690Y-135437619D01*
X114142738Y-136342380D02*
X114047500Y-136294761D01*
X113999880Y-136247142D01*
X113952261Y-136151904D01*
X113952261Y-135866190D01*
X113999880Y-135770952D01*
X114047500Y-135723333D01*
X114142738Y-135675714D01*
X114285595Y-135675714D01*
X114380833Y-135723333D01*
X114428452Y-135770952D01*
X114476071Y-135866190D01*
X114476071Y-136151904D01*
X114428452Y-136247142D01*
X114380833Y-136294761D01*
X114285595Y-136342380D01*
X114142738Y-136342380D01*
X114904642Y-135675714D02*
X114904642Y-136342380D01*
X114904642Y-135770952D02*
X114952261Y-135723333D01*
X115047500Y-135675714D01*
X115190357Y-135675714D01*
X115285595Y-135723333D01*
X115333214Y-135818571D01*
X115333214Y-136342380D01*
X116571309Y-136342380D02*
X116571309Y-135342380D01*
X116952261Y-135342380D01*
X117047500Y-135390000D01*
X117095119Y-135437619D01*
X117142738Y-135532857D01*
X117142738Y-135675714D01*
X117095119Y-135770952D01*
X117047500Y-135818571D01*
X116952261Y-135866190D01*
X116571309Y-135866190D01*
X117714166Y-136342380D02*
X117618928Y-136294761D01*
X117571309Y-136247142D01*
X117523690Y-136151904D01*
X117523690Y-135866190D01*
X117571309Y-135770952D01*
X117618928Y-135723333D01*
X117714166Y-135675714D01*
X117857023Y-135675714D01*
X117952261Y-135723333D01*
X117999880Y-135770952D01*
X118047500Y-135866190D01*
X118047500Y-136151904D01*
X117999880Y-136247142D01*
X117952261Y-136294761D01*
X117857023Y-136342380D01*
X117714166Y-136342380D01*
X118476071Y-136342380D02*
X118476071Y-135675714D01*
X118476071Y-135866190D02*
X118523690Y-135770952D01*
X118571309Y-135723333D01*
X118666547Y-135675714D01*
X118761785Y-135675714D01*
X118952261Y-135675714D02*
X119333214Y-135675714D01*
X119095119Y-135342380D02*
X119095119Y-136199523D01*
X119142738Y-136294761D01*
X119237976Y-136342380D01*
X119333214Y-136342380D01*
X123912380Y-144539642D02*
X123912380Y-143920595D01*
X124293333Y-144253928D01*
X124293333Y-144111071D01*
X124340952Y-144015833D01*
X124388571Y-143968214D01*
X124483809Y-143920595D01*
X124721904Y-143920595D01*
X124817142Y-143968214D01*
X124864761Y-144015833D01*
X124912380Y-144111071D01*
X124912380Y-144396785D01*
X124864761Y-144492023D01*
X124817142Y-144539642D01*
X123912380Y-143634880D02*
X124912380Y-143301547D01*
X123912380Y-142968214D01*
X123912380Y-142730119D02*
X123912380Y-142111071D01*
X124293333Y-142444404D01*
X124293333Y-142301547D01*
X124340952Y-142206309D01*
X124388571Y-142158690D01*
X124483809Y-142111071D01*
X124721904Y-142111071D01*
X124817142Y-142158690D01*
X124864761Y-142206309D01*
X124912380Y-142301547D01*
X124912380Y-142587261D01*
X124864761Y-142682500D01*
X124817142Y-142730119D01*
X108720000Y-143920595D02*
X108672380Y-144015833D01*
X108672380Y-144158690D01*
X108720000Y-144301547D01*
X108815238Y-144396785D01*
X108910476Y-144444404D01*
X109100952Y-144492023D01*
X109243809Y-144492023D01*
X109434285Y-144444404D01*
X109529523Y-144396785D01*
X109624761Y-144301547D01*
X109672380Y-144158690D01*
X109672380Y-144063452D01*
X109624761Y-143920595D01*
X109577142Y-143872976D01*
X109243809Y-143872976D01*
X109243809Y-144063452D01*
X109672380Y-143444404D02*
X108672380Y-143444404D01*
X108672380Y-143063452D01*
X108720000Y-142968214D01*
X108767619Y-142920595D01*
X108862857Y-142872976D01*
X109005714Y-142872976D01*
X109100952Y-142920595D01*
X109148571Y-142968214D01*
X109196190Y-143063452D01*
X109196190Y-143444404D01*
X109672380Y-142444404D02*
X108672380Y-142444404D01*
X108672380Y-141777738D02*
X108672380Y-141587261D01*
X108720000Y-141492023D01*
X108815238Y-141396785D01*
X109005714Y-141349166D01*
X109339047Y-141349166D01*
X109529523Y-141396785D01*
X109624761Y-141492023D01*
X109672380Y-141587261D01*
X109672380Y-141777738D01*
X109624761Y-141872976D01*
X109529523Y-141968214D01*
X109339047Y-142015833D01*
X109005714Y-142015833D01*
X108815238Y-141968214D01*
X108720000Y-141872976D01*
X108672380Y-141777738D01*
X108767619Y-140968214D02*
X108720000Y-140920595D01*
X108672380Y-140825357D01*
X108672380Y-140587261D01*
X108720000Y-140492023D01*
X108767619Y-140444404D01*
X108862857Y-140396785D01*
X108958095Y-140396785D01*
X109100952Y-140444404D01*
X109672380Y-141015833D01*
X109672380Y-140396785D01*
X113800000Y-143920595D02*
X113752380Y-144015833D01*
X113752380Y-144158690D01*
X113800000Y-144301547D01*
X113895238Y-144396785D01*
X113990476Y-144444404D01*
X114180952Y-144492023D01*
X114323809Y-144492023D01*
X114514285Y-144444404D01*
X114609523Y-144396785D01*
X114704761Y-144301547D01*
X114752380Y-144158690D01*
X114752380Y-144063452D01*
X114704761Y-143920595D01*
X114657142Y-143872976D01*
X114323809Y-143872976D01*
X114323809Y-144063452D01*
X114752380Y-143444404D02*
X113752380Y-143444404D01*
X113752380Y-143063452D01*
X113800000Y-142968214D01*
X113847619Y-142920595D01*
X113942857Y-142872976D01*
X114085714Y-142872976D01*
X114180952Y-142920595D01*
X114228571Y-142968214D01*
X114276190Y-143063452D01*
X114276190Y-143444404D01*
X114752380Y-142444404D02*
X113752380Y-142444404D01*
X113752380Y-141777738D02*
X113752380Y-141587261D01*
X113800000Y-141492023D01*
X113895238Y-141396785D01*
X114085714Y-141349166D01*
X114419047Y-141349166D01*
X114609523Y-141396785D01*
X114704761Y-141492023D01*
X114752380Y-141587261D01*
X114752380Y-141777738D01*
X114704761Y-141872976D01*
X114609523Y-141968214D01*
X114419047Y-142015833D01*
X114085714Y-142015833D01*
X113895238Y-141968214D01*
X113800000Y-141872976D01*
X113752380Y-141777738D01*
X113847619Y-140968214D02*
X113800000Y-140920595D01*
X113752380Y-140825357D01*
X113752380Y-140587261D01*
X113800000Y-140492023D01*
X113847619Y-140444404D01*
X113942857Y-140396785D01*
X114038095Y-140396785D01*
X114180952Y-140444404D01*
X114752380Y-141015833D01*
X114752380Y-140396785D01*
X113752380Y-139539642D02*
X113752380Y-139730119D01*
X113800000Y-139825357D01*
X113847619Y-139872976D01*
X113990476Y-139968214D01*
X114180952Y-140015833D01*
X114561904Y-140015833D01*
X114657142Y-139968214D01*
X114704761Y-139920595D01*
X114752380Y-139825357D01*
X114752380Y-139634880D01*
X114704761Y-139539642D01*
X114657142Y-139492023D01*
X114561904Y-139444404D01*
X114323809Y-139444404D01*
X114228571Y-139492023D01*
X114180952Y-139539642D01*
X114133333Y-139634880D01*
X114133333Y-139825357D01*
X114180952Y-139920595D01*
X114228571Y-139968214D01*
X114323809Y-140015833D01*
X111260000Y-143920595D02*
X111212380Y-144015833D01*
X111212380Y-144158690D01*
X111260000Y-144301547D01*
X111355238Y-144396785D01*
X111450476Y-144444404D01*
X111640952Y-144492023D01*
X111783809Y-144492023D01*
X111974285Y-144444404D01*
X112069523Y-144396785D01*
X112164761Y-144301547D01*
X112212380Y-144158690D01*
X112212380Y-144063452D01*
X112164761Y-143920595D01*
X112117142Y-143872976D01*
X111783809Y-143872976D01*
X111783809Y-144063452D01*
X112212380Y-143444404D02*
X111212380Y-143444404D01*
X111212380Y-143063452D01*
X111260000Y-142968214D01*
X111307619Y-142920595D01*
X111402857Y-142872976D01*
X111545714Y-142872976D01*
X111640952Y-142920595D01*
X111688571Y-142968214D01*
X111736190Y-143063452D01*
X111736190Y-143444404D01*
X112212380Y-142444404D02*
X111212380Y-142444404D01*
X111212380Y-141777738D02*
X111212380Y-141587261D01*
X111260000Y-141492023D01*
X111355238Y-141396785D01*
X111545714Y-141349166D01*
X111879047Y-141349166D01*
X112069523Y-141396785D01*
X112164761Y-141492023D01*
X112212380Y-141587261D01*
X112212380Y-141777738D01*
X112164761Y-141872976D01*
X112069523Y-141968214D01*
X111879047Y-142015833D01*
X111545714Y-142015833D01*
X111355238Y-141968214D01*
X111260000Y-141872976D01*
X111212380Y-141777738D01*
X111212380Y-141015833D02*
X111212380Y-140396785D01*
X111593333Y-140730119D01*
X111593333Y-140587261D01*
X111640952Y-140492023D01*
X111688571Y-140444404D01*
X111783809Y-140396785D01*
X112021904Y-140396785D01*
X112117142Y-140444404D01*
X112164761Y-140492023D01*
X112212380Y-140587261D01*
X112212380Y-140872976D01*
X112164761Y-140968214D01*
X112117142Y-141015833D01*
X122086666Y-144492023D02*
X122086666Y-144015833D01*
X122372380Y-144587261D02*
X121372380Y-144253928D01*
X122372380Y-143920595D01*
X121372380Y-142968214D02*
X122372380Y-142634880D01*
X121372380Y-142301547D01*
X122372380Y-141396785D02*
X121896190Y-141730119D01*
X122372380Y-141968214D02*
X121372380Y-141968214D01*
X121372380Y-141587261D01*
X121420000Y-141492023D01*
X121467619Y-141444404D01*
X121562857Y-141396785D01*
X121705714Y-141396785D01*
X121800952Y-141444404D01*
X121848571Y-141492023D01*
X121896190Y-141587261D01*
X121896190Y-141968214D01*
X121848571Y-140968214D02*
X121848571Y-140634880D01*
X122372380Y-140492023D02*
X122372380Y-140968214D01*
X121372380Y-140968214D01*
X121372380Y-140492023D01*
X121848571Y-139730119D02*
X121848571Y-140063452D01*
X122372380Y-140063452D02*
X121372380Y-140063452D01*
X121372380Y-139587261D01*
X118880000Y-143920595D02*
X118832380Y-144015833D01*
X118832380Y-144158690D01*
X118880000Y-144301547D01*
X118975238Y-144396785D01*
X119070476Y-144444404D01*
X119260952Y-144492023D01*
X119403809Y-144492023D01*
X119594285Y-144444404D01*
X119689523Y-144396785D01*
X119784761Y-144301547D01*
X119832380Y-144158690D01*
X119832380Y-144063452D01*
X119784761Y-143920595D01*
X119737142Y-143872976D01*
X119403809Y-143872976D01*
X119403809Y-144063452D01*
X119832380Y-143444404D02*
X118832380Y-143444404D01*
X118832380Y-143063452D01*
X118880000Y-142968214D01*
X118927619Y-142920595D01*
X119022857Y-142872976D01*
X119165714Y-142872976D01*
X119260952Y-142920595D01*
X119308571Y-142968214D01*
X119356190Y-143063452D01*
X119356190Y-143444404D01*
X119832380Y-142444404D02*
X118832380Y-142444404D01*
X118832380Y-141777738D02*
X118832380Y-141587261D01*
X118880000Y-141492023D01*
X118975238Y-141396785D01*
X119165714Y-141349166D01*
X119499047Y-141349166D01*
X119689523Y-141396785D01*
X119784761Y-141492023D01*
X119832380Y-141587261D01*
X119832380Y-141777738D01*
X119784761Y-141872976D01*
X119689523Y-141968214D01*
X119499047Y-142015833D01*
X119165714Y-142015833D01*
X118975238Y-141968214D01*
X118880000Y-141872976D01*
X118832380Y-141777738D01*
X118927619Y-140968214D02*
X118880000Y-140920595D01*
X118832380Y-140825357D01*
X118832380Y-140587261D01*
X118880000Y-140492023D01*
X118927619Y-140444404D01*
X119022857Y-140396785D01*
X119118095Y-140396785D01*
X119260952Y-140444404D01*
X119832380Y-141015833D01*
X119832380Y-140396785D01*
X119260952Y-139825357D02*
X119213333Y-139920595D01*
X119165714Y-139968214D01*
X119070476Y-140015833D01*
X119022857Y-140015833D01*
X118927619Y-139968214D01*
X118880000Y-139920595D01*
X118832380Y-139825357D01*
X118832380Y-139634880D01*
X118880000Y-139539642D01*
X118927619Y-139492023D01*
X119022857Y-139444404D01*
X119070476Y-139444404D01*
X119165714Y-139492023D01*
X119213333Y-139539642D01*
X119260952Y-139634880D01*
X119260952Y-139825357D01*
X119308571Y-139920595D01*
X119356190Y-139968214D01*
X119451428Y-140015833D01*
X119641904Y-140015833D01*
X119737142Y-139968214D01*
X119784761Y-139920595D01*
X119832380Y-139825357D01*
X119832380Y-139634880D01*
X119784761Y-139539642D01*
X119737142Y-139492023D01*
X119641904Y-139444404D01*
X119451428Y-139444404D01*
X119356190Y-139492023D01*
X119308571Y-139539642D01*
X119260952Y-139634880D01*
X126500000Y-143920595D02*
X126452380Y-144015833D01*
X126452380Y-144158690D01*
X126500000Y-144301547D01*
X126595238Y-144396785D01*
X126690476Y-144444404D01*
X126880952Y-144492023D01*
X127023809Y-144492023D01*
X127214285Y-144444404D01*
X127309523Y-144396785D01*
X127404761Y-144301547D01*
X127452380Y-144158690D01*
X127452380Y-144063452D01*
X127404761Y-143920595D01*
X127357142Y-143872976D01*
X127023809Y-143872976D01*
X127023809Y-144063452D01*
X127452380Y-143444404D02*
X126452380Y-143444404D01*
X127452380Y-142872976D01*
X126452380Y-142872976D01*
X127452380Y-142396785D02*
X126452380Y-142396785D01*
X126452380Y-142158690D01*
X126500000Y-142015833D01*
X126595238Y-141920595D01*
X126690476Y-141872976D01*
X126880952Y-141825357D01*
X127023809Y-141825357D01*
X127214285Y-141872976D01*
X127309523Y-141920595D01*
X127404761Y-142015833D01*
X127452380Y-142158690D01*
X127452380Y-142396785D01*
X116340000Y-143920595D02*
X116292380Y-144015833D01*
X116292380Y-144158690D01*
X116340000Y-144301547D01*
X116435238Y-144396785D01*
X116530476Y-144444404D01*
X116720952Y-144492023D01*
X116863809Y-144492023D01*
X117054285Y-144444404D01*
X117149523Y-144396785D01*
X117244761Y-144301547D01*
X117292380Y-144158690D01*
X117292380Y-144063452D01*
X117244761Y-143920595D01*
X117197142Y-143872976D01*
X116863809Y-143872976D01*
X116863809Y-144063452D01*
X117292380Y-143444404D02*
X116292380Y-143444404D01*
X116292380Y-143063452D01*
X116340000Y-142968214D01*
X116387619Y-142920595D01*
X116482857Y-142872976D01*
X116625714Y-142872976D01*
X116720952Y-142920595D01*
X116768571Y-142968214D01*
X116816190Y-143063452D01*
X116816190Y-143444404D01*
X117292380Y-142444404D02*
X116292380Y-142444404D01*
X116292380Y-141777738D02*
X116292380Y-141587261D01*
X116340000Y-141492023D01*
X116435238Y-141396785D01*
X116625714Y-141349166D01*
X116959047Y-141349166D01*
X117149523Y-141396785D01*
X117244761Y-141492023D01*
X117292380Y-141587261D01*
X117292380Y-141777738D01*
X117244761Y-141872976D01*
X117149523Y-141968214D01*
X116959047Y-142015833D01*
X116625714Y-142015833D01*
X116435238Y-141968214D01*
X116340000Y-141872976D01*
X116292380Y-141777738D01*
X116387619Y-140968214D02*
X116340000Y-140920595D01*
X116292380Y-140825357D01*
X116292380Y-140587261D01*
X116340000Y-140492023D01*
X116387619Y-140444404D01*
X116482857Y-140396785D01*
X116578095Y-140396785D01*
X116720952Y-140444404D01*
X117292380Y-141015833D01*
X117292380Y-140396785D01*
X116292380Y-140063452D02*
X116292380Y-139396785D01*
X117292380Y-139825357D01*
%TO.C,U2*%
X146558095Y-123912380D02*
X146558095Y-124721904D01*
X146605714Y-124817142D01*
X146653333Y-124864761D01*
X146748571Y-124912380D01*
X146939047Y-124912380D01*
X147034285Y-124864761D01*
X147081904Y-124817142D01*
X147129523Y-124721904D01*
X147129523Y-123912380D01*
X147558095Y-124007619D02*
X147605714Y-123960000D01*
X147700952Y-123912380D01*
X147939047Y-123912380D01*
X148034285Y-123960000D01*
X148081904Y-124007619D01*
X148129523Y-124102857D01*
X148129523Y-124198095D01*
X148081904Y-124340952D01*
X147510476Y-124912380D01*
X148129523Y-124912380D01*
X133409847Y-138750592D02*
X133760033Y-138400406D01*
X133786971Y-138804467D01*
X133867783Y-138723654D01*
X133948595Y-138696717D01*
X134002470Y-138696717D01*
X134083282Y-138723654D01*
X134217969Y-138858341D01*
X134244906Y-138939154D01*
X134244906Y-138993028D01*
X134217969Y-139073841D01*
X134056345Y-139235465D01*
X133975532Y-139262402D01*
X133921658Y-139262402D01*
X133921658Y-138238781D02*
X134675905Y-138615905D01*
X134298781Y-137861658D01*
X134433468Y-137726971D02*
X134783654Y-137376784D01*
X134810592Y-137780845D01*
X134891404Y-137700033D01*
X134972216Y-137673096D01*
X135026091Y-137673096D01*
X135106903Y-137700033D01*
X135241590Y-137834720D01*
X135268528Y-137915532D01*
X135268528Y-137969407D01*
X135241590Y-138050219D01*
X135079966Y-138211844D01*
X134999154Y-138238781D01*
X134945279Y-138238781D01*
X151210476Y-98583809D02*
X151324761Y-98621904D01*
X151515238Y-98621904D01*
X151591428Y-98583809D01*
X151629523Y-98545714D01*
X151667619Y-98469523D01*
X151667619Y-98393333D01*
X151629523Y-98317142D01*
X151591428Y-98279047D01*
X151515238Y-98240952D01*
X151362857Y-98202857D01*
X151286666Y-98164761D01*
X151248571Y-98126666D01*
X151210476Y-98050476D01*
X151210476Y-97974285D01*
X151248571Y-97898095D01*
X151286666Y-97860000D01*
X151362857Y-97821904D01*
X151553333Y-97821904D01*
X151667619Y-97860000D01*
X151934285Y-97821904D02*
X152124761Y-98621904D01*
X152277142Y-98050476D01*
X152429523Y-98621904D01*
X152620000Y-97821904D01*
X153381904Y-98545714D02*
X153343809Y-98583809D01*
X153229523Y-98621904D01*
X153153333Y-98621904D01*
X153039047Y-98583809D01*
X152962857Y-98507619D01*
X152924761Y-98431428D01*
X152886666Y-98279047D01*
X152886666Y-98164761D01*
X152924761Y-98012380D01*
X152962857Y-97936190D01*
X153039047Y-97860000D01*
X153153333Y-97821904D01*
X153229523Y-97821904D01*
X153343809Y-97860000D01*
X153381904Y-97898095D01*
X154105714Y-98621904D02*
X153724761Y-98621904D01*
X153724761Y-97821904D01*
X154372380Y-98621904D02*
X154372380Y-97821904D01*
X154829523Y-98621904D02*
X154486666Y-98164761D01*
X154829523Y-97821904D02*
X154372380Y-98279047D01*
X133806158Y-118258155D02*
X133725346Y-118285093D01*
X133644534Y-118365905D01*
X133590659Y-118473654D01*
X133590659Y-118581404D01*
X133617597Y-118662216D01*
X133698409Y-118796903D01*
X133779221Y-118877715D01*
X133913908Y-118958528D01*
X133994720Y-118985465D01*
X134102470Y-118985465D01*
X134210219Y-118931590D01*
X134264094Y-118877715D01*
X134317969Y-118769966D01*
X134317969Y-118716091D01*
X134129407Y-118527529D01*
X134021658Y-118635279D01*
X134614280Y-118527529D02*
X134048595Y-117961844D01*
X134937529Y-118204280D01*
X134371844Y-117638595D01*
X135206903Y-117934906D02*
X134641218Y-117369221D01*
X134775905Y-117234534D01*
X134883654Y-117180659D01*
X134991404Y-117180659D01*
X135072216Y-117207597D01*
X135206903Y-117288409D01*
X135287715Y-117369221D01*
X135368528Y-117503908D01*
X135395465Y-117584720D01*
X135395465Y-117692470D01*
X135341590Y-117800219D01*
X135206903Y-117934906D01*
X159417722Y-108340592D02*
X159336910Y-108367529D01*
X159256097Y-108448341D01*
X159202223Y-108556091D01*
X159202223Y-108663841D01*
X159229160Y-108744653D01*
X159309972Y-108879340D01*
X159390784Y-108960152D01*
X159525471Y-109040964D01*
X159606284Y-109067902D01*
X159714033Y-109067902D01*
X159821783Y-109014027D01*
X159875658Y-108960152D01*
X159929532Y-108852402D01*
X159929532Y-108798528D01*
X159740971Y-108609966D01*
X159633221Y-108717715D01*
X160225844Y-108609966D02*
X159660158Y-108044280D01*
X159875658Y-107828781D01*
X159956470Y-107801844D01*
X160010345Y-107801844D01*
X160091157Y-107828781D01*
X160171969Y-107909593D01*
X160198906Y-107990406D01*
X160198906Y-108044280D01*
X160171969Y-108125093D01*
X159956470Y-108340592D01*
X161087841Y-107747969D02*
X160764592Y-108071218D01*
X160926216Y-107909593D02*
X160360531Y-107343908D01*
X160387468Y-107478595D01*
X160387468Y-107586345D01*
X160360531Y-107667157D01*
X160710717Y-106993722D02*
X161060903Y-106643536D01*
X161087841Y-107047597D01*
X161168653Y-106966784D01*
X161249465Y-106939847D01*
X161303340Y-106939847D01*
X161384152Y-106966784D01*
X161518839Y-107101471D01*
X161545776Y-107182284D01*
X161545776Y-107236158D01*
X161518839Y-107316971D01*
X161357215Y-107478595D01*
X161276402Y-107505532D01*
X161222528Y-107505532D01*
X159333096Y-125881218D02*
X159252284Y-125908155D01*
X159171471Y-125988967D01*
X159117597Y-126096717D01*
X159117597Y-126204467D01*
X159144534Y-126285279D01*
X159225346Y-126419966D01*
X159306158Y-126500778D01*
X159440845Y-126581590D01*
X159521658Y-126608528D01*
X159629407Y-126608528D01*
X159737157Y-126554653D01*
X159791032Y-126500778D01*
X159844906Y-126393028D01*
X159844906Y-126339154D01*
X159656345Y-126150592D01*
X159548595Y-126258341D01*
X160141218Y-126150592D02*
X159575532Y-125584906D01*
X159791032Y-125369407D01*
X159871844Y-125342470D01*
X159925719Y-125342470D01*
X160006531Y-125369407D01*
X160087343Y-125450219D01*
X160114280Y-125531032D01*
X160114280Y-125584906D01*
X160087343Y-125665719D01*
X159871844Y-125881218D01*
X160087343Y-125073096D02*
X160464467Y-124695972D01*
X160787715Y-125504094D01*
X159563722Y-113420592D02*
X159482910Y-113447529D01*
X159402097Y-113528341D01*
X159348223Y-113636091D01*
X159348223Y-113743841D01*
X159375160Y-113824653D01*
X159455972Y-113959340D01*
X159536784Y-114040152D01*
X159671471Y-114120964D01*
X159752284Y-114147902D01*
X159860033Y-114147902D01*
X159967783Y-114094027D01*
X160021658Y-114040152D01*
X160075532Y-113932402D01*
X160075532Y-113878528D01*
X159886971Y-113689966D01*
X159779221Y-113797715D01*
X160371844Y-113689966D02*
X159806158Y-113124280D01*
X160021658Y-112908781D01*
X160102470Y-112881844D01*
X160156345Y-112881844D01*
X160237157Y-112908781D01*
X160317969Y-112989593D01*
X160344906Y-113070406D01*
X160344906Y-113124280D01*
X160317969Y-113205093D01*
X160102470Y-113420592D01*
X161233841Y-112827969D02*
X160910592Y-113151218D01*
X161072216Y-112989593D02*
X160506531Y-112423908D01*
X160533468Y-112558595D01*
X160533468Y-112666345D01*
X160506531Y-112747157D01*
X161772589Y-112289221D02*
X161449340Y-112612470D01*
X161610964Y-112450845D02*
X161045279Y-111885160D01*
X161072216Y-112019847D01*
X161072216Y-112127597D01*
X161045279Y-112208409D01*
X159433096Y-138551218D02*
X159352284Y-138578155D01*
X159271471Y-138658967D01*
X159217597Y-138766717D01*
X159217597Y-138874467D01*
X159244534Y-138955279D01*
X159325346Y-139089966D01*
X159406158Y-139170778D01*
X159540845Y-139251590D01*
X159621658Y-139278528D01*
X159729407Y-139278528D01*
X159837157Y-139224653D01*
X159891032Y-139170778D01*
X159944906Y-139063028D01*
X159944906Y-139009154D01*
X159756345Y-138820592D01*
X159648595Y-138928341D01*
X160241218Y-138820592D02*
X159675532Y-138254906D01*
X159891032Y-138039407D01*
X159971844Y-138012470D01*
X160025719Y-138012470D01*
X160106531Y-138039407D01*
X160187343Y-138120219D01*
X160214280Y-138201032D01*
X160214280Y-138254906D01*
X160187343Y-138335719D01*
X159971844Y-138551218D01*
X160187343Y-137743096D02*
X160537529Y-137392910D01*
X160564467Y-137796971D01*
X160645279Y-137716158D01*
X160726091Y-137689221D01*
X160779966Y-137689221D01*
X160860778Y-137716158D01*
X160995465Y-137850845D01*
X161022402Y-137931658D01*
X161022402Y-137985532D01*
X160995465Y-138066345D01*
X160833841Y-138227969D01*
X160753028Y-138254906D01*
X160699154Y-138254906D01*
X159406158Y-130958155D02*
X159325346Y-130985093D01*
X159244534Y-131065905D01*
X159190659Y-131173654D01*
X159190659Y-131281404D01*
X159217597Y-131362216D01*
X159298409Y-131496903D01*
X159379221Y-131577715D01*
X159513908Y-131658528D01*
X159594720Y-131685465D01*
X159702470Y-131685465D01*
X159810219Y-131631590D01*
X159864094Y-131577715D01*
X159917969Y-131469966D01*
X159917969Y-131416091D01*
X159729407Y-131227529D01*
X159621658Y-131335279D01*
X160214280Y-131227529D02*
X159648595Y-130661844D01*
X160537529Y-130904280D01*
X159971844Y-130338595D01*
X160806903Y-130634906D02*
X160241218Y-130069221D01*
X160375905Y-129934534D01*
X160483654Y-129880659D01*
X160591404Y-129880659D01*
X160672216Y-129907597D01*
X160806903Y-129988409D01*
X160887715Y-130069221D01*
X160968528Y-130203908D01*
X160995465Y-130284720D01*
X160995465Y-130392470D01*
X160941590Y-130500219D01*
X160806903Y-130634906D01*
X133309722Y-113420592D02*
X133228910Y-113447529D01*
X133148097Y-113528341D01*
X133094223Y-113636091D01*
X133094223Y-113743841D01*
X133121160Y-113824653D01*
X133201972Y-113959340D01*
X133282784Y-114040152D01*
X133417471Y-114120964D01*
X133498284Y-114147902D01*
X133606033Y-114147902D01*
X133713783Y-114094027D01*
X133767658Y-114040152D01*
X133821532Y-113932402D01*
X133821532Y-113878528D01*
X133632971Y-113689966D01*
X133525221Y-113797715D01*
X134117844Y-113689966D02*
X133552158Y-113124280D01*
X133767658Y-112908781D01*
X133848470Y-112881844D01*
X133902345Y-112881844D01*
X133983157Y-112908781D01*
X134063969Y-112989593D01*
X134090906Y-113070406D01*
X134090906Y-113124280D01*
X134063969Y-113205093D01*
X133848470Y-113420592D01*
X134144781Y-112639407D02*
X134144781Y-112585532D01*
X134171719Y-112504720D01*
X134306406Y-112370033D01*
X134387218Y-112343096D01*
X134441093Y-112343096D01*
X134521905Y-112370033D01*
X134575780Y-112423908D01*
X134629654Y-112531658D01*
X134629654Y-113178155D01*
X134979841Y-112827969D01*
X134764341Y-111912097D02*
X134818216Y-111858223D01*
X134899028Y-111831285D01*
X134952903Y-111831285D01*
X135033715Y-111858223D01*
X135168402Y-111939035D01*
X135303089Y-112073722D01*
X135383902Y-112208409D01*
X135410839Y-112289221D01*
X135410839Y-112343096D01*
X135383902Y-112423908D01*
X135330027Y-112477783D01*
X135249215Y-112504720D01*
X135195340Y-112504720D01*
X135114528Y-112477783D01*
X134979841Y-112396971D01*
X134845154Y-112262284D01*
X134764341Y-112127597D01*
X134737404Y-112046784D01*
X134737404Y-111992910D01*
X134764341Y-111912097D01*
X159463722Y-103260592D02*
X159382910Y-103287529D01*
X159302097Y-103368341D01*
X159248223Y-103476091D01*
X159248223Y-103583841D01*
X159275160Y-103664653D01*
X159355972Y-103799340D01*
X159436784Y-103880152D01*
X159571471Y-103960964D01*
X159652284Y-103987902D01*
X159760033Y-103987902D01*
X159867783Y-103934027D01*
X159921658Y-103880152D01*
X159975532Y-103772402D01*
X159975532Y-103718528D01*
X159786971Y-103529966D01*
X159679221Y-103637715D01*
X160271844Y-103529966D02*
X159706158Y-102964280D01*
X159921658Y-102748781D01*
X160002470Y-102721844D01*
X160056345Y-102721844D01*
X160137157Y-102748781D01*
X160217969Y-102829593D01*
X160244906Y-102910406D01*
X160244906Y-102964280D01*
X160217969Y-103045093D01*
X160002470Y-103260592D01*
X161133841Y-102667969D02*
X160810592Y-102991218D01*
X160972216Y-102829593D02*
X160406531Y-102263908D01*
X160433468Y-102398595D01*
X160433468Y-102506345D01*
X160406531Y-102587157D01*
X161241590Y-101805972D02*
X161618714Y-102183096D01*
X160891404Y-101725160D02*
X161160778Y-102263908D01*
X161510964Y-101913722D01*
X159533096Y-146181218D02*
X159452284Y-146208155D01*
X159371471Y-146288967D01*
X159317597Y-146396717D01*
X159317597Y-146504467D01*
X159344534Y-146585279D01*
X159425346Y-146719966D01*
X159506158Y-146800778D01*
X159640845Y-146881590D01*
X159721658Y-146908528D01*
X159829407Y-146908528D01*
X159937157Y-146854653D01*
X159991032Y-146800778D01*
X160044906Y-146693028D01*
X160044906Y-146639154D01*
X159856345Y-146450592D01*
X159748595Y-146558341D01*
X160341218Y-146450592D02*
X159775532Y-145884906D01*
X159991032Y-145669407D01*
X160071844Y-145642470D01*
X160125719Y-145642470D01*
X160206531Y-145669407D01*
X160287343Y-145750219D01*
X160314280Y-145831032D01*
X160314280Y-145884906D01*
X160287343Y-145965719D01*
X160071844Y-146181218D01*
X161203215Y-145588595D02*
X160879966Y-145911844D01*
X161041590Y-145750219D02*
X160475905Y-145184534D01*
X160502842Y-145319221D01*
X160502842Y-145426971D01*
X160475905Y-145507783D01*
X131842131Y-142818308D02*
X132192317Y-142468122D01*
X132219255Y-142872183D01*
X132300067Y-142791370D01*
X132380879Y-142764433D01*
X132434754Y-142764433D01*
X132515566Y-142791370D01*
X132650253Y-142926057D01*
X132677190Y-143006870D01*
X132677190Y-143060744D01*
X132650253Y-143141557D01*
X132488629Y-143303181D01*
X132407816Y-143330118D01*
X132353942Y-143330118D01*
X132353942Y-142306497D02*
X133108189Y-142683621D01*
X132731065Y-141929374D01*
X132865752Y-141794687D02*
X133215938Y-141444500D01*
X133242876Y-141848561D01*
X133323688Y-141767749D01*
X133404500Y-141740812D01*
X133458375Y-141740812D01*
X133539187Y-141767749D01*
X133673874Y-141902436D01*
X133700812Y-141983248D01*
X133700812Y-142037123D01*
X133673874Y-142117935D01*
X133512250Y-142279560D01*
X133431438Y-142306497D01*
X133377563Y-142306497D01*
X133943248Y-141956311D02*
X134374247Y-141525312D01*
X134158748Y-141040439D02*
X134347309Y-140851877D01*
X134724433Y-141067377D02*
X134455059Y-141336751D01*
X133889374Y-140771065D01*
X134158748Y-140501691D01*
X134966870Y-140824940D02*
X134401184Y-140259255D01*
X135290118Y-140501691D01*
X134724433Y-139936006D01*
X159433096Y-123311218D02*
X159352284Y-123338155D01*
X159271471Y-123418967D01*
X159217597Y-123526717D01*
X159217597Y-123634467D01*
X159244534Y-123715279D01*
X159325346Y-123849966D01*
X159406158Y-123930778D01*
X159540845Y-124011590D01*
X159621658Y-124038528D01*
X159729407Y-124038528D01*
X159837157Y-123984653D01*
X159891032Y-123930778D01*
X159944906Y-123823028D01*
X159944906Y-123769154D01*
X159756345Y-123580592D01*
X159648595Y-123688341D01*
X160241218Y-123580592D02*
X159675532Y-123014906D01*
X159891032Y-122799407D01*
X159971844Y-122772470D01*
X160025719Y-122772470D01*
X160106531Y-122799407D01*
X160187343Y-122880219D01*
X160214280Y-122961032D01*
X160214280Y-123014906D01*
X160187343Y-123095719D01*
X159971844Y-123311218D01*
X160564467Y-122610845D02*
X160483654Y-122637783D01*
X160429780Y-122637783D01*
X160348967Y-122610845D01*
X160322030Y-122583908D01*
X160295093Y-122503096D01*
X160295093Y-122449221D01*
X160322030Y-122368409D01*
X160429780Y-122260659D01*
X160510592Y-122233722D01*
X160564467Y-122233722D01*
X160645279Y-122260659D01*
X160672216Y-122287597D01*
X160699154Y-122368409D01*
X160699154Y-122422284D01*
X160672216Y-122503096D01*
X160564467Y-122610845D01*
X160537529Y-122691658D01*
X160537529Y-122745532D01*
X160564467Y-122826345D01*
X160672216Y-122934094D01*
X160753028Y-122961032D01*
X160806903Y-122961032D01*
X160887715Y-122934094D01*
X160995465Y-122826345D01*
X161022402Y-122745532D01*
X161022402Y-122691658D01*
X160995465Y-122610845D01*
X160887715Y-122503096D01*
X160806903Y-122476158D01*
X160753028Y-122476158D01*
X160672216Y-122503096D01*
X159406158Y-143658155D02*
X159325346Y-143685093D01*
X159244534Y-143765905D01*
X159190659Y-143873654D01*
X159190659Y-143981404D01*
X159217597Y-144062216D01*
X159298409Y-144196903D01*
X159379221Y-144277715D01*
X159513908Y-144358528D01*
X159594720Y-144385465D01*
X159702470Y-144385465D01*
X159810219Y-144331590D01*
X159864094Y-144277715D01*
X159917969Y-144169966D01*
X159917969Y-144116091D01*
X159729407Y-143927529D01*
X159621658Y-144035279D01*
X160214280Y-143927529D02*
X159648595Y-143361844D01*
X160537529Y-143604280D01*
X159971844Y-143038595D01*
X160806903Y-143334906D02*
X160241218Y-142769221D01*
X160375905Y-142634534D01*
X160483654Y-142580659D01*
X160591404Y-142580659D01*
X160672216Y-142607597D01*
X160806903Y-142688409D01*
X160887715Y-142769221D01*
X160968528Y-142903908D01*
X160995465Y-142984720D01*
X160995465Y-143092470D01*
X160941590Y-143200219D01*
X160806903Y-143334906D01*
X132673129Y-149387309D02*
X133427377Y-149764433D01*
X133050253Y-149010186D01*
X133696751Y-148902436D02*
X133804500Y-148848561D01*
X133858375Y-148848561D01*
X133939187Y-148875499D01*
X134020000Y-148956311D01*
X134046937Y-149037123D01*
X134046937Y-149090998D01*
X134020000Y-149171810D01*
X133804500Y-149387309D01*
X133238815Y-148821624D01*
X133427377Y-148633062D01*
X133508189Y-148606125D01*
X133562064Y-148606125D01*
X133642876Y-148633062D01*
X133696751Y-148686937D01*
X133723688Y-148767749D01*
X133723688Y-148821624D01*
X133696751Y-148902436D01*
X133508189Y-149090998D01*
X133804500Y-148255938D02*
X134262436Y-148713874D01*
X134343248Y-148740812D01*
X134397123Y-148740812D01*
X134477935Y-148713874D01*
X134585685Y-148606125D01*
X134612622Y-148525312D01*
X134612622Y-148471438D01*
X134585685Y-148390625D01*
X134127749Y-147932690D01*
X134908934Y-148229001D02*
X135016683Y-148175126D01*
X135151370Y-148040439D01*
X135178308Y-147959627D01*
X135178308Y-147905752D01*
X135151370Y-147824940D01*
X135097496Y-147771065D01*
X135016683Y-147744128D01*
X134962809Y-147744128D01*
X134881996Y-147771065D01*
X134747309Y-147851877D01*
X134666497Y-147878815D01*
X134612622Y-147878815D01*
X134531810Y-147851877D01*
X134477935Y-147798003D01*
X134450998Y-147717190D01*
X134450998Y-147663316D01*
X134477935Y-147582503D01*
X134612622Y-147447816D01*
X134720372Y-147393942D01*
X133309722Y-133994592D02*
X133228910Y-134021529D01*
X133148097Y-134102341D01*
X133094223Y-134210091D01*
X133094223Y-134317841D01*
X133121160Y-134398653D01*
X133201972Y-134533340D01*
X133282784Y-134614152D01*
X133417471Y-134694964D01*
X133498284Y-134721902D01*
X133606033Y-134721902D01*
X133713783Y-134668027D01*
X133767658Y-134614152D01*
X133821532Y-134506402D01*
X133821532Y-134452528D01*
X133632971Y-134263966D01*
X133525221Y-134371715D01*
X134117844Y-134263966D02*
X133552158Y-133698280D01*
X133767658Y-133482781D01*
X133848470Y-133455844D01*
X133902345Y-133455844D01*
X133983157Y-133482781D01*
X134063969Y-133563593D01*
X134090906Y-133644406D01*
X134090906Y-133698280D01*
X134063969Y-133779093D01*
X133848470Y-133994592D01*
X134144781Y-133213407D02*
X134144781Y-133159532D01*
X134171719Y-133078720D01*
X134306406Y-132944033D01*
X134387218Y-132917096D01*
X134441093Y-132917096D01*
X134521905Y-132944033D01*
X134575780Y-132997908D01*
X134629654Y-133105658D01*
X134629654Y-133752155D01*
X134979841Y-133401969D01*
X134979841Y-132755471D02*
X134899028Y-132782409D01*
X134845154Y-132782409D01*
X134764341Y-132755471D01*
X134737404Y-132728534D01*
X134710467Y-132647722D01*
X134710467Y-132593847D01*
X134737404Y-132513035D01*
X134845154Y-132405285D01*
X134925966Y-132378348D01*
X134979841Y-132378348D01*
X135060653Y-132405285D01*
X135087590Y-132432223D01*
X135114528Y-132513035D01*
X135114528Y-132566910D01*
X135087590Y-132647722D01*
X134979841Y-132755471D01*
X134952903Y-132836284D01*
X134952903Y-132890158D01*
X134979841Y-132970971D01*
X135087590Y-133078720D01*
X135168402Y-133105658D01*
X135222277Y-133105658D01*
X135303089Y-133078720D01*
X135410839Y-132970971D01*
X135437776Y-132890158D01*
X135437776Y-132836284D01*
X135410839Y-132755471D01*
X135303089Y-132647722D01*
X135222277Y-132620784D01*
X135168402Y-132620784D01*
X135087590Y-132647722D01*
X133363597Y-131900964D02*
X133632971Y-131631590D01*
X133471346Y-132116463D02*
X133094223Y-131362216D01*
X133848470Y-131739340D01*
X133794595Y-130715719D02*
X133713783Y-130742656D01*
X133632971Y-130823468D01*
X133579096Y-130931218D01*
X133579096Y-131038967D01*
X133606033Y-131119780D01*
X133686845Y-131254467D01*
X133767658Y-131335279D01*
X133902345Y-131416091D01*
X133983157Y-131443028D01*
X134090906Y-131443028D01*
X134198656Y-131389154D01*
X134252531Y-131335279D01*
X134306406Y-131227529D01*
X134306406Y-131173654D01*
X134117844Y-130985093D01*
X134010094Y-131092842D01*
X134602717Y-130985093D02*
X134037032Y-130419407D01*
X134925966Y-130661844D01*
X134360280Y-130096158D01*
X135195340Y-130392470D02*
X134629654Y-129826784D01*
X134764341Y-129692097D01*
X134872091Y-129638223D01*
X134979841Y-129638223D01*
X135060653Y-129665160D01*
X135195340Y-129745972D01*
X135276152Y-129826784D01*
X135356964Y-129961471D01*
X135383902Y-130042284D01*
X135383902Y-130150033D01*
X135330027Y-130257783D01*
X135195340Y-130392470D01*
X133309722Y-128650592D02*
X133228910Y-128677529D01*
X133148097Y-128758341D01*
X133094223Y-128866091D01*
X133094223Y-128973841D01*
X133121160Y-129054653D01*
X133201972Y-129189340D01*
X133282784Y-129270152D01*
X133417471Y-129350964D01*
X133498284Y-129377902D01*
X133606033Y-129377902D01*
X133713783Y-129324027D01*
X133767658Y-129270152D01*
X133821532Y-129162402D01*
X133821532Y-129108528D01*
X133632971Y-128919966D01*
X133525221Y-129027715D01*
X134117844Y-128919966D02*
X133552158Y-128354280D01*
X133767658Y-128138781D01*
X133848470Y-128111844D01*
X133902345Y-128111844D01*
X133983157Y-128138781D01*
X134063969Y-128219593D01*
X134090906Y-128300406D01*
X134090906Y-128354280D01*
X134063969Y-128435093D01*
X133848470Y-128650592D01*
X134144781Y-127869407D02*
X134144781Y-127815532D01*
X134171719Y-127734720D01*
X134306406Y-127600033D01*
X134387218Y-127573096D01*
X134441093Y-127573096D01*
X134521905Y-127600033D01*
X134575780Y-127653908D01*
X134629654Y-127761658D01*
X134629654Y-128408155D01*
X134979841Y-128057969D01*
X134602717Y-127303722D02*
X134979841Y-126926598D01*
X135303089Y-127734720D01*
X133309722Y-103260592D02*
X133228910Y-103287529D01*
X133148097Y-103368341D01*
X133094223Y-103476091D01*
X133094223Y-103583841D01*
X133121160Y-103664653D01*
X133201972Y-103799340D01*
X133282784Y-103880152D01*
X133417471Y-103960964D01*
X133498284Y-103987902D01*
X133606033Y-103987902D01*
X133713783Y-103934027D01*
X133767658Y-103880152D01*
X133821532Y-103772402D01*
X133821532Y-103718528D01*
X133632971Y-103529966D01*
X133525221Y-103637715D01*
X134117844Y-103529966D02*
X133552158Y-102964280D01*
X133767658Y-102748781D01*
X133848470Y-102721844D01*
X133902345Y-102721844D01*
X133983157Y-102748781D01*
X134063969Y-102829593D01*
X134090906Y-102910406D01*
X134090906Y-102964280D01*
X134063969Y-103045093D01*
X133848470Y-103260592D01*
X134979841Y-102667969D02*
X134656592Y-102991218D01*
X134818216Y-102829593D02*
X134252531Y-102263908D01*
X134279468Y-102398595D01*
X134279468Y-102506345D01*
X134252531Y-102587157D01*
X134602717Y-101913722D02*
X134979841Y-101536598D01*
X135303089Y-102344720D01*
X132840473Y-146709966D02*
X133594720Y-147087089D01*
X133217597Y-146332842D01*
X133917969Y-146709966D02*
X134025719Y-146656091D01*
X134160406Y-146521404D01*
X134187343Y-146440592D01*
X134187343Y-146386717D01*
X134160406Y-146305905D01*
X134106531Y-146252030D01*
X134025719Y-146225093D01*
X133971844Y-146225093D01*
X133891032Y-146252030D01*
X133756345Y-146332842D01*
X133675532Y-146359780D01*
X133621658Y-146359780D01*
X133540845Y-146332842D01*
X133486971Y-146278967D01*
X133460033Y-146198155D01*
X133460033Y-146144280D01*
X133486971Y-146063468D01*
X133621658Y-145928781D01*
X133729407Y-145874906D01*
X134348967Y-145794094D02*
X134618341Y-146063468D01*
X133864094Y-145686345D02*
X134348967Y-145794094D01*
X134241218Y-145309221D01*
X134941590Y-145686345D02*
X135049340Y-145632470D01*
X135184027Y-145497783D01*
X135210964Y-145416971D01*
X135210964Y-145363096D01*
X135184027Y-145282284D01*
X135130152Y-145228409D01*
X135049340Y-145201471D01*
X134995465Y-145201471D01*
X134914653Y-145228409D01*
X134779966Y-145309221D01*
X134699154Y-145336158D01*
X134645279Y-145336158D01*
X134564467Y-145309221D01*
X134510592Y-145255346D01*
X134483654Y-145174534D01*
X134483654Y-145120659D01*
X134510592Y-145039847D01*
X134645279Y-144905160D01*
X134753028Y-144851285D01*
X133309722Y-121040592D02*
X133228910Y-121067529D01*
X133148097Y-121148341D01*
X133094223Y-121256091D01*
X133094223Y-121363841D01*
X133121160Y-121444653D01*
X133201972Y-121579340D01*
X133282784Y-121660152D01*
X133417471Y-121740964D01*
X133498284Y-121767902D01*
X133606033Y-121767902D01*
X133713783Y-121714027D01*
X133767658Y-121660152D01*
X133821532Y-121552402D01*
X133821532Y-121498528D01*
X133632971Y-121309966D01*
X133525221Y-121417715D01*
X134117844Y-121309966D02*
X133552158Y-120744280D01*
X133767658Y-120528781D01*
X133848470Y-120501844D01*
X133902345Y-120501844D01*
X133983157Y-120528781D01*
X134063969Y-120609593D01*
X134090906Y-120690406D01*
X134090906Y-120744280D01*
X134063969Y-120825093D01*
X133848470Y-121040592D01*
X134144781Y-120259407D02*
X134144781Y-120205532D01*
X134171719Y-120124720D01*
X134306406Y-119990033D01*
X134387218Y-119963096D01*
X134441093Y-119963096D01*
X134521905Y-119990033D01*
X134575780Y-120043908D01*
X134629654Y-120151658D01*
X134629654Y-120798155D01*
X134979841Y-120447969D01*
X134683529Y-119720659D02*
X134683529Y-119666784D01*
X134710467Y-119585972D01*
X134845154Y-119451285D01*
X134925966Y-119424348D01*
X134979841Y-119424348D01*
X135060653Y-119451285D01*
X135114528Y-119505160D01*
X135168402Y-119612910D01*
X135168402Y-120259407D01*
X135518589Y-119909221D01*
X133309722Y-100720592D02*
X133228910Y-100747529D01*
X133148097Y-100828341D01*
X133094223Y-100936091D01*
X133094223Y-101043841D01*
X133121160Y-101124653D01*
X133201972Y-101259340D01*
X133282784Y-101340152D01*
X133417471Y-101420964D01*
X133498284Y-101447902D01*
X133606033Y-101447902D01*
X133713783Y-101394027D01*
X133767658Y-101340152D01*
X133821532Y-101232402D01*
X133821532Y-101178528D01*
X133632971Y-100989966D01*
X133525221Y-101097715D01*
X134117844Y-100989966D02*
X133552158Y-100424280D01*
X133767658Y-100208781D01*
X133848470Y-100181844D01*
X133902345Y-100181844D01*
X133983157Y-100208781D01*
X134063969Y-100289593D01*
X134090906Y-100370406D01*
X134090906Y-100424280D01*
X134063969Y-100505093D01*
X133848470Y-100720592D01*
X134979841Y-100127969D02*
X134656592Y-100451218D01*
X134818216Y-100289593D02*
X134252531Y-99723908D01*
X134279468Y-99858595D01*
X134279468Y-99966345D01*
X134252531Y-100047157D01*
X134899028Y-99077410D02*
X134791279Y-99185160D01*
X134764341Y-99265972D01*
X134764341Y-99319847D01*
X134791279Y-99454534D01*
X134872091Y-99589221D01*
X135087590Y-99804720D01*
X135168402Y-99831658D01*
X135222277Y-99831658D01*
X135303089Y-99804720D01*
X135410839Y-99696971D01*
X135437776Y-99616158D01*
X135437776Y-99562284D01*
X135410839Y-99481471D01*
X135276152Y-99346784D01*
X135195340Y-99319847D01*
X135141465Y-99319847D01*
X135060653Y-99346784D01*
X134952903Y-99454534D01*
X134925966Y-99535346D01*
X134925966Y-99589221D01*
X134952903Y-99670033D01*
X159433096Y-133471218D02*
X159352284Y-133498155D01*
X159271471Y-133578967D01*
X159217597Y-133686717D01*
X159217597Y-133794467D01*
X159244534Y-133875279D01*
X159325346Y-134009966D01*
X159406158Y-134090778D01*
X159540845Y-134171590D01*
X159621658Y-134198528D01*
X159729407Y-134198528D01*
X159837157Y-134144653D01*
X159891032Y-134090778D01*
X159944906Y-133983028D01*
X159944906Y-133929154D01*
X159756345Y-133740592D01*
X159648595Y-133848341D01*
X160241218Y-133740592D02*
X159675532Y-133174906D01*
X159891032Y-132959407D01*
X159971844Y-132932470D01*
X160025719Y-132932470D01*
X160106531Y-132959407D01*
X160187343Y-133040219D01*
X160214280Y-133121032D01*
X160214280Y-133174906D01*
X160187343Y-133255719D01*
X159971844Y-133471218D01*
X160510592Y-132339847D02*
X160241218Y-132609221D01*
X160483654Y-132905532D01*
X160483654Y-132851658D01*
X160510592Y-132770845D01*
X160645279Y-132636158D01*
X160726091Y-132609221D01*
X160779966Y-132609221D01*
X160860778Y-132636158D01*
X160995465Y-132770845D01*
X161022402Y-132851658D01*
X161022402Y-132905532D01*
X160995465Y-132986345D01*
X160860778Y-133121032D01*
X160779966Y-133147969D01*
X160726091Y-133147969D01*
X159563722Y-110880592D02*
X159482910Y-110907529D01*
X159402097Y-110988341D01*
X159348223Y-111096091D01*
X159348223Y-111203841D01*
X159375160Y-111284653D01*
X159455972Y-111419340D01*
X159536784Y-111500152D01*
X159671471Y-111580964D01*
X159752284Y-111607902D01*
X159860033Y-111607902D01*
X159967783Y-111554027D01*
X160021658Y-111500152D01*
X160075532Y-111392402D01*
X160075532Y-111338528D01*
X159886971Y-111149966D01*
X159779221Y-111257715D01*
X160371844Y-111149966D02*
X159806158Y-110584280D01*
X160021658Y-110368781D01*
X160102470Y-110341844D01*
X160156345Y-110341844D01*
X160237157Y-110368781D01*
X160317969Y-110449593D01*
X160344906Y-110530406D01*
X160344906Y-110584280D01*
X160317969Y-110665093D01*
X160102470Y-110880592D01*
X161233841Y-110287969D02*
X160910592Y-110611218D01*
X161072216Y-110449593D02*
X160506531Y-109883908D01*
X160533468Y-110018595D01*
X160533468Y-110126345D01*
X160506531Y-110207157D01*
X160937529Y-109560659D02*
X160937529Y-109506784D01*
X160964467Y-109425972D01*
X161099154Y-109291285D01*
X161179966Y-109264348D01*
X161233841Y-109264348D01*
X161314653Y-109291285D01*
X161368528Y-109345160D01*
X161422402Y-109452910D01*
X161422402Y-110099407D01*
X161772589Y-109749221D01*
X159433096Y-136011218D02*
X159352284Y-136038155D01*
X159271471Y-136118967D01*
X159217597Y-136226717D01*
X159217597Y-136334467D01*
X159244534Y-136415279D01*
X159325346Y-136549966D01*
X159406158Y-136630778D01*
X159540845Y-136711590D01*
X159621658Y-136738528D01*
X159729407Y-136738528D01*
X159837157Y-136684653D01*
X159891032Y-136630778D01*
X159944906Y-136523028D01*
X159944906Y-136469154D01*
X159756345Y-136280592D01*
X159648595Y-136388341D01*
X160241218Y-136280592D02*
X159675532Y-135714906D01*
X159891032Y-135499407D01*
X159971844Y-135472470D01*
X160025719Y-135472470D01*
X160106531Y-135499407D01*
X160187343Y-135580219D01*
X160214280Y-135661032D01*
X160214280Y-135714906D01*
X160187343Y-135795719D01*
X159971844Y-136011218D01*
X160672216Y-135095346D02*
X161049340Y-135472470D01*
X160322030Y-135014534D02*
X160591404Y-135553282D01*
X160941590Y-135203096D01*
X159406158Y-105558155D02*
X159325346Y-105585093D01*
X159244534Y-105665905D01*
X159190659Y-105773654D01*
X159190659Y-105881404D01*
X159217597Y-105962216D01*
X159298409Y-106096903D01*
X159379221Y-106177715D01*
X159513908Y-106258528D01*
X159594720Y-106285465D01*
X159702470Y-106285465D01*
X159810219Y-106231590D01*
X159864094Y-106177715D01*
X159917969Y-106069966D01*
X159917969Y-106016091D01*
X159729407Y-105827529D01*
X159621658Y-105935279D01*
X160214280Y-105827529D02*
X159648595Y-105261844D01*
X160537529Y-105504280D01*
X159971844Y-104938595D01*
X160806903Y-105234906D02*
X160241218Y-104669221D01*
X160375905Y-104534534D01*
X160483654Y-104480659D01*
X160591404Y-104480659D01*
X160672216Y-104507597D01*
X160806903Y-104588409D01*
X160887715Y-104669221D01*
X160968528Y-104803908D01*
X160995465Y-104884720D01*
X160995465Y-104992470D01*
X160941590Y-105100219D01*
X160806903Y-105234906D01*
X133806158Y-105558155D02*
X133725346Y-105585093D01*
X133644534Y-105665905D01*
X133590659Y-105773654D01*
X133590659Y-105881404D01*
X133617597Y-105962216D01*
X133698409Y-106096903D01*
X133779221Y-106177715D01*
X133913908Y-106258528D01*
X133994720Y-106285465D01*
X134102470Y-106285465D01*
X134210219Y-106231590D01*
X134264094Y-106177715D01*
X134317969Y-106069966D01*
X134317969Y-106016091D01*
X134129407Y-105827529D01*
X134021658Y-105935279D01*
X134614280Y-105827529D02*
X134048595Y-105261844D01*
X134937529Y-105504280D01*
X134371844Y-104938595D01*
X135206903Y-105234906D02*
X134641218Y-104669221D01*
X134775905Y-104534534D01*
X134883654Y-104480659D01*
X134991404Y-104480659D01*
X135072216Y-104507597D01*
X135206903Y-104588409D01*
X135287715Y-104669221D01*
X135368528Y-104803908D01*
X135395465Y-104884720D01*
X135395465Y-104992470D01*
X135341590Y-105100219D01*
X135206903Y-105234906D01*
X133806158Y-143658155D02*
X133725346Y-143685093D01*
X133644534Y-143765905D01*
X133590659Y-143873654D01*
X133590659Y-143981404D01*
X133617597Y-144062216D01*
X133698409Y-144196903D01*
X133779221Y-144277715D01*
X133913908Y-144358528D01*
X133994720Y-144385465D01*
X134102470Y-144385465D01*
X134210219Y-144331590D01*
X134264094Y-144277715D01*
X134317969Y-144169966D01*
X134317969Y-144116091D01*
X134129407Y-143927529D01*
X134021658Y-144035279D01*
X134614280Y-143927529D02*
X134048595Y-143361844D01*
X134937529Y-143604280D01*
X134371844Y-143038595D01*
X135206903Y-143334906D02*
X134641218Y-142769221D01*
X134775905Y-142634534D01*
X134883654Y-142580659D01*
X134991404Y-142580659D01*
X135072216Y-142607597D01*
X135206903Y-142688409D01*
X135287715Y-142769221D01*
X135368528Y-142903908D01*
X135395465Y-142984720D01*
X135395465Y-143092470D01*
X135341590Y-143200219D01*
X135206903Y-143334906D01*
X159433096Y-148711218D02*
X159352284Y-148738155D01*
X159271471Y-148818967D01*
X159217597Y-148926717D01*
X159217597Y-149034467D01*
X159244534Y-149115279D01*
X159325346Y-149249966D01*
X159406158Y-149330778D01*
X159540845Y-149411590D01*
X159621658Y-149438528D01*
X159729407Y-149438528D01*
X159837157Y-149384653D01*
X159891032Y-149330778D01*
X159944906Y-149223028D01*
X159944906Y-149169154D01*
X159756345Y-148980592D01*
X159648595Y-149088341D01*
X160241218Y-148980592D02*
X159675532Y-148414906D01*
X159891032Y-148199407D01*
X159971844Y-148172470D01*
X160025719Y-148172470D01*
X160106531Y-148199407D01*
X160187343Y-148280219D01*
X160214280Y-148361032D01*
X160214280Y-148414906D01*
X160187343Y-148495719D01*
X159971844Y-148711218D01*
X160348967Y-147741471D02*
X160402842Y-147687597D01*
X160483654Y-147660659D01*
X160537529Y-147660659D01*
X160618341Y-147687597D01*
X160753028Y-147768409D01*
X160887715Y-147903096D01*
X160968528Y-148037783D01*
X160995465Y-148118595D01*
X160995465Y-148172470D01*
X160968528Y-148253282D01*
X160914653Y-148307157D01*
X160833841Y-148334094D01*
X160779966Y-148334094D01*
X160699154Y-148307157D01*
X160564467Y-148226345D01*
X160429780Y-148091658D01*
X160348967Y-147956971D01*
X160322030Y-147876158D01*
X160322030Y-147822284D01*
X160348967Y-147741471D01*
X133309722Y-126120592D02*
X133228910Y-126147529D01*
X133148097Y-126228341D01*
X133094223Y-126336091D01*
X133094223Y-126443841D01*
X133121160Y-126524653D01*
X133201972Y-126659340D01*
X133282784Y-126740152D01*
X133417471Y-126820964D01*
X133498284Y-126847902D01*
X133606033Y-126847902D01*
X133713783Y-126794027D01*
X133767658Y-126740152D01*
X133821532Y-126632402D01*
X133821532Y-126578528D01*
X133632971Y-126389966D01*
X133525221Y-126497715D01*
X134117844Y-126389966D02*
X133552158Y-125824280D01*
X133767658Y-125608781D01*
X133848470Y-125581844D01*
X133902345Y-125581844D01*
X133983157Y-125608781D01*
X134063969Y-125689593D01*
X134090906Y-125770406D01*
X134090906Y-125824280D01*
X134063969Y-125905093D01*
X133848470Y-126120592D01*
X134144781Y-125339407D02*
X134144781Y-125285532D01*
X134171719Y-125204720D01*
X134306406Y-125070033D01*
X134387218Y-125043096D01*
X134441093Y-125043096D01*
X134521905Y-125070033D01*
X134575780Y-125123908D01*
X134629654Y-125231658D01*
X134629654Y-125878155D01*
X134979841Y-125527969D01*
X134899028Y-124477410D02*
X134791279Y-124585160D01*
X134764341Y-124665972D01*
X134764341Y-124719847D01*
X134791279Y-124854534D01*
X134872091Y-124989221D01*
X135087590Y-125204720D01*
X135168402Y-125231658D01*
X135222277Y-125231658D01*
X135303089Y-125204720D01*
X135410839Y-125096971D01*
X135437776Y-125016158D01*
X135437776Y-124962284D01*
X135410839Y-124881471D01*
X135276152Y-124746784D01*
X135195340Y-124719847D01*
X135141465Y-124719847D01*
X135060653Y-124746784D01*
X134952903Y-124854534D01*
X134925966Y-124935346D01*
X134925966Y-124989221D01*
X134952903Y-125070033D01*
X140024761Y-98583809D02*
X140139047Y-98621904D01*
X140329523Y-98621904D01*
X140405714Y-98583809D01*
X140443809Y-98545714D01*
X140481904Y-98469523D01*
X140481904Y-98393333D01*
X140443809Y-98317142D01*
X140405714Y-98279047D01*
X140329523Y-98240952D01*
X140177142Y-98202857D01*
X140100952Y-98164761D01*
X140062857Y-98126666D01*
X140024761Y-98050476D01*
X140024761Y-97974285D01*
X140062857Y-97898095D01*
X140100952Y-97860000D01*
X140177142Y-97821904D01*
X140367619Y-97821904D01*
X140481904Y-97860000D01*
X140748571Y-97821904D02*
X140939047Y-98621904D01*
X141091428Y-98050476D01*
X141243809Y-98621904D01*
X141434285Y-97821904D01*
X141739047Y-98621904D02*
X141739047Y-97821904D01*
X141929523Y-97821904D01*
X142043809Y-97860000D01*
X142120000Y-97936190D01*
X142158095Y-98012380D01*
X142196190Y-98164761D01*
X142196190Y-98279047D01*
X142158095Y-98431428D01*
X142120000Y-98507619D01*
X142043809Y-98583809D01*
X141929523Y-98621904D01*
X141739047Y-98621904D01*
X142539047Y-98621904D02*
X142539047Y-97821904D01*
X143072380Y-97821904D02*
X143224761Y-97821904D01*
X143300952Y-97860000D01*
X143377142Y-97936190D01*
X143415238Y-98088571D01*
X143415238Y-98355238D01*
X143377142Y-98507619D01*
X143300952Y-98583809D01*
X143224761Y-98621904D01*
X143072380Y-98621904D01*
X142996190Y-98583809D01*
X142920000Y-98507619D01*
X142881904Y-98355238D01*
X142881904Y-98088571D01*
X142920000Y-97936190D01*
X142996190Y-97860000D01*
X143072380Y-97821904D01*
X133309722Y-115950592D02*
X133228910Y-115977529D01*
X133148097Y-116058341D01*
X133094223Y-116166091D01*
X133094223Y-116273841D01*
X133121160Y-116354653D01*
X133201972Y-116489340D01*
X133282784Y-116570152D01*
X133417471Y-116650964D01*
X133498284Y-116677902D01*
X133606033Y-116677902D01*
X133713783Y-116624027D01*
X133767658Y-116570152D01*
X133821532Y-116462402D01*
X133821532Y-116408528D01*
X133632971Y-116219966D01*
X133525221Y-116327715D01*
X134117844Y-116219966D02*
X133552158Y-115654280D01*
X133767658Y-115438781D01*
X133848470Y-115411844D01*
X133902345Y-115411844D01*
X133983157Y-115438781D01*
X134063969Y-115519593D01*
X134090906Y-115600406D01*
X134090906Y-115654280D01*
X134063969Y-115735093D01*
X133848470Y-115950592D01*
X134144781Y-115169407D02*
X134144781Y-115115532D01*
X134171719Y-115034720D01*
X134306406Y-114900033D01*
X134387218Y-114873096D01*
X134441093Y-114873096D01*
X134521905Y-114900033D01*
X134575780Y-114953908D01*
X134629654Y-115061658D01*
X134629654Y-115708155D01*
X134979841Y-115357969D01*
X135518589Y-114819221D02*
X135195340Y-115142470D01*
X135356964Y-114980845D02*
X134791279Y-114415160D01*
X134818216Y-114549847D01*
X134818216Y-114657597D01*
X134791279Y-114738409D01*
X159533096Y-141091218D02*
X159452284Y-141118155D01*
X159371471Y-141198967D01*
X159317597Y-141306717D01*
X159317597Y-141414467D01*
X159344534Y-141495279D01*
X159425346Y-141629966D01*
X159506158Y-141710778D01*
X159640845Y-141791590D01*
X159721658Y-141818528D01*
X159829407Y-141818528D01*
X159937157Y-141764653D01*
X159991032Y-141710778D01*
X160044906Y-141603028D01*
X160044906Y-141549154D01*
X159856345Y-141360592D01*
X159748595Y-141468341D01*
X160341218Y-141360592D02*
X159775532Y-140794906D01*
X159991032Y-140579407D01*
X160071844Y-140552470D01*
X160125719Y-140552470D01*
X160206531Y-140579407D01*
X160287343Y-140660219D01*
X160314280Y-140741032D01*
X160314280Y-140794906D01*
X160287343Y-140875719D01*
X160071844Y-141091218D01*
X160368155Y-140310033D02*
X160368155Y-140256158D01*
X160395093Y-140175346D01*
X160529780Y-140040659D01*
X160610592Y-140013722D01*
X160664467Y-140013722D01*
X160745279Y-140040659D01*
X160799154Y-140094534D01*
X160853028Y-140202284D01*
X160853028Y-140848781D01*
X161203215Y-140498595D01*
X159417722Y-100720592D02*
X159336910Y-100747529D01*
X159256097Y-100828341D01*
X159202223Y-100936091D01*
X159202223Y-101043841D01*
X159229160Y-101124653D01*
X159309972Y-101259340D01*
X159390784Y-101340152D01*
X159525471Y-101420964D01*
X159606284Y-101447902D01*
X159714033Y-101447902D01*
X159821783Y-101394027D01*
X159875658Y-101340152D01*
X159929532Y-101232402D01*
X159929532Y-101178528D01*
X159740971Y-100989966D01*
X159633221Y-101097715D01*
X160225844Y-100989966D02*
X159660158Y-100424280D01*
X159875658Y-100208781D01*
X159956470Y-100181844D01*
X160010345Y-100181844D01*
X160091157Y-100208781D01*
X160171969Y-100289593D01*
X160198906Y-100370406D01*
X160198906Y-100424280D01*
X160171969Y-100505093D01*
X159956470Y-100720592D01*
X161087841Y-100127969D02*
X160764592Y-100451218D01*
X160926216Y-100289593D02*
X160360531Y-99723908D01*
X160387468Y-99858595D01*
X160387468Y-99966345D01*
X160360531Y-100047157D01*
X161033966Y-99050473D02*
X160764592Y-99319847D01*
X161007028Y-99616158D01*
X161007028Y-99562284D01*
X161033966Y-99481471D01*
X161168653Y-99346784D01*
X161249465Y-99319847D01*
X161303340Y-99319847D01*
X161384152Y-99346784D01*
X161518839Y-99481471D01*
X161545776Y-99562284D01*
X161545776Y-99616158D01*
X161518839Y-99696971D01*
X161384152Y-99831658D01*
X161303340Y-99858595D01*
X161249465Y-99858595D01*
X159406158Y-118258155D02*
X159325346Y-118285093D01*
X159244534Y-118365905D01*
X159190659Y-118473654D01*
X159190659Y-118581404D01*
X159217597Y-118662216D01*
X159298409Y-118796903D01*
X159379221Y-118877715D01*
X159513908Y-118958528D01*
X159594720Y-118985465D01*
X159702470Y-118985465D01*
X159810219Y-118931590D01*
X159864094Y-118877715D01*
X159917969Y-118769966D01*
X159917969Y-118716091D01*
X159729407Y-118527529D01*
X159621658Y-118635279D01*
X160214280Y-118527529D02*
X159648595Y-117961844D01*
X160537529Y-118204280D01*
X159971844Y-117638595D01*
X160806903Y-117934906D02*
X160241218Y-117369221D01*
X160375905Y-117234534D01*
X160483654Y-117180659D01*
X160591404Y-117180659D01*
X160672216Y-117207597D01*
X160806903Y-117288409D01*
X160887715Y-117369221D01*
X160968528Y-117503908D01*
X160995465Y-117584720D01*
X160995465Y-117692470D01*
X160941590Y-117800219D01*
X160806903Y-117934906D01*
X159433096Y-128391218D02*
X159352284Y-128418155D01*
X159271471Y-128498967D01*
X159217597Y-128606717D01*
X159217597Y-128714467D01*
X159244534Y-128795279D01*
X159325346Y-128929966D01*
X159406158Y-129010778D01*
X159540845Y-129091590D01*
X159621658Y-129118528D01*
X159729407Y-129118528D01*
X159837157Y-129064653D01*
X159891032Y-129010778D01*
X159944906Y-128903028D01*
X159944906Y-128849154D01*
X159756345Y-128660592D01*
X159648595Y-128768341D01*
X160241218Y-128660592D02*
X159675532Y-128094906D01*
X159891032Y-127879407D01*
X159971844Y-127852470D01*
X160025719Y-127852470D01*
X160106531Y-127879407D01*
X160187343Y-127960219D01*
X160214280Y-128041032D01*
X160214280Y-128094906D01*
X160187343Y-128175719D01*
X159971844Y-128391218D01*
X160483654Y-127286784D02*
X160375905Y-127394534D01*
X160348967Y-127475346D01*
X160348967Y-127529221D01*
X160375905Y-127663908D01*
X160456717Y-127798595D01*
X160672216Y-128014094D01*
X160753028Y-128041032D01*
X160806903Y-128041032D01*
X160887715Y-128014094D01*
X160995465Y-127906345D01*
X161022402Y-127825532D01*
X161022402Y-127771658D01*
X160995465Y-127690845D01*
X160860778Y-127556158D01*
X160779966Y-127529221D01*
X160726091Y-127529221D01*
X160645279Y-127556158D01*
X160537529Y-127663908D01*
X160510592Y-127744720D01*
X160510592Y-127798595D01*
X160537529Y-127879407D01*
X133309722Y-108340592D02*
X133228910Y-108367529D01*
X133148097Y-108448341D01*
X133094223Y-108556091D01*
X133094223Y-108663841D01*
X133121160Y-108744653D01*
X133201972Y-108879340D01*
X133282784Y-108960152D01*
X133417471Y-109040964D01*
X133498284Y-109067902D01*
X133606033Y-109067902D01*
X133713783Y-109014027D01*
X133767658Y-108960152D01*
X133821532Y-108852402D01*
X133821532Y-108798528D01*
X133632971Y-108609966D01*
X133525221Y-108717715D01*
X134117844Y-108609966D02*
X133552158Y-108044280D01*
X133767658Y-107828781D01*
X133848470Y-107801844D01*
X133902345Y-107801844D01*
X133983157Y-107828781D01*
X134063969Y-107909593D01*
X134090906Y-107990406D01*
X134090906Y-108044280D01*
X134063969Y-108125093D01*
X133848470Y-108340592D01*
X134979841Y-107747969D02*
X134656592Y-108071218D01*
X134818216Y-107909593D02*
X134252531Y-107343908D01*
X134279468Y-107478595D01*
X134279468Y-107586345D01*
X134252531Y-107667157D01*
X134979841Y-107101471D02*
X134899028Y-107128409D01*
X134845154Y-107128409D01*
X134764341Y-107101471D01*
X134737404Y-107074534D01*
X134710467Y-106993722D01*
X134710467Y-106939847D01*
X134737404Y-106859035D01*
X134845154Y-106751285D01*
X134925966Y-106724348D01*
X134979841Y-106724348D01*
X135060653Y-106751285D01*
X135087590Y-106778223D01*
X135114528Y-106859035D01*
X135114528Y-106912910D01*
X135087590Y-106993722D01*
X134979841Y-107101471D01*
X134952903Y-107182284D01*
X134952903Y-107236158D01*
X134979841Y-107316971D01*
X135087590Y-107424720D01*
X135168402Y-107451658D01*
X135222277Y-107451658D01*
X135303089Y-107424720D01*
X135410839Y-107316971D01*
X135437776Y-107236158D01*
X135437776Y-107182284D01*
X135410839Y-107101471D01*
X135303089Y-106993722D01*
X135222277Y-106966784D01*
X135168402Y-106966784D01*
X135087590Y-106993722D01*
X131474788Y-138993773D02*
X131744162Y-138724399D01*
X131582537Y-139209272D02*
X131205414Y-138455025D01*
X131959661Y-138832149D01*
X132148223Y-138643587D02*
X131582537Y-138077902D01*
X131717224Y-137943215D01*
X131824974Y-137889340D01*
X131932723Y-137889340D01*
X132013536Y-137916277D01*
X132148223Y-137997089D01*
X132229035Y-138077902D01*
X132309847Y-138212589D01*
X132336784Y-138293401D01*
X132336784Y-138401150D01*
X132282910Y-138508900D01*
X132148223Y-138643587D01*
X132983282Y-137700778D02*
X132983282Y-137754653D01*
X132929407Y-137862402D01*
X132875532Y-137916277D01*
X132767783Y-137970152D01*
X132660033Y-137970152D01*
X132579221Y-137943215D01*
X132444534Y-137862402D01*
X132363722Y-137781590D01*
X132282910Y-137646903D01*
X132255972Y-137566091D01*
X132255972Y-137458341D01*
X132309847Y-137350592D01*
X132363722Y-137296717D01*
X132471471Y-137242842D01*
X132525346Y-137242842D01*
X133198781Y-137700778D02*
X133629780Y-137269780D01*
X133064094Y-136596345D02*
X133818341Y-136973468D01*
X133441218Y-136219221D01*
X134518714Y-136273096D02*
X134060778Y-136192284D01*
X134195465Y-136596345D02*
X133629780Y-136030659D01*
X133845279Y-135815160D01*
X133926091Y-135788223D01*
X133979966Y-135788223D01*
X134060778Y-135815160D01*
X134141590Y-135895972D01*
X134168528Y-135976784D01*
X134168528Y-136030659D01*
X134141590Y-136111471D01*
X133926091Y-136326971D01*
X134464839Y-135734348D02*
X134653401Y-135545786D01*
X135030524Y-135761285D02*
X134761150Y-136030659D01*
X134195465Y-135464974D01*
X134464839Y-135195600D01*
X135165211Y-135033975D02*
X134976650Y-135222537D01*
X135272961Y-135518849D02*
X134707276Y-134953163D01*
X134976650Y-134683789D01*
X159433096Y-120771218D02*
X159352284Y-120798155D01*
X159271471Y-120878967D01*
X159217597Y-120986717D01*
X159217597Y-121094467D01*
X159244534Y-121175279D01*
X159325346Y-121309966D01*
X159406158Y-121390778D01*
X159540845Y-121471590D01*
X159621658Y-121498528D01*
X159729407Y-121498528D01*
X159837157Y-121444653D01*
X159891032Y-121390778D01*
X159944906Y-121283028D01*
X159944906Y-121229154D01*
X159756345Y-121040592D01*
X159648595Y-121148341D01*
X160241218Y-121040592D02*
X159675532Y-120474906D01*
X159891032Y-120259407D01*
X159971844Y-120232470D01*
X160025719Y-120232470D01*
X160106531Y-120259407D01*
X160187343Y-120340219D01*
X160214280Y-120421032D01*
X160214280Y-120474906D01*
X160187343Y-120555719D01*
X159971844Y-120771218D01*
X160833841Y-120447969D02*
X160941590Y-120340219D01*
X160968528Y-120259407D01*
X160968528Y-120205532D01*
X160941590Y-120070845D01*
X160860778Y-119936158D01*
X160645279Y-119720659D01*
X160564467Y-119693722D01*
X160510592Y-119693722D01*
X160429780Y-119720659D01*
X160322030Y-119828409D01*
X160295093Y-119909221D01*
X160295093Y-119963096D01*
X160322030Y-120043908D01*
X160456717Y-120178595D01*
X160537529Y-120205532D01*
X160591404Y-120205532D01*
X160672216Y-120178595D01*
X160779966Y-120070845D01*
X160806903Y-119990033D01*
X160806903Y-119936158D01*
X160779966Y-119855346D01*
X133309722Y-110880592D02*
X133228910Y-110907529D01*
X133148097Y-110988341D01*
X133094223Y-111096091D01*
X133094223Y-111203841D01*
X133121160Y-111284653D01*
X133201972Y-111419340D01*
X133282784Y-111500152D01*
X133417471Y-111580964D01*
X133498284Y-111607902D01*
X133606033Y-111607902D01*
X133713783Y-111554027D01*
X133767658Y-111500152D01*
X133821532Y-111392402D01*
X133821532Y-111338528D01*
X133632971Y-111149966D01*
X133525221Y-111257715D01*
X134117844Y-111149966D02*
X133552158Y-110584280D01*
X133767658Y-110368781D01*
X133848470Y-110341844D01*
X133902345Y-110341844D01*
X133983157Y-110368781D01*
X134063969Y-110449593D01*
X134090906Y-110530406D01*
X134090906Y-110584280D01*
X134063969Y-110665093D01*
X133848470Y-110880592D01*
X134979841Y-110287969D02*
X134656592Y-110611218D01*
X134818216Y-110449593D02*
X134252531Y-109883908D01*
X134279468Y-110018595D01*
X134279468Y-110126345D01*
X134252531Y-110207157D01*
X135249215Y-110018595D02*
X135356964Y-109910845D01*
X135383902Y-109830033D01*
X135383902Y-109776158D01*
X135356964Y-109641471D01*
X135276152Y-109506784D01*
X135060653Y-109291285D01*
X134979841Y-109264348D01*
X134925966Y-109264348D01*
X134845154Y-109291285D01*
X134737404Y-109399035D01*
X134710467Y-109479847D01*
X134710467Y-109533722D01*
X134737404Y-109614534D01*
X134872091Y-109749221D01*
X134952903Y-109776158D01*
X135006778Y-109776158D01*
X135087590Y-109749221D01*
X135195340Y-109641471D01*
X135222277Y-109560659D01*
X135222277Y-109506784D01*
X135195340Y-109425972D01*
X134158375Y-123863435D02*
X133700439Y-123782622D01*
X133835126Y-124186683D02*
X133269441Y-123620998D01*
X133484940Y-123405499D01*
X133565752Y-123378561D01*
X133619627Y-123378561D01*
X133700439Y-123405499D01*
X133781251Y-123486311D01*
X133808189Y-123567123D01*
X133808189Y-123620998D01*
X133781251Y-123701810D01*
X133565752Y-123917309D01*
X133835126Y-123055312D02*
X134293062Y-123513248D01*
X134373874Y-123540186D01*
X134427749Y-123540186D01*
X134508561Y-123513248D01*
X134616311Y-123405499D01*
X134643248Y-123324687D01*
X134643248Y-123270812D01*
X134616311Y-123189999D01*
X134158375Y-122732064D01*
X134993435Y-123028375D02*
X134427749Y-122462690D01*
X135316683Y-122705126D01*
X134750998Y-122139441D01*
X159417722Y-115960592D02*
X159336910Y-115987529D01*
X159256097Y-116068341D01*
X159202223Y-116176091D01*
X159202223Y-116283841D01*
X159229160Y-116364653D01*
X159309972Y-116499340D01*
X159390784Y-116580152D01*
X159525471Y-116660964D01*
X159606284Y-116687902D01*
X159714033Y-116687902D01*
X159821783Y-116634027D01*
X159875658Y-116580152D01*
X159929532Y-116472402D01*
X159929532Y-116418528D01*
X159740971Y-116229966D01*
X159633221Y-116337715D01*
X160225844Y-116229966D02*
X159660158Y-115664280D01*
X159875658Y-115448781D01*
X159956470Y-115421844D01*
X160010345Y-115421844D01*
X160091157Y-115448781D01*
X160171969Y-115529593D01*
X160198906Y-115610406D01*
X160198906Y-115664280D01*
X160171969Y-115745093D01*
X159956470Y-115960592D01*
X161087841Y-115367969D02*
X160764592Y-115691218D01*
X160926216Y-115529593D02*
X160360531Y-114963908D01*
X160387468Y-115098595D01*
X160387468Y-115206345D01*
X160360531Y-115287157D01*
X160872341Y-114452097D02*
X160926216Y-114398223D01*
X161007028Y-114371285D01*
X161060903Y-114371285D01*
X161141715Y-114398223D01*
X161276402Y-114479035D01*
X161411089Y-114613722D01*
X161491902Y-114748409D01*
X161518839Y-114829221D01*
X161518839Y-114883096D01*
X161491902Y-114963908D01*
X161438027Y-115017783D01*
X161357215Y-115044720D01*
X161303340Y-115044720D01*
X161222528Y-115017783D01*
X161087841Y-114936971D01*
X160953154Y-114802284D01*
X160872341Y-114667597D01*
X160845404Y-114586784D01*
X160845404Y-114532910D01*
X160872341Y-114452097D01*
%TO.C,J5*%
X189666666Y-66252380D02*
X189666666Y-66966666D01*
X189619047Y-67109523D01*
X189523809Y-67204761D01*
X189380952Y-67252380D01*
X189285714Y-67252380D01*
X190619047Y-66252380D02*
X190142857Y-66252380D01*
X190095238Y-66728571D01*
X190142857Y-66680952D01*
X190238095Y-66633333D01*
X190476190Y-66633333D01*
X190571428Y-66680952D01*
X190619047Y-66728571D01*
X190666666Y-66823809D01*
X190666666Y-67061904D01*
X190619047Y-67157142D01*
X190571428Y-67204761D01*
X190476190Y-67252380D01*
X190238095Y-67252380D01*
X190142857Y-67204761D01*
X190095238Y-67157142D01*
X181927619Y-56469404D02*
X181927619Y-55897976D01*
X181927619Y-56183690D02*
X182927619Y-56183690D01*
X182784761Y-56088452D01*
X182689523Y-55993214D01*
X182641904Y-55897976D01*
X182832380Y-56850357D02*
X182880000Y-56897976D01*
X182927619Y-56993214D01*
X182927619Y-57231309D01*
X182880000Y-57326547D01*
X182832380Y-57374166D01*
X182737142Y-57421785D01*
X182641904Y-57421785D01*
X182499047Y-57374166D01*
X181927619Y-56802738D01*
X181927619Y-57421785D01*
X182927619Y-58469404D02*
X181927619Y-58802738D01*
X182927619Y-59136071D01*
X181927619Y-59612261D02*
X181975238Y-59517023D01*
X182022857Y-59469404D01*
X182118095Y-59421785D01*
X182403809Y-59421785D01*
X182499047Y-59469404D01*
X182546666Y-59517023D01*
X182594285Y-59612261D01*
X182594285Y-59755119D01*
X182546666Y-59850357D01*
X182499047Y-59897976D01*
X182403809Y-59945595D01*
X182118095Y-59945595D01*
X182022857Y-59897976D01*
X181975238Y-59850357D01*
X181927619Y-59755119D01*
X181927619Y-59612261D01*
X181927619Y-60517023D02*
X181975238Y-60421785D01*
X182070476Y-60374166D01*
X182927619Y-60374166D01*
X182594285Y-60755119D02*
X182594285Y-61136071D01*
X182927619Y-60897976D02*
X182070476Y-60897976D01*
X181975238Y-60945595D01*
X181927619Y-61040833D01*
X181927619Y-61136071D01*
X181927619Y-62231309D02*
X182594285Y-62231309D01*
X182927619Y-62231309D02*
X182880000Y-62183690D01*
X182832380Y-62231309D01*
X182880000Y-62278928D01*
X182927619Y-62231309D01*
X182832380Y-62231309D01*
X182594285Y-62707500D02*
X181927619Y-62707500D01*
X182499047Y-62707500D02*
X182546666Y-62755119D01*
X182594285Y-62850357D01*
X182594285Y-62993214D01*
X182546666Y-63088452D01*
X182451428Y-63136071D01*
X181927619Y-63136071D01*
%TO.C,R6*%
X188833333Y-101822380D02*
X188500000Y-101346190D01*
X188261904Y-101822380D02*
X188261904Y-100822380D01*
X188642857Y-100822380D01*
X188738095Y-100870000D01*
X188785714Y-100917619D01*
X188833333Y-101012857D01*
X188833333Y-101155714D01*
X188785714Y-101250952D01*
X188738095Y-101298571D01*
X188642857Y-101346190D01*
X188261904Y-101346190D01*
X189690476Y-100822380D02*
X189500000Y-100822380D01*
X189404761Y-100870000D01*
X189357142Y-100917619D01*
X189261904Y-101060476D01*
X189214285Y-101250952D01*
X189214285Y-101631904D01*
X189261904Y-101727142D01*
X189309523Y-101774761D01*
X189404761Y-101822380D01*
X189595238Y-101822380D01*
X189690476Y-101774761D01*
X189738095Y-101727142D01*
X189785714Y-101631904D01*
X189785714Y-101393809D01*
X189738095Y-101298571D01*
X189690476Y-101250952D01*
X189595238Y-101203333D01*
X189404761Y-101203333D01*
X189309523Y-101250952D01*
X189261904Y-101298571D01*
X189214285Y-101393809D01*
%TO.C,J4*%
X131746666Y-62201380D02*
X131746666Y-62915666D01*
X131699047Y-63058523D01*
X131603809Y-63153761D01*
X131460952Y-63201380D01*
X131365714Y-63201380D01*
X132651428Y-62534714D02*
X132651428Y-63201380D01*
X132413333Y-62153761D02*
X132175238Y-62868047D01*
X132794285Y-62868047D01*
X127651428Y-55003761D02*
X127794285Y-55051380D01*
X128032380Y-55051380D01*
X128127619Y-55003761D01*
X128175238Y-54956142D01*
X128222857Y-54860904D01*
X128222857Y-54765666D01*
X128175238Y-54670428D01*
X128127619Y-54622809D01*
X128032380Y-54575190D01*
X127841904Y-54527571D01*
X127746666Y-54479952D01*
X127699047Y-54432333D01*
X127651428Y-54337095D01*
X127651428Y-54241857D01*
X127699047Y-54146619D01*
X127746666Y-54099000D01*
X127841904Y-54051380D01*
X128080000Y-54051380D01*
X128222857Y-54099000D01*
X128508571Y-54384714D02*
X128889523Y-54384714D01*
X128651428Y-54051380D02*
X128651428Y-54908523D01*
X128699047Y-55003761D01*
X128794285Y-55051380D01*
X128889523Y-55051380D01*
X129603809Y-55003761D02*
X129508571Y-55051380D01*
X129318095Y-55051380D01*
X129222857Y-55003761D01*
X129175238Y-54908523D01*
X129175238Y-54527571D01*
X129222857Y-54432333D01*
X129318095Y-54384714D01*
X129508571Y-54384714D01*
X129603809Y-54432333D01*
X129651428Y-54527571D01*
X129651428Y-54622809D01*
X129175238Y-54718047D01*
X130080000Y-54384714D02*
X130080000Y-55384714D01*
X130080000Y-54432333D02*
X130175238Y-54384714D01*
X130365714Y-54384714D01*
X130460952Y-54432333D01*
X130508571Y-54479952D01*
X130556190Y-54575190D01*
X130556190Y-54860904D01*
X130508571Y-54956142D01*
X130460952Y-55003761D01*
X130365714Y-55051380D01*
X130175238Y-55051380D01*
X130080000Y-55003761D01*
X130984761Y-54384714D02*
X130984761Y-55384714D01*
X130984761Y-54432333D02*
X131080000Y-54384714D01*
X131270476Y-54384714D01*
X131365714Y-54432333D01*
X131413333Y-54479952D01*
X131460952Y-54575190D01*
X131460952Y-54860904D01*
X131413333Y-54956142D01*
X131365714Y-55003761D01*
X131270476Y-55051380D01*
X131080000Y-55051380D01*
X130984761Y-55003761D01*
X132270476Y-55003761D02*
X132175238Y-55051380D01*
X131984761Y-55051380D01*
X131889523Y-55003761D01*
X131841904Y-54908523D01*
X131841904Y-54527571D01*
X131889523Y-54432333D01*
X131984761Y-54384714D01*
X132175238Y-54384714D01*
X132270476Y-54432333D01*
X132318095Y-54527571D01*
X132318095Y-54622809D01*
X131841904Y-54718047D01*
X132746666Y-55051380D02*
X132746666Y-54384714D01*
X132746666Y-54575190D02*
X132794285Y-54479952D01*
X132841904Y-54432333D01*
X132937142Y-54384714D01*
X133032380Y-54384714D01*
X134603809Y-55051380D02*
X134127619Y-55051380D01*
X134127619Y-54051380D01*
X135318095Y-55003761D02*
X135222857Y-55051380D01*
X135032380Y-55051380D01*
X134937142Y-55003761D01*
X134889523Y-54908523D01*
X134889523Y-54527571D01*
X134937142Y-54432333D01*
X135032380Y-54384714D01*
X135222857Y-54384714D01*
X135318095Y-54432333D01*
X135365714Y-54527571D01*
X135365714Y-54622809D01*
X134889523Y-54718047D01*
X135651428Y-54384714D02*
X136032380Y-54384714D01*
X135794285Y-55051380D02*
X135794285Y-54194238D01*
X135841904Y-54099000D01*
X135937142Y-54051380D01*
X136032380Y-54051380D01*
X136222857Y-54384714D02*
X136603809Y-54384714D01*
X136365714Y-54051380D02*
X136365714Y-54908523D01*
X136413333Y-55003761D01*
X136508571Y-55051380D01*
X136603809Y-55051380D01*
%TO.C,U3*%
X142634880Y-81031904D02*
X143444404Y-81031904D01*
X143539642Y-80984285D01*
X143587261Y-80936666D01*
X143634880Y-80841428D01*
X143634880Y-80650952D01*
X143587261Y-80555714D01*
X143539642Y-80508095D01*
X143444404Y-80460476D01*
X142634880Y-80460476D01*
X142634880Y-80079523D02*
X142634880Y-79460476D01*
X143015833Y-79793809D01*
X143015833Y-79650952D01*
X143063452Y-79555714D01*
X143111071Y-79508095D01*
X143206309Y-79460476D01*
X143444404Y-79460476D01*
X143539642Y-79508095D01*
X143587261Y-79555714D01*
X143634880Y-79650952D01*
X143634880Y-79936666D01*
X143587261Y-80031904D01*
X143539642Y-80079523D01*
X136419642Y-88717500D02*
X136467261Y-88765119D01*
X136514880Y-88907976D01*
X136514880Y-89003214D01*
X136467261Y-89146071D01*
X136372023Y-89241309D01*
X136276785Y-89288928D01*
X136086309Y-89336547D01*
X135943452Y-89336547D01*
X135752976Y-89288928D01*
X135657738Y-89241309D01*
X135562500Y-89146071D01*
X135514880Y-89003214D01*
X135514880Y-88907976D01*
X135562500Y-88765119D01*
X135610119Y-88717500D01*
X136514880Y-87812738D02*
X136514880Y-88288928D01*
X135514880Y-88288928D01*
X136514880Y-87479404D02*
X135514880Y-87479404D01*
X136514880Y-86907976D02*
X135943452Y-87336547D01*
X135514880Y-86907976D02*
X136086309Y-87479404D01*
X123291071Y-88431785D02*
X123291071Y-88098452D01*
X123814880Y-87955595D02*
X123814880Y-88431785D01*
X122814880Y-88431785D01*
X122814880Y-87955595D01*
X123814880Y-87527023D02*
X122814880Y-87527023D01*
X123814880Y-86955595D01*
X122814880Y-86955595D01*
X135991071Y-70711071D02*
X136038690Y-70568214D01*
X136086309Y-70520595D01*
X136181547Y-70472976D01*
X136324404Y-70472976D01*
X136419642Y-70520595D01*
X136467261Y-70568214D01*
X136514880Y-70663452D01*
X136514880Y-71044404D01*
X135514880Y-71044404D01*
X135514880Y-70711071D01*
X135562500Y-70615833D01*
X135610119Y-70568214D01*
X135705357Y-70520595D01*
X135800595Y-70520595D01*
X135895833Y-70568214D01*
X135943452Y-70615833D01*
X135991071Y-70711071D01*
X135991071Y-71044404D01*
X135610119Y-70092023D02*
X135562500Y-70044404D01*
X135514880Y-69949166D01*
X135514880Y-69711071D01*
X135562500Y-69615833D01*
X135610119Y-69568214D01*
X135705357Y-69520595D01*
X135800595Y-69520595D01*
X135943452Y-69568214D01*
X136514880Y-70139642D01*
X136514880Y-69520595D01*
X140642500Y-70520595D02*
X140594880Y-70615833D01*
X140594880Y-70758690D01*
X140642500Y-70901547D01*
X140737738Y-70996785D01*
X140832976Y-71044404D01*
X141023452Y-71092023D01*
X141166309Y-71092023D01*
X141356785Y-71044404D01*
X141452023Y-70996785D01*
X141547261Y-70901547D01*
X141594880Y-70758690D01*
X141594880Y-70663452D01*
X141547261Y-70520595D01*
X141499642Y-70472976D01*
X141166309Y-70472976D01*
X141166309Y-70663452D01*
X141594880Y-70044404D02*
X140594880Y-70044404D01*
X141594880Y-69472976D01*
X140594880Y-69472976D01*
X141594880Y-68996785D02*
X140594880Y-68996785D01*
X140594880Y-68758690D01*
X140642500Y-68615833D01*
X140737738Y-68520595D01*
X140832976Y-68472976D01*
X141023452Y-68425357D01*
X141166309Y-68425357D01*
X141356785Y-68472976D01*
X141452023Y-68520595D01*
X141547261Y-68615833D01*
X141594880Y-68758690D01*
X141594880Y-68996785D01*
X128894880Y-89527023D02*
X127894880Y-89527023D01*
X128609166Y-89193690D01*
X127894880Y-88860357D01*
X128894880Y-88860357D01*
X128847261Y-88431785D02*
X128894880Y-88288928D01*
X128894880Y-88050833D01*
X128847261Y-87955595D01*
X128799642Y-87907976D01*
X128704404Y-87860357D01*
X128609166Y-87860357D01*
X128513928Y-87907976D01*
X128466309Y-87955595D01*
X128418690Y-88050833D01*
X128371071Y-88241309D01*
X128323452Y-88336547D01*
X128275833Y-88384166D01*
X128180595Y-88431785D01*
X128085357Y-88431785D01*
X127990119Y-88384166D01*
X127942500Y-88336547D01*
X127894880Y-88241309D01*
X127894880Y-88003214D01*
X127942500Y-87860357D01*
X127990119Y-87479404D02*
X127942500Y-87431785D01*
X127894880Y-87336547D01*
X127894880Y-87098452D01*
X127942500Y-87003214D01*
X127990119Y-86955595D01*
X128085357Y-86907976D01*
X128180595Y-86907976D01*
X128323452Y-86955595D01*
X128894880Y-87527023D01*
X128894880Y-86907976D01*
X138054880Y-71187261D02*
X139054880Y-70853928D01*
X138054880Y-70520595D01*
X139054880Y-70187261D02*
X138054880Y-70187261D01*
X138054880Y-69949166D01*
X138102500Y-69806309D01*
X138197738Y-69711071D01*
X138292976Y-69663452D01*
X138483452Y-69615833D01*
X138626309Y-69615833D01*
X138816785Y-69663452D01*
X138912023Y-69711071D01*
X139007261Y-69806309D01*
X139054880Y-69949166D01*
X139054880Y-70187261D01*
X139054880Y-69187261D02*
X138054880Y-69187261D01*
X138054880Y-68949166D01*
X138102500Y-68806309D01*
X138197738Y-68711071D01*
X138292976Y-68663452D01*
X138483452Y-68615833D01*
X138626309Y-68615833D01*
X138816785Y-68663452D01*
X138912023Y-68711071D01*
X139007261Y-68806309D01*
X139054880Y-68949166D01*
X139054880Y-69187261D01*
X128609166Y-71092023D02*
X128609166Y-70615833D01*
X128894880Y-71187261D02*
X127894880Y-70853928D01*
X128894880Y-70520595D01*
X128894880Y-69663452D02*
X128894880Y-70234880D01*
X128894880Y-69949166D02*
X127894880Y-69949166D01*
X128037738Y-70044404D01*
X128132976Y-70139642D01*
X128180595Y-70234880D01*
X127841428Y-77658571D02*
X127984285Y-77706190D01*
X128031904Y-77753809D01*
X128079523Y-77849047D01*
X128079523Y-77991904D01*
X128031904Y-78087142D01*
X127984285Y-78134761D01*
X127889047Y-78182380D01*
X127508095Y-78182380D01*
X127508095Y-77182380D01*
X127841428Y-77182380D01*
X127936666Y-77230000D01*
X127984285Y-77277619D01*
X128031904Y-77372857D01*
X128031904Y-77468095D01*
X127984285Y-77563333D01*
X127936666Y-77610952D01*
X127841428Y-77658571D01*
X127508095Y-77658571D01*
X128508095Y-78182380D02*
X128508095Y-77515714D01*
X128508095Y-77182380D02*
X128460476Y-77230000D01*
X128508095Y-77277619D01*
X128555714Y-77230000D01*
X128508095Y-77182380D01*
X128508095Y-77277619D01*
X129412857Y-77515714D02*
X129412857Y-78325238D01*
X129365238Y-78420476D01*
X129317619Y-78468095D01*
X129222380Y-78515714D01*
X129079523Y-78515714D01*
X128984285Y-78468095D01*
X129412857Y-78134761D02*
X129317619Y-78182380D01*
X129127142Y-78182380D01*
X129031904Y-78134761D01*
X128984285Y-78087142D01*
X128936666Y-77991904D01*
X128936666Y-77706190D01*
X128984285Y-77610952D01*
X129031904Y-77563333D01*
X129127142Y-77515714D01*
X129317619Y-77515714D01*
X129412857Y-77563333D01*
X129746190Y-77182380D02*
X130317619Y-77182380D01*
X130031904Y-78182380D02*
X130031904Y-77182380D01*
X130650952Y-78182380D02*
X130650952Y-77515714D01*
X130650952Y-77706190D02*
X130698571Y-77610952D01*
X130746190Y-77563333D01*
X130841428Y-77515714D01*
X130936666Y-77515714D01*
X131650952Y-78134761D02*
X131555714Y-78182380D01*
X131365238Y-78182380D01*
X131270000Y-78134761D01*
X131222380Y-78039523D01*
X131222380Y-77658571D01*
X131270000Y-77563333D01*
X131365238Y-77515714D01*
X131555714Y-77515714D01*
X131650952Y-77563333D01*
X131698571Y-77658571D01*
X131698571Y-77753809D01*
X131222380Y-77849047D01*
X132508095Y-78134761D02*
X132412857Y-78182380D01*
X132222380Y-78182380D01*
X132127142Y-78134761D01*
X132079523Y-78039523D01*
X132079523Y-77658571D01*
X132127142Y-77563333D01*
X132222380Y-77515714D01*
X132412857Y-77515714D01*
X132508095Y-77563333D01*
X132555714Y-77658571D01*
X132555714Y-77753809D01*
X132079523Y-77849047D01*
X132841428Y-77182380D02*
X133412857Y-77182380D01*
X133127142Y-78182380D02*
X133127142Y-77182380D01*
X134127142Y-78134761D02*
X134031904Y-78182380D01*
X133841428Y-78182380D01*
X133746190Y-78134761D01*
X133698571Y-78039523D01*
X133698571Y-77658571D01*
X133746190Y-77563333D01*
X133841428Y-77515714D01*
X134031904Y-77515714D01*
X134127142Y-77563333D01*
X134174761Y-77658571D01*
X134174761Y-77753809D01*
X133698571Y-77849047D01*
X135031904Y-78134761D02*
X134936666Y-78182380D01*
X134746190Y-78182380D01*
X134650952Y-78134761D01*
X134603333Y-78087142D01*
X134555714Y-77991904D01*
X134555714Y-77706190D01*
X134603333Y-77610952D01*
X134650952Y-77563333D01*
X134746190Y-77515714D01*
X134936666Y-77515714D01*
X135031904Y-77563333D01*
X135460476Y-78182380D02*
X135460476Y-77182380D01*
X135889047Y-78182380D02*
X135889047Y-77658571D01*
X135841428Y-77563333D01*
X135746190Y-77515714D01*
X135603333Y-77515714D01*
X135508095Y-77563333D01*
X135460476Y-77610952D01*
X121475238Y-79817619D02*
X121475238Y-80817619D01*
X121237142Y-80817619D01*
X121094285Y-80770000D01*
X120999047Y-80674761D01*
X120951428Y-80579523D01*
X120903809Y-80389047D01*
X120903809Y-80246190D01*
X120951428Y-80055714D01*
X120999047Y-79960476D01*
X121094285Y-79865238D01*
X121237142Y-79817619D01*
X121475238Y-79817619D01*
X120475238Y-79817619D02*
X120475238Y-80817619D01*
X120046666Y-80103333D02*
X119570476Y-80103333D01*
X120141904Y-79817619D02*
X119808571Y-80817619D01*
X119475238Y-79817619D01*
X118618095Y-80770000D02*
X118713333Y-80817619D01*
X118856190Y-80817619D01*
X118999047Y-80770000D01*
X119094285Y-80674761D01*
X119141904Y-80579523D01*
X119189523Y-80389047D01*
X119189523Y-80246190D01*
X119141904Y-80055714D01*
X119094285Y-79960476D01*
X118999047Y-79865238D01*
X118856190Y-79817619D01*
X118760952Y-79817619D01*
X118618095Y-79865238D01*
X118570476Y-79912857D01*
X118570476Y-80246190D01*
X118760952Y-80246190D01*
X141594880Y-88955595D02*
X140594880Y-88955595D01*
X140594880Y-88717500D01*
X140642500Y-88574642D01*
X140737738Y-88479404D01*
X140832976Y-88431785D01*
X141023452Y-88384166D01*
X141166309Y-88384166D01*
X141356785Y-88431785D01*
X141452023Y-88479404D01*
X141547261Y-88574642D01*
X141594880Y-88717500D01*
X141594880Y-88955595D01*
X141594880Y-87955595D02*
X140594880Y-87955595D01*
X141594880Y-86907976D02*
X141118690Y-87241309D01*
X141594880Y-87479404D02*
X140594880Y-87479404D01*
X140594880Y-87098452D01*
X140642500Y-87003214D01*
X140690119Y-86955595D01*
X140785357Y-86907976D01*
X140928214Y-86907976D01*
X141023452Y-86955595D01*
X141071071Y-87003214D01*
X141118690Y-87098452D01*
X141118690Y-87479404D01*
X126354880Y-89527023D02*
X125354880Y-89527023D01*
X126069166Y-89193690D01*
X125354880Y-88860357D01*
X126354880Y-88860357D01*
X126307261Y-88431785D02*
X126354880Y-88288928D01*
X126354880Y-88050833D01*
X126307261Y-87955595D01*
X126259642Y-87907976D01*
X126164404Y-87860357D01*
X126069166Y-87860357D01*
X125973928Y-87907976D01*
X125926309Y-87955595D01*
X125878690Y-88050833D01*
X125831071Y-88241309D01*
X125783452Y-88336547D01*
X125735833Y-88384166D01*
X125640595Y-88431785D01*
X125545357Y-88431785D01*
X125450119Y-88384166D01*
X125402500Y-88336547D01*
X125354880Y-88241309D01*
X125354880Y-88003214D01*
X125402500Y-87860357D01*
X126354880Y-86907976D02*
X126354880Y-87479404D01*
X126354880Y-87193690D02*
X125354880Y-87193690D01*
X125497738Y-87288928D01*
X125592976Y-87384166D01*
X125640595Y-87479404D01*
X122814880Y-71187261D02*
X123814880Y-70853928D01*
X122814880Y-70520595D01*
X123814880Y-70187261D02*
X122814880Y-70187261D01*
X123529166Y-69853928D01*
X122814880Y-69520595D01*
X123814880Y-69520595D01*
X133974880Y-89527023D02*
X132974880Y-89527023D01*
X132974880Y-89146071D01*
X133022500Y-89050833D01*
X133070119Y-89003214D01*
X133165357Y-88955595D01*
X133308214Y-88955595D01*
X133403452Y-89003214D01*
X133451071Y-89050833D01*
X133498690Y-89146071D01*
X133498690Y-89527023D01*
X133974880Y-88527023D02*
X132974880Y-88527023D01*
X132974880Y-88288928D01*
X133022500Y-88146071D01*
X133117738Y-88050833D01*
X133212976Y-88003214D01*
X133403452Y-87955595D01*
X133546309Y-87955595D01*
X133736785Y-88003214D01*
X133832023Y-88050833D01*
X133927261Y-88146071D01*
X133974880Y-88288928D01*
X133974880Y-88527023D01*
X133974880Y-87527023D02*
X132974880Y-87527023D01*
X133974880Y-86955595D01*
X132974880Y-86955595D01*
X121903809Y-83357619D02*
X121570476Y-82357619D01*
X121237142Y-83357619D01*
X120332380Y-82357619D02*
X120665714Y-82833809D01*
X120903809Y-82357619D02*
X120903809Y-83357619D01*
X120522857Y-83357619D01*
X120427619Y-83310000D01*
X120380000Y-83262380D01*
X120332380Y-83167142D01*
X120332380Y-83024285D01*
X120380000Y-82929047D01*
X120427619Y-82881428D01*
X120522857Y-82833809D01*
X120903809Y-82833809D01*
X119903809Y-82881428D02*
X119570476Y-82881428D01*
X119427619Y-82357619D02*
X119903809Y-82357619D01*
X119903809Y-83357619D01*
X119427619Y-83357619D01*
X118665714Y-82881428D02*
X118999047Y-82881428D01*
X118999047Y-82357619D02*
X118999047Y-83357619D01*
X118522857Y-83357619D01*
X125402500Y-70520595D02*
X125354880Y-70615833D01*
X125354880Y-70758690D01*
X125402500Y-70901547D01*
X125497738Y-70996785D01*
X125592976Y-71044404D01*
X125783452Y-71092023D01*
X125926309Y-71092023D01*
X126116785Y-71044404D01*
X126212023Y-70996785D01*
X126307261Y-70901547D01*
X126354880Y-70758690D01*
X126354880Y-70663452D01*
X126307261Y-70520595D01*
X126259642Y-70472976D01*
X125926309Y-70472976D01*
X125926309Y-70663452D01*
X126354880Y-70044404D02*
X125354880Y-70044404D01*
X126354880Y-69472976D01*
X125354880Y-69472976D01*
X126354880Y-68996785D02*
X125354880Y-68996785D01*
X125354880Y-68758690D01*
X125402500Y-68615833D01*
X125497738Y-68520595D01*
X125592976Y-68472976D01*
X125783452Y-68425357D01*
X125926309Y-68425357D01*
X126116785Y-68472976D01*
X126212023Y-68520595D01*
X126307261Y-68615833D01*
X126354880Y-68758690D01*
X126354880Y-68996785D01*
X139007261Y-90142023D02*
X139054880Y-89999166D01*
X139054880Y-89761071D01*
X139007261Y-89665833D01*
X138959642Y-89618214D01*
X138864404Y-89570595D01*
X138769166Y-89570595D01*
X138673928Y-89618214D01*
X138626309Y-89665833D01*
X138578690Y-89761071D01*
X138531071Y-89951547D01*
X138483452Y-90046785D01*
X138435833Y-90094404D01*
X138340595Y-90142023D01*
X138245357Y-90142023D01*
X138150119Y-90094404D01*
X138102500Y-90046785D01*
X138054880Y-89951547D01*
X138054880Y-89713452D01*
X138102500Y-89570595D01*
X138054880Y-89284880D02*
X138054880Y-88713452D01*
X139054880Y-88999166D02*
X138054880Y-88999166D01*
X138531071Y-88380119D02*
X138531071Y-88046785D01*
X139054880Y-87903928D02*
X139054880Y-88380119D01*
X138054880Y-88380119D01*
X138054880Y-87903928D01*
X139054880Y-87475357D02*
X138054880Y-87475357D01*
X138054880Y-87094404D01*
X138102500Y-86999166D01*
X138150119Y-86951547D01*
X138245357Y-86903928D01*
X138388214Y-86903928D01*
X138483452Y-86951547D01*
X138531071Y-86999166D01*
X138578690Y-87094404D01*
X138578690Y-87475357D01*
X126095238Y-79722380D02*
X126666666Y-79722380D01*
X126380952Y-80722380D02*
X126380952Y-79722380D01*
X127000000Y-80722380D02*
X127000000Y-79722380D01*
X127333333Y-80436666D01*
X127666666Y-79722380D01*
X127666666Y-80722380D01*
X128714285Y-80627142D02*
X128666666Y-80674761D01*
X128523809Y-80722380D01*
X128428571Y-80722380D01*
X128285714Y-80674761D01*
X128190476Y-80579523D01*
X128142857Y-80484285D01*
X128095238Y-80293809D01*
X128095238Y-80150952D01*
X128142857Y-79960476D01*
X128190476Y-79865238D01*
X128285714Y-79770000D01*
X128428571Y-79722380D01*
X128523809Y-79722380D01*
X128666666Y-79770000D01*
X128714285Y-79817619D01*
X129095238Y-79817619D02*
X129142857Y-79770000D01*
X129238095Y-79722380D01*
X129476190Y-79722380D01*
X129571428Y-79770000D01*
X129619047Y-79817619D01*
X129666666Y-79912857D01*
X129666666Y-80008095D01*
X129619047Y-80150952D01*
X129047619Y-80722380D01*
X129666666Y-80722380D01*
X130047619Y-79817619D02*
X130095238Y-79770000D01*
X130190476Y-79722380D01*
X130428571Y-79722380D01*
X130523809Y-79770000D01*
X130571428Y-79817619D01*
X130619047Y-79912857D01*
X130619047Y-80008095D01*
X130571428Y-80150952D01*
X130000000Y-80722380D01*
X130619047Y-80722380D01*
X131238095Y-79722380D02*
X131333333Y-79722380D01*
X131428571Y-79770000D01*
X131476190Y-79817619D01*
X131523809Y-79912857D01*
X131571428Y-80103333D01*
X131571428Y-80341428D01*
X131523809Y-80531904D01*
X131476190Y-80627142D01*
X131428571Y-80674761D01*
X131333333Y-80722380D01*
X131238095Y-80722380D01*
X131142857Y-80674761D01*
X131095238Y-80627142D01*
X131047619Y-80531904D01*
X131000000Y-80341428D01*
X131000000Y-80103333D01*
X131047619Y-79912857D01*
X131095238Y-79817619D01*
X131142857Y-79770000D01*
X131238095Y-79722380D01*
X132047619Y-80722380D02*
X132238095Y-80722380D01*
X132333333Y-80674761D01*
X132380952Y-80627142D01*
X132476190Y-80484285D01*
X132523809Y-80293809D01*
X132523809Y-79912857D01*
X132476190Y-79817619D01*
X132428571Y-79770000D01*
X132333333Y-79722380D01*
X132142857Y-79722380D01*
X132047619Y-79770000D01*
X132000000Y-79817619D01*
X131952380Y-79912857D01*
X131952380Y-80150952D01*
X132000000Y-80246190D01*
X132047619Y-80293809D01*
X132142857Y-80341428D01*
X132333333Y-80341428D01*
X132428571Y-80293809D01*
X132476190Y-80246190D01*
X132523809Y-80150952D01*
X133619047Y-80055714D02*
X133857142Y-80722380D01*
X134095238Y-80055714D01*
X135000000Y-80722380D02*
X134428571Y-80722380D01*
X134714285Y-80722380D02*
X134714285Y-79722380D01*
X134619047Y-79865238D01*
X134523809Y-79960476D01*
X134428571Y-80008095D01*
X135428571Y-80627142D02*
X135476190Y-80674761D01*
X135428571Y-80722380D01*
X135380952Y-80674761D01*
X135428571Y-80627142D01*
X135428571Y-80722380D01*
X135857142Y-79817619D02*
X135904761Y-79770000D01*
X136000000Y-79722380D01*
X136238095Y-79722380D01*
X136333333Y-79770000D01*
X136380952Y-79817619D01*
X136428571Y-79912857D01*
X136428571Y-80008095D01*
X136380952Y-80150952D01*
X135809523Y-80722380D01*
X136428571Y-80722380D01*
X133451071Y-70711071D02*
X133498690Y-70568214D01*
X133546309Y-70520595D01*
X133641547Y-70472976D01*
X133784404Y-70472976D01*
X133879642Y-70520595D01*
X133927261Y-70568214D01*
X133974880Y-70663452D01*
X133974880Y-71044404D01*
X132974880Y-71044404D01*
X132974880Y-70711071D01*
X133022500Y-70615833D01*
X133070119Y-70568214D01*
X133165357Y-70520595D01*
X133260595Y-70520595D01*
X133355833Y-70568214D01*
X133403452Y-70615833D01*
X133451071Y-70711071D01*
X133451071Y-71044404D01*
X133974880Y-69520595D02*
X133974880Y-70092023D01*
X133974880Y-69806309D02*
X132974880Y-69806309D01*
X133117738Y-69901547D01*
X133212976Y-69996785D01*
X133260595Y-70092023D01*
X131149166Y-71092023D02*
X131149166Y-70615833D01*
X131434880Y-71187261D02*
X130434880Y-70853928D01*
X131434880Y-70520595D01*
X130530119Y-70234880D02*
X130482500Y-70187261D01*
X130434880Y-70092023D01*
X130434880Y-69853928D01*
X130482500Y-69758690D01*
X130530119Y-69711071D01*
X130625357Y-69663452D01*
X130720595Y-69663452D01*
X130863452Y-69711071D01*
X131434880Y-70282500D01*
X131434880Y-69663452D01*
X131434880Y-89527023D02*
X130434880Y-89527023D01*
X130434880Y-89146071D01*
X130482500Y-89050833D01*
X130530119Y-89003214D01*
X130625357Y-88955595D01*
X130768214Y-88955595D01*
X130863452Y-89003214D01*
X130911071Y-89050833D01*
X130958690Y-89146071D01*
X130958690Y-89527023D01*
X131434880Y-88527023D02*
X130434880Y-88527023D01*
X130434880Y-88288928D01*
X130482500Y-88146071D01*
X130577738Y-88050833D01*
X130672976Y-88003214D01*
X130863452Y-87955595D01*
X131006309Y-87955595D01*
X131196785Y-88003214D01*
X131292023Y-88050833D01*
X131387261Y-88146071D01*
X131434880Y-88288928D01*
X131434880Y-88527023D01*
X131434880Y-87527023D02*
X130434880Y-87527023D01*
X131434880Y-86955595D01*
X130434880Y-86955595D01*
%TO.C,SW1*%
X123666666Y-116154761D02*
X123809523Y-116202380D01*
X124047619Y-116202380D01*
X124142857Y-116154761D01*
X124190476Y-116107142D01*
X124238095Y-116011904D01*
X124238095Y-115916666D01*
X124190476Y-115821428D01*
X124142857Y-115773809D01*
X124047619Y-115726190D01*
X123857142Y-115678571D01*
X123761904Y-115630952D01*
X123714285Y-115583333D01*
X123666666Y-115488095D01*
X123666666Y-115392857D01*
X123714285Y-115297619D01*
X123761904Y-115250000D01*
X123857142Y-115202380D01*
X124095238Y-115202380D01*
X124238095Y-115250000D01*
X124571428Y-115202380D02*
X124809523Y-116202380D01*
X125000000Y-115488095D01*
X125190476Y-116202380D01*
X125428571Y-115202380D01*
X126333333Y-116202380D02*
X125761904Y-116202380D01*
X126047619Y-116202380D02*
X126047619Y-115202380D01*
X125952380Y-115345238D01*
X125857142Y-115440476D01*
X125761904Y-115488095D01*
X123738095Y-124902380D02*
X123404761Y-124426190D01*
X123166666Y-124902380D02*
X123166666Y-123902380D01*
X123547619Y-123902380D01*
X123642857Y-123950000D01*
X123690476Y-123997619D01*
X123738095Y-124092857D01*
X123738095Y-124235714D01*
X123690476Y-124330952D01*
X123642857Y-124378571D01*
X123547619Y-124426190D01*
X123166666Y-124426190D01*
X124547619Y-124854761D02*
X124452380Y-124902380D01*
X124261904Y-124902380D01*
X124166666Y-124854761D01*
X124119047Y-124759523D01*
X124119047Y-124378571D01*
X124166666Y-124283333D01*
X124261904Y-124235714D01*
X124452380Y-124235714D01*
X124547619Y-124283333D01*
X124595238Y-124378571D01*
X124595238Y-124473809D01*
X124119047Y-124569047D01*
X125023809Y-124902380D02*
X125023809Y-123902380D01*
X125023809Y-124283333D02*
X125119047Y-124235714D01*
X125309523Y-124235714D01*
X125404761Y-124283333D01*
X125452380Y-124330952D01*
X125500000Y-124426190D01*
X125500000Y-124711904D01*
X125452380Y-124807142D01*
X125404761Y-124854761D01*
X125309523Y-124902380D01*
X125119047Y-124902380D01*
X125023809Y-124854761D01*
X126071428Y-124902380D02*
X125976190Y-124854761D01*
X125928571Y-124807142D01*
X125880952Y-124711904D01*
X125880952Y-124426190D01*
X125928571Y-124330952D01*
X125976190Y-124283333D01*
X126071428Y-124235714D01*
X126214285Y-124235714D01*
X126309523Y-124283333D01*
X126357142Y-124330952D01*
X126404761Y-124426190D01*
X126404761Y-124711904D01*
X126357142Y-124807142D01*
X126309523Y-124854761D01*
X126214285Y-124902380D01*
X126071428Y-124902380D01*
X126976190Y-124902380D02*
X126880952Y-124854761D01*
X126833333Y-124807142D01*
X126785714Y-124711904D01*
X126785714Y-124426190D01*
X126833333Y-124330952D01*
X126880952Y-124283333D01*
X126976190Y-124235714D01*
X127119047Y-124235714D01*
X127214285Y-124283333D01*
X127261904Y-124330952D01*
X127309523Y-124426190D01*
X127309523Y-124711904D01*
X127261904Y-124807142D01*
X127214285Y-124854761D01*
X127119047Y-124902380D01*
X126976190Y-124902380D01*
X127595238Y-124235714D02*
X127976190Y-124235714D01*
X127738095Y-123902380D02*
X127738095Y-124759523D01*
X127785714Y-124854761D01*
X127880952Y-124902380D01*
X127976190Y-124902380D01*
%TO.C,J3*%
X191436666Y-140422380D02*
X191436666Y-141136666D01*
X191389047Y-141279523D01*
X191293809Y-141374761D01*
X191150952Y-141422380D01*
X191055714Y-141422380D01*
X191817619Y-140422380D02*
X192436666Y-140422380D01*
X192103333Y-140803333D01*
X192246190Y-140803333D01*
X192341428Y-140850952D01*
X192389047Y-140898571D01*
X192436666Y-140993809D01*
X192436666Y-141231904D01*
X192389047Y-141327142D01*
X192341428Y-141374761D01*
X192246190Y-141422380D01*
X191960476Y-141422380D01*
X191865238Y-141374761D01*
X191817619Y-141327142D01*
X188317619Y-142378571D02*
X188650952Y-142378571D01*
X188793809Y-142902380D02*
X188317619Y-142902380D01*
X188317619Y-141902380D01*
X188793809Y-141902380D01*
X189127142Y-142902380D02*
X189650952Y-142235714D01*
X189127142Y-142235714D02*
X189650952Y-142902380D01*
X189889047Y-142235714D02*
X190270000Y-142235714D01*
X190031904Y-141902380D02*
X190031904Y-142759523D01*
X190079523Y-142854761D01*
X190174761Y-142902380D01*
X190270000Y-142902380D01*
X191365238Y-142235714D02*
X191365238Y-143235714D01*
X191365238Y-142283333D02*
X191460476Y-142235714D01*
X191650952Y-142235714D01*
X191746190Y-142283333D01*
X191793809Y-142330952D01*
X191841428Y-142426190D01*
X191841428Y-142711904D01*
X191793809Y-142807142D01*
X191746190Y-142854761D01*
X191650952Y-142902380D01*
X191460476Y-142902380D01*
X191365238Y-142854761D01*
X192412857Y-142902380D02*
X192317619Y-142854761D01*
X192270000Y-142807142D01*
X192222380Y-142711904D01*
X192222380Y-142426190D01*
X192270000Y-142330952D01*
X192317619Y-142283333D01*
X192412857Y-142235714D01*
X192555714Y-142235714D01*
X192650952Y-142283333D01*
X192698571Y-142330952D01*
X192746190Y-142426190D01*
X192746190Y-142711904D01*
X192698571Y-142807142D01*
X192650952Y-142854761D01*
X192555714Y-142902380D01*
X192412857Y-142902380D01*
X193079523Y-142235714D02*
X193270000Y-142902380D01*
X193460476Y-142426190D01*
X193650952Y-142902380D01*
X193841428Y-142235714D01*
X194603333Y-142854761D02*
X194508095Y-142902380D01*
X194317619Y-142902380D01*
X194222380Y-142854761D01*
X194174761Y-142759523D01*
X194174761Y-142378571D01*
X194222380Y-142283333D01*
X194317619Y-142235714D01*
X194508095Y-142235714D01*
X194603333Y-142283333D01*
X194650952Y-142378571D01*
X194650952Y-142473809D01*
X194174761Y-142569047D01*
X195079523Y-142902380D02*
X195079523Y-142235714D01*
X195079523Y-142426190D02*
X195127142Y-142330952D01*
X195174761Y-142283333D01*
X195270000Y-142235714D01*
X195365238Y-142235714D01*
X188152738Y-146772380D02*
X188486071Y-147772380D01*
X188819404Y-146772380D01*
X189724166Y-147677142D02*
X189676547Y-147724761D01*
X189533690Y-147772380D01*
X189438452Y-147772380D01*
X189295595Y-147724761D01*
X189200357Y-147629523D01*
X189152738Y-147534285D01*
X189105119Y-147343809D01*
X189105119Y-147200952D01*
X189152738Y-147010476D01*
X189200357Y-146915238D01*
X189295595Y-146820000D01*
X189438452Y-146772380D01*
X189533690Y-146772380D01*
X189676547Y-146820000D01*
X189724166Y-146867619D01*
X190724166Y-147677142D02*
X190676547Y-147724761D01*
X190533690Y-147772380D01*
X190438452Y-147772380D01*
X190295595Y-147724761D01*
X190200357Y-147629523D01*
X190152738Y-147534285D01*
X190105119Y-147343809D01*
X190105119Y-147200952D01*
X190152738Y-147010476D01*
X190200357Y-146915238D01*
X190295595Y-146820000D01*
X190438452Y-146772380D01*
X190533690Y-146772380D01*
X190676547Y-146820000D01*
X190724166Y-146867619D01*
X188468095Y-144250000D02*
X188372857Y-144202380D01*
X188230000Y-144202380D01*
X188087142Y-144250000D01*
X187991904Y-144345238D01*
X187944285Y-144440476D01*
X187896666Y-144630952D01*
X187896666Y-144773809D01*
X187944285Y-144964285D01*
X187991904Y-145059523D01*
X188087142Y-145154761D01*
X188230000Y-145202380D01*
X188325238Y-145202380D01*
X188468095Y-145154761D01*
X188515714Y-145107142D01*
X188515714Y-144773809D01*
X188325238Y-144773809D01*
X188944285Y-145202380D02*
X188944285Y-144202380D01*
X189515714Y-145202380D01*
X189515714Y-144202380D01*
X189991904Y-145202380D02*
X189991904Y-144202380D01*
X190230000Y-144202380D01*
X190372857Y-144250000D01*
X190468095Y-144345238D01*
X190515714Y-144440476D01*
X190563333Y-144630952D01*
X190563333Y-144773809D01*
X190515714Y-144964285D01*
X190468095Y-145059523D01*
X190372857Y-145154761D01*
X190230000Y-145202380D01*
X189991904Y-145202380D01*
D11*
%TO.C,D1*%
X184425000Y-119995000D02*
X183960000Y-119995000D01*
X181800000Y-119995000D02*
X181335000Y-119995000D01*
X181335170Y-119995000D02*
G75*
G03*
X181799173Y-125342815I1544830J-2560000D01*
G01*
X183960429Y-124809479D02*
G75*
G03*
X183960000Y-120300316I-1080429J2254479D01*
G01*
X181800000Y-120300316D02*
G75*
G03*
X181799571Y-124809479I1080000J-2254684D01*
G01*
X183960827Y-125342815D02*
G75*
G03*
X184424830Y-119995000I-1080827J2787815D01*
G01*
%TO.C,Q1*%
X185730000Y-91390000D02*
X187240000Y-91390000D01*
X185730000Y-94660000D02*
X190371000Y-94660000D01*
X190371000Y-94660000D02*
X190371000Y-84420000D01*
X187240000Y-94660000D02*
X187240000Y-84420000D01*
X185730000Y-84420000D02*
X190371000Y-84420000D01*
X185730000Y-94660000D02*
X185730000Y-84420000D01*
X185730000Y-87689000D02*
X187240000Y-87689000D01*
%TO.C,R1*%
X172180000Y-137260000D02*
X172180000Y-134520000D01*
X165640000Y-137260000D02*
X172180000Y-137260000D01*
X164870000Y-135890000D02*
X165640000Y-135890000D01*
X172950000Y-135890000D02*
X172180000Y-135890000D01*
X172180000Y-134520000D02*
X165640000Y-134520000D01*
X165640000Y-134520000D02*
X165640000Y-137260000D01*
%TO.C,R5*%
X185730000Y-70630000D02*
X185730000Y-73370000D01*
X192270000Y-70630000D02*
X185730000Y-70630000D01*
X193040000Y-72000000D02*
X192270000Y-72000000D01*
X185730000Y-73370000D02*
X192270000Y-73370000D01*
X192270000Y-73370000D02*
X192270000Y-70630000D01*
X184960000Y-72000000D02*
X185730000Y-72000000D01*
%TO.C,J1*%
X166750000Y-60645000D02*
X166750000Y-61395000D01*
X168550000Y-59145000D02*
X167800000Y-59145000D01*
X156700000Y-59145000D02*
X156700000Y-56195000D01*
X159250000Y-60645000D02*
X159250000Y-61395000D01*
X157750000Y-60645000D02*
X155950000Y-60645000D01*
X155940000Y-55435000D02*
X155940000Y-61405000D01*
X165250000Y-60645000D02*
X159250000Y-60645000D01*
X168550000Y-60645000D02*
X166750000Y-60645000D01*
X167600000Y-61695000D02*
X168850000Y-61695000D01*
X168560000Y-55435000D02*
X155940000Y-55435000D01*
X168550000Y-61395000D02*
X168550000Y-60645000D01*
X157750000Y-61395000D02*
X157750000Y-60645000D01*
X155940000Y-61405000D02*
X168560000Y-61405000D01*
X156700000Y-56195000D02*
X162250000Y-56195000D01*
X168560000Y-61405000D02*
X168560000Y-55435000D01*
X166750000Y-61395000D02*
X168550000Y-61395000D01*
X159250000Y-61395000D02*
X165250000Y-61395000D01*
X167800000Y-56195000D02*
X162250000Y-56195000D01*
X155950000Y-61395000D02*
X157750000Y-61395000D01*
X167800000Y-59145000D02*
X167800000Y-56195000D01*
X155950000Y-60645000D02*
X155950000Y-61395000D01*
X155950000Y-59145000D02*
X156700000Y-59145000D01*
X165250000Y-61395000D02*
X165250000Y-60645000D01*
X168850000Y-61695000D02*
X168850000Y-60445000D01*
%TO.C,R4*%
X164870000Y-115570000D02*
X165640000Y-115570000D01*
X172950000Y-115570000D02*
X172180000Y-115570000D01*
X165640000Y-114200000D02*
X165640000Y-116940000D01*
X165640000Y-116940000D02*
X172180000Y-116940000D01*
X172180000Y-116940000D02*
X172180000Y-114200000D01*
X172180000Y-114200000D02*
X165640000Y-114200000D01*
%TO.C,Q2*%
X178330000Y-93400000D02*
X174730000Y-93400000D01*
X176530000Y-97850001D02*
G75*
G03*
X178368478Y-93411522I0J2600001D01*
G01*
X174691522Y-93411522D02*
G75*
G03*
X176530000Y-97850000I1838478J-1838478D01*
G01*
%TO.C,R3*%
X165640000Y-123290000D02*
X172180000Y-123290000D01*
X172180000Y-123290000D02*
X172180000Y-120550000D01*
X164870000Y-121920000D02*
X165640000Y-121920000D01*
X165640000Y-120550000D02*
X165640000Y-123290000D01*
X172180000Y-120550000D02*
X165640000Y-120550000D01*
X172950000Y-121920000D02*
X172180000Y-121920000D01*
%TO.C,R7*%
X192270000Y-77630000D02*
X185730000Y-77630000D01*
X184960000Y-79000000D02*
X185730000Y-79000000D01*
X192270000Y-80370000D02*
X192270000Y-77630000D01*
X185730000Y-80370000D02*
X192270000Y-80370000D01*
X193040000Y-79000000D02*
X192270000Y-79000000D01*
X185730000Y-77630000D02*
X185730000Y-80370000D01*
%TO.C,J2*%
X166310000Y-145990000D02*
X167640000Y-145990000D01*
X168910000Y-145990000D02*
X181670000Y-145990000D01*
X166310000Y-147320000D02*
X166310000Y-145990000D01*
X168910000Y-148650000D02*
X181670000Y-148650000D01*
X168910000Y-148650000D02*
X168910000Y-145990000D01*
X181670000Y-148650000D02*
X181670000Y-145990000D01*
%TO.C,SW2*%
X182130000Y-136850000D02*
X183630000Y-136850000D01*
X186130000Y-135600000D02*
X186130000Y-131100000D01*
X179630000Y-131100000D02*
X179630000Y-135600000D01*
X183630000Y-129850000D02*
X182130000Y-129850000D01*
%TO.C,R2*%
X164870000Y-128270000D02*
X165640000Y-128270000D01*
X172950000Y-128270000D02*
X172180000Y-128270000D01*
X172180000Y-126900000D02*
X165640000Y-126900000D01*
X165640000Y-129640000D02*
X172180000Y-129640000D01*
X172180000Y-129640000D02*
X172180000Y-126900000D01*
X165640000Y-126900000D02*
X165640000Y-129640000D01*
%TO.C,J6*%
X107890000Y-147320000D02*
X107890000Y-145990000D01*
X110490000Y-148650000D02*
X110490000Y-145990000D01*
X110490000Y-148650000D02*
X128330000Y-148650000D01*
X110490000Y-145990000D02*
X128330000Y-145990000D01*
X107890000Y-145990000D02*
X109220000Y-145990000D01*
X128330000Y-148650000D02*
X128330000Y-145990000D01*
%TO.C,U2*%
X136820000Y-106860000D02*
X136820000Y-106460000D01*
X136820000Y-127160000D02*
X136820000Y-126760000D01*
X136820000Y-142460000D02*
X136820000Y-142060000D01*
X157820000Y-144960000D02*
X157820000Y-144560000D01*
X136820000Y-134860000D02*
X136820000Y-134460000D01*
X157820000Y-119560000D02*
X157820000Y-119160000D01*
X136820000Y-144960000D02*
X136820000Y-144560000D01*
X157820000Y-122160000D02*
X157820000Y-121760000D01*
X136820000Y-139860000D02*
X136820000Y-139460000D01*
X148820000Y-98960000D02*
X148420000Y-98960000D01*
X157820000Y-137360000D02*
X157820000Y-136960000D01*
X136820000Y-149960000D02*
X136820000Y-149660000D01*
X136820000Y-101760000D02*
X136820000Y-101360000D01*
X146220000Y-98960000D02*
X145820000Y-98960000D01*
X157820000Y-101760000D02*
X157820000Y-101360000D01*
X136820000Y-117060000D02*
X136820000Y-116660000D01*
X157820000Y-147560000D02*
X157820000Y-147160000D01*
X136820000Y-122160000D02*
X136820000Y-121760000D01*
X136820000Y-129760000D02*
X136820000Y-129360000D01*
X136820000Y-147560000D02*
X136820000Y-147160000D01*
X151020000Y-98960000D02*
X157820000Y-98960000D01*
X157820000Y-117060000D02*
X157820000Y-116660000D01*
X136820000Y-119560000D02*
X136820000Y-119160000D01*
X157820000Y-132260000D02*
X157820000Y-131860000D01*
X157820000Y-114460000D02*
X157820000Y-114060000D01*
X154813000Y-147293000D02*
X154813000Y-149960000D01*
X157820000Y-104360000D02*
X157820000Y-103960000D01*
X157820000Y-124660000D02*
X157820000Y-124260000D01*
X136820000Y-98960000D02*
X143620000Y-98960000D01*
X136820000Y-124660000D02*
X136820000Y-124260000D01*
X157820000Y-111960000D02*
X157820000Y-111560000D01*
X157820000Y-134860000D02*
X157820000Y-134460000D01*
X136820000Y-132260000D02*
X136820000Y-131860000D01*
X136820000Y-109360000D02*
X136820000Y-108960000D01*
X136820000Y-137360000D02*
X136820000Y-136960000D01*
X157820000Y-149960000D02*
X136820000Y-149960000D01*
X157820000Y-129760000D02*
X157820000Y-129360000D01*
X157820000Y-149960000D02*
X157820000Y-149660000D01*
X157820000Y-147293000D02*
X154813000Y-147293000D01*
X136820000Y-111960000D02*
X136820000Y-111560000D01*
X136820000Y-104360000D02*
X136820000Y-103960000D01*
X136820000Y-114460000D02*
X136820000Y-114060000D01*
X157820000Y-106860000D02*
X157820000Y-106460000D01*
X157820000Y-142460000D02*
X157820000Y-142060000D01*
X157820000Y-139860000D02*
X157820000Y-139460000D01*
X157820000Y-127160000D02*
X157820000Y-126760000D01*
X157820000Y-109360000D02*
X157820000Y-108960000D01*
%TO.C,J5*%
X184890000Y-55450000D02*
X184890000Y-52390000D01*
X184890000Y-52390000D02*
X195110000Y-52390000D01*
X195110000Y-65610000D02*
X192300000Y-65610000D01*
X187700000Y-65610000D02*
X184890000Y-65610000D01*
X191000000Y-65800000D02*
X189000000Y-65800000D01*
X195110000Y-52390000D02*
X195110000Y-55450000D01*
X195110000Y-59550000D02*
X195110000Y-65610000D01*
X184890000Y-65610000D02*
X184890000Y-59550000D01*
%TO.C,R6*%
X192270000Y-100370000D02*
X192270000Y-97630000D01*
X193040000Y-99000000D02*
X192270000Y-99000000D01*
X192270000Y-97630000D02*
X185730000Y-97630000D01*
X184960000Y-99000000D02*
X185730000Y-99000000D01*
X185730000Y-100370000D02*
X192270000Y-100370000D01*
X185730000Y-97630000D02*
X185730000Y-100370000D01*
%TO.C,J4*%
X127580000Y-60899000D02*
X125780000Y-60899000D01*
X125780000Y-61649000D02*
X127580000Y-61649000D01*
X127580000Y-61649000D02*
X127580000Y-60899000D01*
X125770000Y-61659000D02*
X138390000Y-61659000D01*
X125780000Y-60899000D02*
X125780000Y-61649000D01*
X136580000Y-61649000D02*
X138380000Y-61649000D01*
X125770000Y-55689000D02*
X125770000Y-61659000D01*
X129080000Y-60899000D02*
X129080000Y-61649000D01*
X126530000Y-56449000D02*
X132080000Y-56449000D01*
X137630000Y-59399000D02*
X137630000Y-56449000D01*
X138680000Y-61949000D02*
X138680000Y-60699000D01*
X135080000Y-60899000D02*
X129080000Y-60899000D01*
X138390000Y-61659000D02*
X138390000Y-55689000D01*
X138380000Y-59399000D02*
X137630000Y-59399000D01*
X136580000Y-60899000D02*
X136580000Y-61649000D01*
X138380000Y-60899000D02*
X136580000Y-60899000D01*
X137630000Y-56449000D02*
X132080000Y-56449000D01*
X138390000Y-55689000D02*
X125770000Y-55689000D01*
X129080000Y-61649000D02*
X135080000Y-61649000D01*
X126530000Y-59399000D02*
X126530000Y-56449000D01*
X137430000Y-61949000D02*
X138680000Y-61949000D01*
X138380000Y-61649000D02*
X138380000Y-60899000D01*
X125780000Y-59399000D02*
X126530000Y-59399000D01*
X135080000Y-61649000D02*
X135080000Y-60899000D01*
%TO.C,SW1*%
X121500000Y-119250000D02*
X121500000Y-120750000D01*
X128500000Y-120750000D02*
X128500000Y-119250000D01*
X127250000Y-116750000D02*
X122750000Y-116750000D01*
X122750000Y-123250000D02*
X127250000Y-123250000D01*
%TO.C,J3*%
X191710000Y-146050000D02*
X191710000Y-143450000D01*
X194370000Y-146050000D02*
X194370000Y-143450000D01*
X194370000Y-147320000D02*
X194370000Y-148650000D01*
X194370000Y-146050000D02*
X191710000Y-146050000D01*
X194370000Y-143450000D02*
X191710000Y-143450000D01*
X194370000Y-148650000D02*
X193040000Y-148650000D01*
%TD*%
M02*
